<svg width="335" height="329" viewBox="0 0 335 329" fill="none" xmlns="http://www.w3.org/2000/svg">
<g clip-path="url(#clip0_119_63)">
<path d="M56.9543 304.102C120.557 337.296 223.672 337.296 287.298 304.102C350.924 270.908 350.893 217.135 287.298 183.902C223.703 150.67 120.58 150.708 56.9543 183.902C-6.67144 217.096 -6.60211 270.908 56.9543 304.102Z" fill="#F0F0F0"/>
<path d="M111.004 312.861L113.855 314.547C114.902 315.078 116.143 315.078 117.19 314.547L302.86 207.499C303.391 207.322 303.676 206.745 303.499 206.214C303.399 205.914 303.16 205.683 302.86 205.575L300.009 203.897C298.962 203.366 297.721 203.366 296.674 203.897L111.012 310.937C110.48 311.114 110.195 311.691 110.372 312.222C110.473 312.522 110.704 312.761 111.004 312.861Z" fill="#E0E0E0"/>
<path d="M73.4404 291.25L76.2908 292.936C77.3385 293.467 78.5789 293.467 79.6266 292.936L265.288 185.896C265.82 185.719 266.105 185.142 265.928 184.611C265.828 184.311 265.589 184.08 265.288 183.972L262.438 182.286C261.39 181.755 260.15 181.755 259.102 182.286L73.4404 289.326C73.1246 289.703 73.4943 290.565 73.4404 291.25Z" fill="#E0E0E0"/>
<path d="M35.8766 269.639L38.727 271.332C39.7747 271.863 41.0151 271.863 42.0628 271.332L227.725 164.285C228.256 164.108 228.541 163.53 228.364 162.999C228.264 162.699 228.025 162.468 227.725 162.361L224.874 160.675C223.826 160.144 222.586 160.144 221.538 160.675L35.8766 267.715C35.1679 267.715 34.5901 267.969 34.5901 268.677C34.5901 269.385 35.1679 269.962 35.8766 269.639Z" fill="#E0E0E0"/>
<path d="M38.6269 237.03C38.8503 236.937 39.5514 221.83 33.0494 212.933C26.5473 204.036 18.6586 202.997 13.474 205.19C8.28932 207.384 9.36015 212.656 15.7389 215.842C22.1177 219.028 30.0526 224.6 31.9169 234.752L38.6269 237.03Z" fill="#E0E0E0"/>
<path d="M36.2311 232.604C35.9923 232.604 35.792 232.435 35.7534 232.196C33.3113 216.85 24.1977 209.338 16.5478 207.414C16.2859 207.353 16.1318 207.091 16.1935 206.829C16.2628 206.568 16.5247 206.414 16.7867 206.475C24.7678 208.469 34.1896 216.234 36.7087 232.042C36.7472 232.304 36.57 232.55 36.3081 232.597H36.2311V232.604Z" fill="white"/>
<path d="M37.4482 265.082C36.4621 261.096 32.4485 258.471 27.7106 258.04C22.7879 257.594 17.0563 257.117 15.5386 252.961C14.021 248.805 15.5386 243.187 14.8453 240.424C13.9978 237.083 12.719 235.09 6.25552 233.066C0.462258 231.25 -2.74253 225.716 3.09696 223.376C6.77168 221.991 10.7931 221.799 14.5833 222.83C17.0254 223.453 19.3597 224.462 21.8249 225C22.9651 225.239 24.1284 225.401 25.2916 225.477C26.6398 225.57 27.988 225.116 29.3515 225.2C32.8568 225.424 35.9999 227.833 37.6562 230.926C38.8195 233.104 38.5576 235.544 38.4728 237.93C38.3881 240.316 38.2879 242.725 38.2032 245.126C38.0029 250.329 37.8026 255.539 37.61 260.749L37.4482 265.082Z" fill="#E6E6E6"/>
<path d="M37.4482 251.575C37.2402 251.575 37.0631 251.445 36.9937 251.252C32.3714 238.453 13.5896 226.87 7.34178 226.132C7.07214 226.116 6.87184 225.893 6.87955 225.624C6.89496 225.354 7.11837 225.154 7.388 225.162C7.40341 225.162 7.42652 225.162 7.44193 225.162C13.8669 225.931 33.188 237.791 37.9028 250.921C37.9875 251.175 37.8488 251.445 37.6023 251.537C37.5484 251.56 37.4945 251.568 37.4405 251.568L37.4482 251.575Z" fill="white"/>
<path d="M30.7921 241.078C30.7921 241.078 30.7228 241.086 30.6842 241.078C30.43 240.993 30.2914 240.724 30.3761 240.462C32.5794 233.982 31.5009 229.557 31.4931 229.511C31.4238 229.257 31.5779 228.995 31.8321 228.926C32.094 228.856 32.356 229.01 32.4253 229.272C32.4715 229.464 33.5886 234.005 31.2928 240.778C31.2081 240.978 31.0001 241.101 30.7844 241.078H30.7921Z" fill="white"/>
<path d="M36.2311 248.797C36.154 248.797 36.0693 248.782 36 248.743C32.2251 246.696 24.036 248.158 23.9512 248.174C23.6893 248.212 23.4428 248.043 23.3888 247.781C23.3349 247.52 23.5121 247.266 23.774 247.212C24.1284 247.15 32.3869 245.672 36.4622 247.889C36.6933 248.02 36.778 248.312 36.6471 248.551C36.5623 248.705 36.4006 248.797 36.2311 248.797Z" fill="white"/>
<path d="M38.6269 237.03C38.8503 236.937 39.5514 221.83 33.0494 212.933C26.5473 204.036 18.6586 202.997 13.474 205.19C8.28932 207.384 9.36015 212.656 15.7389 215.842C22.1177 219.028 30.0526 224.6 31.9169 234.752L38.6269 237.03Z" fill="#C2C2C2"/>
<g opacity="0.1">
<path d="M38.6269 237.03C38.8503 236.937 39.5514 221.83 33.0494 212.933C26.5473 204.036 18.6586 202.997 13.474 205.19C8.28932 207.384 9.36015 212.656 15.7389 215.842C22.1177 219.028 30.0526 224.6 31.9169 234.752L38.6269 237.03Z" fill="black"/>
</g>
<path d="M36.2311 232.604C35.9923 232.604 35.792 232.435 35.7534 232.196C33.3113 216.85 24.1977 209.338 16.5478 207.414C16.2859 207.353 16.1318 207.091 16.1935 206.829C16.2628 206.568 16.5247 206.414 16.7867 206.475C24.7678 208.469 34.1896 216.234 36.7087 232.042C36.7472 232.304 36.57 232.55 36.3081 232.597H36.2311V232.604Z" fill="white"/>
<path d="M37.4482 265.082C36.4621 261.096 32.4485 258.471 27.7106 258.04C22.7879 257.594 17.0563 257.117 15.5386 252.961C14.021 248.805 15.5386 243.187 14.8453 240.424C13.9978 237.083 12.719 235.09 6.25552 233.066C0.462258 231.25 -2.74253 225.716 3.09696 223.376C6.77168 221.991 10.7931 221.799 14.5833 222.83C17.0254 223.453 19.3597 224.462 21.8249 225C22.9651 225.239 24.1284 225.401 25.2916 225.477C26.6398 225.57 27.988 225.116 29.3515 225.2C32.8568 225.424 35.9999 227.833 37.6562 230.926C38.8195 233.104 38.5576 235.544 38.4728 237.93C38.3881 240.316 38.2879 242.725 38.2032 245.126C38.0029 250.329 37.8026 255.539 37.61 260.749L37.4482 265.082Z" fill="#C2C2C2"/>
<path d="M37.4482 251.575C37.2402 251.575 37.0631 251.445 36.9937 251.252C32.3714 238.453 13.5896 226.87 7.34178 226.132C7.07214 226.116 6.87184 225.893 6.87955 225.624C6.89496 225.354 7.11837 225.154 7.388 225.162C7.40341 225.162 7.42652 225.162 7.44193 225.162C13.8669 225.931 33.188 237.791 37.9028 250.921C37.9875 251.175 37.8488 251.445 37.6023 251.537C37.5484 251.56 37.4945 251.568 37.4405 251.568L37.4482 251.575Z" fill="white"/>
<path d="M30.7921 241.078C30.7921 241.078 30.7228 241.086 30.6842 241.078C30.43 240.993 30.2914 240.724 30.3761 240.462C32.5794 233.982 31.5009 229.557 31.4931 229.511C31.4238 229.257 31.5779 228.995 31.8321 228.926C32.094 228.856 32.356 229.01 32.4253 229.272C32.4715 229.464 33.5886 234.005 31.2928 240.778C31.2081 240.978 31.0001 241.101 30.7844 241.078H30.7921Z" fill="white"/>
<path d="M36.2311 248.797C36.154 248.797 36.0693 248.782 36 248.743C32.2251 246.696 24.036 248.158 23.9512 248.174C23.6893 248.212 23.4428 248.043 23.3888 247.781C23.3349 247.52 23.5121 247.266 23.774 247.212C24.1284 247.15 32.3869 245.672 36.4622 247.889C36.6933 248.02 36.778 248.312 36.6471 248.551C36.5623 248.705 36.4006 248.797 36.2311 248.797Z" fill="white"/>
<path d="M39.1201 269.338C38.1879 268.692 37.6179 267.645 37.5793 266.514V107.971C37.641 106.801 38.265 105.723 39.2511 105.084L220.514 0.507633C221.993 -0.39283 223.919 0.0689457 224.82 1.54663C225.136 2.06228 225.298 2.66259 225.283 3.27059V161.814C225.221 162.983 224.597 164.061 223.611 164.7L42.3557 269.277C41.3465 269.815 40.1447 269.831 39.1201 269.338Z" fill="#C2C2C2"/>
<path opacity="0.4" d="M225.282 3.00128C225.167 2.1393 224.466 1.82375 223.634 2.30862L42.3556 106.862C41.8625 107.17 41.4542 107.601 41.1615 108.109L38.08 106.301C38.365 105.793 38.7656 105.369 39.2586 105.061L220.514 0.507691C221.931 -0.431253 223.85 -0.0387438 224.782 1.38507C225.098 1.86993 225.275 2.42406 225.29 3.00128H225.282Z" fill="white"/>
<path d="M42.0397 269.423H41.9704C41.9165 269.454 41.8625 269.469 41.8086 269.484L41.6853 269.523C41.6083 269.546 41.5313 269.569 41.4542 269.577C41.4003 269.584 41.3541 269.584 41.3001 269.577H41.0459C40.3911 269.669 39.7209 269.554 39.1277 269.246C38.1955 268.607 37.6177 267.553 37.5869 266.421V127.681L40.7224 129.489V268.299C40.7224 269.069 41.0998 269.492 41.6468 269.492C41.7239 269.5 41.7932 269.5 41.8702 269.492H41.9087C41.955 269.477 42.0012 269.454 42.0397 269.423Z" fill="#F0F0F0"/>
<path opacity="0.1" d="M41.1614 108.109C40.861 108.602 40.6915 109.171 40.6761 109.749V129.49L37.5406 127.681V107.948C37.5406 107.879 37.5406 107.817 37.5406 107.748C37.5561 107.609 37.5792 107.471 37.61 107.332C37.7024 106.97 37.8411 106.624 38.026 106.301L41.1614 108.109Z" fill="black"/>
<path d="M225.282 3.27045V12.175L92.4225 88.8144C91.5058 89.3455 90.7585 88.9145 90.7585 87.8524V84.4814C90.7585 83.4194 89.9881 82.9884 89.0868 83.5194L48.6187 106.862C47.6326 107.501 47.0086 108.578 46.947 109.756V113.127C46.8853 114.297 46.2613 115.367 45.2829 116.013L40.6606 118.661V109.756C40.7223 108.586 41.3463 107.516 42.3247 106.87L223.641 2.30841C224.558 1.77737 225.282 2.20836 225.282 3.27045Z" fill="#C2C2C2"/>
<path d="M225.282 161.829C225.221 162.999 224.597 164.077 223.611 164.715L42.3556 269.277C41.4388 269.808 40.6915 269.377 40.6915 268.315V118.653L45.3138 116.006C46.2306 115.475 47.7251 107.394 48.6496 106.862L88.4397 83.9122C89.3642 83.3811 91.5212 89.3458 92.4534 88.8147L225.282 12.1753V161.829Z" fill="#FAFAFA"/>
<path d="M225.282 12.1753V23.0116L40.6915 129.489V118.653L44.1197 116.683C45.0365 116.152 45.3446 115.344 45.7837 113.797L46.947 109.756C47.3091 108.356 47.7174 107.401 48.6187 106.87L88.4089 83.9199C89.3334 83.3888 90.0575 83.3273 90.72 84.4894L92.1452 87.0754C92.6691 87.9835 92.9156 88.5146 93.8478 87.9835L225.282 12.1753Z" fill="#E6E6E6"/>
<path d="M217.486 8.85055C218.649 8.18867 219.589 8.72741 219.589 10.0666C219.512 11.5442 218.726 12.8911 217.486 13.6992C216.331 14.3611 215.391 13.8223 215.391 12.4832C215.468 11.0055 216.246 9.65866 217.486 8.85055Z" fill="white"/>
<path d="M211.399 16.4828C212.218 15.0656 212.218 13.5343 211.4 13.0625C210.582 12.5906 209.255 13.357 208.436 14.7743C207.617 16.1915 207.616 17.7228 208.434 18.1946C209.252 18.6664 210.58 17.9 211.399 16.4828Z" fill="white"/>
<path d="M202.371 17.5551C203.535 16.8933 204.474 17.432 204.474 18.7712C204.397 20.2488 203.612 21.5957 202.371 22.4038C201.216 23.0657 200.276 22.5269 200.276 21.1878C200.353 19.7101 201.131 18.3632 202.371 17.5551Z" fill="white"/>
<path opacity="0.5" d="M48.3414 119.438L45.7221 120.977L46.7236 119.061C46.8084 118.915 46.8084 118.738 46.7236 118.591C46.6466 118.499 46.5156 118.591 46.4309 118.73L45.0134 121.431C45.0134 121.431 44.9826 121.501 44.9749 121.531V121.57C44.9749 121.616 44.9749 121.662 44.9749 121.708C44.9749 121.747 44.9749 121.793 44.9749 121.832C44.9749 121.832 44.998 121.878 45.0134 121.893L46.4386 122.986C46.4771 123.017 46.5387 123.017 46.5772 122.986C46.6466 122.94 46.7005 122.863 46.7313 122.786C46.8084 122.609 46.8007 122.409 46.7313 122.339L45.7298 121.57L48.3491 120.031C48.4801 119.923 48.5571 119.754 48.5571 119.584C48.5571 119.461 48.457 119.369 48.3414 119.438Z" fill="#455A64"/>
<path opacity="0.5" d="M50.5293 118.176L53.1486 116.636L52.1471 115.867C52.0624 115.798 52.0546 115.597 52.1471 115.42C52.2395 115.243 52.3551 115.151 52.4398 115.22L53.865 116.313C53.865 116.313 53.865 116.352 53.865 116.375C53.865 116.413 53.865 116.459 53.865 116.498C53.865 116.544 53.865 116.59 53.865 116.636V116.675C53.865 116.675 53.865 116.744 53.865 116.775L52.4398 119.507C52.409 119.576 52.3628 119.63 52.3012 119.669C52.2549 119.707 52.1933 119.707 52.1471 119.669C52.0624 119.523 52.0624 119.346 52.1471 119.199L53.1486 117.283L50.5293 118.822C50.4137 118.891 50.3213 118.822 50.3213 118.622C50.3213 118.453 50.3983 118.283 50.5293 118.176Z" fill="#455A64"/>
<path opacity="0.5" d="M59.119 110.641C59.119 110.488 58.9649 110.503 58.8955 110.641L58.5335 111.511C57.9249 111.45 57.1853 112.042 56.6846 113.104C56.0374 114.474 56.0374 116.098 56.6846 116.722C57.0081 117.022 57.5012 117.052 57.8555 116.791C58.3794 116.444 58.7877 115.944 59.0342 115.367C59.119 115.228 59.119 115.044 59.0342 114.905C58.9495 114.828 58.8185 114.905 58.7338 115.075C58.2561 116.098 57.4626 116.56 56.9773 116.09C56.492 115.621 56.4997 114.413 56.9773 113.389C57.324 112.619 57.8247 112.227 58.2561 112.204L57.9865 112.866C57.9095 113.035 57.9865 113.197 58.0867 113.12L59.1575 112.427C59.2422 112.35 59.2807 112.242 59.273 112.135L59.119 110.641Z" fill="#455A64"/>
<path opacity="0.5" d="M87.261 88.8609L88.2163 86.8368C88.3241 86.6444 88.3241 86.4058 88.2163 86.2134C88.1007 86.1056 87.9158 86.2134 87.808 86.4443L86.8527 88.4684L85.8974 87.5448C85.7819 87.4371 85.6047 87.5448 85.4891 87.7834C85.3736 87.9758 85.3736 88.2221 85.4891 88.4145L86.4444 89.3304L85.4891 91.3468C85.3736 91.5392 85.3736 91.7855 85.4891 91.9779C85.5508 92.0241 85.6355 92.0241 85.6971 91.9779C85.7896 91.9163 85.8589 91.8239 85.8974 91.7239L86.8527 89.7075L87.808 90.6233C87.8696 90.6695 87.9466 90.6695 88.0083 90.6233C88.1007 90.5618 88.1701 90.4771 88.2163 90.377C88.3241 90.1846 88.3241 89.9384 88.2163 89.746L87.261 88.8609Z" fill="#455A64"/>
<path d="M62.5934 113.127V109.756C62.6627 108.586 63.279 107.517 64.2574 106.87L214.258 20.3948C215.175 19.8638 215.922 20.2948 215.922 21.3569V24.7278C215.861 25.8977 215.237 26.9675 214.258 27.6139L64.2728 114.089C63.3407 114.62 62.5934 114.189 62.5934 113.127Z" fill="#FAFAFA"/>
<path d="M211.986 27.8754C211.939 27.8831 211.885 27.8831 211.839 27.8754C211.647 27.7907 211.546 27.5829 211.585 27.3751L211.747 26.0052L211.107 25.5434C210.992 25.4511 210.922 25.3125 210.93 25.1663C210.93 24.9431 211.038 24.7353 211.207 24.5891L212.186 23.8195C212.186 23.8195 212.217 23.7733 212.224 23.7425L212.664 22.3033C212.725 22.0647 212.918 21.8877 213.157 21.8415C213.318 21.8261 213.472 21.9185 213.542 22.0724L213.912 22.842L214.736 22.5265C214.89 22.4572 215.067 22.5034 215.183 22.6265C215.314 22.8343 215.314 23.096 215.183 23.3038L214.497 24.6199V24.7045L214.659 25.9051C214.682 26.1283 214.605 26.3438 214.451 26.5054C214.351 26.6132 214.212 26.6748 214.066 26.6594L213.295 26.5593L212.432 27.6599C212.332 27.8061 212.163 27.8908 211.986 27.8754ZM211.516 25.097L212.155 25.5588C212.294 25.6743 212.355 25.8513 212.325 26.0206L212.186 26.9287L212.764 26.1591C212.864 26.0129 213.026 25.9359 213.203 25.9436L213.973 26.0437C213.973 26.0437 213.973 25.9898 213.973 25.959L213.804 24.7507C213.788 24.6045 213.819 24.4505 213.888 24.3197L214.512 23.1576L213.873 23.4039C213.673 23.4808 213.449 23.3885 213.365 23.1961L213.08 22.588L212.687 23.8656C212.64 24.0042 212.563 24.135 212.448 24.2274L211.469 24.997C211.469 25.0355 211.485 25.0739 211.516 25.097Z" fill="#E0E0E0"/>
<g opacity="0.5">
<path d="M217.887 19.9872C217.571 19.9718 217.324 19.7024 217.34 19.3868C217.347 19.2098 217.44 19.0482 217.579 18.9405L222.27 16.2314C222.548 16.0698 222.902 16.1698 223.056 16.4469C223.218 16.7239 223.118 17.078 222.848 17.2319L218.156 19.941C218.072 19.9795 217.979 19.9949 217.887 19.9872Z" fill="#455A64"/>
<path d="M217.887 22.6961C217.571 22.6961 217.309 22.4345 217.309 22.1189C217.309 21.9111 217.417 21.7264 217.602 21.6187L222.293 18.9404C222.571 18.7787 222.925 18.8788 223.079 19.1559C223.241 19.4329 223.141 19.787 222.871 19.9409L218.179 22.65C218.087 22.6884 217.987 22.7038 217.887 22.6961Z" fill="#455A64"/>
<path d="M217.887 25.4052C217.571 25.4129 217.301 25.1667 217.286 24.8511C217.286 24.6356 217.386 24.4355 217.579 24.3278L222.27 21.6187C222.54 21.4724 222.879 21.5648 223.041 21.8265C223.179 22.1035 223.087 22.4345 222.825 22.5961L218.133 25.3052C218.056 25.3514 217.972 25.3898 217.887 25.4052Z" fill="#455A64"/>
</g>
<path d="M40.6915 118.653V129.489L37.556 127.681V116.852L40.6915 118.653Z" fill="#E0E0E0"/>
<path d="M48.6187 157.412L82.8313 137.671C83.7481 137.14 84.4954 137.571 84.4954 138.633V235.867C84.4337 237.037 83.8097 238.107 82.8313 238.753L48.611 258.487C47.6943 259.018 46.947 258.587 46.947 257.525V160.298C47.0087 159.128 47.6327 158.05 48.6187 157.412Z" fill="#F0F0F0"/>
<path d="M54.8742 161.021L76.599 148.499C77.5234 147.968 78.2707 148.345 78.2707 149.346C78.1783 150.47 77.5542 151.485 76.599 152.086L54.8742 164.631C53.9498 165.162 53.2025 164.785 53.2025 163.784C53.2873 162.653 53.9113 161.621 54.8742 161.021Z" fill="#E0E0E0"/>
<path d="M53.2025 170.357V171.657C53.2025 172.296 53.6493 172.55 54.204 172.235L55.3365 171.58C55.9297 171.196 56.2994 170.549 56.338 169.849V168.548C56.338 167.909 55.8834 167.655 55.3365 167.971L54.204 168.625C53.6108 169.01 53.241 169.656 53.2025 170.357Z" fill="#FAFAFA"/>
<path d="M59.4657 167.394C59.4657 168.394 60.2361 168.771 61.1297 168.24L76.5373 159.336C77.508 158.735 78.1243 157.704 78.2091 156.565C78.2091 155.572 77.4387 155.195 76.5373 155.726L61.1297 164.631C60.1667 165.239 59.5504 166.262 59.4657 167.394Z" fill="#E0E0E0"/>
<path d="M53.2025 177.583V178.884C53.2025 179.523 53.6493 179.777 54.204 179.461L55.3365 178.807C55.9297 178.422 56.2994 177.776 56.338 177.075V175.775C56.338 175.136 55.8834 174.882 55.3365 175.197L54.204 175.852C53.6108 176.236 53.241 176.883 53.2025 177.583Z" fill="#FAFAFA"/>
<path d="M59.4657 174.62C59.4657 175.621 60.2361 175.998 61.1297 175.467L76.5373 166.562C77.508 165.962 78.1243 164.931 78.2091 163.792C78.2091 162.799 77.4387 162.422 76.5373 162.953L61.1297 171.857C60.1667 172.465 59.5504 173.489 59.4657 174.62Z" fill="#E0E0E0"/>
<path d="M53.2025 184.795V186.095C53.2025 186.734 53.6493 186.996 54.204 186.673L55.3365 186.026C55.922 185.641 56.2994 184.995 56.338 184.294V182.994C56.338 182.355 55.8834 182.093 55.3365 182.417L54.204 183.063C53.6108 183.448 53.241 184.094 53.2025 184.795Z" fill="#FAFAFA"/>
<path d="M59.4657 181.84C59.4657 182.832 60.2361 183.21 61.1297 182.679L76.5373 173.774C77.5003 173.174 78.1243 172.142 78.2091 171.011C78.2091 170.01 77.4387 169.633 76.5373 170.164L61.1297 179.069C60.1667 179.677 59.5504 180.701 59.4657 181.84Z" fill="#E0E0E0"/>
<path d="M53.2025 192.006V193.307C53.2025 193.946 53.6493 194.207 54.204 193.884L55.3365 193.238C55.922 192.853 56.2994 192.206 56.338 191.506V190.205C56.338 189.566 55.8834 189.305 55.3365 189.628L54.204 190.274C53.6108 190.659 53.241 191.306 53.2025 192.006Z" fill="#FAFAFA"/>
<path d="M59.4657 189.028C59.4657 190.02 60.2361 190.398 61.1297 189.866L76.5373 180.962C77.5003 180.362 78.1243 179.33 78.2091 178.199C78.2091 177.198 77.4387 176.821 76.5373 177.352L61.1297 186.257C60.1667 186.865 59.5504 187.889 59.4657 189.028Z" fill="#E0E0E0"/>
<path d="M54.7433 200.795L76.4372 188.258C77.3616 187.727 78.1089 188.104 78.1089 189.105C78.0242 190.236 77.4002 191.267 76.4372 191.868L54.7433 204.42C53.8188 204.951 53.0715 204.574 53.0715 203.574C53.1486 202.435 53.7726 201.403 54.7433 200.795Z" fill="#E0E0E0"/>
<path d="M53.0715 210.138V211.439C53.0715 212.07 53.5184 212.332 54.073 212.016L55.1978 211.362C55.791 210.977 56.1608 210.331 56.1993 209.63V208.33C56.1993 207.691 55.7525 207.437 55.1978 207.753L54.073 208.407C53.4798 208.792 53.1101 209.438 53.0715 210.138Z" fill="#FAFAFA"/>
<path d="M59.327 207.176C59.327 208.176 60.0974 208.553 60.9988 208.022L76.4064 199.11C77.3693 198.51 77.9933 197.478 78.0781 196.347C78.0781 195.346 77.3077 194.969 76.4064 195.5L60.9988 204.413C60.0358 205.013 59.4118 206.044 59.327 207.176Z" fill="#E0E0E0"/>
<path d="M53.0715 217.365V218.666C53.0715 219.305 53.5184 219.559 54.073 219.243L55.1978 218.589C55.791 218.204 56.1608 217.558 56.1993 216.857V215.557C56.1993 214.918 55.7525 214.664 55.1978 214.98L54.073 215.634C53.4798 216.019 53.1101 216.665 53.0715 217.365Z" fill="#FAFAFA"/>
<path d="M59.327 214.425C59.327 215.426 60.0974 215.803 60.9988 215.272L76.4064 206.36C77.4002 205.767 78.0473 204.728 78.1397 203.573C78.1397 202.573 77.3693 202.196 76.468 202.727L61.0604 211.639C60.0666 212.232 59.4195 213.271 59.327 214.425Z" fill="#E0E0E0"/>
<path d="M53.0715 224.577V225.877C53.0715 226.516 53.5184 226.778 54.073 226.455L55.1978 225.808C55.791 225.423 56.1608 224.777 56.1993 224.076V222.768C56.1993 222.137 55.7525 221.875 55.1978 222.198L54.073 222.845C53.4798 223.23 53.1101 223.876 53.0715 224.577Z" fill="#FAFAFA"/>
<path d="M59.327 221.622C59.327 222.614 60.0974 222.991 60.9988 222.46L76.4064 213.556C77.377 212.956 77.9933 211.924 78.0781 210.785C78.0781 209.792 77.3077 209.415 76.4064 209.946L60.9988 218.851C60.0281 219.451 59.4118 220.483 59.327 221.622Z" fill="#E0E0E0"/>
<path d="M53.0715 231.788V233.089C53.0715 233.728 53.5184 233.989 54.073 233.666L55.1978 233.02C55.791 232.635 56.1608 231.988 56.1993 231.288V229.987C56.1993 229.349 55.7525 229.087 55.1978 229.41L54.073 230.057C53.4798 230.442 53.1101 231.088 53.0715 231.788Z" fill="#FAFAFA"/>
<path d="M59.327 228.833C59.327 229.826 60.0974 230.203 60.9988 229.672L76.4064 220.767C77.377 220.167 77.9933 219.136 78.0781 217.997C78.0781 217.004 77.3077 216.627 76.4064 217.158L60.9988 226.062C60.0281 226.663 59.4118 227.694 59.327 228.833Z" fill="#E0E0E0"/>
<path d="M165.863 124.195V125.98C165.863 127.042 166.633 127.473 167.527 126.934L211.138 101.583C212.117 100.936 212.733 99.8589 212.802 98.6891V97.1498C212.802 96.0878 212.032 95.6568 211.13 96.1878L167.504 121.301C166.525 121.947 165.917 123.025 165.863 124.195Z" fill="#E0E0E0"/>
<path d="M167.504 132.137L217.371 103.376C218.287 102.845 219.035 103.222 219.035 104.222C218.95 105.354 218.334 106.377 217.371 106.985L167.504 135.746C166.587 136.277 165.84 135.9 165.84 134.907C165.925 133.768 166.541 132.745 167.504 132.137Z" fill="#EBEBEB"/>
<path d="M167.504 139.356L217.371 110.595C218.287 110.064 219.035 110.441 219.035 111.434C218.95 112.573 218.334 113.597 217.371 114.205L167.504 142.966C166.587 143.497 165.84 143.12 165.84 142.119C165.925 140.988 166.541 139.964 167.504 139.356Z" fill="#EBEBEB"/>
<path d="M167.504 146.567L217.371 117.806C218.287 117.275 219.035 117.653 219.035 118.653C218.95 119.784 218.334 120.808 217.371 121.416L167.504 150.177C166.587 150.708 165.84 150.331 165.84 149.338C165.925 148.199 166.541 147.175 167.504 146.567Z" fill="#EBEBEB"/>
<path d="M167.504 153.786L217.371 125.025C218.287 124.494 219.035 124.872 219.035 125.864C218.95 127.003 218.334 128.027 217.371 128.635L167.504 157.396C166.587 157.927 165.84 157.55 165.84 156.549C165.925 155.418 166.541 154.394 167.504 153.786Z" fill="#EBEBEB"/>
<path d="M167.504 160.998L217.371 132.237C218.287 131.706 219.035 132.083 219.035 133.084C218.95 134.215 218.334 135.239 217.371 135.847L167.504 164.608C166.587 165.139 165.84 164.762 165.84 163.769C165.925 162.63 166.541 161.606 167.504 160.998Z" fill="#EBEBEB"/>
<path d="M167.504 168.248L217.371 139.487C218.287 138.956 219.035 139.333 219.035 140.326C218.95 141.465 218.334 142.488 217.371 143.096L167.504 171.827C166.587 172.358 165.84 171.981 165.84 170.98C165.932 169.856 166.549 168.848 167.504 168.248Z" fill="#EBEBEB"/>
<path d="M167.504 175.428L217.394 146.698C218.31 146.167 219.058 146.544 219.058 147.545C218.973 148.676 218.357 149.707 217.394 150.315L167.504 179.022C166.587 179.553 165.84 179.176 165.84 178.183C165.925 177.052 166.541 176.029 167.504 175.428Z" fill="#EBEBEB"/>
<path d="M167.504 182.648L217.371 153.887C218.287 153.356 219.035 153.733 219.035 154.733C218.95 155.864 218.334 156.888 217.371 157.496L167.504 186.257C166.587 186.788 165.84 186.411 165.84 185.41C165.925 184.279 166.541 183.256 167.504 182.648Z" fill="#EBEBEB"/>
<path d="M92.4226 164.631L157.905 126.842C158.822 126.311 159.569 126.742 159.569 127.804V192.545C159.507 193.715 158.883 194.785 157.905 195.431L92.4226 233.22C91.5058 233.751 90.7585 233.32 90.7585 232.258V167.517C90.8202 166.347 91.4442 165.277 92.4226 164.631Z" fill="#F0F0F0"/>
<path d="M141.311 163.568L130.372 182.917L138.075 192.883L112.653 171.003L90.7509 218.381V232.234C90.7509 233.297 91.5212 233.728 92.4149 233.196L157.897 195.408C158.876 194.761 159.5 193.692 159.561 192.522V180.208L141.311 163.568Z" fill="#E0E0E0"/>
<path d="M143.953 143.62C146.681 142.081 148.884 143.327 148.884 146.468C148.699 149.939 146.865 153.109 143.953 155.003C141.226 156.542 139.023 155.303 139.023 152.163C139.208 148.692 141.041 145.521 143.953 143.62Z" fill="#E0E0E0"/>
<path d="M48.611 132.137L217.394 34.7869C218.31 34.2559 219.058 34.6869 219.058 35.749V53.5735C218.996 54.7433 218.372 55.8208 217.386 56.4596L48.611 153.794C47.6943 154.333 46.947 153.902 46.947 152.832V135.023C47.0087 133.853 47.6327 132.783 48.611 132.137Z" fill="#E0E0E0"/>
<path d="M156.472 79.2022V82.2807C156.472 82.9118 156.927 83.1735 157.474 82.8579L206.539 54.5588V49.1714L157.489 77.4706C156.896 77.8554 156.518 78.4942 156.472 79.2022Z" fill="#FAFAFA"/>
<path d="M211.801 46.1388C212.355 45.8232 212.802 46.0772 212.802 46.716V49.7945C212.764 50.4948 212.394 51.1413 211.801 51.5261L206.539 54.5585V49.1711L211.801 46.1388Z" fill="#EBEBEB"/>
<path d="M211.416 50.3947L210.83 50.2177C210.892 49.9637 210.923 49.7097 210.923 49.4481C210.976 48.9632 210.776 48.486 210.391 48.1936C210.129 48.0396 209.798 48.0396 209.536 48.1936C208.781 48.7785 208.349 49.679 208.365 50.6333C208.311 51.1182 208.511 51.5876 208.896 51.8878C209.012 51.9493 209.143 51.9801 209.274 51.9801C209.443 51.9801 209.605 51.9263 209.752 51.8416C210.198 51.5338 210.53 51.0951 210.699 50.5794L211.285 50.7564H211.354C211.446 50.7564 211.531 50.6949 211.562 50.6025C211.562 50.5101 211.5 50.4255 211.416 50.3947ZM209.536 51.5184C209.42 51.6107 209.259 51.6261 209.12 51.5645C208.873 51.3413 208.758 51.0181 208.796 50.6872C208.789 49.8867 209.135 49.1325 209.752 48.6246C209.829 48.5784 209.921 48.5476 210.013 48.5399C210.067 48.5399 210.129 48.5553 210.175 48.5861C210.414 48.8093 210.53 49.1402 210.491 49.4635C210.499 50.2562 210.144 51.0181 209.528 51.5184H209.536Z" fill="#FAFAFA"/>
<path d="M90.7585 135.023V156.449C90.7585 157.511 91.5289 157.942 92.4226 157.411L217.394 85.3282C218.372 84.6817 218.996 83.6119 219.058 82.4421V61.0234C219.058 59.9613 218.287 59.5303 217.394 60.0613L92.4226 132.137C91.4442 132.783 90.8202 133.853 90.7585 135.023Z" fill="#EBEBEB"/>
<path d="M76.676 290.988C75.7439 290.341 75.1738 289.295 75.1353 288.163V129.62C75.2046 128.45 75.8209 127.381 76.7993 126.734L258.062 22.1573C259.526 21.2414 261.467 21.6801 262.384 23.1424C262.715 23.6734 262.885 24.2968 262.862 24.9279V183.471C262.8 184.641 262.176 185.711 261.198 186.357L79.9039 290.934C78.8947 291.465 77.7006 291.488 76.676 290.988Z" fill="#C2C2C2"/>
<path d="M262.846 24.6507C262.731 23.7887 262.029 23.4732 261.197 23.958L79.9038 128.52C79.4108 128.835 79.0102 129.258 78.7252 129.766L75.5974 127.958C75.8825 127.45 76.2831 127.026 76.7761 126.719L258.07 22.1571C259.487 21.2182 261.405 21.6107 262.338 23.0345C262.654 23.5193 262.831 24.0735 262.846 24.6507Z" fill="#983547"/>
<path d="M79.5881 291.072H79.5187C79.4648 291.103 79.4109 291.118 79.3569 291.134L79.2337 291.172C79.1566 291.195 79.0796 291.219 79.0026 291.226C78.9486 291.234 78.9024 291.234 78.8485 291.226L78.5943 291.265C77.9394 291.357 77.2692 291.242 76.676 290.934C75.7439 290.295 75.1661 289.241 75.1353 288.109V149.338L78.2707 151.147V289.964C78.2707 290.734 78.6482 291.157 79.1952 291.157C79.2722 291.165 79.3415 291.165 79.4186 291.157C79.4802 291.134 79.5341 291.111 79.5881 291.072Z" fill="#F0F0F0"/>
<path d="M78.7252 129.767C78.4247 130.259 78.2552 130.829 78.2398 131.406V151.147L75.1044 149.338V129.605C75.1044 129.536 75.1044 129.474 75.1044 129.405C75.1198 129.266 75.1429 129.128 75.1737 128.989C75.2662 128.628 75.4048 128.281 75.5897 127.958L78.7252 129.767Z" fill="#6F1A29"/>
<path d="M262.862 24.9203V33.8249L129.971 110.472C129.054 111.003 128.307 110.572 128.307 109.51V106.139C128.307 105.077 127.536 104.646 126.635 105.177L86.167 128.52C85.1809 129.159 84.5569 130.236 84.4953 131.406V134.777C84.4337 135.947 83.8097 137.016 82.8313 137.663L78.209 140.31V131.406C78.2706 130.236 78.8946 129.166 79.873 128.52L261.197 23.9583C262.114 23.4273 262.862 23.8583 262.862 24.9203Z" fill="#852536"/>
<path d="M262.869 183.486C262.808 184.656 262.184 185.734 261.198 186.372L79.9039 290.926C78.9871 291.457 78.2399 291.026 78.2399 289.964V140.31L82.8622 137.663C83.7789 137.132 85.2734 129.051 86.1979 128.52L125.988 105.569C126.913 105.038 129.07 111.003 130.002 110.472L262.892 33.8247V183.486H262.869Z" fill="#FAFAFA"/>
<path d="M262.862 33.8247V44.661L78.2399 151.147V140.31L81.6681 138.325C82.5848 137.794 82.893 136.985 83.3321 135.439L84.4954 131.406C84.8651 130.005 85.2657 129.051 86.1671 128.52L125.957 105.569C126.882 105.038 127.606 104.977 128.307 106.139L129.74 108.725C130.256 109.625 130.51 110.156 131.435 109.625L262.862 33.8247Z" fill="#E6E6E6"/>
<path d="M256.518 33.7802C257.337 32.363 257.338 30.8316 256.52 30.3598C255.702 29.888 254.375 30.6544 253.556 32.0716C252.737 33.4888 252.736 35.0202 253.554 35.492C254.372 35.9638 255.699 35.1974 256.518 33.7802Z" fill="white"/>
<path d="M247.485 34.8559C248.64 34.194 249.58 34.7328 249.58 36.0719C249.511 37.5573 248.733 38.9119 247.485 39.72C246.321 40.3818 245.382 39.8431 245.382 38.504C245.451 37.0186 246.237 35.664 247.485 34.8559Z" fill="white"/>
<path d="M239.92 39.2124C241.075 38.5429 242.015 39.0816 242.015 40.4207C241.938 41.8984 241.16 43.2453 239.92 44.0534C238.756 44.723 237.817 44.1842 237.817 42.8451C237.894 41.3674 238.679 40.0205 239.92 39.2124Z" fill="white"/>
<path opacity="0.5" d="M85.8897 141.088L83.2781 142.627L84.2719 140.703C84.3566 140.557 84.3566 140.38 84.2719 140.233C84.1948 140.149 84.0562 140.233 83.9714 140.38L82.5539 143.104C82.5539 143.104 82.5539 143.166 82.5154 143.204C82.4769 143.243 82.5154 143.204 82.5154 143.204C82.5154 143.25 82.5154 143.296 82.5154 143.343C82.5077 143.381 82.5077 143.427 82.5154 143.466L82.5539 143.52L83.9714 144.613C84.0177 144.636 84.0639 144.636 84.1101 144.613C84.1794 144.559 84.2411 144.489 84.2719 144.405C84.3489 144.228 84.3412 144.028 84.2719 143.958L83.2781 143.189L85.8897 141.649C86.0283 141.542 86.1054 141.38 86.1054 141.203C86.1054 141.111 86.0129 141.026 85.8897 141.088Z" fill="#455A64"/>
<path opacity="0.5" d="M88.0776 139.825L90.6969 138.286L89.7031 137.517C89.6107 137.447 89.603 137.247 89.7031 137.07C89.8033 136.893 89.9111 136.801 90.0036 136.862L91.4211 137.955L91.4596 138.009C91.4596 138.009 91.4673 138.086 91.4596 138.125C91.4673 138.171 91.4673 138.225 91.4596 138.271C91.4596 138.271 91.4596 138.34 91.4211 138.371L90.0036 141.095C89.9728 141.157 89.9188 141.211 89.8649 141.257C89.8187 141.295 89.7494 141.295 89.7031 141.257C89.6184 141.111 89.6184 140.934 89.7031 140.787L90.6969 138.863L88.0776 140.403C87.9621 140.464 87.8696 140.403 87.8696 140.195C87.885 140.049 87.9621 139.918 88.0776 139.825Z" fill="#455A64"/>
<path opacity="0.5" d="M96.6673 132.299C96.6673 132.137 96.5132 132.16 96.4439 132.299L96.0895 133.176C95.4732 133.107 94.7336 133.707 94.2329 134.762C93.5858 136.132 93.5858 137.755 94.2329 138.379C94.5565 138.679 95.0495 138.71 95.4116 138.448C95.9354 138.094 96.3437 137.601 96.5903 137.024C96.6673 136.886 96.6673 136.709 96.5903 136.57C96.5055 136.486 96.3746 136.57 96.2898 136.74C95.8045 137.763 95.0187 138.217 94.5333 137.755C94.048 137.294 94.048 136.078 94.5333 135.046C94.88 134.323 95.3731 133.892 95.8045 133.861L95.5348 134.523C95.4655 134.692 95.5348 134.854 95.6427 134.785L96.7058 134.084C96.7906 134.015 96.8368 133.907 96.8291 133.792L96.6673 132.299Z" fill="#455A64"/>
<path opacity="0.5" d="M124.809 110.526L125.765 108.509C125.88 108.317 125.88 108.071 125.765 107.878C125.657 107.771 125.472 107.878 125.356 108.117L124.401 110.133L123.446 109.217C123.338 109.11 123.153 109.217 123.037 109.456C122.93 109.648 122.93 109.887 123.037 110.079L123.993 110.995L123.037 113.019C122.93 113.212 122.93 113.45 123.037 113.643C123.099 113.697 123.184 113.697 123.245 113.643C123.338 113.581 123.407 113.497 123.446 113.396L124.401 111.372L125.356 112.296C125.418 112.35 125.503 112.35 125.564 112.296C125.657 112.234 125.726 112.15 125.765 112.05C125.88 111.857 125.88 111.611 125.765 111.419L124.809 110.526Z" fill="#455A64"/>
<path d="M100.142 134.777V131.406C100.203 130.236 100.827 129.159 101.813 128.52L251.807 42.0291C252.731 41.4981 253.478 41.9291 253.478 42.9911V46.3621C253.409 47.5319 252.793 48.6017 251.807 49.2482L101.813 135.739C100.889 136.27 100.142 135.839 100.142 134.777Z" fill="#FAFAFA"/>
<path d="M249.542 49.525C249.488 49.5327 249.442 49.5327 249.388 49.525C249.195 49.4326 249.095 49.2248 249.141 49.017L249.303 47.6471L248.656 47.1853C248.54 47.1006 248.479 46.9621 248.486 46.8159C248.486 46.5927 248.586 46.3772 248.756 46.231L249.734 45.4613C249.734 45.4613 249.773 45.4152 249.78 45.3844L250.22 43.9529C250.274 43.7143 250.466 43.5296 250.713 43.4834C250.874 43.4834 251.029 43.5681 251.098 43.7143L251.46 44.4839L252.292 44.1684C252.446 44.0991 252.623 44.1376 252.731 44.2684C252.87 44.4685 252.87 44.7379 252.731 44.938L252.022 46.2694C252.022 46.2694 252.022 46.3233 252.022 46.3464L252.192 47.5547C252.215 47.7779 252.138 47.9934 251.984 48.155C251.884 48.2628 251.737 48.3167 251.591 48.3013L250.82 48.2012L249.935 49.3172C249.842 49.448 249.696 49.525 249.542 49.525ZM249.064 46.7466L249.703 47.2084C249.842 47.3161 249.911 47.4932 249.881 47.6702L249.773 48.5783L250.351 47.8087C250.451 47.6625 250.62 47.5855 250.79 47.6009L251.56 47.701C251.56 47.701 251.568 47.6394 251.56 47.6086L251.475 46.4388C251.452 46.2925 251.483 46.1386 251.56 46.0078L252.176 44.8456L251.545 45.0842C251.352 45.1689 251.121 45.0842 251.036 44.8841L250.743 44.2684L250.358 45.546C250.312 45.6845 250.227 45.8154 250.112 45.9077L249.133 46.6774C249.133 46.6774 249.079 46.7158 249.064 46.7466Z" fill="#E0E0E0"/>
<g opacity="0.5">
<path d="M255.443 41.6364C255.127 41.6364 254.865 41.3824 254.857 41.0669C254.857 40.8591 254.965 40.6667 255.15 40.5589L259.849 37.8575C260.142 37.7267 260.481 37.8575 260.612 38.1423C260.728 38.3886 260.651 38.6887 260.427 38.8504L255.728 41.5594C255.643 41.6133 255.543 41.6364 255.443 41.6364Z" fill="#455A64"/>
<path d="M255.443 44.3378C255.127 44.3378 254.865 44.0838 254.857 43.7682C254.857 43.5604 254.965 43.368 255.15 43.2603L259.849 40.5512C260.127 40.3896 260.481 40.4896 260.635 40.7667C260.797 41.0438 260.697 41.3978 260.427 41.5594L255.728 44.2685C255.643 44.3224 255.543 44.3455 255.443 44.3455V44.3378Z" fill="#455A64"/>
<path d="M255.443 47.0546C255.127 47.0546 254.865 46.8006 254.857 46.485C254.857 46.2772 254.965 46.0848 255.15 45.9771L259.849 43.268C260.127 43.1064 260.481 43.2064 260.635 43.4835C260.797 43.7606 260.697 44.1146 260.427 44.2762L255.728 46.9853C255.643 47.0392 255.543 47.0623 255.443 47.0623V47.0546Z" fill="#455A64"/>
</g>
<path d="M78.2398 140.31V151.147L75.1044 149.338V138.509L78.2398 140.31Z" fill="#E0E0E0"/>
<path d="M86.1594 179.061L120.38 159.328C121.296 158.797 122.044 159.22 122.044 160.29V257.525C121.982 258.694 121.358 259.764 120.38 260.411L86.1594 280.144C85.2426 280.675 84.4954 280.244 84.4954 279.182V181.947C84.557 180.777 85.181 179.708 86.1594 179.061Z" fill="#F0F0F0"/>
<path d="M92.4226 182.67L114.116 170.156C115.041 169.625 115.788 170.002 115.788 170.995C115.703 172.134 115.087 173.166 114.116 173.766L92.4226 186.28C91.4981 186.811 90.7509 186.434 90.7509 185.433C90.8356 184.302 91.4596 183.271 92.4226 182.67Z" fill="#E0E0E0"/>
<path d="M90.7509 192.006V193.307C90.7509 193.946 91.1977 194.2 91.7523 193.884L92.8848 193.23C93.478 192.845 93.8478 192.199 93.8786 191.498V190.198C93.8786 189.566 93.4318 189.305 92.8848 189.62L91.7523 190.274C91.1592 190.659 90.7894 191.306 90.7509 192.006Z" fill="#FAFAFA"/>
<path d="M97.014 189.028C97.014 190.028 97.7844 190.406 98.6781 189.875L114.086 180.97C115.056 180.37 115.673 179.338 115.757 178.199C115.757 177.206 114.987 176.829 114.086 177.36L98.6781 186.265C97.7151 186.873 97.0988 187.897 97.014 189.028Z" fill="#E0E0E0"/>
<path d="M90.7509 199.233V200.572C90.7509 201.211 91.1977 201.465 91.7523 201.149L92.8848 200.495C93.478 200.11 93.8478 199.464 93.8786 198.763V197.463C93.8786 196.832 93.4318 196.57 92.8848 196.885L91.7523 197.54C91.1669 197.917 90.7971 198.54 90.7509 199.233Z" fill="#FAFAFA"/>
<path d="M97.014 196.27C97.014 197.271 97.7844 197.648 98.6781 197.117L114.086 188.212C115.056 187.612 115.673 186.581 115.757 185.441C115.757 184.449 114.987 184.072 114.086 184.603L98.6781 193.507C97.7151 194.115 97.0988 195.139 97.014 196.27Z" fill="#E0E0E0"/>
<path d="M90.7509 206.445V207.745C90.7509 208.384 91.1977 208.646 91.7523 208.322L92.8848 207.676C93.4703 207.291 93.8401 206.645 93.8786 205.944V204.644C93.8786 204.005 93.4318 203.743 92.8848 204.066L91.7523 204.713C91.1592 205.098 90.7894 205.744 90.7509 206.445Z" fill="#FAFAFA"/>
<path d="M97.014 203.489C97.014 204.482 97.7844 204.859 98.6781 204.328L114.086 195.423C115.049 194.823 115.673 193.792 115.757 192.66C115.757 191.66 114.987 191.283 114.086 191.814L98.6781 200.718C97.7151 201.326 97.0988 202.35 97.014 203.489Z" fill="#E0E0E0"/>
<path d="M90.7509 213.656V214.957C90.7509 215.595 91.1977 215.857 91.7523 215.534L92.8848 214.887C93.478 214.503 93.8478 213.856 93.8786 213.156V211.855C93.8786 211.216 93.4318 210.955 92.8848 211.278L91.7523 211.924C91.1592 212.309 90.7894 212.956 90.7509 213.656Z" fill="#FAFAFA"/>
<path d="M97.014 210.7C97.014 211.693 97.7844 212.07 98.6781 211.539L114.086 202.635C115.049 202.034 115.673 201.003 115.757 199.872C115.757 198.871 114.987 198.494 114.086 199.025L98.6781 207.93C97.7151 208.538 97.0988 209.561 97.014 210.7Z" fill="#E0E0E0"/>
<path d="M92.2916 222.453L113.986 209.931C114.91 209.4 115.657 209.777 115.657 210.778C115.573 211.917 114.956 212.948 113.986 213.548L92.2839 226.062C91.3671 226.593 90.6199 226.216 90.6199 225.216C90.7046 224.084 91.3286 223.053 92.2916 222.453Z" fill="#E0E0E0"/>
<path d="M90.6199 231.788V233.089C90.6199 233.728 91.0667 233.982 91.6214 233.666L92.7461 233.012C93.3393 232.627 93.7091 231.981 93.7476 231.28V229.98C93.7476 229.341 93.3008 229.087 92.7461 229.402L91.6214 230.057C91.0282 230.441 90.6584 231.088 90.6199 231.788Z" fill="#FAFAFA"/>
<path d="M96.8754 228.825C96.8754 229.826 97.6457 230.203 98.5471 229.672L113.955 220.767C114.925 220.167 115.542 219.136 115.626 217.997C115.626 217.004 114.856 216.627 113.955 217.158L98.5471 226.062C97.5841 226.663 96.9601 227.694 96.8754 228.825Z" fill="#E0E0E0"/>
<path d="M90.6199 239.053V240.354C90.6199 240.993 91.0667 241.247 91.6214 240.931L92.7461 240.277C93.3393 239.892 93.7091 239.246 93.7476 238.545V237.206C93.7476 236.567 93.3008 236.313 92.7461 236.629L91.6214 237.283C91.0205 237.676 90.643 238.338 90.6199 239.053Z" fill="#FAFAFA"/>
<path d="M96.8754 236.052C96.8754 237.052 97.6457 237.43 98.5471 236.898L113.955 227.994C114.925 227.394 115.542 226.362 115.626 225.223C115.626 224.23 114.856 223.853 113.955 224.384L98.5471 233.289C97.5841 233.889 96.9601 234.921 96.8754 236.052Z" fill="#E0E0E0"/>
<path d="M90.6199 246.227V247.52C90.6199 248.158 91.0667 248.42 91.6214 248.097L92.7461 247.45C93.3393 247.065 93.7091 246.419 93.7476 245.719V244.441C93.7476 243.802 93.3008 243.541 92.7461 243.864L91.6214 244.51C91.0359 244.895 90.6661 245.526 90.6199 246.227Z" fill="#FAFAFA"/>
<path d="M96.8754 243.271C96.8754 244.264 97.6457 244.641 98.5471 244.11L113.955 235.206C114.918 234.605 115.542 233.574 115.626 232.443C115.626 231.442 114.856 231.065 113.955 231.596L98.5471 240.501C97.5764 241.101 96.9601 242.132 96.8754 243.271Z" fill="#E0E0E0"/>
<path d="M90.6199 253.438V254.738C90.6199 255.377 91.0667 255.639 91.6214 255.316L92.7461 254.669C93.3393 254.284 93.7091 253.638 93.7476 252.938V251.637C93.7476 250.998 93.3008 250.736 92.7461 251.06L91.6214 251.706C91.0282 252.091 90.6584 252.737 90.6199 253.438Z" fill="#FAFAFA"/>
<path d="M96.8754 250.482C96.8754 251.475 97.6457 251.852 98.5471 251.321L113.955 242.417C114.918 241.816 115.542 240.785 115.626 239.654C115.626 238.653 114.856 238.276 113.955 238.807L98.5471 247.712C97.5764 248.312 96.9601 249.343 96.8754 250.482Z" fill="#E0E0E0"/>
<path d="M203.411 145.844V147.629C203.411 148.691 204.182 149.122 205.075 148.584L248.687 123.232C249.665 122.586 250.281 121.508 250.351 120.338V118.799C250.351 117.729 249.58 117.298 248.679 117.837L205.075 142.981C204.097 143.62 203.481 144.682 203.411 145.844Z" fill="#E0E0E0"/>
<path d="M205.075 153.794L254.942 125.033C255.859 124.502 256.606 124.879 256.606 125.872C256.521 127.011 255.905 128.035 254.942 128.643L205.075 157.396C204.159 157.935 203.411 157.55 203.411 156.557C203.488 155.426 204.112 154.395 205.075 153.794Z" fill="#EBEBEB"/>
<path d="M205.075 161.005L254.942 132.244C255.859 131.713 256.606 132.091 256.606 133.091C256.521 134.222 255.905 135.246 254.942 135.854L205.075 164.615C204.159 165.146 203.411 164.769 203.411 163.776C203.488 162.637 204.112 161.613 205.075 161.005Z" fill="#EBEBEB"/>
<path d="M205.075 168.248L254.942 139.464C255.859 138.933 256.606 139.31 256.606 140.303C256.521 141.442 255.905 142.465 254.942 143.073L205.075 171.834C204.159 172.365 203.411 171.988 203.411 170.988C203.496 169.864 204.12 168.848 205.075 168.248Z" fill="#EBEBEB"/>
<path d="M205.075 175.436L254.942 146.698C255.859 146.167 256.606 146.544 256.606 147.545C256.521 148.676 255.905 149.7 254.942 150.308L205.075 179.022C204.159 179.553 203.411 179.176 203.411 178.183C203.496 177.052 204.112 176.036 205.075 175.436Z" fill="#EBEBEB"/>
<path d="M205.075 182.655L254.942 153.894C255.859 153.363 256.606 153.74 256.606 154.733C256.521 155.872 255.905 156.896 254.942 157.504L205.075 186.265C204.159 186.796 203.411 186.419 203.411 185.418C203.488 184.287 204.112 183.255 205.075 182.655Z" fill="#EBEBEB"/>
<path d="M205.075 189.867L254.942 161.106C255.859 160.575 256.606 160.952 256.606 161.952C256.521 163.084 255.905 164.107 254.942 164.715L205.075 193.476C204.159 194.007 203.411 193.63 203.411 192.637C203.488 191.498 204.112 190.475 205.075 189.867Z" fill="#EBEBEB"/>
<path d="M205.075 197.086L254.942 168.325C255.859 167.794 256.606 168.171 256.606 169.164C256.521 170.303 255.905 171.326 254.942 171.934L205.075 200.695C204.159 201.226 203.411 200.849 203.411 199.849C203.488 198.717 204.112 197.686 205.075 197.086Z" fill="#EBEBEB"/>
<path d="M205.075 204.297L254.942 175.536C255.859 175.005 256.606 175.382 256.606 176.383C256.521 177.514 255.905 178.538 254.942 179.146L205.075 207.906C204.159 208.438 203.411 208.06 203.411 207.068C203.488 205.929 204.112 204.905 205.075 204.297Z" fill="#EBEBEB"/>
<path d="M129.971 186.28L195.453 148.492C196.37 147.96 197.117 148.391 197.117 149.454V214.195C197.056 215.364 196.432 216.434 195.453 217.081L129.971 254.869C129.054 255.4 128.307 254.969 128.307 253.907V189.166C128.369 187.996 128.993 186.927 129.971 186.28Z" fill="#F0F0F0"/>
<path d="M178.875 185.218L167.928 204.574L175.631 214.533L150.209 192.653L128.307 240.031V253.884C128.307 254.946 129.077 255.377 129.971 254.846L195.453 217.058C196.432 216.411 197.056 215.341 197.117 214.172V201.858L178.875 185.218Z" fill="#E0E0E0"/>
<path d="M181.502 165.308C184.229 163.73 186.432 165.008 186.432 168.148C186.247 171.619 184.414 174.79 181.502 176.691C178.775 178.23 176.571 176.983 176.571 173.843C176.756 170.372 178.59 167.201 181.502 165.308Z" fill="#E0E0E0"/>
<path d="M86.1594 153.794L254.942 56.4442C255.859 55.9131 256.606 56.3441 256.606 57.4062V75.2154C256.544 76.3852 255.92 77.4627 254.934 78.1015L86.1594 175.452C85.2426 175.983 84.4954 175.552 84.4954 174.489V156.703C84.5493 155.526 85.1656 154.441 86.1594 153.794Z" fill="#E0E0E0"/>
<path d="M194.02 100.859V103.938C194.02 104.577 194.467 104.831 195.022 104.515L244.087 76.216V70.8286L195.022 99.1355C194.429 99.5203 194.059 100.159 194.02 100.859Z" fill="#FAFAFA"/>
<path d="M249.349 67.7887C249.896 67.4731 250.351 67.7271 250.351 68.3659V71.4444C250.312 72.1447 249.935 72.7912 249.349 73.176L244.087 76.2084V70.821L249.349 67.7887Z" fill="#EBEBEB"/>
<path d="M248.956 72.0444L248.371 71.8597C248.432 71.6057 248.463 71.3517 248.463 71.09C248.517 70.6052 248.317 70.1357 247.932 69.8356C247.662 69.6893 247.331 69.7047 247.076 69.8817C246.322 70.459 245.89 71.3671 245.906 72.3138C245.852 72.7986 246.052 73.2681 246.437 73.5682C246.553 73.6298 246.676 73.6683 246.807 73.6683C246.976 73.6683 247.146 73.6144 247.292 73.5221C247.739 73.2142 248.07 72.7755 248.24 72.2599L248.825 72.4446H248.895C248.987 72.4446 249.072 72.383 249.103 72.2907C249.126 72.1829 249.064 72.0752 248.956 72.0444ZM247.076 73.1603C246.953 73.2527 246.791 73.2758 246.653 73.2065C246.414 72.9833 246.298 72.6524 246.337 72.3291C246.329 71.5287 246.676 70.7745 247.292 70.2665C247.369 70.2204 247.462 70.1896 247.554 70.1896C247.608 70.1896 247.67 70.1973 247.716 70.2281C247.955 70.4513 248.07 70.7822 248.032 71.1054C248.047 71.9059 247.693 72.6601 247.076 73.168V73.1603Z" fill="#FAFAFA"/>
<path d="M128.307 156.703V178.099C128.307 179.161 129.077 179.592 129.971 179.061L254.942 106.978C255.92 106.331 256.544 105.261 256.606 104.092V82.6728C256.606 81.6107 255.836 81.1797 254.934 81.7108L129.971 153.794C128.977 154.44 128.361 155.526 128.307 156.703Z" fill="#EBEBEB"/>
<path d="M114.301 292.927C114.093 288.063 110.149 278.12 104.826 272.009C99.5023 265.898 91.3517 261.603 85.7818 263.774C80.5972 265.79 81.4523 272.663 88.0313 276.965C94.6104 281.267 104.448 286.609 107.584 294.39L113.878 303.841L114.301 292.927Z" fill="#C2C2C2"/>
<path opacity="0.1" d="M114.301 292.927C114.093 288.063 110.149 278.12 104.826 272.009C99.5023 265.898 91.3517 261.603 85.7818 263.774C80.5972 265.79 81.4523 272.663 88.0313 276.965C94.6104 281.267 104.448 286.609 107.584 294.39L113.878 303.841L114.301 292.927Z" fill="black"/>
<path d="M114.941 299.577C114.779 299.577 114.648 299.461 114.609 299.308C110.642 282.822 96.6133 269.869 88.4165 267.222C88.2239 267.16 88.1237 266.96 88.1854 266.768C88.247 266.583 88.4473 266.483 88.6322 266.545C96.9677 269.238 111.258 282.399 115.28 299.138C115.326 299.331 115.203 299.523 115.01 299.569C114.987 299.577 114.956 299.577 114.933 299.577H114.941Z" fill="white"/>
<path d="M112.907 310.328C112.006 307.619 108.47 303.24 102.892 299.738C96.7289 295.89 89.0713 294.282 87.1916 291.142C84.9267 287.371 88.0313 283.584 94.2175 284.092C100.404 284.6 111.566 292.558 113.824 305.08L112.907 310.328Z" fill="#C2C2C2"/>
<path d="M113.97 307.404C113.831 307.404 113.708 307.312 113.654 307.181C107.953 293.15 96.8676 288.61 91.8062 288.163C91.6136 288.156 91.4673 287.986 91.4827 287.794V287.778C91.4981 287.586 91.6676 287.44 91.8679 287.455C97.4685 287.948 108.5 292.596 114.317 306.911C114.394 307.096 114.309 307.304 114.124 307.381C114.078 307.396 114.024 307.404 113.97 307.404Z" fill="white"/>
<path d="M296.327 182.817C296.327 182.817 297.39 173.435 302.058 166.162C306.727 158.889 313.144 154.341 319.13 153.848C325.116 153.356 329.954 158.882 323.544 162.66C317.135 166.439 305.764 170.295 300.525 184.425L296.327 182.817Z" fill="#C2C2C2"/>
<path opacity="0.1" d="M296.327 182.817C296.327 182.817 297.39 173.435 302.058 166.162C306.727 158.889 313.144 154.341 319.13 153.848C325.116 153.356 329.954 158.882 323.544 162.66C317.135 166.439 305.764 170.295 300.525 184.425L296.327 182.817Z" fill="black"/>
<path d="M298.083 180.377H298.014C297.852 180.308 297.775 180.123 297.844 179.962C304.162 164.415 316.187 157.927 321.657 156.673C321.819 156.627 321.988 156.727 322.034 156.888C322.034 156.896 322.034 156.904 322.034 156.911C322.073 157.081 321.965 157.25 321.796 157.289C316.403 158.528 304.647 164.9 298.43 180.2C298.368 180.331 298.222 180.408 298.076 180.377H298.083Z" fill="white"/>
<path d="M330.054 180.562C329.515 181.786 328.182 182.417 326.934 182.917C325.686 183.417 324.353 183.956 323.683 185.11C322.327 187.419 324.546 190.713 323.097 192.984C322.412 193.907 321.38 194.5 320.239 194.638C319.315 194.815 318.375 194.808 317.435 194.892C316.988 194.877 316.542 194.846 316.102 194.785C314.808 194.5 313.452 194.646 312.251 195.2C310.394 196.239 309.832 198.579 308.699 200.38C307.289 202.535 305.009 203.974 302.451 204.297C301.619 204.405 300.071 204.559 299.223 204.082C299.162 204.051 299.1 204.013 299.046 203.974C298.931 203.851 298.823 203.72 298.723 203.582C298.707 203.566 298.692 203.551 298.684 203.528C298.361 202.319 298.892 201.065 298.915 199.81C298.915 199.733 298.915 199.664 298.915 199.587C298.861 198.133 298.823 196.693 298.792 195.246C298.723 192.576 298.692 189.913 298.707 187.242C298.707 185.511 298.515 183.617 299.254 181.986C300.063 180.193 302.081 180.146 302.844 178.392C303.152 177.691 303.314 176.937 303.615 176.229C304.547 174.105 306.588 172.681 308.899 172.535C312.428 172.358 315.586 175.213 319.107 174.951C320.016 174.828 320.917 174.659 321.811 174.436C324.669 173.905 327.974 174.713 329.576 177.129C330.293 178.122 330.478 179.408 330.054 180.562Z" fill="#C2C2C2"/>
<path d="M298.376 197.963C298.214 197.925 298.122 197.763 298.16 197.602C303.037 179.338 322.289 176.699 326.795 177.022C326.957 177.037 327.08 177.183 327.073 177.345C327.065 177.507 326.926 177.63 326.765 177.622C326.765 177.622 326.765 177.622 326.757 177.622C322.35 177.307 303.507 179.885 298.746 197.756C298.7 197.917 298.538 198.009 298.376 197.963Z" fill="white"/>
<path d="M319.769 188.712C319.708 188.697 319.662 188.666 319.615 188.628C316.018 185.511 311.218 184.164 306.519 184.941C306.357 184.964 306.203 184.849 306.172 184.687C306.149 184.526 306.265 184.372 306.426 184.341C311.311 183.533 316.31 184.941 320.047 188.189C320.162 188.305 320.162 188.497 320.047 188.612C319.977 188.689 319.87 188.728 319.769 188.712Z" fill="white"/>
<path d="M114.224 312.66C113.292 312.014 112.722 310.967 112.684 309.836V151.293C112.745 150.123 113.362 149.045 114.348 148.407L295.61 43.8298C297.074 42.9139 299.016 43.3526 299.932 44.8226C300.264 45.3537 300.433 45.9694 300.41 46.5928V205.19C300.348 206.36 299.724 207.429 298.746 208.076L117.429 312.607C116.428 313.13 115.241 313.153 114.224 312.66Z" fill="#C2C2C2"/>
<path opacity="0.4" d="M300.395 46.3235C300.279 45.4616 299.578 45.146 298.746 45.6309L117.429 150.192C116.936 150.508 116.535 150.931 116.25 151.439L113.123 149.631C113.415 149.123 113.839 148.692 114.348 148.391L295.618 43.83C297.036 42.891 298.954 43.2835 299.886 44.7073C300.202 45.1922 300.379 45.7463 300.395 46.3235Z" fill="white"/>
<path d="M117.136 312.745H117.067C117.013 312.776 116.959 312.791 116.905 312.807L116.782 312.845C116.705 312.868 116.628 312.891 116.551 312.899C116.497 312.907 116.451 312.907 116.397 312.899L116.143 312.938C115.488 313.03 114.818 312.914 114.224 312.607C113.292 311.968 112.714 310.913 112.684 309.782V171.011L115.819 172.819V311.637C115.819 312.407 116.197 312.83 116.743 312.83C116.821 312.838 116.89 312.838 116.967 312.83L117.136 312.745Z" fill="#F0F0F0"/>
<path opacity="0.1" d="M116.273 151.439C115.973 151.932 115.804 152.501 115.788 153.078V172.819L112.653 171.011V151.316C112.653 151.247 112.653 151.185 112.653 151.116C112.668 150.977 112.691 150.839 112.722 150.7C112.814 150.339 112.953 149.992 113.138 149.669L116.273 151.439Z" fill="black"/>
<path d="M300.41 46.5928V55.4973L167.504 132.144C166.587 132.675 165.84 132.244 165.84 131.182V127.811C165.84 126.749 165.069 126.318 164.168 126.849L123.7 150.192C122.714 150.831 122.09 151.908 122.028 153.078V156.449C121.967 157.619 121.343 158.689 120.364 159.335L115.742 161.983V153.078C115.804 151.908 116.428 150.839 117.406 150.192L298.746 45.6307C299.663 45.1074 300.41 45.5307 300.41 46.5928Z" fill="#C2C2C2"/>
<path d="M300.418 205.19C300.356 206.36 299.732 207.437 298.746 208.076L117.429 312.599C116.512 313.13 115.765 312.699 115.765 311.637V161.983L120.387 159.336C121.304 158.805 122.799 150.723 123.723 150.192L163.513 127.234C164.438 126.703 166.595 132.676 167.527 132.145L300.418 55.4976V205.19Z" fill="#FAFAFA"/>
<path d="M123.715 200.726L157.928 180.993C158.852 180.462 159.6 180.893 159.6 181.955V279.182C159.538 280.352 158.914 281.429 157.928 282.068L123.715 301.809C122.791 302.34 122.044 301.909 122.044 300.847V203.651C122.098 202.466 122.722 201.373 123.715 200.726Z" fill="#F0F0F0"/>
<path d="M129.971 204.336L151.673 191.822C152.597 191.291 153.337 191.668 153.337 192.668C153.26 193.8 152.636 194.831 151.673 195.431L129.971 207.953C129.054 208.484 128.307 208.099 128.307 207.106C128.392 205.967 129.008 204.944 129.971 204.336Z" fill="#E0E0E0"/>
<path d="M128.307 213.656V214.957C128.307 215.588 128.754 215.849 129.308 215.534L130.433 214.88C131.026 214.495 131.396 213.848 131.435 213.148V211.847C131.435 211.209 130.988 210.955 130.433 211.27L129.308 211.924C128.715 212.309 128.345 212.956 128.307 213.656Z" fill="#C2C2C2"/>
<path d="M134.562 210.716C134.562 211.716 135.333 212.093 136.234 211.562L151.642 202.65C152.605 202.042 153.221 201.018 153.306 199.887C153.306 198.886 152.535 198.509 151.642 199.04L136.234 207.945C135.263 208.545 134.647 209.577 134.562 210.716Z" fill="#E0E0E0"/>
<path d="M128.307 220.905V222.206C128.307 222.837 128.754 223.099 129.308 222.783L130.433 222.129C131.026 221.744 131.396 221.098 131.435 220.398V219.097C131.435 218.458 130.988 218.204 130.433 218.52L129.308 219.174C128.715 219.559 128.345 220.205 128.307 220.905Z" fill="#C2C2C2"/>
<path d="M134.562 217.943C134.562 218.943 135.333 219.32 136.234 218.789L151.642 209.877C152.605 209.269 153.221 208.245 153.306 207.114C153.306 206.113 152.535 205.736 151.642 206.267L136.234 215.172C135.263 215.772 134.647 216.804 134.562 217.943Z" fill="#E0E0E0"/>
<path d="M128.307 228.117V229.418C128.307 230.056 128.754 230.31 129.308 229.995L130.433 229.348C131.026 228.964 131.396 228.317 131.435 227.617V226.308C131.435 225.677 130.988 225.416 130.433 225.731L129.308 226.385C128.715 226.77 128.345 227.417 128.307 228.117Z" fill="#C2C2C2"/>
<path d="M134.562 225.154C134.562 226.154 135.333 226.532 136.234 226L151.642 217.096C152.605 216.488 153.221 215.464 153.306 214.325C153.306 213.332 152.535 212.955 151.642 213.486L136.234 222.391C135.271 222.991 134.647 224.023 134.562 225.154Z" fill="#E0E0E0"/>
<path d="M128.307 235.328V236.629C128.307 237.268 128.754 237.53 129.308 237.206L130.433 236.56C131.026 236.175 131.396 235.528 131.435 234.828V233.52C131.435 232.889 130.988 232.627 130.433 232.943L129.308 233.597C128.715 233.982 128.345 234.628 128.307 235.328Z" fill="#C2C2C2"/>
<path d="M134.562 232.365C134.562 233.366 135.333 233.743 136.234 233.212L151.642 224.307C152.605 223.699 153.221 222.676 153.306 221.537C153.306 220.544 152.535 220.167 151.642 220.698L136.234 229.602C135.271 230.203 134.647 231.234 134.562 232.365Z" fill="#E0E0E0"/>
<path d="M129.84 244.117L151.542 231.603C152.458 231.072 153.206 231.449 153.206 232.45C153.121 233.581 152.505 234.605 151.542 235.213L129.84 247.727C128.915 248.258 128.176 247.881 128.176 246.888C128.261 245.749 128.877 244.725 129.84 244.117Z" fill="#E0E0E0"/>
<path d="M128.214 253.453V254.754C128.214 255.393 128.661 255.655 129.208 255.331L130.341 254.685C130.934 254.3 131.304 253.653 131.342 252.953V251.652C131.342 251.014 130.895 250.752 130.341 251.075L129.208 251.722C128.623 252.114 128.253 252.753 128.214 253.453Z" fill="#C2C2C2"/>
<path d="M134.431 250.498C134.431 251.491 135.202 251.868 136.095 251.337L151.542 242.432C152.505 241.824 153.121 240.801 153.206 239.669C153.206 238.669 152.435 238.292 151.542 238.823L136.095 247.727C135.132 248.335 134.516 249.359 134.431 250.498Z" fill="#E0E0E0"/>
<path d="M128.214 260.68V261.981C128.214 262.619 128.661 262.881 129.208 262.558L130.341 261.911C130.934 261.527 131.304 260.88 131.342 260.18V258.879C131.342 258.24 130.895 257.979 130.341 258.302L129.208 258.948C128.623 259.341 128.253 259.98 128.214 260.68Z" fill="#C2C2C2"/>
<path d="M134.431 257.724C134.431 258.717 135.202 259.094 136.095 258.563L151.542 249.659C152.505 249.051 153.121 248.027 153.206 246.896C153.206 245.895 152.435 245.518 151.542 246.049L136.095 254.954C135.132 255.562 134.516 256.585 134.431 257.724Z" fill="#E0E0E0"/>
<path d="M128.214 267.899V269.2C128.214 269.839 128.661 270.093 129.208 269.777L130.341 269.123C130.934 268.738 131.304 268.092 131.342 267.391V266.09C131.342 265.452 130.895 265.198 130.341 265.513L129.208 266.167C128.623 266.552 128.253 267.199 128.214 267.899Z" fill="#C2C2C2"/>
<path d="M134.431 264.936C134.431 265.937 135.202 266.314 136.095 265.783L151.542 256.878C152.505 256.27 153.121 255.247 153.206 254.108C153.206 253.115 152.435 252.738 151.542 253.269L136.095 262.142C135.125 262.75 134.508 263.789 134.431 264.936Z" fill="#E0E0E0"/>
<path d="M128.214 275.111V276.411C128.214 277.05 128.661 277.304 129.208 276.988L130.341 276.334C130.934 275.949 131.304 275.303 131.342 274.603V273.302C131.342 272.663 130.895 272.409 130.341 272.725L129.208 273.379C128.623 273.764 128.253 274.41 128.214 275.111Z" fill="#C2C2C2"/>
<path d="M134.431 272.148C134.431 273.148 135.202 273.525 136.095 272.994L151.542 264.09C152.505 263.482 153.121 262.458 153.206 261.319C153.206 260.326 152.435 259.949 151.542 260.48L136.095 269.385C135.132 269.993 134.516 271.016 134.431 272.148Z" fill="#E0E0E0"/>
<path d="M240.96 167.517V169.302C240.96 170.364 241.73 170.795 242.624 170.257L286.235 144.859C287.213 144.212 287.837 143.143 287.899 141.973V140.434C287.899 139.371 287.128 138.94 286.235 139.471L242.631 164.623C241.645 165.262 241.021 166.339 240.96 167.517Z" fill="#C2C2C2"/>
<path d="M242.631 175.459L292.49 146.698C293.415 146.167 294.162 146.544 294.162 147.545C294.077 148.676 293.453 149.707 292.49 150.308L242.631 179.069C241.707 179.6 240.96 179.222 240.96 178.23C241.044 177.091 241.661 176.059 242.631 175.459Z" fill="#E6E6E6"/>
<path d="M242.631 182.678L292.49 153.918C293.415 153.386 294.162 153.764 294.162 154.756C294.077 155.895 293.461 156.927 292.49 157.527L242.631 186.288C241.707 186.819 240.96 186.442 240.96 185.441C241.044 184.31 241.668 183.279 242.631 182.678Z" fill="#E6E6E6"/>
<path d="M242.631 189.89L292.49 161.129C293.415 160.598 294.162 160.975 294.162 161.975C294.077 163.107 293.453 164.138 292.49 164.738L242.631 193.499C241.707 194.03 240.96 193.653 240.96 192.66C241.044 191.521 241.661 190.49 242.631 189.89Z" fill="#E6E6E6"/>
<path d="M242.631 197.109L292.49 168.348C293.415 167.817 294.162 168.194 294.162 169.187C294.077 170.326 293.461 171.357 292.49 171.957L242.631 200.718C241.707 201.249 240.96 200.872 240.96 199.872C241.044 198.74 241.668 197.709 242.631 197.109Z" fill="#E6E6E6"/>
<path d="M242.631 204.32L292.49 175.559C293.415 175.028 294.162 175.405 294.162 176.406C294.077 177.537 293.453 178.569 292.49 179.169L242.631 207.93C241.707 208.461 240.96 208.084 240.96 207.091C241.044 205.952 241.661 204.921 242.631 204.32Z" fill="#E6E6E6"/>
<path d="M242.631 211.539L292.49 182.778C293.415 182.247 294.162 182.624 294.162 183.617C294.077 184.756 293.461 185.788 292.49 186.388L242.631 215.149C241.707 215.68 240.96 215.303 240.96 214.302C241.044 213.171 241.668 212.14 242.631 211.539Z" fill="#E6E6E6"/>
<path d="M242.631 218.751L292.49 189.99C293.415 189.459 294.162 189.836 294.162 190.836C294.077 191.968 293.453 192.999 292.49 193.599L242.631 222.36C241.707 222.891 240.96 222.514 240.96 221.521C241.044 220.382 241.661 219.351 242.631 218.751Z" fill="#E6E6E6"/>
<path d="M242.631 225.97L292.49 197.209C293.415 196.678 294.162 197.055 294.162 198.048C294.077 199.187 293.461 200.218 292.49 200.819L242.631 229.58C241.707 230.111 240.96 229.733 240.96 228.733C241.044 227.602 241.668 226.57 242.631 225.97Z" fill="#E6E6E6"/>
<path d="M167.504 207.945L232.986 170.164C233.911 169.633 234.658 170.064 234.658 171.126V235.867C234.596 237.037 233.972 238.115 232.986 238.753L167.504 276.534C166.579 277.065 165.832 276.635 165.832 275.572V210.831C165.894 209.662 166.518 208.584 167.504 207.945Z" fill="#C2C2C2"/>
<path opacity="0.8" d="M167.504 207.945L232.986 170.164C233.911 169.633 234.658 170.064 234.658 171.126V235.867C234.596 237.037 233.972 238.115 232.986 238.753L167.504 276.534C166.579 277.065 165.832 276.635 165.832 275.572V210.831C165.894 209.662 166.518 208.584 167.504 207.945Z" fill="white"/>
<path d="M216.431 206.891L205.484 226.239L213.187 236.206L187.765 214.325L165.855 261.703V275.557C165.855 276.619 166.626 277.05 167.527 276.519L233.009 238.738C233.995 238.099 234.619 237.022 234.681 235.852V223.538L216.431 206.891Z" fill="#C2C2C2"/>
<path d="M219.058 186.973C221.777 185.434 223.988 186.673 223.988 189.82C223.796 193.284 221.97 196.455 219.058 198.356C216.331 199.933 214.12 198.656 214.12 195.516C214.305 192.045 216.138 188.866 219.058 186.973Z" fill="#C2C2C2"/>
<path d="M123.715 175.459L292.49 78.1092C293.415 77.5782 294.162 78.0091 294.162 79.0712V96.8881C294.101 98.0579 293.484 99.1354 292.498 99.7742L123.715 197.117C122.791 197.648 122.044 197.217 122.044 196.155V178.345C122.105 177.176 122.729 176.098 123.715 175.459Z" fill="#852536"/>
<path d="M231.569 122.524V125.603C231.569 126.234 232.023 126.496 232.57 126.18L281.643 97.8732V92.4858L232.57 120.785C231.977 121.178 231.607 121.816 231.569 122.524Z" fill="#FAFAFA"/>
<path d="M286.913 89.461C287.467 89.1377 287.914 89.3994 287.914 90.0382V93.1167C287.876 93.8171 287.506 94.4636 286.913 94.8484L281.659 97.8807V92.4933L286.913 89.461Z" fill="#C2C2C2"/>
<path d="M286.512 93.7171L285.927 93.5324C285.988 93.2784 286.019 93.0244 286.019 92.7628C286.073 92.2779 285.865 91.8084 285.48 91.516C285.21 91.3697 284.879 91.3851 284.625 91.5544C283.87 92.1317 283.431 93.0398 283.454 93.9942C283.4 94.479 283.608 94.9485 283.993 95.241C284.101 95.3102 284.232 95.341 284.363 95.341C284.532 95.341 284.702 95.2871 284.848 95.2025C285.295 94.8946 285.626 94.4482 285.796 93.9326L286.381 94.1173H286.443C286.535 94.1173 286.62 94.0634 286.651 93.9711C286.674 93.8633 286.62 93.7556 286.512 93.7171ZM284.602 94.8408C284.471 94.9177 284.317 94.9177 284.186 94.8408C283.947 94.6176 283.831 94.2943 283.87 93.9711C283.854 93.1707 284.209 92.4164 284.825 91.9085C284.902 91.8546 284.995 91.8315 285.087 91.8238C285.141 91.8238 285.195 91.8392 285.241 91.87C285.48 92.0932 285.603 92.4164 285.557 92.7397C285.588 93.5478 285.233 94.3251 284.602 94.8408Z" fill="#FAFAFA"/>
<path d="M165.855 178.345V199.802C165.855 200.864 166.626 201.295 167.527 200.764L292.49 128.689C293.476 128.05 294.1 126.973 294.162 125.803V104.369C294.162 103.307 293.392 102.876 292.49 103.407L167.504 175.459C166.525 176.105 165.917 177.175 165.855 178.345Z" fill="#C2C2C2"/>
<path opacity="0.7" d="M165.855 178.345V199.802C165.855 200.864 166.626 201.295 167.527 200.764L292.49 128.689C293.476 128.05 294.1 126.973 294.162 125.803V104.369C294.162 103.307 293.392 102.876 292.49 103.407L167.504 175.459C166.525 176.105 165.917 177.175 165.855 178.345Z" fill="white"/>
<path d="M300.41 55.4976V66.3339L115.788 172.819V161.983L119.216 159.997C120.133 159.466 120.441 158.658 120.88 157.111L122.044 153.079C122.413 151.678 122.814 150.723 123.715 150.192L163.506 127.234C164.43 126.703 165.154 126.65 165.855 127.812L167.28 130.398C167.804 131.298 168.051 131.829 168.983 131.298L300.41 55.4976Z" fill="#E6E6E6"/>
<path d="M292.583 52.1802C293.746 51.5106 294.686 52.0494 294.686 53.3885C294.609 54.8662 293.823 56.213 292.583 57.0212C291.427 57.6907 290.487 57.1443 290.487 55.8128C290.564 54.3352 291.343 52.9883 292.583 52.1802Z" fill="white"/>
<path d="M285.033 56.5287C286.189 55.8592 287.128 56.4056 287.128 57.7447C287.051 59.2147 286.273 60.5616 285.033 61.3697C283.87 62.0393 282.93 61.5005 282.93 60.1614C283.007 58.6837 283.793 57.3368 285.033 56.5287Z" fill="white"/>
<path d="M278.952 64.1664C279.771 62.7492 279.772 61.2179 278.954 60.746C278.136 60.2742 276.809 61.0406 275.99 62.4578C275.171 63.875 275.17 65.4064 275.988 65.8782C276.806 66.35 278.133 65.5836 278.952 64.1664Z" fill="white"/>
<path opacity="0.5" d="M123.438 162.761L120.819 164.3L121.82 162.383C121.897 162.237 121.897 162.06 121.82 161.914C121.743 161.822 121.605 161.914 121.52 162.06L120.102 164.785C120.102 164.785 120.102 164.846 120.064 164.885C120.025 164.923 120.064 164.885 120.064 164.885C120.064 164.931 120.064 164.977 120.064 165.023C120.056 165.062 120.056 165.108 120.064 165.146L120.102 165.2L121.52 166.285C121.558 166.316 121.62 166.316 121.659 166.285C121.736 166.239 121.79 166.17 121.82 166.085C121.905 165.947 121.905 165.777 121.82 165.639L120.819 164.869L123.438 163.33C123.577 163.23 123.654 163.061 123.654 162.891C123.654 162.784 123.592 162.699 123.438 162.761Z" fill="#455A64"/>
<path opacity="0.5" d="M125.626 161.498L128.245 159.959L127.244 159.189C127.159 159.128 127.151 158.928 127.244 158.751C127.336 158.574 127.452 158.481 127.537 158.543L128.962 159.636C128.962 159.636 128.993 159.667 129 159.69C129 159.69 129 159.767 129 159.805C129 159.851 129 159.905 129 159.951C129 159.951 128.977 160.021 128.962 160.051L127.521 162.861C127.49 162.93 127.444 162.984 127.382 163.022C127.344 163.068 127.275 163.068 127.228 163.022C127.144 162.876 127.144 162.707 127.228 162.56L128.23 160.636L125.611 162.176C125.495 162.237 125.403 162.176 125.403 161.968C125.403 161.783 125.48 161.606 125.626 161.498Z" fill="#455A64"/>
<path opacity="0.5" d="M134.216 153.971C134.216 153.81 134.062 153.833 133.992 153.971L133.638 154.848C133.022 154.779 132.282 155.38 131.781 156.434C131.134 157.804 131.134 159.428 131.781 160.051C132.105 160.351 132.598 160.382 132.96 160.12C133.484 159.774 133.892 159.274 134.131 158.697C134.216 158.558 134.216 158.373 134.131 158.235C134.054 158.158 133.915 158.235 133.838 158.412C133.353 159.435 132.567 159.89 132.082 159.42C131.596 158.951 131.596 157.742 132.082 156.719C132.421 155.995 132.921 155.564 133.353 155.533L133.083 156.195C133.014 156.365 133.083 156.526 133.183 156.457L134.254 155.757C134.339 155.687 134.385 155.572 134.37 155.464L134.216 153.971Z" fill="#455A64"/>
<path opacity="0.5" d="M162.358 132.183L163.313 130.167C163.429 129.974 163.429 129.728 163.313 129.535C163.197 129.428 163.02 129.535 162.905 129.774L161.949 131.791L160.994 130.875C160.886 130.767 160.701 130.875 160.586 131.106C160.478 131.298 160.478 131.544 160.586 131.737L161.541 132.652L160.57 134.677C160.463 134.869 160.463 135.108 160.57 135.3C160.632 135.346 160.717 135.346 160.778 135.3C160.863 135.238 160.932 135.154 160.979 135.054L161.934 133.03L162.889 133.953C162.951 134.007 163.036 134.007 163.097 133.953C163.19 133.892 163.259 133.807 163.298 133.707C163.413 133.514 163.413 133.268 163.298 133.076L162.358 132.183Z" fill="#455A64"/>
<path d="M137.69 156.45V153.079C137.752 151.909 138.376 150.831 139.362 150.192L289.355 63.7249C290.272 63.1939 291.019 63.6249 291.019 64.6869V68.0579C290.957 69.2277 290.333 70.2975 289.355 70.944L139.362 157.412C138.437 157.943 137.69 157.512 137.69 156.45Z" fill="#FAFAFA"/>
<path d="M287.082 71.1978C287.036 71.2055 286.982 71.2055 286.936 71.1978C286.743 71.1055 286.635 70.8977 286.682 70.6899L286.851 69.3199L286.204 68.8582C286.088 68.7658 286.027 68.635 286.027 68.4887C286.027 68.2655 286.127 68.05 286.304 67.9038L287.283 67.1342C287.283 67.1342 287.321 67.088 287.329 67.0572L287.768 65.6257C287.822 65.3871 288.014 65.2024 288.261 65.1562C288.423 65.1562 288.577 65.2409 288.646 65.3871L289.008 66.1568L289.84 65.8335C289.994 65.7719 290.171 65.8104 290.279 65.9413C290.418 66.1414 290.418 66.4107 290.279 66.6108L289.571 67.9423C289.571 67.9423 289.571 67.9962 289.571 68.0193L289.74 69.2276C289.756 69.4508 289.678 69.6663 289.524 69.8279C289.424 69.9356 289.286 69.9895 289.139 69.9741L288.369 69.8741L287.506 70.9823C287.414 71.1209 287.252 71.2055 287.082 71.1978ZM286.612 68.4195L287.252 68.8812C287.39 68.989 287.46 69.166 287.429 69.343L287.313 70.2512L287.899 69.4815C287.991 69.3353 288.161 69.2507 288.338 69.2738L289.108 69.3661C289.108 69.3661 289.116 69.3122 289.108 69.2814L288.947 68.0808C288.923 67.9269 288.954 67.773 289.031 67.6421L289.648 66.48L289.008 66.7263C288.816 66.8032 288.592 66.7186 288.507 66.5262L288.215 65.9105L287.822 67.1881C287.783 67.3343 287.699 67.4574 287.583 67.5498L286.605 68.3194C286.605 68.3194 286.605 68.3887 286.605 68.4195H286.612Z" fill="#E0E0E0"/>
<g opacity="0.5">
<path d="M292.991 63.3092C292.675 63.3092 292.413 63.0552 292.406 62.7396C292.406 62.5318 292.513 62.3394 292.698 62.2317L297.39 59.5226C297.667 59.3841 297.999 59.4764 298.16 59.7381C298.314 60.0075 298.214 60.3538 297.945 60.5077L293.253 63.2168C293.176 63.2707 293.084 63.3015 292.991 63.3092Z" fill="#455A64"/>
<path d="M292.991 66.0183C292.675 66.0183 292.413 65.7643 292.406 65.4487C292.406 65.2409 292.513 65.0485 292.698 64.9408L297.39 62.2317C297.66 62.0855 298.006 62.1778 298.16 62.4472C298.314 62.7166 298.214 63.0629 297.945 63.2168L293.253 65.9259C293.176 65.9798 293.084 66.0106 292.991 66.0183Z" fill="#455A64"/>
<path d="M292.991 68.7273C292.675 68.7273 292.413 68.4733 292.406 68.1577C292.406 67.9499 292.513 67.7575 292.698 67.6498L297.39 64.9407C297.66 64.7945 298.006 64.8868 298.16 65.1562C298.314 65.4256 298.214 65.7719 297.945 65.9258L293.253 68.6349C293.176 68.6888 293.084 68.7196 292.991 68.7273Z" fill="#455A64"/>
</g>
<path d="M115.788 161.983V172.819L112.653 171.011V160.182L115.788 161.983Z" fill="#E0E0E0"/>
</g>
<defs>
<clipPath id="clip0_119_63">
<rect width="335" height="329" fill="white"/>
</clipPath>
</defs>
</svg>
