<svg width="525" height="411" viewBox="0 0 525 411" fill="none" xmlns="http://www.w3.org/2000/svg">
<g clip-path="url(#clip0_2566_5201)">
<path d="M475 361C454.658 339.045 424.792 328.297 395.25 328.512C373.671 328.658 351.16 335.273 331.113 327.105C312.55 319.542 300.771 301.182 286.337 287.044C263.864 265.206 234.16 252.944 203.219 252.709C182.458 252.641 159.605 257.536 142.479 245.479C130.928 237.339 125.02 223.318 116.904 211.583C93.1175 177.18 47.3243 162.836 9 178.04V360.756L475 361Z" fill="#1E1E1E"/>
<path d="M137.988 140.441C137.822 143.575 133.736 147.755 134.997 150.626C137.324 155.919 135.974 162.256 132.963 167.227C129.952 172.198 125.445 176.016 121.016 179.707C121.241 171.992 120.566 164.268 119.012 156.71C118.523 154.347 117.721 151.71 115.561 150.636C112.755 149.249 109.196 151.251 106.322 150.02C103.262 148.692 102.646 144.513 100.065 142.404C97.728 140.499 94.2963 140.704 91.4318 141.661C88.5672 142.618 85.9372 144.23 82.9945 144.884C80.0517 145.538 76.5027 144.952 74.87 142.413C73.8923 140.851 74.5865 141.808 73.6284 140.216C73.6284 140.216 67.8894 140.411 65.9145 133.742C65.9145 133.742 63.2161 126.33 69.1897 123.058C69.1897 123.058 70.5487 109.66 84.0308 115.686C87.9415 117.424 92.4974 111.838 96.281 113.733C99.4291 115.324 100.358 119.699 103.506 121.301C107.123 123.137 111.327 120.402 115.375 120.236C120.772 120.236 125.152 124.611 125.152 130.002C125.152 130.002 125.787 127.326 130.177 128.498C134.567 129.67 138.301 134.328 137.988 140.441V140.441Z" fill="#263238"/>
<path d="M132.269 162.002C132.357 160.489 132.074 158.975 131.448 157.588C130.881 156.446 128.759 153.848 126.432 153.682L126.775 139.884C126.824 137.042 124.712 134.63 121.886 134.318L94.8146 131.466C85.7515 130.509 77.6369 137.072 76.6787 146.114C76.6494 146.349 76.6299 146.583 76.6201 146.817C75.965 157.217 75.574 169.942 76.8058 177.695C79.2891 193.32 91.2558 195.273 91.2558 195.273L90.9625 206.171C90.503 217.782 99.2043 224.774 108.179 224.774C117.154 224.774 125.445 217.03 125.181 205.536L126.061 170.381C127.576 170.244 128.984 169.541 130.021 168.428C131.507 166.621 132.308 164.346 132.269 162.002V162.002Z" fill="#FFBE9D"/>
<path d="M82.623 155.284C82.623 156.378 83.4834 157.276 84.5784 157.306C85.6441 157.364 86.5631 156.563 86.6413 155.499C86.6804 154.425 85.8396 153.517 84.7544 153.478C84.7348 153.478 84.7055 153.478 84.6859 153.478C83.6203 153.419 82.7013 154.22 82.623 155.284Z" fill="#263238"/>
<path d="M79.338 153.438C79.5824 153.702 81.0978 152.579 83.2487 152.579C85.3996 152.579 86.9834 153.663 87.218 153.399C87.3256 153.282 87.0714 152.813 86.387 152.315C85.4582 151.671 84.3437 151.329 83.2096 151.339C82.095 151.319 81 151.661 80.0908 152.315C79.4358 152.852 79.1718 153.321 79.338 153.438V153.438Z" fill="#263238"/>
<path d="M103.428 155.685C103.418 156.778 104.288 157.677 105.383 157.706C106.449 157.765 107.368 156.964 107.446 155.899C107.456 154.806 106.586 153.907 105.491 153.878C104.425 153.819 103.506 154.62 103.428 155.685Z" fill="#263238"/>
<path d="M100.524 153.839C100.769 154.102 102.284 152.979 104.435 152.989C106.586 152.999 108.17 154.063 108.404 153.799C108.512 153.682 108.267 153.214 107.573 152.716C106.644 152.071 105.53 151.729 104.396 151.739C103.281 151.729 102.186 152.071 101.277 152.716C100.622 153.253 100.397 153.721 100.524 153.839V153.839Z" fill="#263238"/>
<path d="M92.6931 169.805C91.559 169.453 90.3858 169.238 89.193 169.17C88.6455 169.121 88.1273 169.004 88.0296 168.633C87.9905 168.067 88.1175 167.5 88.4011 167.002L90.024 162.832C92.2922 156.866 93.9347 151.964 93.6805 151.876C93.4263 151.788 91.4123 156.544 89.1539 162.51C88.6064 163.975 88.0882 165.381 87.5994 166.719C87.2474 167.383 87.1497 168.145 87.3061 168.877C87.4723 169.268 87.8047 169.561 88.2153 169.678C88.538 169.766 88.8606 169.815 89.193 169.815C90.3564 169.961 91.5296 169.961 92.6931 169.805V169.805Z" fill="#263238"/>
<path d="M91.2069 195.283C98.559 195.39 105.804 193.466 112.129 189.707C112.129 189.707 106.713 201.425 91.0798 199.989L91.2069 195.283V195.283Z" fill="#EB996E"/>
<path d="M99.5465 150.069C99.7616 150.655 101.912 150.382 104.435 150.684C106.957 150.987 109.01 151.661 109.323 151.153C109.47 150.899 109.118 150.352 108.297 149.786C107.202 149.083 105.95 148.643 104.65 148.507C103.359 148.35 102.049 148.507 100.827 148.956C99.9278 149.337 99.4585 149.796 99.5465 150.069V150.069Z" fill="#263238"/>
<path d="M78.9861 148.429C79.3673 148.917 80.8436 148.429 82.6328 148.429C84.4219 148.429 85.9275 148.751 86.2795 148.243C86.4359 147.989 86.1915 147.501 85.5365 147.042C83.7278 145.919 81.4107 145.987 79.6704 147.228C79.0252 147.687 78.8198 148.185 78.9861 148.429Z" fill="#263238"/>
<path d="M93.1721 181.992C93.1721 181.992 93.3188 181.68 93.7587 181.406C94.3551 181.055 95.0297 180.869 95.7141 180.879C96.3984 180.879 97.073 181.045 97.6694 181.387C98.1094 181.66 98.3049 181.914 98.2658 181.963C97.4543 181.66 96.6037 181.465 95.7434 181.396C94.8635 181.465 93.9934 181.66 93.1721 181.992V181.992Z" fill="#EB996E"/>
<path d="M124.995 166.153C125.504 165.948 126.002 165.704 126.481 165.43C127.567 164.717 128.241 163.526 128.29 162.227C128.31 160.919 127.713 159.688 126.667 158.897C126.227 158.594 125.719 158.389 125.181 158.321C125.132 158.262 125.904 157.999 126.872 158.594C128.114 159.385 128.847 160.762 128.828 162.227C128.818 163.028 128.564 163.809 128.104 164.463C127.742 164.991 127.254 165.43 126.696 165.743C126.198 166.084 125.592 166.231 124.995 166.153V166.153Z" fill="#EB996E"/>
<path d="M73.6284 127.746C71.106 134.484 77.0992 139.366 81.7724 140.441C88.3033 141.964 95.2448 137.843 99.7127 139.591C103.047 140.899 106.195 143.497 109.734 142.96C111.455 142.706 113.156 141.72 114.828 142.169C116.969 142.755 117.839 145.352 117.761 147.569C117.702 150.303 116.783 153.018 117.125 155.733C117.467 158.448 119.892 161.25 122.541 160.528C125.093 159.678 126.853 157.354 126.98 154.669C127.293 150.909 126.599 146.436 126.784 142.667C126.951 139.347 126.96 135.695 124.829 133.126C122.698 130.558 119.1 129.865 115.786 129.415C101.805 127.492 87.6971 126.75 73.5893 127.189" fill="#263238"/>
<path d="M65.4063 129.181C65.3183 128.956 65.2792 128.722 65.2694 128.478C65.2303 127.785 65.3769 127.082 65.68 126.457C66.1591 125.451 66.9999 124.65 68.0362 124.22C68.6912 123.976 69.3952 123.898 70.0893 123.996C70.8226 124.064 71.5558 124.259 72.3282 124.298C73.1299 124.347 73.9316 124.171 74.6355 123.791C75.4078 123.361 76.1313 122.843 76.7766 122.238C77.4805 121.633 78.1942 120.968 79.0155 120.373C79.866 119.748 80.8535 119.318 81.8898 119.113C84.1287 118.771 86.4262 119.162 88.4304 120.226C90.5129 121.379 92.4585 122.765 94.2183 124.357C95.9292 125.949 97.8845 127.267 99.9963 128.263C101.003 128.683 102.089 128.849 103.174 128.751C104.2 128.595 105.188 128.263 106.107 127.775C107.818 126.75 109.646 125.91 111.543 125.275C113.254 124.787 115.052 124.728 116.783 125.109C118.21 125.431 119.53 126.134 120.586 127.15C121.378 127.912 121.994 128.839 122.395 129.865C122.649 130.509 122.776 131.193 122.796 131.886C122.805 132.062 122.805 132.247 122.796 132.423V132.599C122.786 131.691 122.6 130.792 122.268 129.943C121.847 128.966 121.231 128.078 120.449 127.355C119.413 126.408 118.142 125.753 116.763 125.461C115.092 125.119 113.361 125.197 111.719 125.675C109.851 126.32 108.062 127.169 106.371 128.195C105.393 128.703 104.337 129.035 103.242 129.171C102.079 129.289 100.906 129.113 99.8301 128.673C97.6694 127.667 95.675 126.33 93.9152 124.709C92.1847 123.136 90.2685 121.769 88.2251 120.636C86.3187 119.621 84.1385 119.23 81.9974 119.533C79.954 119.875 78.4777 121.31 77.109 122.521C76.4246 123.136 75.6718 123.664 74.8701 124.093C74.0978 124.494 73.2276 124.679 72.3575 124.621C71.546 124.562 70.8128 124.357 70.1089 124.269C69.4538 124.162 68.7792 124.22 68.1535 124.445C67.1759 124.836 66.3644 125.568 65.8755 126.505C65.5627 127.111 65.3867 127.775 65.3867 128.458C65.3672 128.937 65.4845 129.171 65.4063 129.181Z" fill="#455A64"/>
<path d="M72.9635 140.04C72.7387 140.099 72.504 140.099 72.2792 140.04C71.6144 139.913 71.0375 139.493 70.6953 138.907C70.2261 137.96 70.0892 136.876 70.3238 135.841C70.5585 134.474 71.106 133.175 71.9272 132.062C72.9244 130.695 74.3127 129.65 75.9063 129.074C77.7346 128.39 79.7388 128.341 81.6062 128.927C83.5908 129.669 85.4386 130.714 87.0909 132.033C88.8116 133.429 90.7572 134.523 92.8494 135.255C94.9905 135.792 97.2391 135.675 99.302 134.904C101.257 134.2 103.135 133.312 104.904 132.238C106.527 131.261 108.209 130.382 109.939 129.591C111.454 128.898 113.087 128.478 114.749 128.351C117.193 128.146 119.618 128.957 121.446 130.597C121.916 131.056 122.307 131.593 122.6 132.179C122.707 132.384 122.786 132.599 122.835 132.824C122.453 132.042 121.945 131.339 121.319 130.744C119.501 129.22 117.145 128.488 114.779 128.703C113.156 128.859 111.572 129.289 110.105 129.982C108.404 130.773 106.742 131.662 105.139 132.648C103.34 133.742 101.443 134.659 99.4585 135.372C97.2978 136.183 94.9416 136.31 92.7027 135.743C90.5714 134.991 88.5867 133.868 86.8367 132.443C85.2333 131.144 83.4344 130.119 81.5084 129.376C79.7388 128.81 77.8324 128.839 76.0823 129.464C74.5572 130.011 73.2275 130.988 72.2499 132.277C71.4384 133.341 70.8909 134.581 70.6465 135.89C70.3923 136.866 70.49 137.902 70.9104 138.819C71.2037 139.386 71.7121 139.806 72.3281 139.982C72.5334 140.021 72.7485 140.04 72.9635 140.04V140.04Z" fill="#455A64"/>
<path d="M132.836 166.065C132.836 166.065 133.188 165.596 133.706 164.698C134.42 163.419 134.811 161.983 134.87 160.518C134.919 159.532 134.792 158.536 134.498 157.589C134.137 156.495 133.609 155.46 132.934 154.522C132.25 153.546 131.438 152.472 130.724 151.3C129.913 150.099 129.473 148.683 129.444 147.238C129.581 145.812 130.03 144.425 130.754 143.185C131.38 142.081 131.751 140.851 131.849 139.591C131.907 137.423 130.803 135.382 128.965 134.23C127.703 133.488 126.217 133.195 124.77 133.41C124.243 133.507 123.715 133.634 123.206 133.791C123.314 133.703 123.441 133.634 123.568 133.576C123.949 133.41 124.34 133.293 124.741 133.215C126.247 132.912 127.811 133.166 129.141 133.918C131.145 135.099 132.357 137.277 132.318 139.601C132.23 140.929 131.849 142.228 131.204 143.4C130.519 144.581 130.089 145.89 129.952 147.247C129.972 148.605 130.392 149.923 131.155 151.046C131.839 152.179 132.641 153.214 133.325 154.259C134.019 155.245 134.547 156.329 134.909 157.472C135.202 158.477 135.31 159.532 135.232 160.577C135.144 162.061 134.694 163.516 133.921 164.786C133.706 165.137 133.462 165.46 133.188 165.762C132.944 165.977 132.846 166.075 132.836 166.065V166.065Z" fill="#455A64"/>
<path d="M91.8816 154.669C91.7936 153.848 91.6567 153.038 91.4709 152.237C90.1022 146.935 84.6859 143.751 79.3771 145.118C79.0741 145.196 78.771 145.294 78.4777 145.401C76.6592 146.085 75.0852 147.267 73.9315 148.829C71.3993 152.266 71.3993 156.964 73.9315 160.401C74.4986 161.212 75.2025 161.915 76.0042 162.491C76.757 163.067 77.588 163.516 78.4777 163.829C81.616 164.981 85.1258 164.473 87.8047 162.461C89.5938 161.114 90.8843 159.21 91.4709 157.042C91.6567 156.241 91.7936 155.43 91.8816 154.62C91.9402 155.45 91.8718 156.28 91.6665 157.091C91.1483 159.376 89.8382 161.407 87.9709 162.833C85.2138 164.961 81.5573 165.538 78.2724 164.356C77.3338 164.034 76.4539 163.565 75.662 162.969C74.8212 162.364 74.0879 161.631 73.4818 160.792C70.7932 157.178 70.7932 152.237 73.4818 148.624C74.6941 146.983 76.3561 145.743 78.2724 145.05C80.0028 144.435 81.8604 144.288 83.6691 144.63C87.5798 145.392 90.6888 148.36 91.6176 152.227C91.8327 153.018 91.9207 153.848 91.8816 154.669V154.669Z" fill="#263238"/>
<path d="M114.798 154.669C114.71 153.848 114.573 153.038 114.388 152.237C113.019 146.944 107.612 143.751 102.313 145.118C102.01 145.196 101.707 145.294 101.404 145.401C99.5857 146.075 98.0018 147.267 96.8482 148.829C94.316 152.266 94.316 156.964 96.8482 160.401C97.425 161.202 98.1192 161.915 98.9208 162.491C99.6737 163.057 100.514 163.516 101.404 163.829C106.556 165.694 112.247 163.038 114.114 157.891C114.212 157.628 114.29 157.364 114.368 157.091C114.554 156.29 114.691 155.479 114.779 154.669C114.847 155.499 114.779 156.339 114.564 157.139C114.055 159.395 112.774 161.407 110.946 162.833C108.189 164.961 104.533 165.538 101.248 164.356C100.309 164.034 99.4292 163.565 98.6373 162.969C97.7965 162.364 97.0535 161.631 96.4473 160.792C93.7783 157.178 93.7783 152.237 96.4473 148.624C97.6597 146.993 99.3315 145.743 101.248 145.05C102.978 144.435 104.836 144.288 106.644 144.63C110.545 145.392 113.654 148.36 114.583 152.227C114.788 153.028 114.857 153.848 114.798 154.669V154.669Z" fill="#263238"/>
<path d="M95.2447 152.989V153.087V152.911V153.106C94.707 153.223 94.1497 153.282 93.6022 153.262C92.6246 153.262 91.8131 153.145 91.8131 153.009C91.8131 152.872 92.6148 152.755 93.6022 152.755C94.1497 152.735 94.707 152.784 95.2447 152.911V153.106V152.93V153.028V152.989V152.989Z" fill="#263238"/>
<path d="M126.872 155.196C124.819 155.304 122.756 155.245 120.713 155.011C118.66 154.952 116.607 154.718 114.593 154.317C116.646 154.22 118.709 154.278 120.752 154.503C122.805 154.571 124.858 154.796 126.872 155.196Z" fill="#263238"/>
<path d="M101.658 169.268C101.844 169.776 101.864 170.323 101.727 170.84C101.296 173.526 98.9207 175.469 96.193 175.362C95.6553 175.391 95.1176 175.264 94.6581 174.981C94.6581 174.903 95.2642 175.059 96.193 174.981C98.6763 174.893 100.798 173.164 101.375 170.752C101.658 169.864 101.6 169.268 101.658 169.268Z" fill="#263238"/>
<path d="M62.9327 239.373C62.9425 239.48 62.9425 239.578 62.9327 239.686V240.603C62.9327 241.443 62.9327 242.635 62.9816 244.139C62.9816 247.234 62.9816 251.658 63.05 257.117C63.05 268.073 62.7176 283.21 61.8671 299.908C61.0165 316.607 60.1366 331.694 59.5402 342.671C59.2665 348.11 59.0416 352.534 58.8852 355.629C58.807 357.133 58.7483 358.305 58.7092 359.145C58.7092 359.525 58.6603 359.828 58.6505 360.063C58.6603 360.17 58.6603 360.268 58.6505 360.375C58.631 360.268 58.631 360.17 58.6505 360.063V359.145C58.6505 358.305 58.6994 357.123 58.7385 355.619C58.8265 352.553 58.9829 348.12 59.2274 342.651C59.6869 331.704 60.5765 316.587 61.4076 299.889C62.2386 283.19 62.6883 268.064 62.747 257.107C62.747 251.658 62.8154 247.234 62.835 244.139C62.835 242.635 62.835 241.443 62.8838 240.603V239.686C62.8838 239.578 62.9034 239.471 62.9327 239.373V239.373Z" fill="#263238"/>
<path d="M157.386 222.557C152.126 216.493 141.85 215.604 137.294 218.895C132.738 222.186 130.206 227.772 129.747 233.368C129.287 238.963 130.724 244.578 132.856 249.764C136.287 258.084 141.362 264.822 148.938 273.396L168.492 299L130.803 335.757L146.445 360.375L178.484 334.595L204.979 306.549" fill="#852536"/>
<path d="M21.1079 301.5C21.7238 301.051 22.4082 300.719 23.1415 300.523C24.8719 299.937 26.7002 299.693 28.5284 299.791C30.3567 299.889 32.1556 300.338 33.8176 301.099C34.5411 301.373 35.2059 301.773 35.773 302.291C35.773 302.359 34.9909 301.93 33.7199 301.432C32.0676 300.777 30.3176 300.396 28.548 300.299C26.7784 300.211 24.999 300.406 23.2881 300.865C21.9292 301.226 21.147 301.578 21.1079 301.5V301.5Z" fill="#263238"/>
<path d="M162.46 228.309C149.31 210.887 135.153 212.323 127.938 212.118V204.472C122.61 204.472 115.326 209.266 111.562 212.694L107.837 217.801C105.901 212.128 101.385 207.714 95.6749 205.878C93.6414 205.233 91.5589 204.765 89.4472 204.472V211.307C71.7708 211.805 62.3168 216.629 50.5065 230.281C49.9003 230.985 48.6978 232.186 47.3193 233.543L12.3773 274.557C5.24027 282.448 -1.31013 293.307 0.224817 303.853V303.853C1.89664 315.728 8.82833 323.54 22.0953 332.495L58.8558 356.293L58.6798 360.385H146.406C146.406 360.385 205.898 316.548 207.354 300.308C208.488 287.477 187.996 260.28 162.46 228.309V228.309ZM60.3321 321.382L34.6095 302.213L62.395 273.493L60.3321 321.382ZM144.568 322.905L143.874 308.716L147.609 271.442C154.941 279.84 168.511 296.51 168.511 299L144.568 322.905V322.905Z" fill="#852536"/>
<path d="M127.919 212.157C127.733 212.567 127.508 212.948 127.254 213.319C126.784 214.042 126.11 215.087 125.22 216.347C122.932 219.647 120.351 222.743 117.526 225.604C116.695 226.444 115.854 227.235 115.033 227.987L114.622 228.368V227.811C114.573 224.598 113.283 221.532 111.024 219.257C110.428 218.544 109.656 217.997 108.786 217.675C108.453 217.606 108.101 217.675 107.808 217.841C108.043 217.548 108.424 217.421 108.786 217.499C109.724 217.763 110.575 218.29 111.22 219.022C112.276 220.028 113.156 221.21 113.801 222.518C114.612 224.169 115.052 225.965 115.092 227.801L114.681 227.616C115.483 226.864 116.323 226.083 117.145 225.243C119.951 222.401 122.551 219.354 124.917 216.141L127.068 213.212C127.312 212.831 127.596 212.479 127.919 212.157V212.157Z" fill="#263238"/>
<path d="M89.4276 211.347C89.7111 211.62 89.9653 211.923 90.1902 212.255L92.1455 214.823C93.7783 217.011 95.9878 220.057 98.4124 223.436L99.9962 225.643L99.5563 225.711C100.026 224.129 100.681 222.616 101.512 221.19C102.196 220.028 103.164 219.071 104.337 218.407C105.109 217.958 105.98 217.723 106.869 217.704C107.202 217.675 107.534 217.714 107.847 217.841H106.869C106.028 217.929 105.217 218.202 104.494 218.651C103.408 219.335 102.509 220.272 101.873 221.385C101.091 222.792 100.456 224.286 99.9962 225.829L99.8398 226.288L99.5563 225.897L97.9725 223.69C95.5478 220.311 93.3774 217.235 91.8229 214.999C91.1092 213.934 90.503 213.046 90.0142 212.333C89.7796 212.03 89.584 211.698 89.4276 211.347V211.347Z" fill="#263238"/>
<g opacity="0.1">
<path d="M107.818 217.841C110.78 221.083 112.178 225.467 111.64 229.823C111.455 231.248 111.288 233.153 112.618 233.68C113.547 234.041 114.573 233.407 115.326 232.782C121.026 228.192 125.719 222.469 129.111 215.985C129.444 215.477 129.62 214.882 129.62 214.276C129.6 213.651 129.102 213.153 128.476 213.134C128.075 213.241 127.723 213.495 127.498 213.847C123.431 218.534 118.934 223.407 114.867 228.084C115.052 225.477 114.241 222.899 112.608 220.868C110.995 218.915 109.235 216.893 107.847 217.841" fill="black"/>
</g>
<path d="M145.331 358.744C145.214 358.617 145.116 358.481 145.028 358.334C144.813 358.022 144.549 357.611 144.207 357.104L141.205 352.455C138.653 348.413 135.085 342.778 130.93 336.225L130.832 336.059L130.969 335.932L140.139 326.792L160.094 307.066C162.636 304.586 164.708 302.574 166.175 301.129L167.856 299.537C168.042 299.342 168.248 299.166 168.463 299C168.306 299.215 168.12 299.42 167.925 299.605C167.524 300.025 166.947 300.582 166.322 301.275L160.319 307.359L140.462 327.192C137.236 330.405 134.127 333.481 131.282 336.304V336.011C135.368 342.602 138.888 348.266 141.401 352.338C142.613 354.291 143.591 355.912 144.285 357.065C144.598 357.582 144.842 358.041 145.038 358.334C145.155 358.461 145.253 358.598 145.331 358.744V358.744Z" fill="#263238"/>
<path d="M134.547 222.059L134.401 222.245L133.951 222.772C133.53 223.221 132.973 223.924 132.269 224.842C130.333 227.479 129.053 230.535 128.525 233.758C127.899 238.563 128.662 243.455 130.705 247.849C131.819 250.476 133.266 252.947 135.007 255.203C136.854 257.556 138.81 259.91 140.814 262.439C148.704 272.37 155.479 281.618 160.465 288.258L166.331 296.139C167.006 297.037 167.534 297.76 167.925 298.287L168.326 298.854L168.453 299.049C168.453 299.049 168.384 299 168.287 298.883L167.847 298.346L166.185 296.207C164.747 294.381 162.694 291.725 160.172 288.395C155.127 281.813 148.293 272.595 140.423 262.683C138.468 260.193 136.512 257.8 134.616 255.486C132.856 253.191 131.399 250.672 130.275 248.006C128.212 243.523 127.488 238.553 128.173 233.67C128.926 229.52 130.93 225.692 133.921 222.704L134.41 222.215C134.479 222.108 134.537 222.049 134.547 222.059V222.059Z" fill="#263238"/>
<path d="M167.524 234.666C167.524 234.666 166.986 234.9 166.067 235.389C164.787 236.102 163.613 237 162.597 238.055C161.101 239.637 159.791 241.385 158.686 243.269C157.346 245.623 155.89 247.898 154.316 250.105C151.324 254.167 146.651 256.658 141.606 256.863C140.11 256.941 138.614 256.794 137.158 256.443C136.766 256.355 136.375 256.238 135.994 256.101C135.857 256.052 135.73 256.003 135.603 255.935C137.558 256.404 139.572 256.599 141.586 256.501C143.757 256.355 145.878 255.788 147.834 254.831C150.219 253.66 152.292 251.931 153.876 249.792C155.606 247.546 156.916 245.144 158.246 243.054C159.38 241.16 160.749 239.402 162.303 237.83C163.369 236.766 164.591 235.896 165.94 235.232C166.312 235.057 166.683 234.91 167.074 234.793C167.221 234.734 167.368 234.686 167.524 234.666V234.666Z" fill="#FAFAFA"/>
<path d="M144.207 320.533H143.972L143.317 320.376C143.024 320.298 142.662 320.249 142.232 320.181C141.743 320.103 141.244 320.044 140.746 320.015C137.558 319.868 134.361 320.279 131.311 321.226C129.189 321.831 127.117 322.593 125.103 323.491C122.932 324.468 120.684 325.659 118.259 326.802C115.727 328.042 113.077 329.048 110.36 329.79C108.903 330.161 107.417 330.395 105.921 330.493C104.376 330.571 102.822 330.454 101.297 330.161C98.3244 329.487 95.4794 328.315 92.8983 326.704C90.3759 325.2 88.1175 323.491 85.9568 321.909C81.6844 318.706 77.5977 316.05 73.7164 314.898C71.9859 314.361 70.187 314.068 68.3685 314.019C66.9998 313.99 65.631 314.156 64.3112 314.498C63.1869 314.81 62.1016 315.249 61.0653 315.796L61.2511 315.66L61.8377 315.308C62.61 314.888 63.4215 314.566 64.2623 314.332C65.6017 313.951 66.99 313.765 68.3783 313.765C70.2163 313.785 72.0446 314.058 73.8142 314.576C77.7835 315.699 81.9386 318.374 86.2306 321.558C88.401 323.14 90.6594 324.82 93.1525 326.304C95.6847 327.886 98.471 329.038 101.394 329.692C102.871 329.985 104.386 330.093 105.892 330.015C107.358 329.927 108.815 329.702 110.232 329.341C112.921 328.608 115.541 327.632 118.054 326.411C120.478 325.278 122.737 324.087 124.898 323.14C126.931 322.251 129.033 321.499 131.174 320.913C134.264 319.986 137.5 319.624 140.716 319.849C141.909 319.917 143.082 320.142 144.207 320.533V320.533Z" fill="#FAFAFA"/>
<path d="M47.5636 311.861C47.5636 311.861 47.6125 311.979 47.6418 312.203C47.7005 312.525 47.7396 312.848 47.7592 313.18C47.8569 314.391 47.808 315.601 47.6027 316.803C47.3094 318.599 46.6153 320.308 45.5692 321.802C44.2298 323.58 42.5188 325.035 40.5537 326.089C38.5984 327.291 36.5746 328.296 34.9614 329.468C33.5047 330.454 32.224 331.685 31.1876 333.111C30.5033 334.068 30.1122 335.21 30.0633 336.392C30.0633 337.232 30.1904 337.691 30.1317 337.7C30.0731 337.603 30.034 337.495 30.0144 337.378C29.9264 337.056 29.8775 336.734 29.858 336.402C29.8189 335.171 30.1611 333.95 30.8357 332.915C31.8622 331.421 33.1527 330.122 34.6388 329.087C36.2813 327.867 38.266 326.841 40.2409 325.66C42.1376 324.634 43.7996 323.228 45.1292 321.529C46.1558 320.103 46.8597 318.472 47.1921 316.744C47.417 315.572 47.5245 314.381 47.505 313.189C47.4952 312.75 47.505 312.301 47.5636 311.861Z" fill="#FAFAFA"/>
<path d="M195.104 271.442C193.1 271.774 191.145 272.39 189.307 273.259C187.342 274.216 185.572 275.544 184.096 277.165C183.235 278.122 182.492 279.186 181.886 280.329C181.241 281.51 180.801 282.848 180.165 284.167C179.579 285.495 178.699 286.666 177.594 287.604C176.548 288.454 175.365 289.118 174.094 289.557C171.953 290.27 169.695 290.543 167.446 290.377C165.94 290.289 164.454 290.114 162.968 289.85C162.421 289.782 161.883 289.664 161.355 289.508C161.902 289.508 162.46 289.557 162.997 289.655C164.053 289.762 165.569 289.967 167.456 290.016C169.655 290.123 171.855 289.821 173.938 289.108C176.499 288.278 178.591 286.413 179.706 283.962C180.322 282.672 180.772 281.325 181.446 280.104C182.091 278.942 182.874 277.858 183.783 276.891C185.308 275.231 187.146 273.884 189.189 272.927C190.558 272.282 192.005 271.823 193.491 271.579C193.892 271.511 194.303 271.472 194.713 271.442C194.84 271.423 194.977 271.423 195.104 271.442V271.442Z" fill="#FAFAFA"/>
<path d="M146.514 279.684L146.289 279.753L145.624 279.899C145.038 280.026 144.168 280.183 143.033 280.358C139.836 280.847 136.61 281.081 133.384 281.042C128.574 281.013 123.803 280.202 119.256 278.649C116.587 277.683 114.016 276.472 111.572 275.046C108.981 273.513 106.263 272.185 103.457 271.091C102.03 270.583 100.544 270.261 99.0382 270.115C97.5717 270.007 96.0954 270.075 94.6484 270.329C91.9207 270.886 89.281 271.843 86.827 273.161C82.0853 275.671 78.0964 278.464 74.4888 280.407C71.7025 282.057 68.6619 283.249 65.4845 283.923C64.6241 284.108 63.754 284.206 62.8741 284.206H62.1897C62.1115 284.216 62.0333 284.216 61.9551 284.206H62.1897L62.8643 284.128C63.7344 284.079 64.5948 283.952 65.4454 283.747C68.5739 283.005 71.5656 281.784 74.3129 280.124C77.8618 278.171 81.8311 275.329 86.6022 272.771C89.105 271.404 91.7936 270.417 94.5898 269.841C96.0758 269.577 97.601 269.499 99.1066 269.607C100.661 269.763 102.186 270.105 103.653 270.632C106.488 271.736 109.226 273.073 111.836 274.636C114.261 276.052 116.812 277.253 119.442 278.229C123.939 279.782 128.652 280.622 133.413 280.7C136.63 280.768 139.836 280.602 143.024 280.183C144.158 280.036 145.028 279.909 145.624 279.811L146.299 279.724C146.367 279.704 146.445 279.684 146.514 279.684V279.684Z" fill="#FAFAFA"/>
<path d="M50.9464 285.329C51.0442 284.831 51.0247 284.313 50.8878 283.825C50.3305 282.546 49.1866 281.608 47.8179 281.315C46.9673 281.061 45.9994 280.915 44.9631 280.68C43.8094 280.466 42.734 279.977 41.8248 279.245C40.8666 278.386 40.1236 277.311 39.6543 276.12C39.1753 274.851 38.794 273.542 38.53 272.214C38.2758 270.915 37.9043 269.655 37.4155 268.425C36.9462 267.292 36.3303 266.228 35.5872 265.261C34.3358 263.601 32.7129 262.244 30.8651 261.287C29.6332 260.642 28.3133 260.173 26.9544 259.9C25.9767 259.705 25.4194 259.666 25.4194 259.617C25.5563 259.587 25.6932 259.587 25.8301 259.617C26.2211 259.626 26.6024 259.666 26.9837 259.724C28.4111 259.919 29.7896 260.349 31.0802 260.984C32.9964 261.931 34.6682 263.298 35.9685 264.997C36.7604 265.993 37.4252 267.087 37.9239 268.249C38.4322 269.509 38.8135 270.818 39.0775 272.155C39.3415 273.444 39.7032 274.724 40.1627 275.954C40.6027 277.067 41.2968 278.073 42.1767 278.884C43.0273 279.577 44.0343 280.055 45.1097 280.27C46.0874 280.524 47.0651 280.69 47.9743 280.973C49.4311 281.325 50.614 282.37 51.1322 283.766C51.23 284.157 51.23 284.557 51.1322 284.948C51.1029 285.085 51.0344 285.221 50.9464 285.329V285.329Z" fill="#FAFAFA"/>
<path d="M128.163 235.242C127.254 234.744 126.286 234.354 125.289 234.08C124.106 233.836 122.874 233.836 121.691 234.08C120.107 234.393 118.572 234.91 117.125 235.613C115.492 236.346 113.772 237.303 111.895 238.289C109.91 239.393 107.798 240.271 105.608 240.896C103.144 241.502 100.583 241.58 98.0898 241.141C95.4305 240.652 92.8495 239.803 90.4249 238.611C85.429 236.18 81.2739 232.918 77.2654 230.379C73.8142 227.977 69.9524 226.219 65.8755 225.174C63.1185 224.5 60.2441 224.461 57.4773 225.077C56.4801 225.35 55.5024 225.672 54.5443 226.053C55.4633 225.536 56.4508 225.145 57.4773 224.891C60.2735 224.198 63.1967 224.178 66.0026 224.832C70.1382 225.838 74.0586 227.576 77.5685 229.989C81.616 232.518 85.7711 235.77 90.6888 238.162C93.0744 239.334 95.6065 240.174 98.2169 240.662C100.651 241.092 103.135 241.023 105.54 240.447C107.7 239.851 109.783 239.002 111.748 237.928C113.625 236.951 115.365 235.975 117.027 235.291C118.513 234.598 120.078 234.1 121.691 233.807C122.923 233.602 124.174 233.641 125.386 233.943C126.139 234.149 126.863 234.451 127.537 234.842C127.752 234.959 127.958 235.096 128.163 235.242V235.242Z" fill="#FAFAFA"/>
<path d="M122.639 359.223L125.357 360.58H141L144.158 358.002L132.778 339.194C131.379 339.81 125.24 340.767 123.255 341.46C121.544 342.056 119.745 342.368 117.927 342.358C115.903 342.407 113.879 342.231 111.894 341.86L111.464 341.724C111.2 341.606 110.917 341.548 110.623 341.548C108.932 341.401 107.593 343.169 108.541 344.565C109.489 345.962 114.114 347.827 120.019 347.661H120.302C125.484 347.661 120.733 351.997 117.653 354.575C116.548 355.463 115.981 356.87 116.167 358.276C116.206 358.784 116.46 359.243 116.861 359.545C118.171 360.375 122.639 359.223 122.639 359.223V359.223Z" fill="#FFBE9D"/>
<path d="M58.8069 356.889C58.7971 356.801 58.7971 356.703 58.8069 356.615V355.805C58.8069 355.053 58.8655 354.008 58.9144 352.69C59.0317 349.955 59.1882 346.059 59.3935 341.254C59.7943 331.567 60.3711 318.247 60.9675 303.531C61.5639 288.815 61.9452 275.446 62.2189 265.788C62.3265 260.984 62.4047 257.087 62.4634 254.343C62.4634 253.025 62.5122 251.98 62.5318 251.228V250.427C62.522 250.33 62.522 250.242 62.5318 250.144C62.5416 250.242 62.5416 250.33 62.5318 250.427V254.343C62.5318 257.048 62.5318 260.954 62.4536 265.788C62.3167 275.456 61.9256 288.805 61.3488 303.551C60.772 318.296 60.1365 331.626 59.6281 341.274C59.3544 346.069 59.1393 349.965 58.9829 352.699C58.8949 354.018 58.8264 355.063 58.7775 355.805L58.7091 356.615C58.7482 356.703 58.7873 356.791 58.8069 356.889V356.889Z" fill="#263238"/>
<path d="M101.365 358.745C101.345 358.627 101.345 358.5 101.365 358.383C101.365 358.12 101.316 357.768 101.277 357.319L100.993 353.208C100.876 351.43 100.729 349.243 100.651 346.704C100.573 344.165 100.387 341.284 100.368 338.091C100.348 334.898 100.231 331.392 100.28 327.632V321.773C100.28 319.732 100.368 317.711 100.417 315.601C100.661 307.154 101.101 297.877 101.785 288.151C103.154 268.689 104.894 251.121 106.009 238.397C106.556 232.049 106.987 226.913 107.319 223.319C107.466 221.571 107.593 220.194 107.671 219.228C107.72 218.778 107.749 218.427 107.779 218.163C107.808 217.899 107.827 217.802 107.827 217.802C107.837 217.919 107.837 218.046 107.827 218.163L107.779 219.237C107.71 220.214 107.622 221.581 107.515 223.339C107.29 226.903 106.889 232.059 106.371 238.426C105.344 251.121 103.663 268.699 102.294 288.18C101.609 297.946 101.16 307.174 100.886 315.611C100.886 317.72 100.778 319.781 100.729 321.783C100.681 323.785 100.729 325.689 100.661 327.642C100.602 331.392 100.661 334.888 100.661 338.081C100.661 341.274 100.808 344.165 100.866 346.694C100.925 349.223 101.033 351.421 101.121 353.198C101.209 354.975 101.267 356.342 101.316 357.309V358.383C101.345 358.5 101.365 358.627 101.365 358.745V358.745Z" fill="#263238"/>
<path d="M108.561 262.537C108.512 262.488 109.059 262.263 109.665 262.781C110.017 263.093 110.193 263.552 110.144 264.021C109.969 264.802 109.196 265.3 108.404 265.124C108.013 265.037 107.681 264.792 107.475 264.46C107.28 264.041 107.299 263.552 107.524 263.142C107.925 262.449 108.502 262.488 108.502 262.556C108.502 262.625 108.082 262.722 107.857 263.298C107.71 263.611 107.71 263.962 107.857 264.275C108.209 264.724 108.864 264.802 109.313 264.46C109.47 264.334 109.597 264.167 109.656 263.972C109.695 263.64 109.597 263.318 109.382 263.064C109.01 262.566 108.561 262.625 108.561 262.537V262.537Z" fill="#263238"/>
<path d="M105.813 306.383C105.765 306.334 106.322 306.099 106.928 306.627C107.27 306.939 107.446 307.398 107.397 307.857C107.29 308.453 106.811 308.912 106.214 308.98C105.628 309.097 105.031 308.824 104.728 308.306C104.533 307.877 104.562 307.388 104.787 306.978C105.188 306.285 105.765 306.334 105.765 306.392C105.765 306.451 105.344 306.568 105.119 307.135C104.973 307.447 104.973 307.799 105.119 308.111C105.403 308.57 105.999 308.716 106.468 308.433C106.693 308.297 106.86 308.072 106.908 307.808C106.957 307.486 106.85 307.154 106.635 306.91C106.273 306.383 105.813 306.451 105.813 306.383V306.383Z" fill="#263238"/>
<path d="M175.961 336.509C175.521 336.499 175.081 336.44 174.651 336.343C173.468 336.089 172.315 335.718 171.21 335.239C167.524 333.608 164.444 330.854 162.411 327.378C161.384 325.444 160.563 323.403 159.976 321.294C159.497 319.605 158.764 317.994 157.816 316.509C157.161 315.523 156.32 314.683 155.332 314.029C154.619 313.589 154.169 313.443 154.189 313.394C154.306 313.394 154.413 313.433 154.521 313.472C154.834 313.57 155.137 313.707 155.43 313.863C156.496 314.468 157.405 315.298 158.109 316.304C159.126 317.808 159.908 319.449 160.426 321.187C161.023 323.257 161.834 325.259 162.851 327.163C164.835 330.561 167.808 333.286 171.366 334.975C172.852 335.6 174.387 336.118 175.961 336.509V336.509Z" fill="#FAFAFA"/>
<path d="M276.114 360.551L259.494 312.368L267.178 266.139C269.417 253.669 270.669 242.703 267.315 236.424C258.35 219.696 247.527 218.192 232.745 214.354C229.694 213.563 206.494 212.782 203.942 213.377C183.812 215.633 170.926 226.297 163.858 243.65L156.193 274.508L145.663 306.734C143.874 310.523 140.462 313.306 136.385 314.282L95.7924 328.139L96.1345 336.079L95.7924 346.821L149.858 336.655C160.69 334.624 171.709 330.63 174.818 320.191L180.635 302.984C183.48 310.269 186.579 316.948 186.579 316.948L182.668 360.336L276.114 360.551V360.551Z" fill="#455A64"/>
<path d="M262.192 274.948L246.745 326.538C244.35 334.526 238.112 340.786 230.125 343.217L165.833 360.326L157.307 338.159L215.42 316.578L229.685 264.919C229.685 264.919 232.979 236.033 259.132 237.518" fill="#455A64"/>
<path d="M259.122 237.517H258.34C257.822 237.517 257.059 237.459 256.052 237.517C253.109 237.605 250.196 238.191 247.459 239.265C245.474 240.037 243.607 241.082 241.915 242.371C239.901 243.914 238.122 245.74 236.626 247.781C233.038 252.868 230.721 258.737 229.851 264.899C225.94 279.274 221.052 296.871 215.645 316.587V316.704H215.538L157.386 338.393L157.532 338.071L159.048 341.977C161.443 348.227 163.809 354.379 166.048 360.209L165.745 360.052L220.983 345.404L227.211 343.744C228.189 343.471 229.254 343.217 230.252 342.924C231.229 342.612 232.187 342.25 233.126 341.83C238.483 339.409 242.795 335.151 245.278 329.819C246.021 328.169 246.628 326.47 247.097 324.722C248.123 321.313 249.101 318.052 250.03 314.956C253.794 302.515 256.815 292.496 258.897 285.66L261.312 277.75L261.948 275.709C262.094 275.25 262.182 275.016 262.182 275.016C262.182 275.016 262.124 275.26 261.997 275.719C261.869 276.178 261.664 276.881 261.4 277.78C260.862 279.606 260.08 282.272 259.073 285.719L250.352 315.083C249.433 318.198 248.456 321.46 247.419 324.848C246.95 326.616 246.344 328.335 245.601 330.005C244.809 331.743 243.831 333.374 242.668 334.887C240.185 338.071 236.968 340.61 233.302 342.289C232.344 342.719 231.366 343.09 230.369 343.412C229.391 343.705 228.345 343.959 227.318 344.242L221.091 345.902L165.862 360.629L165.647 360.687L165.569 360.482C163.33 354.623 160.954 348.49 158.559 342.25L157.043 338.344L156.955 338.11L157.19 338.022L215.313 316.46L215.166 316.616C220.631 296.92 225.51 279.323 229.489 264.968C230.379 258.757 232.745 252.839 236.391 247.732C237.907 245.671 239.715 243.835 241.759 242.292C243.479 241.003 245.366 239.968 247.371 239.197C250.137 238.123 253.07 237.566 256.033 237.527C256.795 237.488 257.558 237.488 258.32 237.527H259.122V237.517Z" fill="#263238"/>
<path d="M218.617 304.986C218.363 305.045 218.099 305.064 217.845 305.045C217.141 305.045 216.447 304.957 215.762 304.8C213.484 304.273 211.382 303.16 209.662 301.588C207.912 300.045 206.553 298.111 205.692 295.953C205.536 295.582 205.409 295.201 205.311 294.81C205.223 294.527 205.155 294.225 205.116 293.932C205.037 293.443 205.008 293.17 205.047 293.17C205.086 293.17 205.311 294.225 206.025 295.807C206.954 297.867 208.313 299.703 209.994 301.207C211.666 302.73 213.68 303.834 215.86 304.449C217.522 304.898 218.617 304.879 218.617 304.986V304.986Z" fill="#263238"/>
<path d="M180.439 265.749C180.302 266.267 180.126 266.774 179.901 267.263C179.52 268.239 178.924 269.616 178.308 271.354C177.037 274.801 175.248 279.694 175.062 285.319C174.974 287.965 175.326 290.602 176.128 293.131C176.783 295.182 177.672 297.145 178.777 298.99C179.52 300.24 180.332 301.451 181.212 302.613C181.564 303.023 181.896 303.463 182.189 303.922C182.189 303.922 182.072 303.834 181.876 303.629C181.681 303.424 181.417 303.14 181.084 302.74C180.126 301.617 179.266 300.426 178.484 299.176C177.32 297.32 176.392 295.328 175.698 293.248C174.866 290.69 174.485 288.004 174.573 285.309C174.876 280.456 176.03 275.69 177.966 271.227C178.66 269.509 179.286 268.142 179.716 267.194C179.921 266.696 180.156 266.208 180.439 265.749V265.749Z" fill="#263238"/>
<path d="M221.071 323.462C220.446 322.036 219.654 320.689 218.705 319.458C217.63 318.335 216.418 317.349 215.098 316.529C215.577 316.568 216.026 316.724 216.427 316.988C218.471 318.081 220.025 319.888 220.807 322.066C221.013 322.505 221.101 322.984 221.071 323.462V323.462Z" fill="#263238"/>
<path d="M158.49 341.245C158.49 341.245 140.1 342.885 140.355 354.818L163.252 353.656L158.49 341.245Z" fill="#B78876"/>
<path d="M188.133 141.28C186.452 149.405 184.848 157.539 183.323 165.693C181.368 176.025 179.608 186.825 182.531 196.942C184.135 202.489 187.087 207.528 190.011 212.508C191.653 215.301 193.452 218.25 196.365 219.696C200.325 221.649 205.331 220.106 208.489 217.01C211.646 213.914 213.24 209.598 214.355 205.292C216.476 196.952 216.945 188.29 217.288 179.687C217.63 171.084 217.806 162.158 215.332 153.819C212.859 145.479 207.442 137.589 199.377 134.288" fill="#263238"/>
<path d="M189.463 134.757C191.761 132.97 194.557 131.935 197.47 131.779C199.817 127.033 205.38 124.855 210.581 123.849C218.246 122.355 217.424 122.15 224.552 125.295C231.679 128.439 241.827 137.325 243.127 145.021C244.31 151.768 246.471 158.311 249.551 164.434C251.506 168.487 255.319 171.27 257.577 175.176C260.051 179.473 260.393 184.658 258.506 189.238C256.668 193.642 252.767 197.529 253.139 202.275C253.344 205.038 253.246 207.011 254.341 209.56C258.047 218.192 256.297 229.696 248.338 234.676C240.38 239.656 228.863 237.918 222.714 230.77C217.376 224.598 216.349 215.79 216.848 207.646C217.346 199.501 219.223 191.406 218.695 183.232" fill="#263238"/>
<path d="M198.595 360.326L198.477 357.514L157.024 353.149L138.859 300.992L61.0654 299.234L84.598 360.326C123.06 360.619 161.062 360.619 198.595 360.326V360.326Z" fill="#263238"/>
<path d="M104.23 330.62C105.354 332.564 107.837 333.237 109.783 332.114C111.728 330.991 112.403 328.511 111.279 326.568C110.154 324.624 107.671 323.95 105.725 325.074C103.78 326.197 103.105 328.677 104.23 330.62V330.62Z" fill="white"/>
<path d="M217.473 234.53C226.8 234.53 235.189 226.59 234.915 214.794L236.597 147.413C236.655 144.484 234.465 142.003 231.552 141.7L203.757 138.771C194.459 137.794 186.119 144.532 185.142 153.819C185.112 154.054 185.093 154.298 185.083 154.532C184.418 165.196 184.017 178.252 185.279 186.211C187.821 202.216 200.11 204.257 200.11 204.257L199.807 215.438C199.338 227.352 208.264 234.52 217.473 234.52V234.53Z" fill="#B78876"/>
<path d="M191.301 163.223C191.291 164.326 192.152 165.244 193.256 165.293C194.332 165.381 195.28 164.58 195.368 163.506C195.368 163.487 195.368 163.467 195.368 163.447C195.388 162.344 194.518 161.426 193.413 161.377C192.337 161.289 191.389 162.09 191.301 163.164C191.301 163.184 191.301 163.203 191.301 163.223Z" fill="#263238"/>
<path d="M187.918 161.328C188.173 161.592 189.737 160.449 191.946 160.449C194.156 160.449 195.779 161.563 196.014 161.289C196.131 161.172 195.877 160.694 195.173 160.176C194.215 159.522 193.071 159.18 191.907 159.2C190.763 159.2 189.639 159.561 188.71 160.235C188.026 160.723 187.801 161.211 187.918 161.328V161.328Z" fill="#263238"/>
<path d="M212.653 163.633C212.634 164.736 213.504 165.654 214.609 165.703C215.684 165.801 216.633 165 216.73 163.926C216.73 163.906 216.73 163.877 216.73 163.858C216.74 162.754 215.88 161.836 214.775 161.787C213.7 161.69 212.751 162.49 212.653 163.565C212.653 163.584 212.653 163.613 212.653 163.633Z" fill="#263238"/>
<path d="M209.662 161.738C209.916 162.012 211.47 160.86 213.68 160.86C215.89 160.86 217.512 161.973 217.757 161.699C217.874 161.582 217.62 161.104 216.906 160.586C215.948 159.942 214.814 159.6 213.651 159.61C212.497 159.61 211.373 159.971 210.444 160.645C209.769 161.133 209.535 161.621 209.662 161.738V161.738Z" fill="#263238"/>
<path d="M201.635 178.125C200.472 177.763 199.269 177.548 198.047 177.48C197.48 177.422 196.942 177.304 196.845 176.923C196.796 176.338 196.933 175.752 197.226 175.244C197.754 173.886 198.311 172.451 198.898 170.957C201.215 164.834 202.896 159.805 202.642 159.717C202.388 159.629 200.315 164.512 197.998 170.625C197.441 172.138 196.903 173.554 196.395 174.951C196.043 175.634 195.945 176.406 196.101 177.158C196.268 177.558 196.61 177.871 197.03 177.988C197.353 178.076 197.676 178.115 198.008 178.115C199.21 178.271 200.433 178.281 201.635 178.125V178.125Z" fill="#263238"/>
<path d="M200.11 204.266C207.657 204.384 215.088 202.401 221.57 198.544C221.57 198.544 216.359 209.54 200.325 208.046L200.11 204.266V204.266Z" fill="#AA6550"/>
<path d="M202.574 183.447C203.424 182.363 204.773 181.806 206.142 181.972C207.13 182.06 208.029 182.539 208.655 183.31C209.261 184.062 209.329 185.117 208.831 185.947C208.098 186.777 206.934 187.07 205.898 186.679C204.852 186.308 203.894 185.742 203.072 185C202.828 184.824 202.613 184.599 202.447 184.345C202.271 184.091 202.271 183.769 202.447 183.515" fill="#AA6550"/>
<path d="M208.146 179.648C207.785 179.648 207.775 182.031 205.722 183.73C203.669 185.429 201.117 185.165 201.097 185.507C201.097 185.654 201.664 185.966 202.75 185.996C204.167 186.025 205.556 185.556 206.66 184.658C207.706 183.798 208.371 182.568 208.528 181.23C208.577 180.234 208.303 179.638 208.146 179.648V179.648Z" fill="#263238"/>
<path d="M208.665 157.872C208.88 158.477 211.089 158.194 213.69 158.506C216.29 158.819 218.383 159.483 218.725 158.985C218.881 158.721 218.51 158.165 217.669 157.579C216.545 156.856 215.264 156.407 213.934 156.27C212.614 156.114 211.275 156.27 210.024 156.729C209.056 157.12 208.577 157.588 208.665 157.872Z" fill="#263238"/>
<path d="M188.73 154.932C189.121 155.44 190.685 154.932 192.484 154.932C194.283 154.932 195.867 155.264 196.219 154.747C196.375 154.493 196.131 153.985 195.456 153.516C193.599 152.344 191.203 152.413 189.424 153.702C188.779 154.17 188.564 154.688 188.73 154.932Z" fill="#263238"/>
<path d="M185.416 151.876C191.448 148.38 197.324 145.147 201.058 139.288C203.141 145.147 207.208 148.077 212.605 151.192C218.001 154.307 224.034 156.133 230.007 157.92C226.986 160.85 226.585 165.586 227.279 169.736C227.974 173.887 229.567 177.881 229.831 182.08C230.173 187.685 228.12 193.183 227.993 198.798C227.817 206.503 231.219 213.778 234.553 220.721L249.033 212.294L246.95 174.746L247.126 148.175L224.552 127.218L195.965 130.343L185.416 151.876V151.876Z" fill="#263238"/>
<path d="M182.199 230.828C189.541 238.24 188.759 251.453 196.864 258.083C201.811 262.146 209.036 262.526 215.107 260.476C221.179 258.425 226.282 254.275 230.965 249.9C235.648 245.525 240.077 240.828 245.406 237.283C250.577 233.836 259.435 231.717 260.687 225.623C261.606 221.17 256.913 215.809 256.033 211.346C254.635 204.257 262.309 198.778 263.59 191.669C266.152 177.461 258.643 160.782 250.822 148.702C243 136.622 238.581 122.941 218.754 121.818C201.009 121.027 188.925 129.533 183.02 141.837C180.087 147.999 179.374 154.971 178.797 161.787C177.457 177.705 176.714 194.579 184.076 208.759C185.601 211.688 187.42 215.419 185.367 218.016C183.49 220.389 179.237 220.291 178.044 223.075C176.851 225.858 179.989 228.592 182.199 230.828V230.828ZM204.314 136.466C206.69 136.368 213.739 136.466 221.599 146.925C226.302 153.184 226.292 163.321 226.194 172.158C226.106 178.73 226.194 195.361 226.194 195.361C226.194 195.361 227.231 216.366 220.084 218.221C211.285 220.506 203.63 218.934 197.069 212.694C190.509 206.454 186.755 197.695 185.259 188.769C183.763 179.844 182.922 170.742 184.096 161.768C184.712 156.26 186.54 150.958 189.434 146.231C192.768 141.007 198.184 137.452 204.314 136.466Z" fill="#852536"/>
<g opacity="0.3">
<path d="M259.122 218.758C253.256 221.942 249.199 226.678 244.457 231.346C239.715 236.014 234.348 240.535 227.837 242.215C221.325 243.894 213.494 241.892 210.239 236.043C228.589 239.168 249.893 224.53 256.189 207.021C255.818 208.544 255.788 210.126 256.13 211.659C256.981 214.081 257.978 216.454 259.122 218.758V218.758Z" fill="black"/>
</g>
<g opacity="0.3">
<path d="M186.159 213.924C187.449 218.719 190.656 222.762 195.026 225.115C196.033 225.535 196.972 226.092 197.822 226.766C198.683 227.479 199.015 228.641 198.673 229.695C198.037 230.779 196.717 231.268 195.525 230.848C194.4 230.398 193.393 229.686 192.592 228.777C189.395 225.692 186.1 222.567 185.2 218.231C185.719 217.596 186.08 216.854 186.256 216.053C186.305 215.34 186.266 214.627 186.159 213.924V213.924Z" fill="black"/>
</g>
<path d="M254.732 210.487C254.664 210.683 254.576 210.878 254.459 211.054C254.253 211.415 253.989 211.972 253.569 212.636C252.415 214.54 251.154 216.376 249.776 218.124C247.752 220.741 245.513 223.182 243.079 225.418C240.116 228.202 236.753 230.526 233.106 232.323C231.18 233.162 229.205 233.865 227.182 234.442C225.304 234.988 223.388 235.408 221.452 235.711C218.177 236.248 214.853 236.365 211.549 236.082C209.329 235.877 207.13 235.457 204.988 234.832C204.226 234.627 203.659 234.393 203.268 234.256C203.062 234.197 202.867 234.119 202.681 234.012C202.681 234.012 203.522 234.246 205.047 234.637C207.188 235.194 209.378 235.555 211.588 235.721C214.853 235.955 218.138 235.799 221.364 235.252C223.271 234.94 225.158 234.51 227.015 233.963C229.02 233.397 230.975 232.694 232.881 231.864C236.479 230.077 239.803 227.772 242.746 225.028C245.171 222.821 247.429 220.428 249.473 217.86C250.871 216.141 252.171 214.345 253.383 212.489C253.823 211.845 254.116 211.308 254.361 210.966C254.468 210.8 254.596 210.634 254.732 210.487Z" fill="#263238"/>
<path d="M209.73 228.602C209.359 228.758 208.968 228.855 208.567 228.904C207.491 229.1 206.396 229.197 205.301 229.197C197.852 229.227 190.998 225.115 187.508 218.543C186.99 217.577 186.559 216.561 186.227 215.516C186.08 215.135 185.992 214.745 185.953 214.344C186.511 215.721 187.136 217.059 187.83 218.368C191.389 224.695 198.027 228.68 205.292 228.836C208.039 228.914 209.72 228.494 209.73 228.602V228.602Z" fill="#263238"/>
<path d="M205.927 252.8C206.113 252.722 206.299 252.673 206.494 252.654C206.866 252.566 207.472 252.488 208.137 252.312C210.151 251.882 212.126 251.326 214.071 250.662C220.475 248.396 226.488 245.174 231.933 241.121C237.369 237.049 242.512 232.606 247.332 227.83L251.77 223.534C252.259 223.055 252.67 222.674 252.982 222.372C253.119 222.225 253.266 222.098 253.432 221.991C253.325 222.157 253.198 222.303 253.061 222.44L251.907 223.67C250.929 224.725 249.434 226.239 247.586 228.084C242.824 232.957 237.692 237.449 232.236 241.541C226.761 245.623 220.67 248.816 214.188 251.003C212.223 251.648 210.209 252.146 208.176 252.507C207.462 252.654 206.885 252.703 206.504 252.751C206.318 252.791 206.123 252.81 205.927 252.8V252.8Z" fill="#263238"/>
<path d="M222.997 79.8857C222.997 80.0908 221.482 80.2568 219.614 80.2568C217.747 80.2568 216.232 80.0908 216.232 79.8857C216.232 79.6807 217.747 79.5146 219.614 79.5146C221.482 79.5146 222.997 79.6807 222.997 79.8857Z" fill="#E0E0E0"/>
<path d="M226.585 70.7065C226.79 70.7065 226.957 72.2397 226.957 74.1244C226.957 76.0091 226.79 77.552 226.585 77.552C226.38 77.552 226.214 76.0189 226.214 74.1244C226.214 72.2299 226.38 70.7065 226.585 70.7065Z" fill="#E0E0E0"/>
<path d="M230.408 79.6611C230.408 79.4561 231.923 79.29 233.791 79.29C235.658 79.29 237.164 79.4561 237.164 79.6611C237.164 79.8662 235.658 80.042 233.791 80.042C231.923 80.042 230.408 79.876 230.408 79.6611Z" fill="#E0E0E0"/>
<path d="M226.82 88.8504C226.614 88.8504 226.448 87.3172 226.448 85.4227C226.448 83.5283 226.614 81.9951 226.82 81.9951C227.025 81.9951 227.191 83.5283 227.191 85.4227C227.191 87.3172 227.025 88.8504 226.82 88.8504Z" fill="#E0E0E0"/>
<path d="M232.285 84.8954C232.119 85.0223 231.454 84.4852 230.789 83.6943C230.124 82.9033 229.724 82.1513 229.88 82.0146C230.036 81.8779 230.701 82.4248 231.366 83.2158C232.031 84.0067 232.441 84.7782 232.285 84.8954Z" fill="#E0E0E0"/>
<path d="M231.962 74.4954C232.109 74.6419 231.669 75.3255 230.985 76.0188C230.3 76.7122 229.616 77.1516 229.469 76.9954C229.323 76.8391 229.763 76.1751 230.447 75.4817C231.131 74.7884 231.816 74.349 231.962 74.4954V74.4954Z" fill="#E0E0E0"/>
<path d="M224.219 77.1513C224.083 77.3076 223.447 76.9951 222.792 76.4482C222.137 75.9013 221.707 75.335 221.814 75.1787C221.922 75.0225 222.587 75.3252 223.242 75.8721C223.897 76.4189 224.346 76.9951 224.219 77.1513Z" fill="#E0E0E0"/>
<path d="M223.916 81.7411C224.063 81.8779 223.682 82.5419 223.056 83.2352C222.43 83.9286 221.804 84.3583 221.648 84.2118C221.492 84.0653 221.883 83.4013 222.508 82.7177C223.134 82.0341 223.799 81.6044 223.916 81.7411V81.7411Z" fill="#E0E0E0"/>
<path d="M56.7637 90.7934C56.7637 90.9985 55.2483 91.1645 53.3809 91.1645C51.5136 91.1645 49.9982 91.0473 49.9982 90.7934C49.9982 90.5395 51.5038 90.4126 53.3711 90.4126C55.2385 90.4126 56.7637 90.5884 56.7637 90.7934Z" fill="#1E1E1E"/>
<path d="M60.3517 81.6045C60.5571 81.6045 60.7233 83.1376 60.7233 85.0321C60.7233 86.9266 60.5571 88.4597 60.3517 88.4597C60.1464 88.4597 59.9802 86.9266 59.9802 85.0321C59.9802 83.1376 60.1464 81.6045 60.3517 81.6045V81.6045Z" fill="#1E1E1E"/>
<path d="M64.1743 90.5688C64.1743 90.3638 65.6897 90.1978 67.5571 90.1978C69.4244 90.1978 70.93 90.3638 70.93 90.5688C70.93 90.7739 69.4244 90.9399 67.5571 90.9399C65.6897 90.9399 64.1743 90.7739 64.1743 90.5688Z" fill="#1E1E1E"/>
<path d="M60.5864 99.7581C60.381 99.7581 60.2148 98.2152 60.2148 96.3305C60.2148 94.4458 60.381 92.9028 60.5864 92.9028C60.7917 92.9028 60.9579 94.436 60.9579 96.3305C60.9579 98.2249 60.7526 99.7581 60.5864 99.7581Z" fill="#1E1E1E"/>
<path d="M66.0515 95.8132C65.8853 95.9499 65.2205 95.4128 64.5557 94.6218C63.8909 93.8308 63.49 93.0691 63.6465 92.9422C63.8029 92.8152 64.4677 93.3426 65.1325 94.1336C65.7973 94.9245 66.208 95.6862 66.0515 95.8132V95.8132Z" fill="#1E1E1E"/>
<path d="M65.7289 85.4031C65.8756 85.5496 65.4356 86.2234 64.7512 86.9167C64.0669 87.61 63.3825 88.0592 63.2358 87.8932C63.0892 87.7272 63.5291 87.0729 64.2135 86.3698C64.8979 85.6667 65.5823 85.2566 65.7289 85.4031V85.4031Z" fill="#1E1E1E"/>
<path d="M57.9857 88.0494C57.8489 88.2154 57.2134 87.903 56.5583 87.3561C55.9033 86.8092 55.4731 86.2331 55.5807 86.0768C55.6882 85.9206 56.353 86.2331 57.0081 86.7799C57.6631 87.3268 58.1128 87.8932 57.9857 88.0494V88.0494Z" fill="#1E1E1E"/>
<path d="M57.6827 92.6391C57.8293 92.7856 57.4481 93.4496 56.8223 94.1332C56.1966 94.8168 55.5709 95.266 55.4145 95.1097C55.2581 94.9535 55.6491 94.2992 56.2749 93.6156C56.9006 92.9321 57.5263 92.5024 57.6827 92.6391Z" fill="#1E1E1E"/>
<path d="M310.44 177.539C310.44 177.744 308.925 177.91 307.057 177.91C305.19 177.91 303.675 177.793 303.675 177.539C303.675 177.285 305.18 177.158 307.048 177.158C308.915 177.158 310.44 177.334 310.44 177.539V177.539Z" fill="#1E1E1E"/>
<path d="M314.028 168.35C314.234 168.35 314.4 169.883 314.4 171.777C314.4 173.672 314.234 175.205 314.028 175.205C313.823 175.205 313.657 173.672 313.657 171.777C313.657 169.883 313.823 168.35 314.028 168.35Z" fill="#1E1E1E"/>
<path d="M317.851 177.314C317.851 177.109 319.366 176.943 321.234 176.943C323.101 176.943 324.607 177.109 324.607 177.314C324.607 177.52 323.101 177.686 321.234 177.686C319.366 177.686 317.851 177.52 317.851 177.314Z" fill="#1E1E1E"/>
<path d="M314.263 186.504C314.058 186.504 313.891 184.961 313.891 183.076C313.891 181.191 314.058 179.648 314.263 179.648C314.468 179.648 314.634 181.182 314.634 183.076C314.634 184.971 314.429 186.504 314.263 186.504Z" fill="#1E1E1E"/>
<path d="M319.728 182.558C319.562 182.695 318.897 182.158 318.232 181.367C317.567 180.576 317.166 179.814 317.323 179.687C317.479 179.56 318.144 180.088 318.809 180.879C319.474 181.67 319.884 182.431 319.728 182.558Z" fill="#1E1E1E"/>
<path d="M319.405 172.149C319.552 172.295 319.112 172.969 318.428 173.662C317.743 174.356 317.059 174.805 316.912 174.639C316.766 174.473 317.206 173.819 317.89 173.115C318.574 172.412 319.259 172.002 319.405 172.149Z" fill="#1E1E1E"/>
<path d="M311.662 174.795C311.525 174.961 310.89 174.649 310.235 174.102C309.58 173.555 309.15 172.979 309.257 172.822C309.365 172.666 310.03 172.979 310.685 173.526C311.34 174.072 311.789 174.639 311.662 174.795Z" fill="#1E1E1E"/>
<path d="M311.359 179.385C311.506 179.531 311.124 180.195 310.499 180.879C309.873 181.562 309.247 182.012 309.091 181.855C308.934 181.699 309.326 181.045 309.951 180.361C310.577 179.678 311.203 179.248 311.359 179.385Z" fill="#1E1E1E"/>
<path d="M419.02 252.917C419.02 253.123 417.505 253.289 415.638 253.289C413.77 253.289 412.255 253.171 412.255 252.917C412.255 252.664 413.76 252.537 415.628 252.537C417.495 252.537 419.02 252.712 419.02 252.917V252.917Z" fill="#E0E0E0"/>
<path d="M422.608 243.729C422.814 243.729 422.98 245.262 422.98 247.156C422.98 249.051 422.814 250.584 422.608 250.584C422.403 250.584 422.237 249.051 422.237 247.156C422.237 245.262 422.403 243.729 422.608 243.729Z" fill="#E0E0E0"/>
<path d="M426.431 252.693C426.431 252.488 427.947 252.322 429.814 252.322C431.681 252.322 433.187 252.488 433.187 252.693C433.187 252.898 431.681 253.064 429.814 253.064C427.947 253.064 426.431 252.898 426.431 252.693Z" fill="#E0E0E0"/>
<path d="M422.843 261.882C422.638 261.882 422.472 260.339 422.472 258.454C422.472 256.57 422.638 255.027 422.843 255.027C423.049 255.027 423.215 256.56 423.215 258.454C423.215 260.349 423.009 261.882 422.843 261.882Z" fill="#E0E0E0"/>
<path d="M428.308 257.937C428.142 258.073 427.477 257.536 426.812 256.745C426.148 255.954 425.747 255.193 425.903 255.066C426.06 254.939 426.724 255.466 427.389 256.257C428.054 257.048 428.465 257.81 428.308 257.937Z" fill="#E0E0E0"/>
<path d="M427.986 247.527C428.132 247.674 427.692 248.347 427.008 249.041C426.324 249.734 425.639 250.183 425.493 250.017C425.346 249.851 425.786 249.197 426.47 248.494C427.155 247.791 427.839 247.381 427.986 247.527Z" fill="#E0E0E0"/>
<path d="M420.242 250.173C420.105 250.339 419.47 250.027 418.815 249.48C418.16 248.933 417.73 248.357 417.837 248.201C417.945 248.045 418.61 248.357 419.265 248.904C419.92 249.451 420.369 250.017 420.242 250.173Z" fill="#E0E0E0"/>
<path d="M419.939 254.763C420.086 254.91 419.705 255.574 419.079 256.257C418.453 256.941 417.828 257.39 417.671 257.234C417.515 257.078 417.906 256.423 418.532 255.74C419.157 255.056 419.783 254.626 419.939 254.763Z" fill="#E0E0E0"/>
<path d="M412.206 88.46L412.49 89.1631C413.008 90.3837 413.985 91.3505 415.208 91.8583L415.97 92.161L415.247 92.4637C413.995 92.9618 413.008 93.9481 412.499 95.198L412.294 95.7156L411.991 95.0711C411.424 93.909 410.436 93.0008 409.214 92.5614L408.55 92.3173L409.42 91.8974C410.515 91.37 411.375 90.4618 411.835 89.3388L412.206 88.46V88.46Z" fill="#E0E0E0"/>
<path d="M267.755 135.05L268.039 135.753C268.557 136.974 269.534 137.941 270.757 138.449L271.519 138.751L270.796 139.054C269.544 139.552 268.557 140.538 268.048 141.788L267.843 142.306L267.54 141.661C266.973 140.499 265.986 139.591 264.763 139.152L264.099 138.908L264.969 138.488C266.064 137.96 266.924 137.052 267.384 135.929L267.755 135.05Z" fill="#E0E0E0"/>
<path d="M398.988 110.227L399.428 111.281C400.19 113.127 401.667 114.582 403.515 115.334L404.668 115.793L403.563 116.242C401.686 117.004 400.2 118.488 399.438 120.363L399.135 121.134L398.665 120.158C397.824 118.4 396.329 117.043 394.491 116.379L393.513 116.017L394.823 115.383C396.466 114.582 397.756 113.215 398.46 111.535L398.988 110.227V110.227Z" fill="#263238"/>
<path d="M151.735 189.16L151.94 189.658C152.312 190.527 153.015 191.21 153.895 191.552L154.433 191.777L153.915 191.982C153.025 192.333 152.312 193.046 151.96 193.935L151.813 194.296L151.588 193.847C151.197 193.017 150.493 192.382 149.633 192.07L149.163 191.904L149.779 191.601C150.552 191.23 151.158 190.585 151.49 189.794L151.735 189.16V189.16Z" fill="#263238"/>
<path d="M228.619 160.723L228.824 161.221C229.196 162.09 229.9 162.774 230.78 163.116L231.317 163.34L230.799 163.545C229.909 163.897 229.196 164.61 228.844 165.498L228.697 165.86L228.472 165.41C228.081 164.58 227.377 163.946 226.517 163.633L226.048 163.467L226.664 163.164C227.436 162.793 228.042 162.149 228.374 161.358L228.619 160.723V160.723Z" fill="#263238"/>
<path d="M483.234 98.2153C460.288 98.2251 441.702 116.818 441.712 139.728C441.712 151.153 446.434 162.061 454.764 169.903L449.152 189.531L468.999 178.691C490.566 186.543 514.422 175.439 522.282 153.907C530.143 132.374 519.026 108.537 497.469 100.686C492.913 99.0259 488.093 98.1763 483.244 98.1763V98.2153H483.234Z" fill="#F5F5F5"/>
<path d="M483.234 98.2153H483.977L486.147 98.3032C486.626 98.3032 487.125 98.3032 487.751 98.3911L489.706 98.6743C490.4 98.7915 491.153 98.8598 491.945 99.0356L494.438 99.6606C504.498 102.375 513.151 108.801 518.635 117.648L519.926 119.767C520.297 120.51 520.669 121.271 521.04 122.043C523.406 126.964 524.736 132.316 524.951 137.775C525.049 139.728 525.02 141.681 524.853 143.634C524.785 144.61 524.58 145.587 524.443 146.563C524.365 147.061 524.296 147.54 524.218 148.058L523.837 149.542C522.878 153.643 521.275 157.559 519.075 161.153C514.392 168.965 507.285 175.029 498.828 178.428C489.716 182.021 479.646 182.363 470.309 179.404L468.96 178.935H469.165C462.4 182.636 455.761 186.269 449.318 189.775L448.8 190.068L448.957 189.492C450.912 182.724 452.779 176.162 454.578 169.863L454.647 170.108C452.066 167.656 449.788 164.893 447.881 161.885C446.073 158.985 444.616 155.88 443.54 152.628C442.533 149.513 441.908 146.3 441.653 143.038C441.575 142.247 441.546 141.456 441.536 140.675C441.487 139.894 441.487 139.112 441.536 138.331C441.556 136.808 441.693 135.275 441.937 133.771C442.758 128.166 444.733 122.785 447.725 117.971C450.286 113.84 453.522 110.188 457.316 107.151L459.897 105.198L462.507 103.616C463.319 103.118 464.169 102.668 465.039 102.287C465.88 101.907 466.662 101.467 467.484 101.174C470.211 100.09 473.037 99.2895 475.931 98.7817L479.079 98.3227L481.386 98.2251H482.804L481.396 98.3227L479.089 98.4595L475.96 98.9477C473.086 99.4848 470.28 100.305 467.572 101.399C466.76 101.692 465.988 102.141 465.157 102.522C464.287 102.912 463.446 103.362 462.634 103.86L460.014 105.451L457.502 107.404C453.757 110.422 450.56 114.055 448.038 118.146C445.105 122.931 443.179 128.273 442.397 133.829C442.162 135.324 442.035 136.837 442.005 138.351C441.957 139.122 441.957 139.894 442.005 140.665C442.005 141.437 442.005 142.218 442.123 143.009C442.387 146.231 443.012 149.405 444.01 152.481C446.18 159.063 449.964 165 455.018 169.756L455.126 169.854L455.077 170C453.288 176.289 451.411 182.851 449.485 189.628L449.123 189.336L468.96 178.496L469.058 178.437H469.175L470.514 178.896C479.734 181.826 489.687 181.484 498.681 177.92C507.04 174.57 514.079 168.574 518.714 160.86C520.894 157.315 522.487 153.438 523.446 149.386C523.573 148.897 523.7 148.409 523.817 147.921L524.052 146.436C524.179 145.46 524.384 144.483 524.462 143.507C524.629 141.583 524.658 139.65 524.57 137.726C524.384 132.316 523.084 126.994 520.747 122.101L519.652 119.846L518.381 117.746C515.311 112.775 511.225 108.518 506.375 105.256C502.719 102.805 498.681 100.95 494.438 99.7583L491.955 99.104C491.173 98.9282 490.42 98.8501 489.735 98.7231L487.78 98.4204C487.193 98.3325 486.656 98.3423 486.186 98.3032L484.016 98.1665C483.478 98.2446 483.234 98.2153 483.234 98.2153V98.2153Z" fill="#263238"/>
<path d="M474.122 134.044H477.055L483.469 125.109V119.25C483.469 119.25 488.015 118.976 487.477 126.652C486.939 134.327 487.477 132.365 487.477 132.365C487.477 132.365 497.117 132.365 497.919 133.243C498.505 133.849 498.769 143.419 498.896 148.614C499.023 151.192 497.381 153.516 494.917 154.268C494.575 154.356 494.223 154.405 493.871 154.405C491.466 154.405 479.206 152.452 479.206 152.452H474.122V134.044V134.044Z" fill="#263238"/>
<path d="M465.743 132.433L467.552 152.511H472.587V132.833L465.743 132.433Z" fill="#263238"/>
</g>
<path d="M9 1H423C450.614 1 473 23.3858 473 51V51" stroke="#263238" stroke-linecap="round"/>
<path d="M473 410H60C32.3857 410 9.99999 387.614 9.99999 360V360" stroke="#263238" stroke-width="2" stroke-linecap="round"/>
<defs>
<clipPath id="clip0_2566_5201">
<rect width="525" height="310" fill="white" transform="translate(0 51)"/>
</clipPath>
</defs>
</svg>
