<svg width="445" height="369" viewBox="0 0 445 369" fill="none" xmlns="http://www.w3.org/2000/svg">
<g clip-path="url(#clip0_2566_5200)">
<path d="M401.434 318.077C401.434 316.849 401.722 213.911 401.63 51.2273L401.781 51.3788H1.15995L1.34516 51.1936V318.035L1.16837 317.859L401.502 318.035L1.17679 318.212H1V51H402V51.1515C401.84 213.911 401.434 316.849 401.434 318.077Z" fill="#263238"/>
<path d="M184.953 75.899C184.953 76.0757 183.648 76.2188 182.04 76.2188C180.432 76.2188 179.127 76.0757 179.127 75.899C179.127 75.7222 180.432 75.5791 182.04 75.5791C183.648 75.5791 184.953 75.7222 184.953 75.899Z" fill="#263238"/>
<path d="M188.042 67.9863C188.219 67.9863 188.362 69.3079 188.362 70.9324C188.362 72.557 188.219 73.887 188.042 73.887C187.865 73.887 187.722 72.5654 187.722 70.9324C187.722 69.2995 187.865 67.9863 188.042 67.9863Z" fill="#263238"/>
<path d="M191.334 75.7051C191.334 75.5284 192.639 75.3853 194.247 75.3853C195.855 75.3853 197.151 75.5284 197.151 75.7051C197.151 75.8819 195.855 76.0334 194.247 76.0334C192.639 76.0334 191.334 75.8903 191.334 75.7051Z" fill="#263238"/>
<path d="M188.244 83.6259C188.067 83.6259 187.924 82.3043 187.924 80.6713C187.924 79.0383 188.067 77.7168 188.244 77.7168C188.421 77.7168 188.564 79.0383 188.564 80.6713C188.564 82.3043 188.421 83.6259 188.244 83.6259Z" fill="#263238"/>
<path d="M192.95 80.217C192.807 80.3265 192.235 79.8635 191.662 79.1817C191.09 78.4999 190.744 77.8517 190.879 77.7339C191.014 77.6161 191.586 78.0874 192.159 78.7692C192.731 79.4511 193.085 80.116 192.95 80.217Z" fill="#263238"/>
<path d="M192.672 71.2523C192.799 71.3786 192.42 71.9678 191.83 72.5654C191.241 73.1631 190.652 73.5418 190.526 73.4072C190.399 73.2725 190.778 72.7001 191.367 72.1025C191.957 71.5048 192.546 71.126 192.672 71.2523V71.2523Z" fill="#263238"/>
<path d="M186.005 73.5418C185.887 73.6765 185.34 73.4072 184.776 72.9358C184.212 72.4644 183.841 71.9762 183.934 71.8415C184.027 71.7068 184.599 71.9678 185.163 72.4391C185.727 72.9105 186.114 73.4072 186.005 73.5418Z" fill="#263238"/>
<path d="M185.744 77.4984C185.87 77.6162 185.542 78.1886 185.003 78.7863C184.464 79.3839 183.926 79.7543 183.791 79.628C183.656 79.5017 183.993 78.9294 184.532 78.3401C185.07 77.7509 185.643 77.3806 185.744 77.4984V77.4984Z" fill="#263238"/>
<path d="M41.8129 85.3009C41.8129 85.4777 40.508 85.6208 38.9001 85.6208C37.2922 85.6208 35.9873 85.5198 35.9873 85.3009C35.9873 85.0821 37.2838 84.9727 38.8917 84.9727C40.4996 84.9727 41.8129 85.1242 41.8129 85.3009Z" fill="#E0E0E0"/>
<path d="M44.9024 77.3804C45.0792 77.3804 45.2223 78.7019 45.2223 80.3349C45.2223 81.9679 45.0792 83.2894 44.9024 83.2894C44.7256 83.2894 44.5825 81.9679 44.5825 80.3349C44.5825 78.7019 44.7256 77.3804 44.9024 77.3804V77.3804Z" fill="#E0E0E0"/>
<path d="M48.1941 85.1075C48.1941 84.9307 49.499 84.7876 51.1069 84.7876C52.7148 84.7876 54.0113 84.9307 54.0113 85.1075C54.0113 85.2842 52.7148 85.4273 51.1069 85.4273C49.499 85.4273 48.1941 85.2842 48.1941 85.1075Z" fill="#E0E0E0"/>
<path d="M45.1046 93.0282C44.9278 93.0282 44.7847 91.6982 44.7847 90.0737C44.7847 88.4491 44.9278 87.1191 45.1046 87.1191C45.2814 87.1191 45.4245 88.4407 45.4245 90.0737C45.4245 91.7067 45.2477 93.0282 45.1046 93.0282Z" fill="#E0E0E0"/>
<path d="M49.8105 89.6277C49.6674 89.7455 49.0949 89.2826 48.5225 88.6008C47.95 87.919 47.6049 87.2624 47.7395 87.153C47.8742 87.0435 48.4467 87.4981 49.0192 88.1799C49.5916 88.8617 49.9452 89.5183 49.8105 89.6277Z" fill="#E0E0E0"/>
<path d="M49.5327 80.6549C49.659 80.7811 49.2801 81.3619 48.6909 81.9596C48.1016 82.5572 47.5123 82.9444 47.386 82.8013C47.2597 82.6582 47.6385 82.0942 48.2278 81.4882C48.8171 80.8821 49.4064 80.5286 49.5327 80.6549V80.6549Z" fill="#E0E0E0"/>
<path d="M42.8652 82.9357C42.7473 83.0788 42.2001 82.8094 41.6361 82.338C41.072 81.8667 40.7016 81.37 40.7942 81.2354C40.8868 81.1007 41.4593 81.37 42.0233 81.8414C42.5873 82.3128 42.9746 82.801 42.8652 82.9357V82.9357Z" fill="#E0E0E0"/>
<path d="M42.6043 86.8919C42.7305 87.0182 42.4022 87.5906 41.8634 88.1798C41.3246 88.769 40.7859 89.1562 40.6512 89.0216C40.5165 88.8869 40.8532 88.3229 41.392 87.7337C41.9308 87.1445 42.4696 86.7741 42.6043 86.8919Z" fill="#E0E0E0"/>
<path d="M314.48 167.093C314.48 167.27 313.175 167.413 311.567 167.413C309.959 167.413 308.654 167.312 308.654 167.093C308.654 166.875 309.95 166.765 311.558 166.765C313.166 166.765 314.48 166.917 314.48 167.093V167.093Z" fill="#E0E0E0"/>
<path d="M317.569 159.173C317.746 159.173 317.889 160.494 317.889 162.127C317.889 163.76 317.746 165.082 317.569 165.082C317.392 165.082 317.249 163.76 317.249 162.127C317.249 160.494 317.392 159.173 317.569 159.173Z" fill="#E0E0E0"/>
<path d="M320.861 166.9C320.861 166.723 322.166 166.58 323.774 166.58C325.382 166.58 326.678 166.723 326.678 166.9C326.678 167.077 325.382 167.22 323.774 167.22C322.166 167.22 320.861 167.077 320.861 166.9Z" fill="#E0E0E0"/>
<path d="M317.771 174.821C317.595 174.821 317.451 173.491 317.451 171.866C317.451 170.242 317.595 168.912 317.771 168.912C317.948 168.912 318.091 170.233 318.091 171.866C318.091 173.499 317.914 174.821 317.771 174.821Z" fill="#E0E0E0"/>
<path d="M322.477 171.42C322.334 171.538 321.762 171.075 321.189 170.393C320.617 169.711 320.272 169.055 320.406 168.945C320.541 168.836 321.113 169.291 321.686 169.972C322.258 170.654 322.612 171.311 322.477 171.42Z" fill="#E0E0E0"/>
<path d="M322.199 162.447C322.326 162.574 321.947 163.154 321.357 163.752C320.768 164.35 320.179 164.737 320.053 164.594C319.926 164.451 320.305 163.887 320.894 163.281C321.484 162.675 322.073 162.321 322.199 162.447Z" fill="#E0E0E0"/>
<path d="M315.532 164.728C315.414 164.871 314.867 164.602 314.303 164.131C313.739 163.659 313.368 163.163 313.461 163.028C313.554 162.893 314.126 163.163 314.69 163.634C315.254 164.105 315.641 164.593 315.532 164.728Z" fill="#E0E0E0"/>
<path d="M315.271 168.684C315.397 168.811 315.069 169.383 314.53 169.972C313.991 170.562 313.453 170.949 313.318 170.814C313.183 170.679 313.52 170.115 314.059 169.526C314.598 168.937 315.136 168.567 315.271 168.684Z" fill="#E0E0E0"/>
<path d="M365.167 266.479C365.167 266.655 363.863 266.799 362.255 266.799C360.647 266.799 359.342 266.698 359.342 266.479C359.342 266.26 360.638 266.15 362.246 266.15C363.854 266.15 365.167 266.302 365.167 266.479V266.479Z" fill="#E0E0E0"/>
<path d="M368.257 258.558C368.434 258.558 368.577 259.879 368.577 261.512C368.577 263.145 368.434 264.467 368.257 264.467C368.08 264.467 367.937 263.145 367.937 261.512C367.937 259.879 368.08 258.558 368.257 258.558Z" fill="#E0E0E0"/>
<path d="M371.549 266.285C371.549 266.108 372.853 265.965 374.461 265.965C376.069 265.965 377.366 266.108 377.366 266.285C377.366 266.461 376.069 266.605 374.461 266.605C372.853 266.605 371.549 266.461 371.549 266.285Z" fill="#E0E0E0"/>
<path d="M368.459 274.206C368.282 274.206 368.139 272.876 368.139 271.251C368.139 269.627 368.282 268.297 368.459 268.297C368.636 268.297 368.779 269.618 368.779 271.251C368.779 272.884 368.602 274.206 368.459 274.206Z" fill="#E0E0E0"/>
<path d="M373.165 270.805C373.022 270.923 372.449 270.46 371.877 269.778C371.304 269.096 370.959 268.44 371.094 268.33C371.229 268.221 371.801 268.675 372.374 269.357C372.946 270.039 373.3 270.696 373.165 270.805Z" fill="#E0E0E0"/>
<path d="M372.887 261.832C373.013 261.958 372.635 262.539 372.045 263.137C371.456 263.734 370.867 264.122 370.74 263.979C370.614 263.835 370.993 263.271 371.582 262.665C372.172 262.059 372.761 261.706 372.887 261.832Z" fill="#E0E0E0"/>
<path d="M366.22 264.113C366.102 264.256 365.555 263.987 364.991 263.515C364.427 263.044 364.056 262.547 364.149 262.413C364.241 262.278 364.814 262.547 365.378 263.019C365.942 263.49 366.329 263.978 366.22 264.113Z" fill="#E0E0E0"/>
<path d="M365.959 268.069C366.085 268.195 365.757 268.768 365.218 269.357C364.679 269.946 364.14 270.333 364.006 270.199C363.871 270.064 364.208 269.5 364.746 268.911C365.285 268.322 365.824 267.951 365.959 268.069Z" fill="#E0E0E0"/>
<path d="M347.876 83.2896L348.12 83.8956C348.566 84.9478 349.408 85.7811 350.46 86.2188L351.117 86.4798L350.494 86.7407C349.416 87.17 348.566 88.0202 348.128 89.0976L347.952 89.5437L347.691 88.9882C347.202 87.9865 346.352 87.2037 345.3 86.8249L344.727 86.6144L345.477 86.2525C346.419 85.798 347.16 85.0151 347.556 84.0471L347.876 83.2896V83.2896Z" fill="#E0E0E0"/>
<path d="M42.8399 290.182L43.0841 290.788C43.5302 291.84 44.3721 292.674 45.4244 293.111L46.081 293.372L45.4581 293.633C44.3805 294.063 43.5302 294.913 43.0925 295.99L42.9157 296.436L42.6547 295.881C42.1664 294.879 41.3162 294.096 40.2639 293.717L39.6914 293.507L40.4407 293.145C41.3835 292.691 42.1244 291.908 42.52 290.94L42.8399 290.182Z" fill="#E0E0E0"/>
<path d="M336.494 102.052L336.873 102.961C337.529 104.552 338.801 105.806 340.392 106.454L341.385 106.85L340.434 107.237C338.818 107.893 337.538 109.173 336.881 110.789L336.62 111.454L336.216 110.612C335.492 109.097 334.204 107.927 332.622 107.355L331.78 107.043L332.908 106.496C334.322 105.806 335.433 104.627 336.039 103.18L336.494 102.052V102.052Z" fill="#263238"/>
<path d="M26.7858 192.758L26.9626 193.188C27.2825 193.937 27.8887 194.526 28.6463 194.821L29.1093 195.014L28.6632 195.191C27.8971 195.494 27.2825 196.108 26.9795 196.874L26.8532 197.186L26.6596 196.799C26.3228 196.083 25.7167 195.536 24.9759 195.267L24.5718 195.124L25.1021 194.863C25.7672 194.543 26.2892 193.987 26.5754 193.305L26.7858 192.758Z" fill="#263238"/>
<path d="M189.793 145.579L189.97 146.008C190.29 146.757 190.896 147.346 191.654 147.641L192.117 147.834L191.671 148.011C190.905 148.314 190.29 148.929 189.987 149.695L189.861 150.006L189.667 149.619C189.33 148.904 188.724 148.356 187.983 148.087L187.579 147.944L188.11 147.683C188.775 147.363 189.297 146.808 189.583 146.126L189.793 145.579V145.579Z" fill="#263238"/>
<path d="M409.036 91.6982C389.278 91.7066 373.274 107.733 373.283 127.481C373.283 137.329 377.349 146.732 384.522 153.491L379.689 170.41L396.779 161.066C415.35 167.834 435.891 158.263 442.66 139.703C449.428 121.142 439.856 100.595 421.294 93.8278C417.371 92.3969 413.22 91.6646 409.045 91.6646V91.6982H409.036Z" fill="#F5F5F5"/>
<path d="M409.036 91.6983H409.676L411.545 91.7741C411.957 91.7741 412.387 91.7741 412.926 91.8499L414.609 92.094C415.207 92.195 415.855 92.2539 416.537 92.4054L418.684 92.9441C427.346 95.2842 434.797 100.823 439.52 108.449L440.631 110.276C440.951 110.915 441.271 111.572 441.591 112.237C443.628 116.479 444.773 121.092 444.958 125.797C445.042 127.481 445.017 129.164 444.874 130.848C444.815 131.69 444.638 132.531 444.52 133.373C444.453 133.802 444.394 134.215 444.327 134.661L443.998 135.94C443.173 139.476 441.793 142.851 439.898 145.949C435.866 152.683 429.746 157.91 422.464 160.839C414.618 163.937 405.947 164.232 397.907 161.681L396.745 161.277H396.922C391.096 164.467 385.38 167.599 379.832 170.62L379.386 170.873L379.521 170.376C381.205 164.543 382.813 158.886 384.362 153.457L384.421 153.668C382.198 151.555 380.237 149.173 378.595 146.58C377.037 144.08 375.783 141.403 374.857 138.6C373.99 135.915 373.451 133.146 373.232 130.334C373.165 129.653 373.14 128.971 373.131 128.297C373.089 127.624 373.089 126.951 373.131 126.277C373.148 124.964 373.266 123.643 373.476 122.346C374.184 117.515 375.884 112.877 378.46 108.727C380.666 105.166 383.452 102.018 386.719 99.4003L388.941 97.7168L391.189 96.3532C391.888 95.9239 392.62 95.5367 393.369 95.2084C394.093 94.8801 394.767 94.5014 395.474 94.2488C397.823 93.3145 400.256 92.6243 402.748 92.1866L405.458 91.7909L407.445 91.7068H408.666L407.454 91.7909L405.467 91.9088L402.773 92.3296C400.298 92.7926 397.882 93.4997 395.55 94.4424C394.851 94.695 394.186 95.0822 393.47 95.4104C392.721 95.7471 391.997 96.1343 391.298 96.5636L389.042 97.9357L386.879 99.6192C383.654 102.22 380.902 105.351 378.73 108.878C376.204 113.003 374.546 117.607 373.872 122.397C373.67 123.685 373.561 124.989 373.535 126.294C373.493 126.959 373.493 127.624 373.535 128.289C373.535 128.954 373.535 129.627 373.636 130.309C373.864 133.087 374.402 135.823 375.261 138.474C377.13 144.148 380.388 149.265 384.74 153.365L384.833 153.449L384.791 153.575C383.25 158.996 381.634 164.652 379.976 170.494L379.664 170.242L396.745 160.898L396.829 160.848H396.93L398.084 161.243C406.022 163.769 414.592 163.474 422.337 160.402C429.535 157.514 435.597 152.346 439.587 145.696C441.464 142.641 442.836 139.299 443.661 135.806C443.771 135.385 443.88 134.964 443.981 134.543L444.183 133.264C444.293 132.422 444.47 131.58 444.537 130.739C444.68 129.08 444.705 127.414 444.63 125.755C444.47 121.092 443.35 116.505 441.338 112.287L440.395 110.343L439.301 108.533C436.657 104.249 433.138 100.579 428.963 97.7673C425.814 95.6545 422.337 94.0552 418.684 93.0283L416.545 92.4643C415.872 92.3128 415.224 92.2455 414.634 92.136L412.951 91.8751C412.446 91.7993 411.983 91.8078 411.579 91.7741L409.71 91.6562C409.247 91.7236 409.036 91.6983 409.036 91.6983V91.6983Z" fill="#263238"/>
<path d="M401.19 122.582H403.716L409.238 114.88V109.83C409.238 109.83 413.153 109.594 412.69 116.21C412.227 122.826 412.69 121.134 412.69 121.134C412.69 121.134 420.99 121.134 421.681 121.892C422.186 122.414 422.413 130.663 422.523 135.141C422.632 137.363 421.218 139.367 419.096 140.015C418.802 140.09 418.499 140.133 418.196 140.133C416.125 140.133 405.568 138.449 405.568 138.449H401.19V122.582V122.582Z" fill="#263238"/>
<path d="M393.975 121.193L395.533 138.499H399.868V121.538L393.975 121.193Z" fill="#263238"/>
<path d="M316.071 242.809L286.37 207.792L286.303 207.859C285.133 206.706 284.106 205.679 283.584 205.082C273.296 193.163 265.122 189.088 249.371 188.87L218.761 189.526C213.07 189.998 200.156 187.565 188.211 203.398C166.449 230.662 148.997 253.852 149.982 264.795C151.22 278.642 204.037 318.12 204.037 318.12L276.638 318.061L276.487 312.53L307.812 292.202C319.11 284.568 325.011 277.893 326.442 267.792C327.697 258.802 322.124 249.543 316.071 242.809V242.809ZM183.058 263.65C183.058 261.521 194.508 248.095 200.737 240.923L203.978 271.925L203.423 284.037L183.058 263.65V263.65ZM275.165 282.733L273.439 241.874L297.112 266.361L275.165 282.733Z" fill="#455A64"/>
<path d="M229.797 259.92L176.129 286.44C174.704 287.145 174.119 288.871 174.824 290.297L192.172 325.394C192.877 326.819 194.603 327.403 196.029 326.699L249.696 300.178C251.122 299.474 251.706 297.747 251.001 296.322L233.653 261.225C232.949 259.8 231.222 259.215 229.797 259.92Z" fill="#E0E0E0"/>
<path d="M212.683 290.014C214.249 289.054 216.295 289.551 217.254 291.117C218.214 292.682 217.717 294.728 216.151 295.687C214.586 296.647 212.54 296.15 211.58 294.585C210.621 293.019 211.117 290.974 212.683 290.014Z" fill="white"/>
<path d="M272.985 212.801C272.993 212.893 272.993 212.978 272.985 213.07V216.858C272.985 219.501 273.035 223.272 273.069 227.927C273.12 237.27 273.482 250.166 274.206 264.408C274.93 278.651 275.67 291.538 276.066 300.873C276.268 305.536 276.403 309.29 276.479 311.933C276.479 313.213 276.529 314.223 276.546 314.938V315.721C276.554 315.814 276.554 315.898 276.546 315.99C276.537 315.898 276.537 315.814 276.546 315.721C276.546 315.519 276.546 315.266 276.495 314.938C276.495 314.223 276.403 313.255 276.344 311.933C276.209 309.298 276.016 305.527 275.788 300.889C275.275 291.529 274.576 278.651 273.801 264.425C273.027 250.2 272.758 237.27 272.791 227.927C272.791 223.281 272.791 219.509 272.85 216.858C272.85 215.579 272.85 214.568 272.892 213.853V213.07C272.917 212.978 272.943 212.885 272.985 212.801Z" fill="#263238"/>
<path d="M197.395 194.493C201.268 191.673 205.772 192.523 209.652 195.334C213.533 198.146 215.689 202.91 216.076 207.683C216.463 212.456 215.234 217.237 213.424 221.664C210.503 228.76 206.184 234.501 199.727 241.807L183.092 263.651L215.209 294.997L201.899 315.99L175.01 294.349C165.826 286.597 158.013 278.667 152.28 270.469" fill="#455A64"/>
<path d="M152.272 270.494L152.466 270.746L153.03 271.504C153.526 272.169 154.267 273.187 155.269 274.416C158.148 278.019 161.246 281.445 164.529 284.677C166.634 286.773 169.033 289.021 171.71 291.411C174.387 293.802 177.401 296.167 180.6 298.734L201.983 315.889L201.689 315.94C205.822 309.416 210.309 302.329 214.981 294.938V295.207L198.414 279.046L182.873 263.894L182.739 263.768L182.848 263.617C188.741 255.915 194.314 248.592 199.5 241.782C202.665 238.297 205.603 234.602 208.297 230.738C210.696 227.211 212.641 223.398 214.081 219.383C215.444 215.822 216.084 212.018 215.966 208.205C215.823 204.998 214.847 201.875 213.129 199.164C211.715 196.984 209.745 195.216 207.422 194.046C205.721 193.137 203.802 192.716 201.874 192.817C200.678 192.91 199.517 193.255 198.464 193.828C197.74 194.215 197.404 194.476 197.395 194.459L197.648 194.265C197.9 194.08 198.161 193.912 198.431 193.769C199.483 193.171 200.653 192.801 201.865 192.691C203.818 192.565 205.772 192.977 207.506 193.886C209.871 195.048 211.883 196.824 213.323 199.03C215.091 201.782 216.101 204.939 216.253 208.205C216.396 212.009 215.79 215.806 214.468 219.375C213.037 223.423 211.084 227.279 208.676 230.831C205.982 234.711 203.044 238.423 199.879 241.925C194.693 248.735 189.111 256.066 183.252 263.81V263.524L198.801 278.676L215.36 294.845L215.486 294.972L215.394 295.115C210.713 302.505 206.218 309.584 202.076 316.1L201.958 316.293L201.781 316.15L180.44 298.936C177.25 296.361 174.219 293.97 171.567 291.579C168.915 289.189 166.516 286.941 164.403 284.846C161.12 281.58 158.047 278.12 155.185 274.484C154.2 273.221 153.501 272.211 152.996 271.529C152.76 271.201 152.583 270.94 152.457 270.755C152.331 270.57 152.272 270.494 152.272 270.494V270.494Z" fill="#263238"/>
<path d="M308.654 265.78C308.082 265.645 307.517 265.468 306.97 265.258C304.276 264.399 301.364 264.559 298.779 265.687C298.257 265.957 297.71 266.192 297.154 266.386C297.584 265.973 298.089 265.637 298.644 265.401C301.263 264.071 304.318 263.911 307.063 264.963C307.635 265.14 308.174 265.418 308.654 265.78V265.78Z" fill="#263238"/>
<path d="M221.783 315.005L215.941 317.909C213.045 319.349 209.577 318.962 207.068 316.916L203.423 313.945L213.525 298.061C214.712 298.574 219.595 299.265 221.278 299.862C222.735 300.376 224.275 300.628 225.816 300.62C227.542 300.654 229.268 300.519 230.96 300.199C231.069 300.157 231.221 300.123 231.322 300.081C231.549 299.989 231.802 299.947 232.046 299.955C233.485 299.82 234.63 301.335 233.822 302.48C233.014 303.625 229.074 305.258 224.04 305.115H223.804C219.384 305.115 223.442 308.81 226.06 311.007C227.003 311.765 227.483 312.96 227.323 314.164C227.298 314.593 227.079 314.989 226.734 315.249C225.589 315.99 221.783 315.005 221.783 315.005V315.005Z" fill="#A36853"/>
<path d="M235.304 203.491C227.559 203.491 220.596 196.892 220.664 187.06L219.266 131.076H219.426C219.376 128.635 221.211 126.572 223.636 126.328L246.719 123.887C254.439 123.071 261.35 128.668 262.167 136.387C262.192 136.589 262.209 136.791 262.218 136.985C262.773 145.848 263.11 156.698 262.058 163.315C259.919 176.639 249.725 178.34 249.725 178.34L249.969 187.599C250.364 197.498 242.948 203.457 235.304 203.457V203.491V203.491Z" fill="#A36853"/>
<path d="M257.032 144.232C257.032 145.15 256.308 145.89 255.39 145.916C254.498 145.991 253.706 145.326 253.631 144.434C253.631 144.417 253.631 144.392 253.631 144.375C253.631 143.449 254.388 142.692 255.314 142.692C256.207 142.675 256.956 143.348 257.032 144.232V144.232Z" fill="#263238"/>
<path d="M259.827 142.649C259.616 142.877 258.328 141.917 256.459 141.926C254.59 141.934 253.286 142.843 253.092 142.624C252.898 142.405 253.21 142.119 253.799 141.69C254.59 141.143 255.533 140.848 256.501 140.848C257.453 140.848 258.387 141.134 259.162 141.69C259.751 142.153 259.945 142.548 259.827 142.649Z" fill="#263238"/>
<path d="M239.311 144.569C239.336 145.495 238.595 146.269 237.669 146.294C237.652 146.294 237.644 146.294 237.627 146.294C236.718 146.336 235.943 145.654 235.868 144.754C235.842 143.828 236.583 143.053 237.509 143.028C237.526 143.028 237.535 143.028 237.551 143.028C238.461 142.986 239.235 143.668 239.311 144.569Z" fill="#263238"/>
<path d="M241.786 142.995C241.575 143.222 240.279 142.263 238.418 142.263C236.558 142.263 235.236 143.188 235.051 142.961C234.95 142.869 235.169 142.465 235.758 142.035C236.55 141.48 237.492 141.185 238.461 141.194C239.412 141.194 240.346 141.48 241.121 142.035C241.702 142.49 241.895 142.894 241.786 142.995Z" fill="#263238"/>
<path d="M248.453 156.614C249.421 156.303 250.423 156.126 251.433 156.076C251.905 156.025 252.351 155.932 252.427 155.613C252.469 155.133 252.359 154.645 252.115 154.224C251.669 153.087 251.215 151.901 250.726 150.655C248.798 145.604 247.409 141.396 247.611 141.311C247.813 141.227 249.548 145.293 251.467 150.377C251.939 151.631 252.376 152.826 252.797 153.971C253.092 154.535 253.184 155.192 253.041 155.815C252.898 156.143 252.62 156.395 252.275 156.496C252.014 156.564 251.745 156.606 251.476 156.606C250.474 156.732 249.455 156.732 248.453 156.614V156.614Z" fill="#263238"/>
<path d="M249.725 178.339C243.461 178.432 237.29 176.782 231.903 173.583C231.903 173.583 236.516 183.592 249.826 182.346L249.725 178.339Z" fill="#8F5039"/>
<path d="M242.611 139.779C242.434 140.284 240.599 140.04 238.444 140.301C236.289 140.562 234.546 141.143 234.234 140.705C234.1 140.486 234.403 140.015 235.076 139.535C236.979 138.331 239.328 138.07 241.441 138.836C242.291 139.181 242.695 139.543 242.611 139.779V139.779Z" fill="#263238"/>
<path d="M259.162 137.338C258.842 137.759 257.57 137.338 256.055 137.338C254.54 137.338 253.243 137.616 252.949 137.178C252.814 136.968 253.024 136.555 253.58 136.16C254.329 135.672 255.213 135.436 256.106 135.478C256.998 135.486 257.865 135.781 258.581 136.32C259.128 136.707 259.305 137.136 259.162 137.338Z" fill="#263238"/>
<path d="M219.418 143.794C221.682 143.39 223.492 144.089 224.132 146.32C225.084 149.644 224.435 151.286 224.595 153.575L227.963 152.565C227.121 144.897 229.032 139.224 228.198 131.522C232.879 133.037 239.311 130.141 241.306 125.293C245.364 128.272 250.768 128.651 255.197 126.269C256.316 128.306 258.631 129.392 260.913 128.946C263.438 128.23 266.115 124.636 266.848 122.086C268.161 117.498 267.521 110.916 263.8 107.927C260.079 104.939 252.62 105.655 249.724 109.451C248.58 110.949 248.445 113.719 246.601 114.097C244.96 114.434 243.47 113.256 241.971 112.481C237.299 110.167 230.842 113.239 229.688 118.323C225.782 115.991 221.051 114.468 216.682 115.722C212.313 116.976 208.827 121.825 210.317 126.118C210.932 127.919 212.321 129.485 212.473 131.362C212.767 135.023 208.373 138.34 209.779 141.732C210.562 143.634 212.86 144.476 213.895 146.252C215.057 148.239 214.333 150.747 214.434 153.045C214.586 156.883 216.556 162.565 220.234 163.659" fill="#263238"/>
<path d="M219.763 143.752C218.61 143.912 217.642 144.695 217.238 145.781C216.749 146.799 216.514 147.927 216.556 149.055C216.48 150.823 217.052 152.557 218.155 153.937C219.317 155.309 221.228 155.797 222.903 155.141" fill="#A36853"/>
<path d="M222.061 152.254C222.061 152.254 221.565 152.481 220.782 152.204C220.327 152.027 219.931 151.741 219.628 151.362C219.266 150.874 219.047 150.284 219.014 149.678C218.972 149.098 219.09 148.517 219.359 147.995C219.586 147.566 219.906 147.204 220.302 146.926C220.992 146.471 221.531 146.497 221.523 146.547C221.161 146.732 220.824 146.943 220.495 147.178C219.755 147.801 219.359 148.744 219.452 149.704C219.502 150.655 220.058 151.505 220.908 151.934C221.287 152.069 221.666 152.178 222.061 152.254Z" fill="#8F5039"/>
<path d="M242.611 163.112C244.295 164.265 247.477 163.659 248.672 161.951C246.105 160.553 243.739 158.811 241.634 156.774C241.634 156.774 239.243 160.747 242.611 163.112Z" fill="#FAFAFA"/>
<path d="M248.041 167.001C247.359 166.732 246.635 166.555 245.902 166.496C245.17 166.555 244.454 166.715 243.764 166.976C243.764 166.976 243.89 166.715 244.269 166.488C245.279 165.907 246.534 165.907 247.544 166.488C247.923 166.732 248.091 166.959 248.041 167.001V167.001Z" fill="#AA6550"/>
<path d="M227.559 220.898C231.111 215.654 234.344 210.2 237.231 204.568C240.708 197.935 240.119 197.599 239.286 197.304C237.046 196.504 232.728 208.727 232.155 205.528C231.583 202.329 239.142 191.218 236.768 190.511C233.67 189.552 229.385 202.439 228.948 203.499C228.51 204.56 226.969 203.912 227.424 202.977C228.072 201.639 234.521 187.338 231.482 186.37C229.798 185.839 229.192 188.988 229.192 188.988C229.192 188.988 224.141 202.834 222.718 202.329C221.295 201.824 223.981 193.584 225.084 190.873C226.186 188.163 225.361 186.555 223.787 187.026C222.71 187.346 219.132 195.562 218.105 198.264C217.078 200.966 214.384 208.449 212.75 203.609C212.75 203.533 212.692 203.466 212.658 203.39C211.185 198.575 208.449 195.36 207.026 194.972C205.603 194.585 204.568 196.151 205.157 197.498C205.233 197.733 205.359 197.952 205.527 198.129C205.603 198.213 205.679 198.339 205.755 198.432C206.597 199.939 207.287 201.521 207.809 203.163C208.306 204.627 208.558 206.159 208.541 207.708C208.541 209.501 209.383 214.72 209.316 216.008" fill="#FFAD9D"/>
<path d="M208.474 214.097L188.11 254.501C188.11 254.501 176.593 221.193 170.38 207.944C168.015 202.893 163.267 199.392 158.712 197.068V196.976L157.761 196.597C154.494 195.031 151.06 193.844 147.524 193.053C126.04 186.9 105.802 189.047 82.3732 197.262C82.3732 197.262 70.2085 200.528 64.3071 216.395C59.0034 230.705 53.0516 252.59 52.0329 256.462C44.7341 281.024 55.1562 294.702 69.6612 293.019C75.6384 292.076 80.7232 287.127 82.9709 285.208L90.6402 278.002L90.8085 283.583L82.1964 318.052L170.372 317.867L154.461 277.051L157.997 258.339L164.049 272.716C169.446 285.544 184.212 291.571 197.042 286.176C202.909 283.709 207.624 279.113 210.242 273.314L230.859 221.412L208.474 214.097V214.097Z" fill="#852536"/>
<path d="M102.291 264.467C102.056 264.862 101.795 265.25 101.5 265.603C100.97 266.31 100.17 267.329 99.1513 268.549C97.1224 270.999 94.2012 274.29 90.8085 277.766C87.4159 281.243 84.1832 284.231 81.7587 286.293C80.5548 287.337 79.553 288.145 78.8459 288.684C78.5007 289.004 78.1219 289.281 77.7178 289.526C78.0293 289.189 78.3744 288.877 78.7364 288.591C79.4099 288.01 80.378 287.16 81.5566 286.066C83.9138 283.936 87.1044 280.923 90.4886 277.455C93.8729 273.987 96.8362 270.721 98.9071 268.347C99.9595 267.152 100.784 266.167 101.357 265.494C101.635 265.123 101.955 264.778 102.291 264.467V264.467Z" fill="#263238"/>
<path d="M154.747 275.738C154.747 275.578 154.747 275.418 154.789 275.266C154.857 274.913 154.924 274.475 155.016 273.936L155.934 269.037C156.709 264.904 157.769 259.197 158.611 252.842C158.822 251.251 159.015 249.711 159.184 248.204C159.394 246.773 159.47 245.334 159.428 243.886C159.268 241.437 158.906 239.004 158.342 236.622C157.887 234.568 157.5 232.918 157.239 231.765C157.121 231.184 157.054 230.73 157.02 230.427C157.003 230.267 157.003 230.107 157.02 229.947C157.071 230.098 157.104 230.25 157.121 230.41C157.18 230.713 157.281 231.159 157.424 231.731C157.702 232.868 158.165 234.501 158.662 236.554C159.276 238.953 159.672 241.403 159.849 243.869C159.899 245.334 159.823 246.799 159.63 248.246C159.47 249.753 159.276 251.31 159.066 252.901C158.224 259.273 157.104 264.98 156.254 269.096C155.816 271.108 155.463 272.758 155.202 273.97C155.075 274.5 154.974 274.938 154.899 275.292C154.865 275.443 154.814 275.595 154.747 275.738V275.738Z" fill="#263238"/>
<path d="M186.316 264.383C186.636 261.066 187.251 257.783 188.143 254.568C188.051 256.243 187.815 257.918 187.428 259.551C187.192 261.192 186.822 262.809 186.316 264.383Z" fill="#263238"/>
<path d="M189.423 265.578C189.002 263.709 188.716 261.807 188.581 259.896C188.286 258.002 188.135 256.083 188.135 254.164C188.556 256.033 188.842 257.935 188.977 259.846C189.271 261.74 189.423 263.659 189.423 265.578Z" fill="#263238"/>
<path d="M124.381 317.867C124.264 317.867 124.163 304.332 124.163 287.648C124.163 270.965 124.264 257.421 124.381 257.421C124.499 257.421 124.6 270.948 124.6 287.648C124.6 304.349 124.499 317.867 124.381 317.867Z" fill="#263238"/>
<g opacity="0.2">
<path d="M157.466 232.388C161.6 240.309 165.194 248.187 165.523 257.118C165.775 264.063 162.997 269.854 165.868 276.184C165.725 276.293 163.275 270.839 162.189 268.28C159.958 263.01 157.98 258.305 157.98 258.305C157.98 258.305 159.512 246.411 159.663 244.383C159.815 242.354 157.466 232.388 157.466 232.388V232.388Z" fill="black"/>
</g>
<g opacity="0.2">
<path d="M55.1562 272.632C55.1562 276.605 52.6896 263.49 54.9963 260.266C56.6211 258.002 59.3992 256.899 62.0931 256.234C64.787 255.569 67.6072 255.123 69.998 253.709C73.0876 251.883 75.0491 248.659 77.2127 245.83C79.3763 243.002 82.2638 230.889 85.8332 230.628V248.305C77.2885 253.835 68.3901 258.827 59.214 263.229C56.5705 265.628 55.0889 269.063 55.1562 272.632V272.632Z" fill="black"/>
</g>
<g opacity="0.2">
<path d="M90.6149 278.01C96.3815 274.77 100.591 270.435 107.107 269.315C113.378 268.204 119.835 269.315 126.183 268.877C125.838 265.67 125.493 262.463 125.131 259.248L106.972 259.046L90.6149 278.01V278.01Z" fill="black"/>
</g>
<path d="M85.8332 230.427C85.9511 230.427 86.0521 234.358 86.0521 239.206C86.0521 244.055 85.9511 247.994 85.8332 247.994C85.6144 245.073 85.5386 242.135 85.6144 239.206C85.5386 236.277 85.6144 233.348 85.8332 230.427Z" fill="#263238"/>
<path d="M55.1393 272.539C55.0046 272.026 54.971 271.495 55.0383 270.974C55.1225 269.703 55.4256 268.465 55.9307 267.295C56.4274 266.125 57.1261 265.056 57.9932 264.13C58.3215 263.718 58.734 263.381 59.1886 263.12C58.0521 264.442 57.0924 265.906 56.3348 267.472C55.7034 269.097 55.3077 270.805 55.1393 272.539Z" fill="#263238"/>
<path d="M58.7677 263.389C59.2223 263.272 59.6601 263.112 60.0894 262.91C60.9313 262.573 62.1435 262.068 63.6168 261.369C66.5632 260.022 70.5788 258.002 74.8386 255.477C79.0984 252.952 82.8109 250.469 85.4122 248.566C86.7171 247.607 87.761 246.815 88.4597 246.251C88.8386 245.974 89.1922 245.671 89.5205 245.334C89.108 245.561 88.7123 245.822 88.3419 246.108L85.2186 248.297C82.5668 250.132 78.8458 252.581 74.5945 255.081C70.3431 257.581 66.3696 259.618 63.4652 261.041L60.0136 262.724C59.5759 262.91 59.1634 263.128 58.7677 263.389V263.389Z" fill="#263238"/>
<path d="M169.387 155.023C167.939 153.129 165.641 151.656 165.178 149.341C164.597 146.235 167.703 143.323 167.139 140.208C166.769 138.079 164.807 136.58 162.804 135.755C160.8 134.931 158.594 134.535 156.759 133.432C154.553 132.018 152.861 129.939 151.935 127.49C151.657 126.825 151.422 126.134 151.22 125.444C151.034 123.954 150.689 122.49 150.201 121.075C150.125 120.705 150.058 120.335 149.991 119.964L150.083 120.806C149.805 120.107 149.435 119.442 148.989 118.836C147.448 116.783 144.367 115.638 142.254 117.077L143.264 116.404C140.663 110.124 134.972 105.655 128.254 104.619C126.991 104.443 125.72 104.4 124.449 104.493C119.911 104.257 113.353 105.579 110.584 107.338C107.048 109.577 103.428 112.65 101.652 116.446C100.7 118.491 100.052 120.857 98.2841 122.22C95.8765 124.038 92.5006 123.331 89.4952 123.668C84.5452 124.232 80.2349 128.028 78.5512 132.717C76.9685 137.515 77.4652 142.759 79.9318 147.17C80.4538 148.138 81.0683 149.257 80.6558 150.276C80.2265 151.033 79.5614 151.622 78.7617 151.959C76.7412 153.003 75.1333 154.686 74.182 156.749C73.3401 158.845 73.66 161.496 75.3606 162.978C76.8086 164.139 78.7785 164.417 80.4959 163.71C79.9908 164.981 79.7298 166.328 79.7129 167.691C79.6372 170.73 81.2199 173.558 83.8464 175.09C86.4814 176.462 90.1687 175.738 91.7177 173.205C91.684 178.92 96.2974 183.583 102.014 183.609C104.034 183.617 106.012 183.036 107.713 181.942C108.959 181.1 110.238 179.989 111.712 180.259C113.185 180.528 114.018 181.942 115.029 182.969C117.722 185.772 122.319 186.092 125.863 184.501C129.407 182.91 132.017 179.728 133.894 176.328C135.814 179.206 139.703 179.981 142.582 178.053C143.761 177.27 144.636 176.109 145.066 174.762C148.602 179.341 155.176 180.183 159.756 176.639C162.197 174.754 163.679 171.892 163.814 168.819C168.511 168.121 171.761 163.752 171.07 159.055C170.86 157.616 170.279 156.252 169.395 155.09V155.023H169.387ZM84.7135 157.624V157.574L84.7977 157.531L84.7135 157.624Z" fill="#263238"/>
<path d="M138.129 178.743C138.129 178.743 148.913 176.959 151.144 162.893C152.255 155.898 151.902 144.434 151.312 135.065C150.799 126.875 143.744 120.654 135.553 121.168C135.342 121.185 135.14 121.201 134.93 121.218L110.516 123.802C107.949 124.072 106.021 126.269 106.088 128.853L108.656 189.947C106.879 190.326 102.847 191.201 100.869 191.773C100.869 191.773 119.743 233.953 124.365 233.465C128.986 232.977 147.457 193.061 147.457 193.061C144.241 192.093 140.974 191.294 137.674 190.662C137.624 186.681 137.775 182.708 138.129 178.743V178.743Z" fill="#FFAD9D"/>
<path d="M145.857 142.725C145.866 143.702 145.099 144.51 144.123 144.544C143.197 144.645 142.372 143.971 142.271 143.045C142.271 143.003 142.271 142.961 142.262 142.919C142.254 141.943 143.02 141.134 143.997 141.101C144.948 141.025 145.781 141.732 145.857 142.683C145.857 142.7 145.857 142.709 145.857 142.725V142.725Z" fill="#263238"/>
<path d="M148.829 141.058C148.601 141.294 147.238 140.284 145.293 140.292C143.348 140.301 141.926 141.269 141.724 141.033C141.614 140.924 141.841 140.503 142.464 140.048C143.315 139.476 144.316 139.173 145.335 139.181C146.345 139.181 147.33 139.501 148.147 140.09C148.702 140.528 148.938 140.957 148.829 141.058Z" fill="#263238"/>
<path d="M127.126 143.087C127.134 144.064 126.36 144.872 125.383 144.905C124.457 145.006 123.632 144.333 123.531 143.407C123.531 143.365 123.531 143.323 123.523 143.281C123.514 142.304 124.289 141.496 125.265 141.463C126.217 141.387 127.05 142.094 127.126 143.045C127.126 143.062 127.126 143.07 127.126 143.087V143.087Z" fill="#263238"/>
<path d="M129.744 141.42C129.525 141.656 128.153 140.646 126.217 140.654C124.281 140.663 122.849 141.631 122.639 141.395C122.538 141.286 122.765 140.865 123.388 140.41C124.23 139.83 125.232 139.518 126.25 139.527C127.261 139.527 128.246 139.846 129.062 140.436C129.652 140.865 129.854 141.319 129.744 141.42Z" fill="#263238"/>
<path d="M136.79 155.814C137.817 155.494 138.878 155.301 139.947 155.25C140.436 155.2 140.907 155.099 140.991 154.762C141.033 154.249 140.924 153.735 140.663 153.289C140.191 152.094 139.712 150.831 139.198 149.518C137.161 144.148 135.688 139.728 135.906 139.644C136.125 139.56 137.944 143.853 139.981 149.232L141.387 153.028C141.698 153.626 141.791 154.316 141.639 154.972C141.488 155.334 141.176 155.604 140.798 155.696C140.52 155.764 140.242 155.806 139.956 155.814C138.903 155.949 137.843 155.949 136.79 155.814V155.814Z" fill="#263238"/>
<path d="M138.129 178.743C131.504 178.836 124.988 177.085 119.297 173.693C119.297 173.693 123.868 183.348 137.944 182.035L138.129 178.743Z" fill="#ED9482"/>
<path d="M131.327 158.853C131.756 158.55 132.236 158.348 132.75 158.238C133.28 158.137 133.81 158.39 134.071 158.861C134.122 159.03 134.189 159.19 134.273 159.349C134.56 159.737 135.157 159.594 135.612 159.728C136.327 160.031 136.664 160.865 136.361 161.58C136.016 162.279 135.41 162.801 134.677 163.036C133.726 163.432 132.691 163.567 131.664 163.449C130.94 163.424 130.258 163.087 129.803 162.523C129.365 161.765 129.424 160.823 129.946 160.115C130.468 159.434 131.125 158.861 131.874 158.432" fill="#ED9482"/>
<path d="M131.083 157.161C131.394 157.161 131.402 159.249 133.204 160.738C135.006 162.228 137.245 162.001 137.262 162.296C137.262 162.43 136.765 162.708 135.814 162.733C134.585 162.742 133.398 162.329 132.446 161.555C131.52 160.806 130.914 159.728 130.763 158.55C130.704 157.7 130.939 157.144 131.083 157.161Z" fill="#263238"/>
<path d="M130.62 138.028C130.426 138.55 128.49 138.306 126.217 138.575C123.944 138.845 122.092 139.476 121.797 138.996C121.662 138.777 121.982 138.281 122.723 137.767C124.735 136.496 127.219 136.227 129.458 137.026C130.283 137.363 130.704 137.776 130.62 138.028V138.028Z" fill="#263238"/>
<path d="M148.113 136.656C147.768 137.102 146.429 136.656 144.822 136.656C143.214 136.656 141.858 136.951 141.547 136.488C141.404 136.269 141.623 135.823 142.212 135.41C143.845 134.383 145.941 134.451 147.507 135.57C148.08 136.008 148.265 136.462 148.113 136.656Z" fill="#263238"/>
<path d="M143.087 119.165C140.915 129.476 130.796 136.067 120.484 133.895C120.324 133.861 120.164 133.828 120.004 133.786C119.179 140.065 115.121 145.461 109.321 148.011C113.21 155.065 114.801 163.163 113.858 171.168C113.446 174.535 112.461 178.129 109.902 180.427C105.996 183.928 99.4122 183.078 95.6576 179.425C92.0545 175.915 90.7833 170.427 91.8019 165.503C92.8206 160.578 95.9101 156.243 99.7911 153.078C94.942 152.245 91.6756 147.641 92.5091 142.784C92.8374 140.873 93.7803 139.114 95.1946 137.792C96.2974 136.749 97.7201 135.974 98.562 134.703C99.4038 133.432 99.5385 132.018 100.018 130.663C101.273 127.119 104.438 124.67 107.452 122.414C109.977 120.511 112.806 118.525 115.988 118.533C117.672 118.533 119.356 119.122 121.039 118.895C123.354 118.584 125.164 116.825 127.075 115.528C129.736 113.55 133.044 112.649 136.336 113.003C139.594 113.516 142.633 115.949 143.247 119.181" fill="#263238"/>
<path d="M141.833 120.553C141.336 123.272 142.675 126.058 144.712 127.961C146.75 129.863 149.267 131.041 151.784 132.169C150.908 129.493 149.679 126.951 148.139 124.594C146.564 122.203 144.106 120.545 141.303 119.981" fill="#263238"/>
<path d="M79.9739 152.978C79.8813 152.692 79.8476 152.389 79.8981 152.094C80.0244 151.235 80.479 150.452 81.1609 149.922C82.2721 149.114 83.6359 148.744 84.9997 148.878C86.574 148.878 88.3166 149.4 90.2444 149.282C92.3575 149.106 94.26 147.927 95.3629 146.109C95.9606 145.107 96.2973 143.971 96.3226 142.801C96.4068 141.597 96.3226 140.335 96.3647 139.022C96.3815 137.641 96.8024 136.303 97.5938 135.175C98.4693 134.047 99.6311 133.171 100.961 132.65C103.613 131.446 106.635 131.429 109.531 130.89C110.971 130.655 112.351 130.175 113.623 129.459C114.81 128.702 115.845 127.725 116.662 126.572C118.303 124.316 119.406 121.799 120.913 119.653C124.642 114.106 131.68 111.825 137.952 114.14C139.215 114.594 140.41 115.225 141.496 116.017C142.439 116.665 143.273 117.456 143.98 118.357C143.921 118.315 143.862 118.264 143.811 118.205L143.348 117.742C142.742 117.161 142.094 116.64 141.404 116.16C138.853 114.401 135.805 113.491 132.707 113.559C128.094 113.719 123.826 116.067 121.233 119.889C119.76 121.993 118.665 124.51 117.024 126.833C116.173 128.028 115.096 129.047 113.858 129.83C112.553 130.57 111.131 131.075 109.649 131.32C106.686 131.867 103.756 131.884 101.163 133.003C99.9089 133.508 98.7976 134.333 97.9642 135.394C97.2149 136.454 96.8109 137.717 96.8024 139.013C96.7267 140.284 96.8024 141.538 96.7435 142.793C96.7014 144.022 96.3478 145.217 95.708 146.269C94.5379 148.171 92.5258 149.392 90.3034 149.552C88.2913 149.653 86.5571 149.131 85.0165 149.089C83.7033 148.937 82.3816 149.266 81.2956 150.023C80.6305 150.528 80.1759 151.261 80.016 152.077C79.9654 152.372 79.9486 152.675 79.9739 152.978V152.978Z" fill="#FAFAFA"/>
<path d="M100.885 217.952L101.778 240.376L104.034 261.841L127.884 260.822L126.166 218.44L100.885 217.952Z" fill="#263238"/>
<path d="M97.3834 217.876L98.2758 240.376L100.532 261.84L124.382 260.822L122.664 218.373L97.3834 217.876Z" fill="#455A64"/>
<path d="M95.1441 264.467C101.475 264.181 107.78 263.507 114.027 262.447C121.418 261.26 121.342 260.595 121.082 259.745C120.374 257.472 107.999 261.327 110.222 258.953C112.444 256.58 125.855 256.007 125.013 253.667C123.927 250.612 111.038 254.888 109.927 255.165C108.816 255.443 108.412 253.835 109.43 253.633C110.895 253.347 126.208 249.963 125.164 246.95C124.592 245.266 121.704 246.681 121.704 246.681C121.704 246.681 107.578 250.889 107.132 249.484C106.686 248.078 114.902 245.275 117.731 244.517C120.56 243.76 121.359 242.152 120.038 241.15C119.137 240.485 110.415 242.531 107.637 243.33C104.859 244.13 97.2487 246.437 100.145 242.228C100.195 242.16 100.229 242.093 100.271 242.026C103.243 237.969 104.177 233.852 103.638 232.472C103.1 231.092 101.222 231.218 100.507 232.472C100.364 232.674 100.271 232.901 100.22 233.145C100.22 233.255 100.145 233.398 100.111 233.516C99.4207 235.09 98.5789 236.588 97.5855 237.985C96.7184 239.265 95.6324 240.384 94.378 241.293C92.9385 242.346 89.3269 246.201 88.1904 246.883" fill="#FFAD9D"/>
<path d="M89.6805 245.646L102.291 264.467L81.5061 285.662L82.2133 251.285L89.6805 245.646Z" fill="#852536"/>
</g>
<path d="M1 1H352C379.614 1 402 23.3858 402 51V51" stroke="#263238" stroke-width="0.5" stroke-linecap="round"/>
<path d="M399 368H51C23.3858 368 1 345.614 1 318V318" stroke="#263238" stroke-width="0.5" stroke-linecap="round"/>
<defs>
<clipPath id="clip0_2566_5200">
<rect width="444" height="276" fill="white" transform="translate(1 51)"/>
</clipPath>
</defs>
</svg>
