<svg width="420" height="384" viewBox="0 0 420 384" fill="none" xmlns="http://www.w3.org/2000/svg">
<g clip-path="url(#clip0_328_1067)">
<path d="M347.819 54.5732C362.819 54.5732 374.979 42.455 374.979 27.5063C374.979 12.5577 362.819 0.439453 347.819 0.439453C332.819 0.439453 320.659 12.5577 320.659 27.5063C320.659 42.455 332.819 54.5732 347.819 54.5732Z" fill="#EBEBEB"/>
<path d="M349.065 53.9422C363.382 53.9422 374.989 42.3758 374.989 28.1078C374.989 13.8399 363.382 2.27344 349.065 2.27344C334.748 2.27344 323.142 13.8399 323.142 28.1078C323.142 42.3758 334.748 53.9422 349.065 53.9422Z" fill="#DBDBDB"/>
<path d="M349.065 52.3095C362.477 52.3095 373.349 41.4745 373.349 28.1088C373.349 14.7432 362.477 3.9082 349.065 3.9082C335.654 3.9082 324.781 14.7432 324.781 28.1088C324.781 41.4745 335.654 52.3095 349.065 52.3095Z" fill="white"/>
<path opacity="0.5" d="M372.793 23.0261C361.739 29.714 343.562 40.6535 333.41 46.6535C330.543 44.2459 328.271 41.1981 326.775 37.7682L360.33 6.73633C366.696 10.0612 371.259 16.0325 372.793 23.0261Z" fill="#EBEBEB"/>
<path opacity="0.5" d="M373.33 28.959C373.244 31.6533 372.697 34.3093 371.729 36.822L341.453 51.0959C340.13 50.6564 338.845 50.1119 337.618 49.4526C346.764 44.1883 363.503 34.5959 373.33 28.959Z" fill="#EBEBEB"/>
<path d="M349.295 5.66602H348.826V9.33481H349.295V5.66602Z" fill="#C7C7C7"/>
<path d="M337.995 8.53741L337.589 8.77148L339.429 11.9487L339.836 11.7147L337.995 8.53741Z" fill="#C7C7C7"/>
<path d="M329.654 16.6785L329.419 17.084L332.607 18.9184L332.842 18.5129L329.654 16.6785Z" fill="#C7C7C7"/>
<path d="M330.227 27.8789H326.545V28.3471H330.227V27.8789Z" fill="#C7C7C7"/>
<path d="M332.633 37.3043L329.445 39.1387L329.68 39.5441L332.868 37.7097L332.633 37.3043Z" fill="#C7C7C7"/>
<path d="M339.467 44.2612L337.628 47.4395L338.035 47.6733L339.874 44.4951L339.467 44.2612Z" fill="#C7C7C7"/>
<path d="M349.295 46.8828H348.826V50.5516H349.295V46.8828Z" fill="#C7C7C7"/>
<path d="M358.683 44.2523L358.276 44.4863L360.117 47.6636L360.524 47.4295L358.683 44.2523Z" fill="#C7C7C7"/>
<path d="M365.5 37.2704L365.265 37.6758L368.454 39.5102L368.688 39.1048L365.5 37.2704Z" fill="#C7C7C7"/>
<path d="M371.585 27.8789H367.904V28.3471H371.585V27.8789Z" fill="#C7C7C7"/>
<path d="M368.45 16.6949L365.262 18.5293L365.497 18.9347L368.685 17.1003L368.45 16.6949Z" fill="#C7C7C7"/>
<path d="M360.116 8.5542L358.277 11.7324L358.684 11.9663L360.523 8.78806L360.116 8.5542Z" fill="#C7C7C7"/>
<path d="M349.42 7.32791L350.216 29.7419L347.915 29.7133L348.797 7.31836L349.42 7.32791Z" fill="#C7C7C7"/>
<path d="M363.427 20.2926L348.298 29.9137L347.196 27.8977L363.13 19.748L363.427 20.2926Z" fill="#A6A6A6"/>
<path d="M349.851 28.1077C349.851 28.5376 349.497 28.8911 349.065 28.8911C348.634 28.8911 348.279 28.5376 348.279 28.1077C348.279 27.6777 348.634 27.3242 349.065 27.3242C349.497 27.3242 349.851 27.6777 349.851 28.1077Z" fill="#C7C7C7"/>
<path d="M40.0261 259.166L27.4478 259.433L21.0628 259.538C18.9249 259.586 16.7774 259.538 14.6395 259.595H14.2177V259.166L14.1602 248.503V248.025H14.6395L27.3328 248.083C31.5703 248.083 35.7982 248.197 40.0261 248.245H40.2945V248.503C40.2945 250.318 40.2082 252.124 40.1699 253.901L40.0261 259.166ZM40.0261 259.166L39.8919 253.767C39.8919 251.981 39.7864 250.223 39.7672 248.474L40.0261 248.732C35.7982 248.79 31.5703 248.885 27.3328 248.895L14.6395 248.952L15.1189 248.474V259.166L14.6874 258.745H20.967L27.2753 258.85L40.0261 259.166Z" fill="#EBEBEB"/>
<path d="M25.8659 272.647L13.2877 272.915L6.90269 273.02C4.76478 273.02 2.61727 273.02 0.479354 273.077H0.0575224V272.647L0 261.956V261.479H0.479354L13.1726 261.536C17.4005 261.536 21.638 261.651 25.8659 261.698H26.1344V261.956C26.1344 263.772 26.0577 265.577 26.0097 267.354L25.8659 272.647ZM25.8659 272.647L25.7317 267.249C25.7317 265.463 25.6262 263.705 25.6071 261.956L25.8659 262.214C21.638 262.214 17.4005 262.367 13.1726 262.377L0.479354 262.434L0.958707 261.956L0.910772 272.647L0.479354 272.227C2.56934 272.227 4.65932 272.227 6.75889 272.275L13.0672 272.38L25.8659 272.647Z" fill="#EBEBEB"/>
<path d="M287.766 115.701L275.187 115.968L268.802 116.073C266.664 116.121 264.527 116.073 262.379 116.121H261.88V104.561H262.36L275.053 104.618C279.291 104.618 283.519 104.723 287.746 104.78H288.015V105.038C288.015 106.854 287.929 108.659 287.89 110.436L287.766 115.701ZM287.766 115.701L287.631 110.293C287.631 108.516 287.526 106.758 287.507 105.01L287.766 105.268C283.538 105.268 279.31 105.42 275.072 105.42L262.379 105.487L262.858 105.01L262.772 115.701L262.341 115.271C264.44 115.271 266.521 115.271 268.62 115.328L274.928 115.433L287.766 115.701Z" fill="#EBEBEB"/>
<path d="M273.567 129.211L260.989 129.478L254.604 129.583C252.466 129.631 250.318 129.583 248.181 129.631H247.759V129.201L247.701 118.568V118.09H248.181L260.874 118.147C265.111 118.147 269.339 118.252 273.567 118.31H273.836V118.568C273.836 120.383 273.749 122.179 273.701 123.966L273.567 129.211ZM273.567 129.211L273.433 123.803C273.433 122.026 273.327 120.268 273.308 118.52L273.567 118.778C269.339 118.826 265.111 118.931 260.874 118.931L248.181 118.997L248.66 118.52V129.211L248.228 128.781C250.318 128.781 252.408 128.781 254.508 128.838L260.816 128.943L273.567 129.211Z" fill="#EBEBEB"/>
<path d="M259.465 115.7L246.877 115.968L240.492 116.073C238.363 116.12 236.216 116.073 234.078 116.12H233.656V115.7L233.608 105.009V104.531H234.088L246.781 104.589C251.009 104.589 255.246 104.694 259.474 104.751H259.733V105.009C259.733 106.824 259.656 108.63 259.608 110.407L259.465 115.7ZM259.465 115.7L259.33 110.292C259.33 108.515 259.225 106.757 259.206 105.009L259.465 105.267C255.237 105.267 250.999 105.42 246.771 105.42L234.078 105.487L234.557 105.009L234.5 115.7L234.078 115.27C236.168 115.27 238.258 115.27 240.348 115.327L246.656 115.433L259.465 115.7Z" fill="#EBEBEB"/>
<path d="M419.741 272.647L407.153 272.915L400.768 273.02C398.64 273.02 396.492 273.02 394.354 273.077H393.923V272.647L393.875 261.956V261.479H394.354L407.048 261.536C411.276 261.536 415.513 261.651 419.741 261.698H420V261.956C420 263.772 419.923 265.577 419.875 267.354L419.741 272.647ZM419.741 272.647L419.607 267.249C419.607 265.463 419.492 263.705 419.482 261.956L419.741 262.214C415.513 262.214 411.276 262.367 407.048 262.377L394.354 262.434L394.834 261.956L394.776 272.647L394.354 272.227C396.444 272.227 398.534 272.227 400.624 272.275L406.933 272.38L419.741 272.647Z" fill="#EBEBEB"/>
<path d="M405.581 11.1692L392.993 11.4367L386.608 11.5609C384.48 11.6087 382.332 11.5609 380.194 11.6183H379.801V0.0195312H380.29L392.984 0.0864102C397.212 0.0864102 401.439 0.191506 405.677 0.239277H405.936V0.497238C405.936 2.31253 405.849 4.11826 405.811 5.90488L405.581 11.1692ZM405.581 11.1692L405.447 5.77112C405.399 3.99405 405.332 2.22654 405.313 0.47813L405.581 0.736092C401.344 0.793417 397.116 0.888958 392.888 0.898512L380.194 0.955837L380.674 0.47813L380.616 11.1692L380.194 10.7488C382.284 10.7488 384.365 10.7488 386.464 10.7966L392.773 10.9017L405.581 11.1692Z" fill="#EBEBEB"/>
<path d="M419.741 24.649L407.153 24.9357L400.768 25.0408C398.64 25.0408 396.492 25.0408 394.354 25.0981H393.923V24.649L393.875 13.958V13.4707H394.354L407.048 13.5376C411.276 13.5376 415.513 13.6427 419.741 13.6904H420V13.9484C420 15.7637 419.923 17.5694 419.875 19.3561L419.741 24.649ZM419.741 24.649L419.607 19.251C419.607 17.4643 419.492 15.7064 419.482 13.958L419.741 14.2159C415.513 14.2733 411.276 14.3688 407.048 14.3783L394.354 14.4261L394.834 13.9484L394.776 24.6395L394.354 24.2191H400.624L406.933 24.3242L419.741 24.649Z" fill="#EBEBEB"/>
<path d="M40.0261 11.1688L27.4478 11.4363L21.0628 11.5605C18.9249 11.6083 16.7774 11.5605 14.6395 11.6178H14.2177V11.1879L14.1602 0.477707V0H14.6395L27.3328 0.0955414C31.5703 0.0955414 35.7982 0.200637 40.0261 0.248408H40.2945V0.506369C40.2945 2.32166 40.2082 4.12739 40.1699 5.91401L40.0261 11.1688ZM40.0261 11.1688L39.8919 5.7707C39.8919 3.99363 39.7864 2.22611 39.7672 0.477707L40.0261 0.735669C35.7982 0.792994 31.5703 0.888535 27.3328 0.898089L14.6395 0.955414L15.1189 0.477707V11.1688L14.6874 10.7484C16.7774 10.7484 18.8674 10.7484 20.967 10.7962L27.2753 10.9013L40.0261 11.1688Z" fill="#EBEBEB"/>
<path d="M386.848 104.283H313.583V320.331H386.848V104.283Z" fill="#EBEBEB"/>
<path d="M390.395 100.529H310.027V104.275H390.395V100.529Z" fill="#DBDBDB"/>
<path d="M415.667 100.529H390.395V104.275H415.667V100.529Z" fill="#EBEBEB"/>
<path d="M411.669 104.283H386.848V320.331H411.669V104.283Z" fill="#DBDBDB"/>
<path d="M378.987 272.006H321.464V239.521H378.987V272.006ZM321.685 271.767H378.747V239.808H321.685V271.767Z" fill="#C7C7C7"/>
<path d="M353.379 249.066H342.191V255.477H353.379V249.066Z" fill="#C7C7C7"/>
<path d="M356.792 255.105H345.374V249.459H356.792V255.105ZM345.595 254.867H356.553V249.669H345.614L345.595 254.867Z" fill="#C7C7C7"/>
<path d="M378.987 312.688H321.464V280.252H378.987V312.688ZM321.685 312.449H378.747V280.491H321.685V312.449Z" fill="#C7C7C7"/>
<path d="M353.379 289.738H342.191V296.149H353.379V289.738Z" fill="#C7C7C7"/>
<path d="M356.792 295.786H345.374V290.102H356.792V295.786ZM345.595 295.547H356.553V290.34H345.614L345.595 295.547Z" fill="#C7C7C7"/>
<path d="M378.987 231.306H321.464V198.889H378.987V231.306ZM321.685 231.067H378.747V199.128H321.685V231.067Z" fill="#C7C7C7"/>
<path d="M353.379 208.385H342.191V214.796H353.379V208.385Z" fill="#C7C7C7"/>
<path d="M356.792 214.433H345.374V208.748H356.792V214.433ZM345.595 214.194H356.553V208.987H345.614L345.595 214.194Z" fill="#C7C7C7"/>
<path d="M378.987 190.652H321.464V158.168H378.987V190.652ZM321.685 190.413H378.747V158.445H321.685V190.413Z" fill="#C7C7C7"/>
<path d="M353.379 167.703H342.191V174.114H353.379V167.703Z" fill="#C7C7C7"/>
<path d="M356.792 173.751H345.374V168.066H356.792V173.751ZM345.595 173.512H356.553V168.305H345.614L345.595 173.512Z" fill="#C7C7C7"/>
<path d="M378.871 117.773H321.56V149.971H378.871V117.773Z" fill="#A6A6A6"/>
<path d="M373.282 109.529H329.661V141.048H373.282V109.529Z" fill="#C7C7C7"/>
<path d="M345.077 106.262H329.661V109.529H345.959L345.077 106.262Z" fill="#C7C7C7"/>
<path d="M373.167 141.038H329.546L326.181 112.137H369.802L373.167 141.038Z" fill="#A6A6A6"/>
<path d="M341.242 109.146H325.836L326.181 112.137H342.479L341.242 109.146Z" fill="#A6A6A6"/>
<path d="M351.261 117.773H293.949V149.971H351.261V117.773Z" fill="#EBEBEB"/>
<path d="M351.376 150.095H293.853V117.611H351.376V150.095ZM294.074 149.857H351.136V117.888H294.074V149.857Z" fill="#C7C7C7"/>
<path d="M325.769 127.146H314.581V133.557H325.769V127.146Z" fill="#C7C7C7"/>
<path d="M329.201 133.194H317.773V127.51H329.201V133.194ZM318.013 132.956H328.99V127.749H318.013V132.956Z" fill="#C7C7C7"/>
<path d="M378.862 122.6H351.395V149.972H378.862V122.6Z" fill="#DBDBDB"/>
<path d="M29.3364 1.09961H143.739V160.444H29.3364V1.09961ZM140.345 4.48177H32.7494V157.061H140.345V4.48177Z" fill="#EBEBEB"/>
<path d="M88.2394 5.36914H84.8456V158.751H88.2394V5.36914Z" fill="#EBEBEB"/>
<path d="M146.816 7.94922H26.2494V12.6594H146.816V7.94922Z" fill="#EBEBEB"/>
<path d="M146.816 13.252H26.2494V17.9621H146.816V13.252Z" fill="#EBEBEB"/>
<path d="M146.816 18.5547H26.2494V23.2649H146.816V18.5547Z" fill="#EBEBEB"/>
<path d="M146.816 23.8574H26.2494V28.5676H146.816V23.8574Z" fill="#EBEBEB"/>
<path d="M146.816 29.1602H26.2494V33.8703H146.816V29.1602Z" fill="#EBEBEB"/>
<path d="M146.816 34.4707H26.2494V39.1809H146.816V34.4707Z" fill="#EBEBEB"/>
<path d="M146.816 39.7734H26.2494V44.4836H146.816V39.7734Z" fill="#EBEBEB"/>
<path d="M146.816 45.0762H26.2494V49.7864H146.816V45.0762Z" fill="#EBEBEB"/>
<path d="M146.816 50.3789H26.2494V55.0891H146.816V50.3789Z" fill="#EBEBEB"/>
<path d="M37.1979 6.98438H36.3446V98.7328H37.1979V6.98438Z" fill="#A6A6A6"/>
<path d="M35.2612 102.678H38.2812L37.5238 98.3594H36.0186L35.2612 102.678Z" fill="#A6A6A6"/>
<path d="M34.1395 6.98438H33.2863V121.873H34.1395V6.98438Z" fill="#A6A6A6"/>
<path d="M32.203 125.045H35.2229L34.4656 120.736H32.9604L32.203 125.045Z" fill="#A6A6A6"/>
<path d="M152.089 0.439453H20.9766V10.2993H152.089V0.439453Z" fill="#DBDBDB"/>
<path d="M210.11 384.001C314.719 384.001 399.522 373.996 399.522 361.654C399.522 349.312 314.719 339.307 210.11 339.307C105.501 339.307 20.6985 349.312 20.6985 361.654C20.6985 373.996 105.501 384.001 210.11 384.001Z" fill="#EBEBEB"/>
<path d="M4.43884 320.331L55.8543 320.102L107.27 320.016L210.11 319.854L312.951 320.016L364.366 320.102L415.782 320.331L364.366 320.561L312.951 320.646L210.11 320.809L107.27 320.646L55.8543 320.561L4.43884 320.331Z" fill="#263238"/>
<path d="M169.202 248.666L171.369 261.612L186.047 340.586H188.405L177.735 261.612L176.162 248.666H169.202Z" fill="#DBDBDB"/>
<path d="M176.162 248.666H169.202L171.369 261.612H177.735L176.162 248.666Z" fill="#A6A6A6"/>
<path d="M123.117 340.586H125.485L140.163 261.612L142.33 248.666H135.369L133.797 261.612L123.117 340.586Z" fill="#DBDBDB"/>
<path d="M135.37 248.666L133.797 261.612H140.163L142.33 248.666H135.37Z" fill="#A6A6A6"/>
<path d="M79.1125 340.586H81.471L96.1488 261.612L98.3155 248.666H91.3552L89.783 261.612L79.1125 340.586Z" fill="#DBDBDB"/>
<path d="M89.783 261.612H96.1488L98.3155 248.666H91.3552L89.783 261.612Z" fill="#A6A6A6"/>
<path d="M82.8611 254.75H190.38V243.457H150.134L136.606 165.027H86.9643L82.8611 254.75Z" fill="#DBDBDB"/>
<path d="M82.8611 254.75H88.7188L92.544 165.027H86.9643L82.8611 254.75Z" fill="#A6A6A6"/>
<path d="M195.73 355.51C193.582 355.749 134.593 342.85 132.704 340.987C132.474 340.777 133.538 335.436 135.101 328.147V328.003C136.06 323.389 152.53 285.889 152.53 285.889L190.792 295.787L174.111 330.612C174.111 330.612 181.368 335.637 187.6 340.424C190.351 342.411 192.988 344.57 195.48 346.873C197.302 349.118 197.839 355.261 195.73 355.51Z" fill="#AD6359"/>
<path d="M195.73 355.509C193.582 355.758 134.593 342.86 132.704 340.997C132.474 340.786 133.538 335.446 135.101 328.156V328.022C135.456 326.302 137.977 319.997 140.987 312.783C147.286 314.35 169.854 319.997 178.051 322.337L174.101 330.592C174.101 330.592 181.359 335.627 187.59 340.404C190.342 342.391 192.978 344.541 195.471 346.844C197.302 349.127 197.839 355.261 195.73 355.509Z" fill="#EBEBEB"/>
<path d="M195.883 355.758C193.668 355.997 134.641 342.936 132.704 341.016C131.966 340.29 133.097 331.032 136.136 321.182L174.188 329.647C174.188 329.647 193.812 344.561 195.73 346.911C197.647 349.261 198.098 355.51 195.883 355.758Z" fill="#A6A6A6"/>
<path d="M132.704 341.016C133.999 342.296 160.842 348.563 179.135 352.481C188.185 354.391 195.155 355.825 195.874 355.748C198.098 355.509 197.59 349.194 195.711 346.872C193.275 344.551 190.716 342.372 188.041 340.347C181.828 335.417 174.197 329.618 174.197 329.618L136.146 321.162C133.097 331.032 131.957 340.299 132.704 341.016Z" fill="#C7C7C7"/>
<path d="M179.135 352.499C188.185 354.41 195.155 355.843 195.874 355.767C198.098 355.528 197.59 349.212 195.711 346.891C193.275 344.569 190.716 342.391 188.041 340.365L179.135 352.499Z" fill="#A6A6A6"/>
<path d="M195.557 353.226C185.721 350.79 145.791 341.905 135.878 340.252C135.801 340.252 135.791 340.252 135.878 340.309C145.58 342.937 185.577 351.497 195.538 353.379C195.73 353.427 195.73 353.274 195.557 353.226Z" fill="#263238"/>
<path d="M192.384 343.939C190.169 343.385 187.83 343.777 185.922 345.028C184.225 346.127 183.008 347.837 182.538 349.805C182.538 349.872 182.634 349.891 182.662 349.805C184.254 345.955 188.194 343.605 192.355 344.044C192.384 344.063 192.413 344.054 192.432 344.025C192.451 343.996 192.441 343.968 192.413 343.949C192.403 343.949 192.393 343.939 192.374 343.949L192.384 343.939Z" fill="#263238"/>
<path d="M177.073 331.318C173.123 330.362 168.224 330.764 165.042 333.448C164.917 333.553 165.042 333.725 165.195 333.687C169.059 332.636 173.028 331.996 177.035 331.776C177.169 331.738 177.236 331.595 177.198 331.461C177.179 331.394 177.131 331.346 177.073 331.318Z" fill="#263238"/>
<path d="M179.863 333.181C175.913 332.226 171.014 332.627 167.831 335.312C167.707 335.417 167.831 335.589 167.994 335.55C171.858 334.509 175.827 333.888 179.825 333.687C179.969 333.668 180.074 333.544 180.055 333.401C180.045 333.296 179.969 333.2 179.863 333.181Z" fill="#263238"/>
<path d="M182.663 335.044C178.713 334.089 173.804 334.49 170.631 337.175C170.506 337.28 170.631 337.452 170.784 337.423C174.648 336.363 178.617 335.723 182.615 335.512C182.749 335.465 182.826 335.321 182.778 335.188C182.758 335.13 182.72 335.073 182.663 335.044Z" fill="#263238"/>
<path d="M185.452 336.908C181.502 335.952 176.603 336.353 173.421 339.038C173.296 339.143 173.421 339.315 173.574 339.287C177.438 338.226 181.407 337.586 185.414 337.376C185.548 337.328 185.615 337.175 185.567 337.041C185.548 336.984 185.5 336.936 185.452 336.908Z" fill="#263238"/>
<path d="M175.271 331.461L134.65 321.391C134.65 321.391 170.976 241.911 168.033 237.926C166.566 235.93 128.649 234.898 116.704 224.551C101.192 211.118 111.91 191.006 111.91 191.006L154.314 190.223C154.314 190.223 153.7 199.051 155.339 200.398C156.413 201.296 206.832 206.13 212.172 223.165C218.739 244.089 175.271 331.461 175.271 331.461Z" fill="#263238"/>
<path d="M177.044 322.901C175.961 322.423 174.849 322.032 173.708 321.716C172.529 321.325 171.35 320.942 170.161 320.579C167.822 319.863 165.473 319.175 163.114 318.544C158.369 317.264 153.604 316.022 148.82 314.866C146.327 314.274 140.978 312.955 140.652 313.022C140.489 313.022 140.46 313.309 140.604 313.356C145.235 314.942 149.932 316.299 154.63 317.656C159.328 319.012 164.016 320.36 168.771 321.477C170.084 321.793 171.407 322.07 172.73 322.366C174.111 322.748 175.51 323.025 176.929 323.207C177.073 323.235 177.198 323.025 177.044 322.901Z" fill="#37474F"/>
<path d="M175.319 234.506C174.37 233.885 173.267 233.532 172.136 233.475L153.834 230.197C148.082 229.175 142.33 228.287 136.702 227.083C131.995 226.127 127.211 224.838 123.165 222.239C119.196 219.678 116.282 215.771 114.968 211.242C113.731 206.704 113.415 201.965 114.057 197.303C114.182 196.166 114.403 195.038 114.623 193.92C114.623 193.882 114.594 193.854 114.556 193.854C114.518 193.854 114.489 193.882 114.489 193.92C112.84 202.519 112.571 212.599 119.004 219.583C122.13 222.975 126.463 225.01 130.892 226.338C135.935 227.694 141.064 228.745 146.232 229.51C152.339 230.599 158.446 231.688 164.543 232.777C167.477 233.303 170.458 233.733 173.373 234.363C173.957 234.44 174.513 234.697 174.954 235.089C175.376 235.71 175.463 236.503 175.185 237.201C174.878 238.634 174.475 240.067 174.044 241.452C170.564 252.783 145.743 306.564 145.062 307.806C144.995 307.94 145.196 308.035 145.273 307.911C151.025 298.013 169.48 256.5 173.315 245.809C174.322 243.086 175.156 240.306 175.817 237.478C176.067 236.436 176.201 235.28 175.319 234.506Z" fill="#37474F"/>
<path d="M256.243 358.768C254.182 359.437 193.793 358.491 191.578 357.038C191.31 356.886 191.281 351.44 191.358 343.988V343.844C191.358 339.124 190.399 298.777 190.399 298.777L228.192 298.911L230.109 338.656C230.109 338.656 238.229 342.144 245.295 345.593C248.391 347.007 251.402 348.602 254.307 350.37C256.56 352.204 258.305 358.118 256.243 358.768Z" fill="#AD6359"/>
<path d="M256.243 358.767C254.182 359.426 193.793 358.49 191.569 357.038C191.31 356.885 191.281 351.439 191.358 343.987V341.044C191.358 337.91 191.224 332.818 191.099 327.238L229.601 327.439L230.138 338.655C230.138 338.655 238.248 342.143 245.314 345.592C248.411 347.006 251.411 348.601 254.316 350.369C256.55 352.203 258.304 358.117 256.243 358.767Z" fill="#EBEBEB"/>
<path d="M256.483 358.996C254.364 359.665 193.908 358.576 191.626 357.086C190.754 356.522 190.016 347.216 191.032 336.955L230.013 337.7C230.013 337.7 252.217 348.43 254.546 350.34C256.876 352.251 258.611 358.375 256.483 358.996Z" fill="#C7C7C7"/>
<path d="M255.668 356.57C245.535 356.14 204.636 355.356 194.589 355.7C194.503 355.7 194.503 355.758 194.589 355.767C204.617 356.407 245.525 356.866 255.659 356.722C255.879 356.732 255.879 356.579 255.659 356.57H255.668Z" fill="#263238"/>
<path d="M250.692 348.104C248.42 347.999 246.206 348.859 244.585 350.455C243.138 351.869 242.294 353.789 242.227 355.805C242.227 355.872 242.333 355.872 242.342 355.805C243.128 351.706 246.522 348.62 250.692 348.219C250.769 348.219 250.779 348.104 250.692 348.104Z" fill="#263238"/>
<path d="M233.167 338.77C229.112 338.645 224.385 339.983 221.807 343.25C221.711 343.375 221.883 343.518 222.008 343.451C225.593 341.665 229.352 340.26 233.234 339.266C233.369 339.219 233.436 339.066 233.378 338.932C233.34 338.846 233.263 338.779 233.167 338.77Z" fill="#263238"/>
<path d="M236.283 340.05C232.228 339.916 227.492 341.263 224.913 344.521C224.817 344.646 224.999 344.789 225.114 344.732C228.7 342.935 232.458 341.54 236.341 340.547C236.475 340.528 236.58 340.404 236.561 340.27C236.542 340.136 236.417 340.031 236.283 340.05Z" fill="#263238"/>
<path d="M239.389 341.322C235.334 341.188 230.607 342.535 228.029 345.793C227.923 345.917 228.105 346.06 228.23 346.003C231.806 344.207 235.564 342.802 239.447 341.818C239.581 341.799 239.686 341.675 239.667 341.541C239.648 341.408 239.523 341.302 239.389 341.322Z" fill="#263238"/>
<path d="M242.495 342.592C238.44 342.468 233.714 343.805 231.135 347.063C231.039 347.197 231.211 347.331 231.336 347.273C234.922 345.487 238.68 344.082 242.563 343.089C242.697 343.041 242.764 342.888 242.706 342.754C242.668 342.668 242.591 342.601 242.495 342.592Z" fill="#263238"/>
<path d="M231.94 337.682H190.361C190.361 337.682 191.051 260.121 187.763 255.822C183.382 250.089 121.056 249.487 107.912 230.819C96.1009 214.042 106.522 190.634 106.522 190.634L153.729 189.803C152.607 194.828 151.083 199.768 149.175 204.554C149.175 204.554 205.902 215.685 221.624 233.217C232.237 245.083 231.94 337.682 231.94 337.682Z" fill="#263238"/>
<path d="M157.516 201.402C156.154 201.698 154.831 202.109 153.547 202.644C152.185 203.15 150.853 203.714 149.539 204.335C146.96 205.567 144.449 206.943 142.023 208.452C141.946 208.5 142.023 208.605 142.09 208.567C144.659 207.277 147.315 206.121 149.971 205.013L153.805 203.427C155.09 202.892 156.452 202.472 157.64 201.774C157.794 201.688 157.707 201.363 157.516 201.402Z" fill="#37474F"/>
<path d="M154.831 189.755C154.266 191.895 153.758 194.054 153.125 196.175C152.828 197.13 152.54 198.086 152.166 199.041C151.84 199.834 151.361 200.742 150.431 200.952C149.357 201.143 149.06 200.226 149.156 199.347C149.252 198.468 149.53 197.379 149.741 196.414C149.951 195.449 150.21 194.197 150.431 193.079C150.536 192.516 150.651 191.962 150.757 191.398C150.757 191.264 150.901 190.194 150.977 189.888H151.035C151.035 189.888 151.102 189.86 151.102 189.831C151.131 189.783 151.131 189.716 151.102 189.669C151.073 189.65 151.025 189.65 150.996 189.669C150.795 189.774 150.776 190.051 150.709 190.261C150.527 190.796 150.345 191.341 150.182 191.885C149.865 192.907 149.568 193.93 149.29 194.962L148.485 198.057C148.207 198.821 148.12 199.634 148.245 200.436C148.427 201.22 149.117 201.793 149.923 201.831C149.884 201.898 149.846 201.965 149.808 202.041C149.712 202.251 149.635 202.481 149.558 202.691C149.482 202.901 149.395 203.13 149.328 203.36C149.29 203.465 149.271 203.579 149.261 203.694V204.067C149.252 204.162 149.328 204.258 149.424 204.267C149.491 204.267 149.558 204.239 149.597 204.181C149.654 204.076 149.731 203.99 149.798 203.885C149.865 203.771 149.913 203.656 149.961 203.532C150.028 203.312 150.095 203.102 150.153 202.882C150.21 202.662 150.277 202.452 150.325 202.232C150.373 202.013 150.325 201.965 150.325 201.831C150.776 201.793 151.207 201.64 151.572 201.382C152.176 200.876 152.626 200.216 152.876 199.471C153.211 198.583 153.479 197.656 153.738 196.748C154.429 194.493 154.918 192.181 155.196 189.841C155.176 189.736 155.081 189.659 154.965 189.669C154.908 189.669 154.86 189.707 154.831 189.755Z" fill="#37474F"/>
<path d="M126.703 194.674C126.492 195.734 126.358 196.814 126.099 197.865C125.84 198.916 125.552 199.929 125.198 200.932C124.872 201.906 124.421 202.833 123.846 203.683C123.242 204.476 122.532 205.183 121.727 205.776C120.193 206.96 118.477 207.897 116.636 208.527C115.716 208.843 114.776 209.11 113.818 209.311C113.319 209.416 112.859 209.502 112.313 209.559C111.891 209.559 111.478 209.655 111.095 209.817C110.98 209.894 110.942 210.046 111.018 210.161C111.037 210.19 111.066 210.218 111.095 210.238C111.814 210.467 112.591 210.495 113.329 210.333C114.134 210.266 114.939 210.142 115.726 209.951C117.317 209.55 118.851 208.929 120.27 208.097C121.717 207.314 123.012 206.292 124.105 205.069C125.121 203.779 125.83 202.279 126.175 200.683C126.703 198.734 126.942 196.718 126.904 194.693C126.894 194.636 126.837 194.597 126.779 194.607C126.741 194.607 126.712 194.636 126.703 194.674Z" fill="#37474F"/>
<path d="M196.362 283.653C196.027 276.965 195.548 270.277 194.934 263.589C194.781 261.946 194.637 260.302 194.455 258.659C194.349 257.379 194.081 256.117 193.668 254.904C192.71 252.391 190.639 251.082 188.127 250.442C185.155 249.649 182.078 249.162 179.048 248.637C176.019 248.111 172.845 247.614 169.739 247.146C163.45 246.191 157.142 245.312 150.881 244.184C144.631 243.114 138.457 241.653 132.398 239.809C126.847 238.06 121.152 235.92 116.732 232.012C107.231 223.605 107.049 209.694 108.363 198.076C108.545 196.433 108.765 194.799 108.986 193.156C108.986 193.07 108.861 193.041 108.852 193.156C108.018 199.7 107.049 206.283 107.625 212.885C107.979 218.35 109.724 223.633 112.696 228.238C115.889 232.93 120.673 235.996 125.84 238.146C131.544 240.42 137.44 242.197 143.461 243.439C155.924 246.181 168.579 247.433 181.09 249.726C182.634 250.003 184.168 250.299 185.702 250.624C187.13 250.853 188.53 251.235 189.872 251.78C192.748 253.089 193.448 255.86 193.764 258.716C194.503 265.356 194.982 272.025 195.385 278.694C196.19 292.117 196.545 305.617 196.343 319.07L196.257 324.057C196.257 324.2 196.477 324.191 196.477 324.057C197.072 310.605 197.053 297.114 196.362 283.653Z" fill="#37474F"/>
<path d="M230.397 330.955C229.227 330.764 228.048 330.649 226.868 330.62C225.622 330.534 224.385 330.448 223.149 330.381C220.704 330.257 218.259 330.162 215.815 330.123C210.896 330.047 205.978 329.999 201.051 330.057C198.491 330.057 192.978 330.123 192.681 330.257C192.528 330.315 192.566 330.582 192.681 330.592C197.561 331.002 202.45 331.165 207.34 331.337C212.229 331.509 217.109 331.671 221.998 331.614C223.35 331.614 224.702 331.537 226.054 331.509C227.482 331.537 228.911 331.471 230.329 331.299C230.492 331.279 230.56 330.993 230.397 330.955Z" fill="#37474F"/>
<path d="M190.428 298.777C190.572 293.236 190.562 287.685 190.476 282.143C190.39 276.602 190.179 271.051 189.814 265.51C189.642 262.72 189.287 259.94 188.75 257.198C188.664 256.844 188.559 256.49 188.424 256.147C188.357 255.946 188.261 255.764 188.137 255.592C188.012 255.43 187.859 255.277 187.696 255.153C187.111 254.723 186.459 254.379 185.778 254.131C184.455 253.643 183.103 253.242 181.723 252.946C176.268 251.742 170.736 250.901 165.176 250.414C167.927 250.863 170.669 251.312 173.392 251.847C176.115 252.382 178.847 252.908 181.522 253.615C182.854 253.949 184.158 254.369 185.443 254.857C186.056 255.076 186.641 255.382 187.168 255.764C187.389 255.927 187.552 256.166 187.638 256.424C187.753 256.729 187.84 257.054 187.907 257.379C188.405 260.083 188.731 262.815 188.865 265.557C189.306 271.07 189.508 276.612 189.757 282.143L190.428 298.777Z" fill="#37474F"/>
<path d="M212.804 226.193C208.059 223.203 203.073 220.623 197.887 218.474C192.729 216.257 187.446 214.356 182.126 212.569C176.805 210.782 171.398 209.33 166.01 207.897C160.622 206.464 155.1 205.298 149.606 204.219C152.3 204.974 155.033 205.614 157.727 206.378C160.421 207.142 163.134 207.821 165.818 208.595C171.196 210.123 176.575 211.681 181.867 213.467C187.159 215.254 192.413 217.079 197.647 219.133C200.245 220.165 202.815 221.254 205.317 222.429C207.819 223.604 210.36 224.827 212.804 226.193Z" fill="#37474F"/>
<path d="M145.187 145.386C148.859 163.051 156.586 185.513 162.827 190.128C167.86 193.854 194.541 200.819 196.027 201.01C199.728 201.459 207.704 175.09 203.783 174.411C198.606 173.513 175.98 171.765 174.724 170.408C173.469 169.051 165.281 157.51 156.097 144.23C149.712 135.058 142.905 134.418 145.187 145.386Z" fill="#AD6359"/>
<path d="M193.093 199.508C196.468 201.324 199.967 202.9 203.572 204.218C206.448 205.117 214.77 207.467 216.035 204.419C216.927 202.336 212.2 200.378 208.874 198.916C207.129 198.142 204.991 196.26 205.537 195.094C206.496 193.136 210.983 195.218 213.936 197.005C219.688 200.464 227.204 206.655 230.79 203.808C232.151 202.728 230.646 200.693 228.422 198.667C232.046 201.046 235.928 203.015 237.481 201.878C238.316 201.276 238.526 200.129 237.961 199.269C238.91 199.747 240.051 199.594 240.837 198.887C242.064 197.664 241.518 195.811 240.252 193.9C240.712 193.862 241.115 193.604 241.355 193.212C243.962 189.39 231.537 178.117 227.185 176.97C214.367 173.645 200.638 174.467 200.638 174.467C195.5 178.46 193.084 199.499 193.093 199.508Z" fill="#AD6359"/>
<path d="M212.287 188.092C215.345 188.636 218.25 189.831 220.809 191.579C224.031 193.796 226.14 196.356 228.834 198.945C228.901 199.012 228.834 199.127 228.728 199.06C227.444 197.827 222.132 193.184 220.762 192.124C218.278 190.175 215.374 188.808 212.277 188.149C212.277 188.149 212.258 188.092 212.277 188.092H212.287Z" fill="#263238"/>
<path d="M214.808 182.703C218.231 183.591 221.557 184.833 224.731 186.4C228.134 188.225 230.761 191.129 233.359 193.929C234.912 195.601 236.436 197.32 237.913 199.069C237.97 199.136 237.913 199.25 237.807 199.174C235.18 196.289 232.467 193.48 229.677 190.757C227.099 188.206 224.04 186.19 220.675 184.833C218.758 184.05 216.773 183.419 214.798 182.798C214.76 182.75 214.77 182.683 214.808 182.703Z" fill="#263238"/>
<path d="M218.528 178.012C221.807 178.757 224.664 179.397 227.54 181.212C230.761 183.448 233.685 186.075 236.254 189.037C237.664 190.604 239.025 192.209 240.358 193.814C240.405 193.881 240.29 193.976 240.242 193.91C237.184 190.327 233.905 186.954 230.416 183.792C228.776 182.263 226.907 181.002 224.884 180.037C222.823 179.177 220.694 178.499 218.518 178.002C218.518 178.002 218.518 178.002 218.528 178.002V178.012Z" fill="#263238"/>
<path d="M202.249 173.446L192 201.688C192 201.688 163.891 193.424 160.171 188.56C156.452 183.697 147.095 159.277 145.081 146.197C143.068 133.118 149.626 135.764 155.215 142.452C160.804 149.14 174.782 169.557 175.261 169.873C175.741 170.188 202.249 173.446 202.249 173.446Z" fill="#852536"/>
<path d="M187.724 195C188.098 194.044 188.511 193.089 188.865 192.133C189.604 190.156 190.342 188.178 191.07 186.2C191.809 184.223 192.528 182.235 193.247 180.248C193.966 178.261 194.589 176.226 195.327 174.248C195.327 174.21 195.298 174.172 195.26 174.162C195.231 174.162 195.212 174.162 195.193 174.191C194.359 176.102 193.458 178.012 192.643 179.99C191.828 181.968 191.042 183.984 190.294 186C189.546 188.016 188.856 189.974 188.175 191.971C187.84 192.926 187.571 194.006 187.216 195.019C186.862 196.032 186.584 196.93 186.354 197.971C186.354 198 186.382 198.028 186.411 198.028C186.44 198.028 186.469 198 186.469 197.971C186.967 197.044 187.322 196.003 187.724 195Z" fill="#263238"/>
<path d="M179.748 197.723C171.676 194.924 162.223 191.207 160.171 188.522C156.451 183.659 147.094 159.249 145.081 146.169C144.122 139.959 145.081 137.303 146.999 136.949L179.748 197.723Z" fill="#263238"/>
<path d="M160.401 199.987C159.078 201.277 102.237 207.172 101.92 206.789C101.172 205.767 111.795 152.608 134.516 134.293C138.524 131.063 145.215 132.382 148.245 134.359C149.76 135.315 153.997 142.958 155.148 149.751C156.298 156.544 161.216 199.175 160.401 199.987Z" fill="#852536"/>
<path d="M129.253 138.133C117.748 147.687 88.0764 184.843 94.9312 193.279C101.786 201.716 146.327 197.101 159.165 192.821C162.999 191.55 152.08 167.369 147.89 166.318C144.41 165.439 125.284 171.429 124.881 170.321C124.479 169.212 129.493 162.066 135.81 146.951C143.164 129.515 134.315 133.919 129.253 138.133Z" fill="#AD6359"/>
<path d="M166.815 161.311C175.76 161.187 178.07 162.525 185.567 158.445C190.476 155.751 194.311 157.729 191.09 162.573C185.826 170.502 174.322 173.082 170.075 172.815L166.815 161.311Z" fill="#AD6359"/>
<path d="M142.416 166.824C142.416 166.824 152.962 162.591 162.491 161.521C169.068 160.786 183.583 160.766 195.461 176.502C198.28 180.228 199.641 187.537 192.815 183.114C187.964 179.97 185.845 176.512 182.682 175.193C182.682 175.193 183.314 184.7 179.451 187.365C176.086 189.696 172.548 191.789 168.886 193.623C168.397 193.031 167.937 192.41 167.534 191.76C167.534 191.76 163.699 193.91 157.142 192.457L142.416 166.824Z" fill="#AD6359"/>
<path d="M168.886 161.818C171.762 163.787 177.716 168.057 181.349 173.283C185.433 179.016 191.722 191.245 187.427 194.207C184.273 196.376 181.455 191.923 181.455 191.923C181.455 191.923 182.988 197.513 179.71 198.85C176.728 200.073 174.753 196.5 174.753 196.5C174.753 196.5 175.098 200.054 171.992 200.675C168.263 201.42 168.157 193.853 163.709 191.36C162.75 190.758 168.886 161.818 168.886 161.818Z" fill="#AD6359"/>
<path d="M174.561 176.521C178.387 180.773 180.831 186.085 181.56 191.75C181.56 191.903 181.464 191.989 181.426 191.855C179.748 186.496 177.428 181.365 174.504 176.569C174.504 176.569 174.533 176.502 174.561 176.521Z" fill="#263238"/>
<path d="M168.886 180.792C170.736 182.98 174.638 189.955 174.964 196.413C174.964 196.557 174.859 196.643 174.83 196.509C173.43 191.073 171.417 185.808 168.828 180.831C168.828 180.831 168.819 180.764 168.886 180.792Z" fill="#263238"/>
<path d="M182.691 175.136C185.452 176.33 187.14 178.002 189.345 179.913C190.428 180.906 191.559 181.833 192.739 182.703C193.831 183.476 195.433 184.613 196.794 183.811C197.455 183.285 197.781 182.454 197.647 181.623C197.59 180.715 197.35 179.827 196.919 179.024C196.919 179.024 196.919 178.948 196.995 179.024C197.427 179.722 197.743 180.486 197.954 181.279C198.184 182.015 198.184 182.808 197.954 183.543C197.34 185.062 195.452 185.043 194.186 184.441C193.438 184.059 192.729 183.601 192.067 183.075C191.425 182.588 190.802 182.072 190.15 181.547C188.904 180.457 187.715 179.301 186.488 178.203C185.27 177.171 183.986 176.215 182.653 175.336C182.586 175.193 182.653 175.117 182.691 175.136Z" fill="#263238"/>
<path d="M187.427 185.924C186.066 182.245 184.465 178.662 182.634 175.194C182.634 175.194 182.634 175.108 182.701 175.147C184.618 177.535 187.552 183.583 188.166 185.484C188.923 187.471 189.268 189.592 189.182 191.723C188.808 194.704 186.756 195.019 186.008 195.076C185.117 195.124 184.235 194.866 183.506 194.341C182.672 193.672 181.972 192.841 181.474 191.895C181.474 191.847 181.474 191.799 181.541 191.847C182.432 193.147 184.005 194.522 185.654 194.513C186.392 194.532 187.101 194.255 187.638 193.748C188.166 193.08 188.444 192.258 188.415 191.408C188.405 189.535 188.07 187.682 187.427 185.924Z" fill="#263238"/>
<path d="M174.916 196.413C175.29 196.824 175.99 198.171 177.323 198.601C178.272 198.983 179.345 198.878 180.199 198.324C180.985 197.684 181.493 196.757 181.618 195.754C181.656 194.474 181.608 193.203 181.455 191.933C181.455 191.866 181.522 191.847 181.541 191.933C181.876 193.289 182.001 194.694 181.924 196.089C181.838 197.206 181.292 198.248 180.41 198.955C179.47 199.633 178.233 199.738 177.198 199.213C176.153 198.573 175.309 197.646 174.782 196.538C174.782 196.538 174.897 196.394 174.916 196.413Z" fill="#263238"/>
<path d="M164.092 190.814C164.514 191.177 164.888 191.588 165.224 192.037C165.588 192.496 165.943 192.964 166.288 193.442C166.959 194.407 167.534 195.448 168.004 196.528C168.378 197.674 168.982 198.735 169.787 199.633C170.659 200.464 171.973 200.665 173.056 200.13C173.603 199.814 174.034 199.327 174.274 198.744C174.552 198.104 174.696 197.426 174.715 196.728M174.801 196.728C174.839 197.368 174.801 198.009 174.715 198.639C174.59 199.193 174.312 199.719 173.929 200.139C173.085 200.97 171.848 201.257 170.727 200.894C169.567 200.426 168.637 199.509 168.157 198.352C167.544 197.139 167.074 195.859 166.403 194.655C166.048 194.024 165.703 193.394 165.31 192.792C164.917 192.19 164.351 191.579 164.006 190.881C163.996 190.852 164.006 190.814 164.044 190.805C164.064 190.805 164.083 190.805 164.092 190.805L174.801 196.719V196.728Z" fill="#263238"/>
<path d="M160.258 192.927C161.916 192.955 163.575 192.822 165.205 192.525C165.205 192.525 165.31 192.669 165.262 192.688C164.457 192.936 163.623 193.099 162.779 193.175C161.935 193.242 161.082 193.185 160.258 193.013C160.258 193.013 160.258 192.917 160.258 192.927Z" fill="#263238"/>
<path d="M140.94 166.51L153.096 195.669C153.096 195.669 97.3568 203.866 93.5986 192.296C89.8405 180.726 117.566 147.611 127.872 138.707C138.179 129.803 140.94 134.503 137.594 143.56C134.248 152.618 125.639 170.006 125.878 170.006C126.118 170.006 140.94 166.51 140.94 166.51Z" fill="#852536"/>
<path d="M140.968 166.461C136.223 167.149 131.554 168.257 127.01 169.776C122.446 171.2 117.959 172.891 113.588 174.83C111.076 175.958 108.65 177.2 106.196 178.442C106.11 178.489 106.196 178.604 106.282 178.566C108.497 177.553 110.779 176.655 113.041 175.776C115.304 174.897 117.47 174.056 119.752 173.254C124.229 171.649 128.764 170.216 133.356 168.954C135.935 168.247 138.524 167.569 141.083 166.805C141.198 166.747 141.17 166.432 140.968 166.461Z" fill="#263238"/>
<path d="M142.598 191.531C142.272 190.576 141.985 189.62 141.639 188.665L139.502 182.703C138.782 180.716 138.063 178.729 137.316 176.751C136.568 174.773 135.763 172.815 135.053 170.827C135.072 170.789 135.053 170.741 135.005 170.732C134.957 170.722 134.919 170.732 134.909 170.78C134.909 170.799 134.909 170.818 134.909 170.837C135.523 172.853 136.06 174.897 136.702 176.913C137.344 178.929 138.044 180.993 138.773 183.018C139.502 185.044 140.23 186.983 141.007 188.952C141.39 189.907 141.841 190.862 142.263 191.875C142.684 192.888 143.039 193.786 143.509 194.741C143.509 194.799 143.634 194.741 143.614 194.694C143.336 193.595 142.943 192.582 142.598 191.541V191.531Z" fill="#263238"/>
<path d="M153.604 196.099C153.441 195.64 153.288 195.143 153.134 194.723C153.077 194.57 152.808 194.589 152.837 194.723L153.01 195.879C149.856 196.041 146.721 196.519 143.576 196.834C140.431 197.15 137.066 197.455 133.797 197.685C127.364 198.115 120.912 198.277 114.46 198.115C110.769 198.019 107.097 197.761 103.416 197.599C103.368 197.599 103.329 197.637 103.329 197.685C103.329 197.732 103.368 197.771 103.416 197.771C109.887 198.755 116.435 199.137 122.983 198.888C129.521 198.793 136.05 198.344 142.56 197.732C146.203 197.474 149.836 197.035 153.431 196.395C153.547 196.347 153.623 196.223 153.604 196.099Z" fill="#263238"/>
<path d="M132.743 157.442C132.215 158.149 131.688 158.856 131.228 159.601L130.931 160.117C131.746 158.149 132.503 156.152 133.279 154.165C133.279 154.098 133.203 154.06 133.184 154.165C131.784 156.983 130.307 159.764 129.023 162.63C128.38 164.025 127.757 165.429 127.105 166.824C126.779 167.55 126.453 168.267 126.147 168.993C125.811 169.604 125.581 170.264 125.476 170.951C125.476 171.018 125.562 171.037 125.61 170.999C126.089 170.464 126.473 169.843 126.731 169.174C127.086 168.467 127.422 167.76 127.767 167.053C128.457 165.639 129.128 164.216 129.78 162.783C129.943 162.429 130.097 162.066 130.25 161.713C130.681 161.101 131.103 160.49 131.506 159.869C131.909 159.248 132.397 158.33 132.8 157.547C132.848 157.451 132.781 157.394 132.743 157.442Z" fill="#263238"/>
<path d="M146.836 144.811C143.48 144.993 138.84 139.127 137.364 134.779C137.268 134.483 140.345 123.821 140.729 121.642C140.805 121.193 153.853 127.375 153.853 127.375C152.588 129.955 151.639 132.687 151.035 135.496C151.035 135.83 150.105 144.63 146.836 144.811Z" fill="#AD6359"/>
<path d="M153.901 127.385C153.901 127.452 153.738 127.7 153.556 128.111C153.24 128.808 152.732 129.945 152.262 131.264C151.754 132.64 151.351 134.054 151.083 135.496V135.802C151.083 135.984 151.025 136.222 150.987 136.509C150.536 136.48 150.086 136.433 149.635 136.347C142.205 134.847 141.323 125.273 141.256 121.652L141.486 121.738C141.841 121.853 142.291 122.035 142.847 122.264L143.269 122.445C144.142 122.818 145.187 123.286 146.27 123.764L147.344 124.251L149.626 125.302C149.932 125.455 150.249 125.598 150.584 125.722L151.543 126.152C151.687 126.229 151.831 126.296 151.974 126.353L152.166 126.449L153.249 126.964L153.767 127.203L153.988 127.308L153.901 127.385Z" fill="#263238"/>
<path d="M142.598 105.19C139.943 109.594 139.022 124.002 141.639 127.929C145.474 133.604 153.451 136.04 158.733 131.072C163.853 126.295 164.716 107.464 161.609 103.718C157.056 98.2057 146.529 98.6739 142.598 105.19Z" fill="#AD6359"/>
<path d="M154.112 116.656C154.112 116.656 154.026 116.656 154.026 116.733C154.026 117.688 153.844 118.825 152.952 119.112M152.952 119.169C154.045 119.016 154.256 117.535 154.112 116.656L152.952 119.169Z" fill="#263238"/>
<path d="M153.278 115.566C151.715 115.385 151.466 118.518 152.914 118.681C154.361 118.843 154.592 115.7 153.278 115.566Z" fill="#263238"/>
<path d="M159.73 117.219C159.73 117.219 159.807 117.219 159.797 117.305C159.692 118.26 159.73 119.397 160.583 119.789C160.583 119.789 160.583 119.856 160.583 119.846C159.51 119.607 159.471 118.117 159.73 117.219Z" fill="#263238"/>
<path d="M160.679 116.273C162.252 116.273 162.127 119.417 160.679 119.407C159.232 119.398 159.356 116.264 160.679 116.273Z" fill="#263238"/>
<path d="M152.588 114.162C153.01 114.239 153.441 114.286 153.872 114.315C154.313 114.43 154.793 114.401 155.215 114.22C155.464 114.057 155.579 113.742 155.474 113.455C155.195 112.92 154.659 112.586 154.055 112.567C153.46 112.452 152.847 112.567 152.339 112.892C152.013 113.111 151.936 113.551 152.156 113.876C152.262 114.019 152.406 114.124 152.588 114.162Z" fill="#263238"/>
<path d="M162.175 114.353C161.753 114.238 161.35 114.095 160.948 113.933C160.497 113.847 160.085 113.608 159.778 113.264C159.625 113.006 159.673 112.672 159.884 112.461C160.363 112.108 161.005 112.041 161.552 112.28C162.127 112.442 162.625 112.815 162.951 113.321C163.153 113.656 163.038 114.076 162.712 114.277C162.549 114.372 162.357 114.401 162.175 114.353Z" fill="#263238"/>
<path d="M152.492 125.551C152.713 125.79 152.914 126.124 153.269 126.182C153.633 126.201 153.997 126.153 154.333 126.019C154.333 126.019 154.4 126.019 154.333 126.077C154.016 126.44 153.527 126.602 153.058 126.497C152.645 126.354 152.367 125.971 152.358 125.542C152.387 125.522 152.463 125.513 152.492 125.542V125.551Z" fill="#263238"/>
<path d="M153.748 122.723C154.189 123.535 154.946 124.137 155.847 124.366C156.231 124.471 156.634 124.519 157.036 124.509H157.477C157.583 124.5 157.669 124.414 157.688 124.309C157.688 124.309 157.688 124.242 157.688 124.213V124.127C157.765 123.382 157.784 122.216 157.784 122.216C158.043 122.379 159.395 123.114 159.404 122.723C159.577 119.35 159.404 115.968 158.906 112.624C158.887 112.576 158.839 112.547 158.781 112.567C158.752 112.567 158.733 112.595 158.724 112.624C158.541 115.739 158.906 118.872 158.772 122.006C158.292 121.739 157.784 121.538 157.247 121.404C157.142 121.404 157.247 123.611 157.19 123.946C155.943 123.965 154.735 123.487 153.844 122.617C153.777 122.579 153.7 122.637 153.748 122.723Z" fill="#263238"/>
<path d="M141.601 115.375C144.889 115.882 146.452 110.035 146.452 110.035C146.452 110.035 152.204 110.035 153.71 105.888C153.71 105.888 158.503 110.13 162.971 109.261C167.438 108.391 167.649 103.089 167.323 102.009C166.595 99.5251 162.635 101.952 162.635 101.952C159.491 99.4868 155.704 97.9773 151.725 97.5951C146.749 97.3181 143.576 101.531 143.576 101.531C143.576 101.531 140.863 101.675 139.741 103.385C138.619 105.095 139.511 115.06 141.601 115.375Z" fill="#263238"/>
<path d="M145.12 109.872C149.386 111.124 152.732 108.687 154.016 104.627L145.12 109.872ZM154.093 104.627C153.364 108.449 149.05 112.27 145.043 110.044C145.004 109.996 145.014 109.929 145.052 109.901C145.072 109.882 145.091 109.882 145.12 109.872L154.093 104.627Z" fill="#263238"/>
<path d="M143.71 101.475C143.71 101.475 143.777 101.551 143.71 101.561C142.406 101.933 140.94 102.143 139.875 103.118C138.629 104.293 138.572 106.08 138.725 107.666C138.955 110.112 139.684 113.398 141.601 115.08C141.716 115.175 141.553 115.338 141.448 115.242C139.147 113.331 138.293 109.156 138.37 106.328C138.504 103.156 140.719 101.694 143.71 101.475Z" fill="#263238"/>
<path d="M158.34 107.76C160.19 109.385 162.846 109.729 165.051 108.63C167.63 107.235 167.611 104.292 166.968 101.76C166.968 101.636 167.122 101.531 167.17 101.655C168.186 103.958 167.783 107.168 165.607 108.697C163.23 110.139 160.19 109.862 158.11 108.018C157.928 107.875 158.158 107.617 158.34 107.76Z" fill="#263238"/>
<path d="M151.236 122.179C148.791 121.672 147.21 119.293 147.718 116.848C148.226 114.402 150.613 112.835 153.067 113.341C155.1 113.762 156.586 115.5 156.672 117.555C156.787 120.039 154.85 122.15 152.358 122.265C151.984 122.284 151.6 122.246 151.236 122.169V122.179ZM152.952 113.943C152.636 113.876 152.319 113.857 151.993 113.867C149.836 113.962 148.159 115.777 148.255 117.927C148.35 120.077 150.172 121.749 152.329 121.653C154.486 121.558 156.164 119.742 156.068 117.593C155.991 115.806 154.707 114.306 152.952 113.943Z" fill="#455A64"/>
<path d="M161.581 123.028C159.893 122.684 158.704 120.63 158.915 118.251C159.002 117.133 159.423 116.063 160.142 115.194C161.13 113.951 162.932 113.741 164.179 114.716C164.485 114.964 164.744 115.26 164.936 115.614C165.492 116.598 165.722 117.725 165.607 118.843C165.387 121.318 163.69 123.2 161.859 123.037H161.581V123.028ZM162.846 114.735H162.616C161.83 114.706 161.072 115.06 160.603 115.69C159.97 116.464 159.586 117.41 159.519 118.404C159.337 120.544 160.411 122.397 161.935 122.531C163.46 122.665 164.811 121.022 165.022 118.881C165.137 117.888 164.926 116.885 164.438 116.015C164.112 115.385 163.536 114.916 162.846 114.735Z" fill="#455A64"/>
<path d="M156.48 118.069L156.135 117.582C156.864 117.066 158.513 116.435 159.51 117.706L159.03 118.078C158.139 116.932 156.547 118.021 156.48 118.069Z" fill="#455A64"/>
<path d="M136.29 117.478L135.782 117.153C135.935 116.914 137.296 114.831 138.658 114.726C140.019 114.621 147.938 116.102 148.245 116.159L148.13 116.752C145.839 116.331 139.645 115.261 138.667 115.328C137.69 115.395 136.664 116.904 136.29 117.478Z" fill="#455A64"/>
<path d="M142.886 117.172C142.886 117.172 140.757 111.975 138.466 112.625C136.175 113.274 137.047 120.268 139.243 121.739C140.345 122.57 141.917 122.36 142.751 121.262C142.771 121.233 142.79 121.204 142.809 121.176L142.886 117.172Z" fill="#AD6359"/>
<path d="M138.763 114.641C138.763 114.641 138.706 114.641 138.763 114.698C140.288 115.758 140.815 117.507 141.064 119.255C140.834 118.529 140.058 118.128 139.329 118.357C139.262 118.376 139.204 118.405 139.147 118.434V118.539C139.789 118.481 140.403 118.844 140.671 119.427C140.882 119.915 141.045 120.421 141.16 120.937C141.16 121.109 141.496 121.09 141.477 120.937C142.042 118.739 141.016 115.376 138.763 114.641Z" fill="#263238"/>
<path d="M150.958 136.719L146.366 144.363L137.872 132.42L134.459 135.286C134.459 135.286 141.745 153.257 141.927 152.531L146.433 146.044L150.508 151.71L152.099 139.385L150.958 136.719Z" fill="#EBEBEB"/>
<path d="M151.629 145.577C151.821 143.532 152.08 141.478 152.176 139.424C152.176 139.357 152.07 139.3 152.041 139.424C151.313 141.335 150.623 149.131 150.306 150.985C150.134 150.736 146.471 145.959 146.471 146.016C145.513 147.02 142.263 151.749 142.023 152.169C140.873 149.303 136.367 138.899 134.909 136.137C134.909 136.061 134.746 136.137 134.775 136.137C135.734 139.109 141.63 153.125 141.764 153.106C143.451 150.899 145.033 148.615 146.481 146.246C147.066 147.259 150.67 152.561 150.738 152.265C151.15 150.048 151.447 147.822 151.629 145.577Z" fill="#263238"/>
<path d="M41.3778 235.843C42.001 240.124 41.7709 244.48 40.7259 248.674C40.237 250.624 39.5755 252.515 38.751 254.35C37.7252 256.7 36.661 258.993 36.9103 261.563C37.1595 261.725 36.3063 261.697 36.2775 261.448C29.394 257.541 20.5547 256.824 15.2531 250.432C12.8563 247.318 11.3511 243.62 10.8718 239.732C10.0856 235.452 10.1719 231.057 11.121 226.815C12.0797 223.327 14.0739 219.964 17.3622 218.264C20.6506 216.563 25.1949 216.649 28.7612 217.757C36.4501 220.136 40.2753 228.439 41.3778 235.843Z" fill="#852536"/>
<path d="M44.9058 286.718C43.9471 283.594 42.9884 280.47 42.0297 277.355C40.1123 271.25 38.1949 265.174 35.9995 259.203C34.7244 255.601 33.3438 252.037 31.877 248.511C32.0496 246.266 32.3468 244.031 32.7494 241.814C33.3247 239.158 34.1587 236.578 34.9353 233.98C34.9353 233.817 34.7244 233.731 34.6573 233.884C33.1137 237.476 31.0909 242.062 31.0429 246.304C29.3652 242.311 27.5628 238.375 25.6262 234.496C25.4057 231.209 25.5112 227.913 25.933 224.655C25.933 224.502 25.7221 224.464 25.7029 224.655C25.1181 227.511 24.888 230.425 25.0223 233.339C23.5458 230.425 21.9832 227.559 20.3246 224.741C20.1712 224.492 19.8165 224.741 19.9507 224.999C22.5392 229.967 24.9456 235.04 27.1985 240.18C24.0252 237.438 20.3534 235.327 16.3939 233.951C16.2213 233.884 16.0871 234.132 16.2693 234.209C20.593 236.024 24.5525 238.604 27.9559 241.814C29.5761 245.578 31.1196 249.371 32.596 253.193C28.2819 248.98 22.3762 246.209 16.6719 244.728C16.4802 244.671 16.4322 244.976 16.6144 245.024C23.2199 247.011 28.349 250.757 33.3726 255.228C33.9574 256.766 34.523 258.314 35.0887 259.871C37.217 265.757 39.2399 271.68 41.1669 277.632C42.0968 280.48 43.0076 283.346 43.8992 286.231C44.8579 289.308 45.6249 292.556 46.8712 295.537C46.9958 295.814 47.5039 295.757 47.4368 295.413C46.7466 292.47 45.9029 289.575 44.9058 286.718Z" fill="#263238"/>
<path d="M33.478 229.833C32.2509 231.706 31.4072 233.798 30.995 235.996C30.995 236.053 31.0717 236.082 31.0909 235.996C31.8578 233.923 32.759 231.907 33.7848 229.948C33.8903 229.776 33.5931 229.652 33.478 229.833Z" fill="#263238"/>
<path d="M21.1874 244.136C19.27 243.075 17.1704 242.378 15.0037 242.062C14.9462 242.062 14.9078 242.139 15.0037 242.158C15.9624 242.569 17.0458 242.855 18.0524 243.247C19.059 243.639 20.0465 244.098 21.0627 244.451C21.1586 244.451 21.2449 244.375 21.2449 244.27C21.2449 244.222 21.2257 244.164 21.1874 244.136Z" fill="#263238"/>
<path d="M17.7169 226.929C17.0937 226.461 16.4322 226.05 15.7324 225.706C15.6748 225.687 15.6173 225.706 15.5982 225.764C15.579 225.802 15.5982 225.85 15.6173 225.878C16.2213 226.356 16.8541 226.786 17.5347 227.149C17.7073 227.225 17.8415 227.006 17.7169 226.929Z" fill="#263238"/>
<path d="M64.5976 259.165C59.6315 260.627 54.6463 261.984 49.6801 263.436C49.2487 263.57 40.86 247.548 43.9279 239.293C46.852 231.716 53.0452 225.86 60.7916 223.347C64.3388 222.143 68.6913 221.14 72.4303 221.962C75.6803 222.831 78.24 225.325 79.1987 228.535C80.6656 232.767 80.1575 237.831 79.3713 242.159C78.729 246.229 77.0416 250.06 74.4627 253.28C71.8263 256.395 68.4612 258.057 64.5976 259.165Z" fill="#852536"/>
<path d="M71.788 243.936C68.653 245.464 65.3934 246.745 62.0571 247.757C59.8329 248.35 57.6566 249.133 55.5666 250.098C57.6758 245.445 59.9575 240.859 62.4022 236.369C65.7193 235.528 68.7968 233.942 71.3949 231.735C71.5291 231.62 71.3949 231.429 71.2127 231.534C68.5475 233.245 65.7002 234.659 62.7282 235.767C63.3897 234.554 64.0512 233.34 64.7319 232.127C64.9236 231.792 64.4538 231.458 64.2333 231.783C61.6257 235.557 59.2672 239.503 57.1773 243.582C56.6596 240.009 56.5062 236.388 56.7171 232.776C56.7171 232.681 56.5924 232.671 56.5733 232.776C55.9309 236.722 55.9597 240.745 56.65 244.681C54.9051 248.149 53.3233 251.694 51.8564 255.286C51.2908 253.127 50.5622 250.996 50.0637 248.827C49.3159 245.703 49.0762 242.474 49.3542 239.273C49.3542 239.187 49.2296 239.178 49.2104 239.273C48.338 245.178 49.0474 251.206 51.2908 256.748C50.4663 258.917 49.6706 261.085 48.9516 263.254C45.2126 274.347 42.998 285.888 42.3652 297.573C42.394 297.687 42.4995 297.754 42.6145 297.735C42.6912 297.716 42.7583 297.659 42.7775 297.573C44.0813 286.05 46.5548 274.69 50.1787 263.665C51.6168 259.347 53.2753 255.162 55.0873 251.054C58.0209 250.194 60.9354 249.018 63.8211 248.025C66.6972 247.165 69.4199 245.837 71.8647 244.098C71.8934 244.05 71.8838 243.983 71.8359 243.955C71.8263 243.955 71.8071 243.936 71.788 243.936Z" fill="#263238"/>
<path d="M76.4185 239.282C73.3794 240.362 70.5033 241.862 67.4738 242.96C67.33 243.008 67.4163 243.228 67.5601 243.199C70.8101 242.693 73.8876 241.403 76.5336 239.454C76.6295 239.378 76.5336 239.244 76.4185 239.282Z" fill="#263238"/>
<path d="M51.6359 232.757C51.6359 232.595 51.4346 232.509 51.3866 232.671C50.5526 235.461 49.9773 238.403 50.7922 241.27C50.7922 241.327 50.8402 241.375 50.8977 241.375C50.9552 241.375 51.0032 241.327 51.0032 241.27C51.147 238.384 50.9648 235.585 51.6359 232.757Z" fill="#263238"/>
<path d="M64.1758 226.317C63.198 227.712 62.7378 229.403 62.8624 231.094C62.8624 231.2 63.035 231.266 63.0637 231.142C63.4376 229.547 64.0224 228.094 64.5401 226.547C64.6073 226.451 64.5689 226.317 64.473 226.25C64.3772 226.184 64.243 226.222 64.1758 226.317Z" fill="#263238"/>
<path d="M5.57009 266.225C7.02732 270.83 10.4787 277.193 15.9529 277.241C19.5001 277.241 23.0761 276.859 26.6329 276.802C30.4677 276.744 34.3025 276.754 38.0607 276.983C38.377 276.983 37.6101 265.614 28.4736 260.072C25.9043 258.515 22.7214 258.028 19.8452 257.397C16.5089 256.614 13.0864 256.251 9.66377 256.337C7.5642 256.423 5.82894 256.872 5.06197 259.012C4.29501 261.152 4.87023 264.037 5.57009 266.225Z" fill="#852536"/>
<path d="M9.51039 260.474C11.7346 261.037 13.978 261.696 16.2213 262.384C15.6365 261.754 15.023 261.152 14.371 260.588C13.4123 259.795 12.3578 259.165 11.3319 258.467C11.2457 258.41 11.3319 258.238 11.4086 258.286C13.5753 259.174 15.4448 260.665 16.8062 262.566C19.596 263.464 22.3475 264.477 25.0031 265.537C26.8342 266.282 28.5983 267.2 30.2472 268.289C29.7104 267.133 29.068 266.034 28.3298 264.993C27.1123 263.426 25.4537 262.556 23.8814 261.439C23.8047 261.419 23.7664 261.333 23.7855 261.257C23.8047 261.181 23.891 261.142 23.9677 261.161C23.9869 261.161 24.006 261.181 24.0252 261.2C27.3903 262.652 29.9788 265.451 31.158 268.91C33.0658 270.276 34.8107 271.853 36.3542 273.61C42.4132 280.47 47.1876 289.595 47.1972 298.9C47.1972 299.12 46.8424 299.187 46.8041 298.958C45.2606 289.833 41.2819 281.292 35.2996 274.222C34.8682 273.725 34.4176 273.267 33.967 272.779C32.2893 272.55 30.6019 272.416 28.9146 272.388C26.9972 272.388 25.0798 272.674 23.0857 272.827C19.8932 273.085 16.3747 273.123 13.4986 271.528C13.3644 271.451 13.4986 271.232 13.5945 271.289C20.0274 273.61 26.7671 270.658 33.2096 272.053C30.4581 269.435 27.2369 267.362 23.7088 265.939L23.1144 265.709C18.992 266.196 14.6299 267.276 10.6513 265.939C10.5937 265.919 10.565 265.872 10.5841 265.814C10.6033 265.757 10.6513 265.728 10.7088 265.747C14.5436 266.703 18.3113 265.499 22.1462 265.308C17.9758 263.684 13.7191 262.394 9.53916 260.789C9.1365 260.693 9.12691 260.368 9.51039 260.474Z" fill="#263238"/>
<path d="M7.68882 264.516C9.68293 264.774 11.6866 264.927 13.6903 264.975L7.68882 264.516ZM13.6903 265.061C11.6675 265.424 9.59664 265.29 7.64088 264.669C7.54501 264.64 7.59295 264.507 7.68882 264.516L13.6903 265.061Z" fill="#263238"/>
<path d="M21.2449 260.57C22.357 261.067 23.3637 261.765 24.2169 262.634C24.3224 262.72 24.2169 262.911 24.0731 262.825C23.565 262.462 23.0473 262.118 22.52 261.784C22.0215 261.497 21.5325 261.172 21.0724 260.828C21.034 260.733 21.0724 260.628 21.1586 260.589C21.1874 260.58 21.2162 260.57 21.2449 260.57Z" fill="#263238"/>
<path d="M53.5822 275.387C53.5151 275.54 53.726 275.683 53.8123 275.521C53.8123 275.521 53.8986 275.597 53.9561 275.616C57.6471 276.476 61.3765 277.116 65.1442 277.527C68.1641 277.795 71.6538 277.967 74.3094 276.209C77.895 273.839 80.263 267.495 78.3168 263.463C76.0255 258.686 69.1036 261.275 65.6235 262.976C60.274 265.584 56.0173 269.97 53.5822 275.387Z" fill="#852536"/>
<path d="M50.8882 277.596C52.9207 275.656 55.1736 273.956 57.5992 272.532C59.344 269.8 61.6641 267.468 64.3868 265.701C64.5114 265.615 64.6265 265.816 64.5019 265.911C62.3256 267.64 60.389 269.647 58.7496 271.892C61.4436 270.421 64.243 269.14 67.1287 268.07C68.1641 266.169 69.7268 264.602 71.6346 263.57C71.6346 263.57 71.7113 263.57 71.6826 263.637C70.1007 264.822 68.7297 266.265 67.6081 267.889C69.3146 267.249 71.0306 266.666 72.7563 266.093C72.9097 266.045 72.9672 266.274 72.8234 266.331C69.7556 267.526 66.6302 268.787 63.6007 270.23C67.3013 270.812 71.0594 270.812 74.76 270.23C74.8655 270.23 74.9134 270.354 74.76 270.382C70.906 271.519 66.8123 271.586 62.92 270.564C60.9834 271.5 59.1139 272.542 57.302 273.698C58.8263 273.574 60.3602 273.698 61.8366 274.07C64.4539 274.682 67.1383 274.978 69.8227 274.968C69.9186 274.968 69.9473 275.131 69.8227 275.15C65.1921 275.943 60.8204 273.851 56.2282 274.395C54.5121 275.542 52.9111 276.851 51.4347 278.284C48.5681 281.131 46.2193 284.446 44.4649 288.077C42.5475 291.994 41.4833 296.15 39.9206 300.201C39.9014 300.277 39.8152 300.316 39.7385 300.296C39.6618 300.277 39.6234 300.191 39.6426 300.115C41.0711 292.089 45.0593 283.29 50.8882 277.596Z" fill="#263238"/>
<path d="M64.8566 266.655C65.1634 266.11 65.5564 265.623 66.0358 265.222C66.4288 264.801 66.889 264.457 67.4067 264.199C67.4067 264.199 67.4738 264.247 67.4067 264.276C67.0232 264.706 66.448 265.021 66.0837 265.432C65.7194 265.843 65.3359 266.33 64.9141 266.741C64.9045 266.798 64.8182 266.722 64.8566 266.655Z" fill="#263238"/>
<path d="M72.4878 269.13C73.1781 268.958 73.8971 268.977 74.597 268.834C75.2968 268.691 75.9583 268.433 76.6486 268.222C76.687 268.203 76.7349 268.222 76.7445 268.261C76.7637 268.299 76.7445 268.347 76.7061 268.366C75.4406 269.14 73.9642 269.474 72.4878 269.321C72.4687 269.283 72.5166 269.206 72.4878 269.13Z" fill="#263238"/>
<path d="M31.8195 290.234L32.4234 297.113L34.4847 320.33H52.7289L55.3078 297.113L56.0748 290.234H31.8195Z" fill="#37474F"/>
<path d="M31.8195 290.234L32.4234 297.113H55.3078L56.0748 290.234H31.8195Z" fill="#263238"/>
<path d="M57.8867 288.354H30.0171V293.933H57.8867V288.354Z" fill="#37474F"/>
<path d="M367.798 205.232H300.42V365.025H367.798V205.232Z" fill="#37474F"/>
<path d="M119.8 205.232H52.4221V365.025H119.8V205.232Z" fill="#455A64"/>
<path d="M367.798 205.232H119.8V226.099H367.798V205.232Z" fill="#455A64"/>
<path d="M120.231 215.666L151.179 215.494L182.126 215.427L244.02 215.312L305.904 215.427L336.851 215.494L367.798 215.666L336.851 215.838L305.904 215.905L244.02 216.02L182.126 215.905L151.179 215.838L120.231 215.666Z" fill="#263238"/>
<path d="M128.86 205.232H119.8V365.025H128.86V205.232Z" fill="#37474F"/>
<path d="M367.798 205.232H358.739V365.025H367.798V205.232Z" fill="#455A64"/>
<path d="M194.474 201.525H190.859V203.876H194.474V201.525Z" fill="#DBDBDB"/>
<path d="M199.171 201.371H195.557V203.721H199.171V201.371Z" fill="#DBDBDB"/>
<path d="M203.859 201.219H200.245V203.569H203.859V201.219Z" fill="#DBDBDB"/>
<path d="M208.548 201.057H204.933V203.407H208.548V201.057Z" fill="#DBDBDB"/>
<path d="M213.236 200.904H209.621V203.255H213.236V200.904Z" fill="#DBDBDB"/>
<path d="M217.924 200.75H214.309V203.1H217.924V200.75Z" fill="#DBDBDB"/>
<path d="M222.621 200.598H219.007V202.948H222.621V200.598Z" fill="#DBDBDB"/>
<path d="M227.309 200.436H223.695V202.786H227.309V200.436Z" fill="#DBDBDB"/>
<path d="M231.998 200.283H228.383V202.634H231.998V200.283Z" fill="#DBDBDB"/>
<path d="M232.889 205.233H189.977V202.376L232.889 201.182V205.233Z" fill="#C7C7C7"/>
<path d="M298.35 190.213H220.8L233.129 132.668H310.679L298.35 190.213Z" fill="#DBDBDB"/>
<path d="M301.216 190.213H223.666L235.995 132.668H313.545L301.216 190.213Z" fill="#C7C7C7"/>
<path d="M275.302 158.111C274.813 160.815 272.493 162.802 269.742 162.888C267.537 162.955 265.706 161.226 265.639 159.038C265.639 158.732 265.658 158.417 265.715 158.111C266.204 155.417 268.515 153.42 271.266 153.334C273.471 153.267 275.312 154.996 275.379 157.194C275.379 157.5 275.36 157.805 275.302 158.111Z" fill="#A6A6A6"/>
<path d="M279.281 205.232H241.144V202.28L279.281 201.057V205.232Z" fill="#DBDBDB"/>
<path d="M289.654 205.232H269.176L256.847 172.986H277.325L289.654 205.232Z" fill="#DBDBDB"/>
<path d="M293.029 205.232H272.551L260.212 172.986H280.69L293.029 205.232Z" fill="#A6A6A6"/>
<path d="M169.365 205.231H140.671C138.217 205.231 141.764 198.285 150.699 195.62C159.634 192.954 172.184 202.642 169.365 205.231Z" fill="#C7C7C7"/>
<path d="M158.1 205.232C158.043 204.429 158.129 203.627 158.35 202.853C158.561 202.07 158.886 201.315 159.308 200.617C159.73 199.92 160.267 199.289 160.89 198.764C161.513 198.248 162.242 197.856 163.019 197.627C162.424 198.124 161.858 198.659 161.341 199.232C160.842 199.796 160.401 200.398 160.018 201.047C159.241 202.375 158.599 203.78 158.1 205.232Z" fill="#A6A6A6"/>
<path d="M161.504 198.621C162.386 198.812 163.239 199.108 164.054 199.491C164.878 199.873 165.655 200.312 166.403 200.828C167.16 201.363 167.831 202.003 168.397 202.739C169.01 203.436 169.356 204.344 169.356 205.271C169.049 204.459 168.56 203.723 167.927 203.121C167.304 202.529 166.642 201.994 165.933 201.506C164.514 200.494 163.009 199.615 161.504 198.621Z" fill="#A6A6A6"/>
<path d="M358.729 194.932H306.355V205.231H358.729V194.932Z" fill="#852536"/>
<path d="M314.734 194.932H309.615V205.231H314.734V194.932Z" fill="#37474F"/>
<path d="M318.77 194.932H316.632V205.231H318.77V194.932Z" fill="#37474F"/>
<path d="M352.574 194.932H347.455V205.231H352.574V194.932Z" fill="#37474F"/>
<path d="M339.651 187.252H303.316V194.933H339.651V187.252Z" fill="#455A64"/>
<path d="M355.326 187.252H339.651V194.933H355.326V187.252Z" fill="#455A64"/>
<path d="M339.651 188.045H303.316V194.131H339.651V188.045Z" fill="white"/>
<path d="M305.665 189.266C308.541 189.18 311.331 189.113 314.159 189.085L322.653 189.027L331.147 189.085C334.023 189.085 336.813 189.18 339.651 189.266C336.775 189.352 333.985 189.419 331.147 189.448L322.653 189.505L314.159 189.448C311.331 189.448 308.502 189.381 305.665 189.266Z" fill="#DBDBDB"/>
<path d="M305.665 190.491C308.541 190.405 311.331 190.338 314.159 190.309L322.653 190.252L331.147 190.309C334.023 190.309 336.813 190.405 339.651 190.491C336.775 190.586 333.985 190.644 331.147 190.682L322.653 190.73L314.159 190.672C311.331 190.644 308.502 190.577 305.665 190.491Z" fill="#DBDBDB"/>
<path d="M305.665 191.684C308.502 191.598 311.331 191.531 314.159 191.503L322.653 191.445L331.147 191.503C334.023 191.503 336.813 191.598 339.651 191.684C336.775 191.78 333.985 191.837 331.147 191.875L322.653 191.923L314.159 191.866C311.331 191.837 308.502 191.77 305.665 191.684Z" fill="#DBDBDB"/>
<path d="M305.665 192.878C308.502 192.792 311.331 192.725 314.159 192.696L322.653 192.639L331.147 192.696C334.023 192.696 336.813 192.792 339.651 192.878C336.775 192.973 333.985 193.03 331.147 193.069L322.653 193.116L314.159 193.069C311.331 193.03 308.502 192.973 305.665 192.878Z" fill="#DBDBDB"/>
<path d="M347.828 178.824H311.465V187.241H347.828V178.824Z" fill="#37474F"/>
<path d="M343.965 178.824H340.581V187.241H343.965V178.824Z" fill="#852536"/>
<path d="M338.357 178.824H337.043V187.241H338.357V178.824Z" fill="#852536"/>
<path opacity="0.6" d="M110.184 185.991C110.184 185.991 121.535 180.784 121.535 173.791C121.535 166.797 106.819 162.326 106.819 156.851C106.819 151.377 113.281 148.186 113.281 148.186C113.281 148.186 103.147 151.635 103.147 158.542C103.147 165.45 112.802 170.16 113.731 174.517C115.016 180.67 110.184 185.991 110.184 185.991Z" fill="#DBDBDB"/>
<path opacity="0.6" d="M110.75 185.991C110.75 185.991 99.3988 181.893 99.3988 176.437C99.3988 170.982 114.115 167.409 114.115 163.119C114.115 158.829 107.692 156.307 107.692 156.307C107.692 156.307 117.835 159.02 117.835 164.447C117.835 169.874 106.695 173.609 105.899 178.023C105.103 182.437 110.75 185.991 110.75 185.991Z" fill="#DBDBDB"/>
<path d="M115.706 203.561H104.911V205.242H115.706V203.561Z" fill="#37474F"/>
<path d="M115.706 203.561H104.911V204.669H115.706V203.561Z" fill="#263238"/>
<path d="M92.0934 199.043C93.4356 201.021 95.8132 202.034 98.1717 201.632C98.5456 201.565 98.9099 201.46 99.2646 201.317C99.8015 201.116 100.31 200.849 100.789 200.524L99.418 198.498C99.1591 198.67 98.8907 198.823 98.6127 198.957C96.9829 199.693 95.0559 199.129 94.0876 197.629C92.6112 195.556 92.0839 190.827 93.5794 189.03C93.6753 188.897 94.1163 188.686 95.8516 189.03C96.1775 189.107 96.5323 189.183 96.9445 189.298C97.2513 189.403 97.5773 189.479 97.9032 189.508V188.295L98.0183 187.081L97.5101 186.948C96.7048 186.709 95.8899 186.546 95.0559 186.441C93.8095 186.174 92.5057 186.556 91.6045 187.463C89.2461 190.435 90.2719 196.444 92.0934 199.043Z" fill="#37474F"/>
<path d="M99.418 198.498C99.1591 198.67 98.8907 198.823 98.6127 198.957L99.2646 201.317C99.8015 201.116 100.31 200.848 100.789 200.524L99.418 198.498Z" fill="#263238"/>
<path d="M95.1326 186.402L95.8516 188.992C96.1776 189.068 96.5323 189.144 96.9445 189.259C97.2513 189.364 97.5773 189.441 97.9032 189.469V188.256L98.0183 187.042L97.5102 186.909C96.7336 186.679 95.9379 186.507 95.1326 186.402Z" fill="#263238"/>
<path d="M124.67 183.26C124.67 183.26 123.376 194.218 121.133 198.843C118.889 203.467 115.773 203.973 113.837 203.973H106.771C104.854 203.973 101.709 203.457 99.4754 198.843C97.2416 194.228 95.9474 183.26 95.9474 183.26H124.67Z" fill="#37474F"/>
<path d="M100.635 186.401C100.635 187.099 100.07 187.672 99.37 187.682C98.6701 187.682 98.0949 187.118 98.0853 186.42C98.0853 185.723 98.651 185.15 99.3508 185.14C100.051 185.14 100.616 185.704 100.626 186.401H100.635ZM110.606 184.873C109.906 184.873 109.331 185.446 109.331 186.143C109.331 186.841 109.906 187.414 110.606 187.414C111.306 187.414 111.881 186.841 111.881 186.143C111.891 185.446 111.325 184.863 110.625 184.854C110.625 184.854 110.616 184.854 110.606 184.854V184.873ZM110.606 200.828C109.906 200.828 109.331 201.401 109.331 202.099C109.331 202.796 109.906 203.369 110.606 203.369C111.306 203.369 111.881 202.796 111.881 202.099C111.881 201.392 111.315 200.818 110.606 200.809V200.828ZM119.858 193.634C119.158 193.634 118.582 194.207 118.582 194.904C118.582 195.602 119.158 196.175 119.858 196.175C120.557 196.175 121.133 195.602 121.133 194.904C121.152 194.207 120.596 193.634 119.896 193.615C119.886 193.615 119.867 193.615 119.858 193.615V193.634ZM105.688 197.389C104.988 197.389 104.413 197.962 104.413 198.659C104.413 199.357 104.988 199.93 105.688 199.93C106.388 199.93 106.963 199.357 106.963 198.659C106.982 197.962 106.426 197.389 105.726 197.369C105.717 197.369 105.697 197.369 105.688 197.369V197.389ZM120.663 184.873C119.963 184.873 119.388 185.446 119.388 186.143C119.388 186.841 119.963 187.414 120.663 187.414C121.363 187.414 121.938 186.841 121.938 186.143C121.957 185.446 121.401 184.873 120.701 184.854C120.692 184.854 120.672 184.854 120.663 184.854V184.873ZM110.462 193.471C109.762 193.471 109.187 194.045 109.187 194.742C109.187 195.44 109.762 196.013 110.462 196.013C111.162 196.013 111.737 195.44 111.737 194.742C111.776 194.045 111.239 193.452 110.539 193.414C110.51 193.414 110.491 193.414 110.462 193.414V193.471ZM100.789 193.672C100.089 193.672 99.5138 194.245 99.5138 194.943C99.5138 195.64 100.089 196.213 100.789 196.213C101.489 196.213 102.064 195.64 102.064 194.943C102.093 194.245 101.556 193.643 100.846 193.615C100.837 193.615 100.827 193.615 100.818 193.615L100.789 193.672ZM115.706 189.42C115.007 189.42 114.431 189.994 114.431 190.691C114.431 191.389 115.007 191.962 115.706 191.962C116.406 191.962 116.981 191.389 116.981 190.691C117.02 189.994 116.483 189.401 115.783 189.363C115.754 189.363 115.735 189.363 115.706 189.363V189.42ZM115.352 197.627C114.652 197.627 114.077 198.201 114.077 198.898C114.077 199.596 114.652 200.169 115.352 200.169C116.052 200.169 116.627 199.596 116.627 198.898C116.655 198.191 116.099 197.599 115.39 197.57C115.38 197.57 115.361 197.57 115.352 197.57V197.627ZM105.084 189.42C104.384 189.42 103.809 189.994 103.809 190.691C103.809 191.389 104.384 191.962 105.084 191.962C105.784 191.962 106.359 191.389 106.359 190.691C106.388 189.994 105.851 189.392 105.141 189.363C105.122 189.363 105.103 189.363 105.084 189.363V189.42Z" fill="#455A64"/>
<path d="M279.54 366.383C280.834 366.803 281.994 367.749 282.723 366.488C283.451 365.227 285.445 365.6 286.184 365.332C286.922 365.065 287.957 362.934 287.909 362.275C287.861 361.616 287.305 360.928 287.296 360.297C287.286 359.666 287.296 358.74 287.181 357.87C287.267 356.743 286.673 355.673 285.676 355.138C284.726 354.756 283.71 354.593 282.694 354.66C281.841 354.574 281.218 353.217 279.521 352.702C277.824 352.186 275.619 354.068 275.427 354.823C275.235 355.577 275.072 357.87 274.468 358.721C273.864 359.571 272.963 359.294 272.81 360.354C272.656 361.415 272.714 363.173 273.021 363.488C273.327 363.803 274.161 363.326 274.535 363.966C274.909 364.606 275.254 366.297 276.021 366.679C276.788 367.061 278.543 366.02 279.54 366.383Z" fill="#EBEBEB"/>
<path d="M265.495 314.809L263.846 316.461L263.788 315.86V315.85L264.843 314.809H265.495Z" fill="#263238"/>
<path d="M271.746 314.809L266.137 320.436L264.325 322.223L264.296 321.84V321.831L264.277 321.63L265.802 320.102L271.142 314.809H271.746Z" fill="#263238"/>
<path d="M278.006 314.809L269.272 323.57L264.824 327.974L264.814 327.879L264.776 327.401L268.937 323.226L277.44 314.809H278.006Z" fill="#263238"/>
<path d="M284.266 314.809L272.417 326.684L265.313 333.716L265.265 333.181L272.071 326.36L283.729 314.809H284.266Z" fill="#263238"/>
<path d="M290.498 314.808C289.654 315.678 288.801 316.538 287.948 317.398L275.552 329.818L265.802 339.477V338.961L275.254 329.474L287.718 317.13C288.504 316.347 289.299 315.573 290.095 314.799H290.498V314.808Z" fill="#263238"/>
<path d="M296.729 314.81C294.85 316.721 292.971 318.631 291.083 320.542L278.696 332.963L266.291 345.23V344.752L278.351 332.58L290.814 320.227L296.375 314.771L296.729 314.81Z" fill="#263238"/>
<path d="M302.923 314.809C300.037 317.77 297.142 320.723 294.218 323.656L281.831 336.076L269.368 348.43C268.515 349.28 267.652 350.121 266.789 350.961V350.56C267.566 349.758 268.361 348.965 269.147 348.172L281.544 335.751L294.007 323.407C296.921 320.532 299.845 317.665 302.789 314.809H302.923Z" fill="#263238"/>
<path d="M309.03 314.877C305.156 318.851 301.264 322.807 297.362 326.743L284.966 339.164L272.503 351.508L267.268 356.638V356.323C268.927 354.632 270.595 352.941 272.273 351.25L284.659 338.829L297.122 326.485C301.063 322.616 305.032 318.746 309.03 314.877Z" fill="#263238"/>
<path d="M308.464 321.611V321.822C305.818 324.516 303.172 327.201 300.516 329.885L288.13 342.306L275.667 354.659C273.049 357.21 270.413 359.78 267.776 362.379V362.188C270.336 359.589 272.886 357 275.446 354.42L287.833 342L300.296 329.646C302.99 326.962 305.713 324.286 308.464 321.611Z" fill="#263238"/>
<path d="M307.898 328.357V328.778L303.69 333.039L291.294 345.459L278.83 357.803C275.437 361.147 272.024 364.482 268.601 367.797H268.486C271.822 364.357 275.178 360.937 278.562 357.545L290.958 345.125L303.421 332.781L307.898 328.357Z" fill="#263238"/>
<path d="M307.314 335.121L307.266 335.666L306.777 336.162L294.39 348.583L281.927 360.927C279.597 363.229 277.268 365.513 274.919 367.796H274.641C276.98 365.417 279.319 363.038 281.668 360.669L294.055 348.248L306.518 335.895L307.314 335.121Z" fill="#263238"/>
<path d="M306.729 341.934V342.535L297.525 351.688L285.062 364.042L281.227 367.778H280.824C282.138 366.44 283.461 365.112 284.774 363.784L297.17 351.364L306.729 341.934Z" fill="#263238"/>
<path d="M306.154 348.736L306.096 349.396L300.66 354.851L288.197 367.195L287.574 367.806H287.075L287.938 366.937L300.325 354.517L306.154 348.736Z" fill="#263238"/>
<path d="M305.569 355.549L305.511 356.265L303.805 357.976L293.873 367.807H293.326L303.46 357.641L305.569 355.549Z" fill="#263238"/>
<path d="M304.994 362.379V362.408L304.936 363.095L300.181 367.806H299.586L304.994 362.379Z" fill="#263238"/>
<path d="M308.953 315.85L308.895 316.471L307.246 314.809H307.898L308.953 315.85Z" fill="#263238"/>
<path d="M308.464 321.63L308.406 322.223L306.604 320.436L300.986 314.809H301.6L306.94 320.102L308.464 321.63Z" fill="#263238"/>
<path d="M307.965 327.401L307.927 327.879L307.917 327.984L303.46 323.57L294.726 314.809H295.301L303.805 323.226L307.965 327.401Z" fill="#263238"/>
<path d="M307.477 333.191L307.429 333.735L300.325 326.684L288.475 314.809H289.002L300.66 326.36L307.477 333.191Z" fill="#263238"/>
<path d="M306.988 338.981L306.94 339.487L297.19 329.828L284.794 317.408C283.94 316.548 283.087 315.688 282.243 314.818H282.675C283.471 315.592 284.266 316.366 285.052 317.15L297.516 329.494L306.988 338.981Z" fill="#263238"/>
<path d="M306.489 344.751V345.229L294.083 332.952L281.697 320.531C279.78 318.62 277.9 316.71 276.05 314.799H276.395L281.956 320.254L294.419 332.608L306.489 344.751Z" fill="#263238"/>
<path d="M305.981 350.56V350.971L303.392 348.43L290.929 336.076L278.533 323.656C275.628 320.713 272.723 317.761 269.838 314.809H270.02C272.953 317.656 275.878 320.522 278.802 323.407L291.265 335.751L303.661 348.172L305.981 350.56Z" fill="#263238"/>
<path d="M305.502 356.37V356.685C303.747 354.994 302.002 353.274 300.258 351.554L287.794 339.21L275.408 326.79C271.496 322.854 267.604 318.898 263.74 314.924C267.738 318.793 271.707 322.672 275.667 326.57L288.13 338.914L300.516 351.335C302.185 353.007 303.843 354.679 305.502 356.37Z" fill="#263238"/>
<path d="M305.022 362.198V362.417C302.376 359.866 299.749 357.296 297.132 354.698L284.669 342.344L272.282 329.924C269.627 327.249 266.981 324.564 264.335 321.86V321.631C267.086 324.296 269.828 326.981 272.56 329.666L285.024 342.019L297.42 354.44C299.932 357.01 302.463 359.589 305.022 362.198Z" fill="#263238"/>
<path d="M304.303 367.806H304.188C300.766 364.491 297.353 361.156 293.959 357.812L281.496 345.468L269.099 333.048L264.891 328.758V328.338C266.396 329.809 267.901 331.281 269.397 332.761L281.86 345.105L294.246 357.526C297.592 360.956 300.967 364.367 304.303 367.806Z" fill="#263238"/>
<path d="M298.11 367.806H297.832C295.483 365.523 293.153 363.239 290.824 360.937L278.361 348.593L265.974 336.172L265.485 335.676L265.437 335.141C265.706 335.389 265.965 335.657 266.233 335.915L278.696 348.268L291.083 360.688C293.432 363.048 295.78 365.427 298.11 367.806Z" fill="#263238"/>
<path d="M291.888 367.806H291.495C290.22 366.535 288.935 365.284 287.66 364.071L275.197 351.717L266.041 342.545L265.993 341.934L275.532 351.383L287.928 363.803C289.261 365.141 290.584 366.469 291.888 367.806Z" fill="#263238"/>
<path d="M285.666 367.806H285.167L284.544 367.195L272.081 354.851L266.655 349.405L266.597 348.736L272.426 354.469L284.813 366.889L285.666 367.806Z" fill="#263238"/>
<path d="M279.415 367.807H278.869L268.937 357.976L267.23 356.266V356.246L267.163 355.559L269.272 357.641L279.415 367.807Z" fill="#263238"/>
<path d="M273.155 367.806H272.56L267.805 363.095L267.748 362.379L273.155 367.806Z" fill="#263238"/>
<path d="M264.164 314.874L263.209 314.961L268.049 367.853L269.003 367.766L264.164 314.874Z" fill="#263238"/>
<path d="M308.726 314.9L303.831 367.787L304.785 367.875L309.681 314.988L308.726 314.9Z" fill="#263238"/>
<path d="M311.752 309.02H260.903V317.599H311.752V309.02Z" fill="#263238"/>
<path d="M306.508 363.211H266.147V371.791H306.508V363.211Z" fill="#263238"/>
<path d="M302.961 359.982C304.495 359.762 306.451 359.762 306.566 360.631C306.681 361.501 305.981 361.979 306.201 362.409C306.834 363.068 307.515 363.67 308.234 364.224C308.723 364.73 309.078 365.361 309.26 366.039C309.26 366.259 309.624 366.622 309.26 367.052C308.895 367.482 308.685 368.141 308.387 368.466C308.033 368.791 308.013 369.345 308.349 369.698C308.359 369.717 308.378 369.727 308.387 369.737C308.819 370.319 308.454 371.982 307.802 372.603C307.151 373.224 305.252 371.81 304.677 371.953C304.102 372.096 304.016 372.383 303.507 372.746C302.635 373.453 301.571 373.874 300.449 373.979C299.145 373.979 298.484 372.823 297.688 372.316C296.969 371.944 296.212 371.657 295.426 371.447C294.774 371.179 294.198 370.759 293.757 370.214C293.614 369.918 293.106 369.851 293.316 369.049C293.527 368.246 293.901 368.036 293.901 367.386V365.877C293.901 365.141 293.307 363.832 293.815 363.249C294.323 362.667 294.697 361.797 295.493 361.797C296.288 361.797 298.839 362.237 298.839 362.237C299.107 361.94 299.356 361.625 299.567 361.281C299.941 360.66 300.612 360.278 301.331 360.268C301.887 360.259 302.434 360.163 302.961 359.982Z" fill="white"/>
<path d="M293.901 367.347C294.946 367.825 296.001 368.255 297.065 368.665C298.129 369.076 299.184 369.535 300.248 369.927C301.293 370.328 302.367 370.672 303.45 370.958C303.67 371.016 303.891 371.044 304.111 371.035L304.754 370.71C305.243 370.462 305.703 370.175 306.144 369.86C306.566 369.573 306.93 369.21 307.208 368.78C307.266 368.675 307.314 368.57 307.362 368.465L307.409 368.312V368.236C307.352 368.054 307.256 367.892 307.131 367.748C306.374 366.946 305.54 366.22 304.639 365.579C303.728 364.911 302.779 364.271 301.82 363.669C301.341 363.353 300.861 363.057 300.363 362.78C300.114 362.637 299.864 362.503 299.606 362.379L299.27 362.197C299.145 362.197 298.973 362.064 298.877 362.197C298.963 362.064 299.155 362.14 299.289 362.149C299.433 362.178 299.577 362.216 299.711 362.264C299.979 362.35 300.248 362.455 300.516 362.57C301.053 362.79 301.58 363.028 302.098 363.277C303.124 363.802 304.121 364.366 305.099 364.987C306.125 365.589 307.055 366.325 307.879 367.185C308.138 367.443 308.311 367.777 308.378 368.14C308.378 368.216 308.378 368.283 308.378 368.36V368.493L308.301 368.742C308.243 368.904 308.167 369.057 308.081 369.2C307.745 369.745 307.304 370.213 306.786 370.576C306.297 370.939 305.789 371.255 305.252 371.532L304.859 371.723L304.658 371.818L304.552 371.866L304.342 371.933C303.996 371.962 303.642 371.933 303.306 371.828C302.184 371.503 301.092 371.092 300.037 370.586C297.909 369.669 295.857 368.589 293.901 367.347Z" fill="#C7C7C7"/>
<path d="M298.244 369.307C298.81 368.418 299.452 367.587 300.162 366.804C300.507 366.403 300.871 366.03 301.245 365.657C301.437 365.476 301.648 365.304 301.849 365.122C302.079 364.922 302.338 364.75 302.616 364.616H302.76C302.865 364.597 302.961 364.597 303.066 364.616C303.22 364.645 303.364 364.711 303.469 364.826C303.575 364.941 303.68 365.065 303.766 365.189C303.929 365.409 304.073 365.648 304.207 365.887C304.457 366.355 304.706 366.842 304.917 367.301C305.358 368.256 305.684 369.25 305.875 370.281L304.226 367.645C303.948 367.215 303.69 366.775 303.402 366.355C303.268 366.145 303.134 365.934 302.99 365.753C302.846 365.571 302.846 365.581 302.788 365.514C302.731 365.447 302.788 365.514 302.865 365.514C302.903 365.533 302.932 365.533 302.971 365.514C302.779 365.61 302.597 365.734 302.434 365.867L301.858 366.336L300.689 367.339C299.884 368.008 299.097 368.686 298.244 369.307Z" fill="#C7C7C7"/>
<path d="M278.898 375.573C278.063 375.774 276.98 375.879 276.884 375.401C276.788 374.924 277.134 374.637 276.99 374.446C276.616 374.112 276.204 373.815 275.782 373.548C275.485 373.29 275.264 372.956 275.13 372.593C275.13 372.468 274.9 372.296 275.082 372.038C275.264 371.78 275.331 371.408 275.485 371.217C275.657 371.016 275.648 370.72 275.446 370.538C275.446 370.538 275.427 370.519 275.417 370.519C275.178 370.003 275.245 369.401 275.59 368.943C275.926 368.589 277.028 369.249 277.344 369.134C277.661 369.019 277.68 368.866 277.939 368.647C278.38 368.207 278.936 367.921 279.549 367.806C280.268 367.739 280.681 368.341 281.151 368.58C281.563 368.752 281.994 368.866 282.435 368.943C282.799 369.058 283.125 369.258 283.394 369.535C283.49 369.688 283.768 369.698 283.691 370.147C283.614 370.596 283.423 370.73 283.461 371.102C283.499 371.475 283.461 371.522 283.538 371.924C283.614 372.325 283.96 373.023 283.71 373.366C283.461 373.71 283.308 374.198 282.867 374.245C282.426 374.293 281.016 374.179 281.016 374.179C280.882 374.351 280.767 374.542 280.662 374.733C280.489 375.086 280.144 375.325 279.751 375.373C279.454 375.392 279.166 375.468 278.898 375.573Z" fill="white"/>
<path d="M275.724 370.939C276.175 370.471 276.683 370.051 277.095 369.601L277.44 369.286L277.622 369.133C277.728 369.047 277.843 368.99 277.977 368.961C278.313 368.885 278.648 368.837 278.993 368.828C279.655 368.799 280.326 368.837 280.978 368.942C281.352 368.99 281.706 369.105 282.042 369.267C282.272 369.42 282.445 369.649 282.512 369.917C282.569 370.117 282.598 370.318 282.588 370.528C282.55 371.216 282.397 371.885 282.138 372.525C282.023 372.85 281.879 373.175 281.716 373.48C281.63 373.633 281.534 373.786 281.428 373.929C281.304 374.121 281.112 374.264 280.901 374.34C280.24 374.531 279.54 374.579 278.859 374.474C278.217 374.417 277.574 374.302 276.942 374.14C277.584 374.14 278.217 374.082 278.859 374.006C279.453 373.977 280.029 373.863 280.585 373.662C280.709 373.605 280.681 373.605 280.767 373.471C280.853 373.337 280.901 373.232 280.968 373.098C281.093 372.821 281.198 372.544 281.285 372.258C281.486 371.713 281.601 371.14 281.63 370.557C281.63 370.385 281.716 370.222 281.85 370.108C281.515 369.993 281.16 369.917 280.805 369.869C280.201 369.735 279.597 369.649 278.984 369.611C278.687 369.582 278.399 369.582 278.102 369.611C278.044 369.611 277.987 369.611 278.015 369.611L277.814 369.745L277.402 370.003C276.836 370.289 276.261 370.643 275.724 370.939Z" fill="#C7C7C7"/>
<path d="M277.709 369.717C277.709 370.328 277.709 370.921 277.766 371.456C277.766 371.704 277.843 372.01 277.91 372.029C277.91 372.029 277.977 372.048 277.91 372.029H277.958C278.073 372.029 278.179 372.029 278.294 372.029C278.811 371.952 279.367 371.79 279.933 371.675C280.508 371.542 281.093 371.446 281.687 371.389C281.227 371.771 280.719 372.096 280.182 372.344C279.636 372.621 279.051 372.822 278.447 372.937C278.265 372.956 278.083 372.956 277.9 372.937C277.776 372.937 277.651 372.898 277.536 372.851C277.392 372.784 277.277 372.679 277.191 372.545C277.009 372.201 276.951 371.8 277.038 371.417C277.143 370.816 277.373 370.233 277.709 369.717Z" fill="#C7C7C7"/>
<path d="M271.947 363.154C271.525 361.864 271.602 360.373 270.144 360.526C268.687 360.679 267.815 358.873 267.163 358.434C266.511 357.995 264.172 358.434 263.664 358.873C263.156 359.313 262.935 360.154 262.427 360.526C261.919 360.899 261.19 361.482 260.51 362.065C259.541 362.676 259.023 363.803 259.196 364.931C259.445 365.915 259.915 366.832 260.577 367.606C261.018 368.342 260.289 369.641 260.874 371.313C261.459 372.985 264.296 373.635 265.015 373.348C265.734 373.061 267.69 371.819 268.754 371.819C269.819 371.819 270.116 372.689 271.065 372.182C272.014 371.676 273.385 370.587 273.462 370.157C273.538 369.727 272.666 369.335 272.954 368.657C273.241 367.979 274.411 366.698 274.267 365.858C274.123 365.017 272.273 364.109 271.947 363.154Z" fill="white"/>
<path d="M269.253 360.383C267.46 360.956 265.706 361.654 263.999 362.466C263.817 362.561 263.644 362.685 263.481 362.819C263.414 362.819 263.366 363.144 263.328 363.345C263.251 363.803 263.194 364.3 263.146 364.73C263.04 365.657 262.983 366.593 262.973 367.529C262.964 367.978 262.983 368.427 263.04 368.867C263.05 368.991 263.088 369.115 263.136 369.23C263.299 369.306 263.472 369.364 263.654 369.392C264.565 369.517 265.476 369.564 266.396 369.526C266.856 369.517 267.307 369.478 267.757 369.411C268.15 369.354 268.716 369.22 269.128 369.144C270.087 368.953 270.988 368.781 271.88 368.552C272.091 368.485 272.321 368.437 272.503 368.36H272.608C272.608 368.36 272.656 368.36 272.608 368.36C272.58 368.38 272.551 368.408 272.541 368.447C272.493 368.561 272.493 368.676 272.541 368.79C272.551 368.857 272.589 368.915 272.637 368.953L272.685 369.001L272.56 368.953C272.158 368.819 271.688 368.704 271.228 368.599L268.467 367.988C267.508 367.778 266.607 367.577 265.677 367.348C265.217 367.224 264.718 367.109 264.287 366.947C263.999 366.851 263.74 366.717 263.501 366.536L263.424 366.44C263.386 366.383 263.366 366.325 263.347 366.259V366.02C263.347 365.934 263.366 365.848 263.395 365.762C263.443 365.628 263.501 365.494 263.568 365.37C264.076 364.529 264.68 363.755 265.37 363.068C265.543 362.896 265.715 362.724 265.897 362.561C265.993 362.475 266.089 362.399 266.185 362.322C266.233 362.275 266.281 362.236 266.338 362.208C266.405 362.15 266.492 362.103 266.578 362.083C266.77 362.055 266.971 362.103 267.125 362.217C267.23 362.294 267.335 362.38 267.431 362.466C267.613 362.628 267.786 362.81 267.939 363.001C269.099 364.51 270.135 366.106 271.036 367.778C269.981 366.211 268.831 364.72 267.585 363.306C267.431 363.134 267.268 362.982 267.096 362.829C266.99 362.724 266.866 362.647 266.722 362.59C266.779 362.59 266.722 362.59 266.655 362.638L266.53 362.743L266.29 362.962C266.127 363.125 265.964 363.297 265.811 363.469C265.198 364.147 264.67 364.883 264.229 365.685C264.229 365.781 264.143 365.886 264.124 365.953C264.105 366.02 264.124 366.048 264.124 366.039V365.943C264.277 366.029 264.44 366.087 264.613 366.134C265.044 366.268 265.504 366.383 265.955 366.497C266.914 366.708 267.796 366.899 268.726 367.09L272.273 367.768C272.743 367.873 272.436 367.864 272.934 368.017C273.011 368.036 273.078 368.064 273.145 368.093C273.193 368.112 273.241 368.141 273.289 368.169L273.414 368.275C273.462 368.332 273.5 368.399 273.529 368.466C273.577 368.59 273.577 368.733 273.529 368.857C273.471 368.943 273.404 369.01 273.327 369.068L273.203 369.144C273.136 369.182 273.059 369.211 272.982 369.239C272.743 369.335 272.503 369.411 272.254 369.469C271.295 369.698 270.336 369.86 269.435 370.032C268.946 370.118 268.563 370.214 268.016 370.3C267.47 370.386 267.057 370.376 266.549 370.386C265.571 370.424 264.594 370.357 263.625 370.195C263.328 370.157 263.05 370.052 262.801 369.899C262.638 369.775 262.523 369.603 262.465 369.402C262.427 369.268 262.398 369.125 262.389 368.982C262.35 368.485 262.35 367.997 262.389 367.501C262.436 366.545 262.561 365.59 262.695 364.634C262.772 364.166 262.849 363.679 262.954 363.22C263.04 362.982 262.954 362.762 263.27 362.446C263.472 362.284 263.702 362.141 263.942 362.036C264.824 361.663 265.734 361.348 266.655 361.08C267.412 360.832 268.323 360.574 269.253 360.383Z" fill="#C7C7C7"/>
<path d="M222.928 63.7071L248.995 82.8249L261.804 65.446L235.746 46.3281L222.928 63.7071Z" fill="#EBEBEB"/>
<path d="M224.817 63.419L248.708 80.9508L259.925 65.7311L236.024 48.1992L224.817 63.419Z" fill="white"/>
<path d="M234.701 54.553C233.637 55.9861 233.944 58.002 235.382 59.053C236.82 60.1039 238.843 59.8077 239.897 58.3746C240.961 56.9415 240.655 54.9256 239.217 53.8746C239.217 53.8746 239.217 53.8746 239.207 53.8746C237.769 52.8237 235.756 53.1294 234.701 54.5625V54.553Z" fill="#DBDBDB"/>
<path d="M232.218 68.8838L248.679 80.9602L248.66 63.8105L232.218 68.8838Z" fill="#DBDBDB"/>
<path d="M225.756 64.1647L239.351 74.1297L237.903 61.9004L225.756 64.1647Z" fill="#EBEBEB"/>
<path d="M204.166 69.535L234.078 81.8503L242.323 61.9108L212.411 49.5859L204.166 69.535Z" fill="#EBEBEB"/>
<path d="M205.921 68.7992L233.349 80.1017L240.559 62.6367L213.14 51.3438L205.921 68.7992Z" fill="white"/>
<path d="M213.379 57.811C212.699 59.4543 213.485 61.3365 215.134 62.0148C216.783 62.6931 218.672 61.9097 219.352 60.2664C220.033 58.6231 219.247 56.7409 217.598 56.0626C215.949 55.3842 214.06 56.1677 213.379 57.811Z" fill="#DBDBDB"/>
<path d="M214.424 72.333L233.321 80.1197L229.169 63.4668L214.424 72.333Z" fill="#DBDBDB"/>
<path d="M207.023 69.2953L222.612 75.7156L218.259 64.1934L207.023 69.2953Z" fill="#EBEBEB"/>
<path d="M191.655 77.3209L165.329 84.1808L156.49 50.5025L176.038 45.4101L182.816 43.6426L184.503 50.063L191.655 77.3209Z" fill="#EBEBEB"/>
<path d="M181.985 49.884L160.54 55.4707L160.768 56.3396L182.213 50.7529L181.985 49.884Z" fill="#DBDBDB"/>
<path d="M182.564 52.0481L161.12 57.6348L161.348 58.5037L182.792 52.917L182.564 52.0481Z" fill="#DBDBDB"/>
<path d="M183.139 54.2395L161.695 59.8262L161.923 60.6951L183.367 55.1084L183.139 54.2395Z" fill="#DBDBDB"/>
<path d="M183.542 55.6093L162.041 61.1309L162.266 62.0005L183.767 56.479L183.542 55.6093Z" fill="#DBDBDB"/>
<path d="M184.117 57.7851L162.616 63.3066L162.841 64.1763L184.342 58.6548L184.117 57.7851Z" fill="#DBDBDB"/>
<path d="M184.85 60.7883L163.405 66.375L163.633 67.2439L185.078 61.6572L184.85 60.7883Z" fill="#DBDBDB"/>
<path d="M185.425 62.97L163.98 68.5566L164.208 69.4255L185.653 63.8389L185.425 62.97Z" fill="#DBDBDB"/>
<path d="M185.998 65.1555L164.553 70.7422L164.781 71.6111L186.225 66.0244L185.998 65.1555Z" fill="#DBDBDB"/>
<path d="M186.573 67.3372L165.128 72.9238L165.356 73.7927L186.8 68.2061L186.573 67.3372Z" fill="#DBDBDB"/>
<path d="M187.154 69.5169L165.709 75.1035L165.937 75.9724L187.382 70.3858L187.154 69.5169Z" fill="#DBDBDB"/>
<path d="M187.582 70.8417L166.081 76.3633L166.306 77.233L187.807 71.7114L187.582 70.8417Z" fill="#DBDBDB"/>
<path d="M188.283 73.886L166.838 79.4727L167.066 80.3415L188.511 74.7549L188.283 73.886Z" fill="#DBDBDB"/>
<path d="M198.644 87.0381L171.474 88.5572L169.528 53.7993L189.699 52.6719L197.062 58.9012L198.644 87.0381Z" fill="#EBEBEB"/>
<path d="M189.699 52.6719L197.062 58.9012L190.073 59.2929L189.699 52.6719Z" fill="#DBDBDB"/>
<path d="M187.604 58.6213L172.499 59.4629L172.55 60.3596L187.655 59.518L187.604 58.6213Z" fill="#DBDBDB"/>
<path d="M187.74 60.8752L172.635 61.7168L172.685 62.6135L187.79 61.7719L187.74 60.8752Z" fill="#DBDBDB"/>
<path d="M187.856 63.1193L172.751 63.9609L172.801 64.8576L187.906 64.016L187.856 63.1193Z" fill="#DBDBDB"/>
<path d="M195.016 64.9916L172.886 66.2246L172.936 67.1213L195.067 65.8882L195.016 64.9916Z" fill="#DBDBDB"/>
<path d="M195.152 67.2455L173.021 68.4785L173.072 69.3752L195.202 68.1422L195.152 67.2455Z" fill="#DBDBDB"/>
<path d="M195.268 69.4896L173.137 70.7227L173.188 71.6193L195.318 70.3863L195.268 69.4896Z" fill="#DBDBDB"/>
<path d="M195.404 71.7435L173.273 72.9766L173.323 73.8733L195.454 72.6402L195.404 71.7435Z" fill="#DBDBDB"/>
<path d="M195.52 73.9974L173.39 75.2305L173.44 76.1272L195.571 74.8941L195.52 73.9974Z" fill="#DBDBDB"/>
<path d="M195.646 76.2611L173.516 77.4941L173.566 78.3908L195.697 77.1578L195.646 76.2611Z" fill="#DBDBDB"/>
<path d="M195.772 78.5052L173.641 79.7383L173.691 80.635L195.822 79.4019L195.772 78.5052Z" fill="#DBDBDB"/>
<path d="M195.907 80.7494L173.776 81.9824L173.827 82.8791L195.957 81.6461L195.907 80.7494Z" fill="#DBDBDB"/>
<path d="M196.034 83.0209L173.903 84.2539L173.954 85.1506L196.085 83.9175L196.034 83.0209Z" fill="#DBDBDB"/>
<path d="M176.719 96.5256C176.719 101.226 180.362 105.124 185.059 105.478H236.072C241.901 105.745 246.829 101.255 247.097 95.446C247.366 89.6371 242.86 84.7263 237.031 84.4588C236.714 74.6466 228.479 66.946 218.643 67.2613C211.376 67.4906 204.981 72.0957 202.469 78.8982C197.283 76.2517 190.927 78.2963 188.271 83.4556C187.6 84.7645 187.207 86.2072 187.13 87.6785C186.641 87.6021 186.152 87.5638 185.663 87.5638C180.716 87.5925 176.728 91.5957 176.719 96.5256Z" fill="#852536"/>
<path opacity="0.1" d="M176.719 96.5256C176.719 101.226 180.362 105.124 185.059 105.478H236.072C241.901 105.745 246.829 101.255 247.097 95.446C247.366 89.6371 242.86 84.7263 237.031 84.4588C236.714 74.6466 228.479 66.946 218.643 67.2613C211.376 67.4906 204.981 72.0957 202.469 78.8982C197.283 76.2517 190.927 78.2963 188.271 83.4556C187.6 84.7645 187.207 86.2072 187.13 87.6785C186.641 87.6021 186.152 87.5638 185.663 87.5638C180.716 87.5925 176.728 91.5957 176.719 96.5256Z" fill="black"/>
<path d="M173.564 96.5247C173.564 101.225 177.198 105.123 181.895 105.477H232.908C238.737 105.744 243.665 101.254 243.933 95.4451C244.202 89.6361 239.696 84.7253 233.867 84.4578C233.541 74.6457 225.287 66.9546 215.441 67.2795C208.193 67.5183 201.808 72.1139 199.296 78.8973C194.109 76.2508 187.753 78.2954 185.098 83.4546C184.426 84.7635 184.033 86.2062 183.957 87.6775C183.468 87.6011 182.979 87.5629 182.49 87.5629C177.553 87.6011 173.564 91.6043 173.564 96.5247Z" fill="#852536"/>
<path d="M213.485 90.1523H204.281V98.025H213.485V90.1523Z" fill="white"/>
<path d="M201.118 90.1514H216.649L208.883 82.4316L201.118 90.1514Z" fill="white"/>
<path d="M240.482 86.3496H238.565V87.305H240.482V86.3496Z" fill="#263238"/>
<path d="M259.263 87.305H255.687V86.3496H259.263V87.305ZM253.003 87.305H249.417V86.3496H252.993V87.305H253.003ZM246.752 87.305H243.176V86.3496H246.752V87.305Z" fill="#263238"/>
<path d="M264.344 88.7381H263.386V87.305H261.948V86.3496H264.344V88.7381Z" fill="#263238"/>
<path d="M264.344 120.525H263.386V116.885H264.344V120.525ZM264.344 114.162H263.386V110.531H264.344V114.162ZM264.344 107.808H263.386V104.178H264.344V107.808ZM264.344 101.455H263.386V97.8242H264.344V101.455ZM264.344 95.1013H263.386V91.4707H264.344V95.1013Z" fill="#263238"/>
<path d="M264.344 123.248H263.386V125.159H264.344V123.248Z" fill="#263238"/>
<path d="M238.661 88.6236C237.663 88.6236 236.858 87.8211 236.858 86.8274C236.858 85.8338 237.663 85.0312 238.661 85.0312C239.658 85.0312 240.463 85.8338 240.463 86.8274C240.463 87.8211 239.658 88.6236 238.661 88.6236Z" fill="#263238"/>
<path d="M262.062 125.064C262.062 126.057 262.868 126.86 263.865 126.86C264.862 126.86 265.667 126.057 265.667 125.064C265.667 124.07 264.862 123.268 263.865 123.268C262.868 123.268 262.062 124.07 262.062 125.064Z" fill="#263238"/>
</g>
<defs>
<clipPath id="clip0_328_1067">
<rect width="420" height="384" fill="white"/>
</clipPath>
</defs>
</svg>
