<svg width="406" height="344" viewBox="0 0 406 344" fill="none" xmlns="http://www.w3.org/2000/svg">
<path d="M357.854 45.9548C316.207 5.91079 256.889 16.9019 224.299 47.1781C200.485 69.3338 162.972 101.46 133.929 100.063C105.136 98.666 72.2179 78.6584 36.4449 94.0711C1.14306 109.253 -8.49958 159.469 7.45933 197.866C23.4759 236.397 81.9182 267.714 152.628 296.921C178.604 307.825 206.532 313.287 234.691 312.988C234.691 312.988 298.7 312.324 322.754 296.901C341.587 284.803 349.653 276.855 370.015 246.059C385.397 222.747 395.703 189.976 396.857 158.226C398.308 119.435 388.964 75.8745 357.854 45.9548V45.9548Z" fill="#852536"/>
<path opacity="0.8" d="M357.854 45.9548C316.207 5.91079 256.889 16.9019 224.299 47.1781C200.485 69.3338 162.972 101.46 133.929 100.063C105.136 98.666 72.2179 78.6584 36.4449 94.0711C1.14306 109.253 -8.49958 159.469 7.45933 197.866C23.4759 236.397 81.9182 267.714 152.628 296.921C178.604 307.825 206.532 313.287 234.691 312.988C234.691 312.988 298.7 312.324 322.754 296.901C341.587 284.803 349.653 276.855 370.015 246.059C385.397 222.747 395.703 189.976 396.857 158.226C398.308 119.435 388.964 75.8745 357.854 45.9548V45.9548Z" fill="white" fill-opacity="0.12"/>
<path opacity="0.8" d="M367.128 27.3658C367.129 27.3671 367.13 27.3684 367.132 27.3697C367.736 27.9821 368.332 28.6002 368.919 29.2238C369.297 29.6247 369.927 29.6446 370.329 29.2691C371.055 30.0538 371.768 30.8468 372.469 31.648C372.053 32.0082 372.006 32.6373 372.365 33.0552C373.488 34.3636 374.578 35.6933 375.635 37.0431C375.974 37.4768 376.6 37.5541 377.035 37.2168C377.687 38.0642 378.326 38.9192 378.952 39.7816C378.505 40.103 378.402 40.7254 378.722 41.1739C379.722 42.576 380.69 43.9973 381.625 45.4365C381.925 45.8985 382.542 46.0305 383.004 45.7325C383.579 46.6331 384.141 47.5404 384.691 48.454C384.218 48.736 384.062 49.3473 384.342 49.8217C385.218 51.304 386.062 52.8031 386.875 54.3176C387.136 54.8031 387.74 54.9861 388.226 54.7276C388.724 55.6722 389.209 56.6225 389.683 57.5782C389.189 57.8209 388.984 58.4177 389.225 58.9132C389.978 60.4613 390.701 62.0236 391.393 63.5988C391.615 64.1032 392.203 64.3329 392.708 64.113C393.131 65.0932 393.542 66.0781 393.942 67.0674C393.431 67.272 393.181 67.8518 393.384 68.3642C394.018 69.965 394.623 71.5775 395.2 73.2001C395.385 73.7194 395.955 73.9913 396.474 73.8085C396.825 74.8166 397.165 75.8283 397.494 76.8435C396.97 77.0117 396.68 77.5726 396.847 78.098C397.368 79.7403 397.861 81.3914 398.327 83.05C398.477 83.5807 399.027 83.8903 399.558 83.7428C399.84 84.7721 400.113 85.8041 400.375 86.8385C399.84 86.9723 399.515 87.5133 399.647 88.0485C400.061 89.7223 400.448 91.4022 400.81 93.087C400.926 93.626 401.456 93.9694 401.995 93.8552C402.214 94.9004 402.422 95.9472 402.621 96.9954C402.08 97.0967 401.722 97.6173 401.822 98.1595C402.134 99.8566 402.422 101.557 402.686 103.26C402.77 103.805 403.28 104.178 403.824 104.095C403.982 105.152 404.131 106.209 404.271 107.266C403.724 107.337 403.338 107.837 403.407 108.384C403.624 110.098 403.818 111.812 403.989 113.526C404.044 114.075 404.533 114.476 405.081 114.422C405.182 115.486 405.274 116.549 405.358 117.612C404.808 117.653 404.396 118.132 404.436 118.682C404.564 120.407 404.669 122.13 404.752 123.85C404.779 124.4 405.246 124.825 405.797 124.8C405.843 125.869 405.882 126.936 405.912 128.001C405.361 128.015 404.926 128.473 404.939 129.024C404.98 130.755 405 132.481 405 134.2C405 134.751 405.446 135.199 405.998 135.2C405.992 136.271 405.98 137.339 405.959 138.404C405.408 138.392 404.951 138.828 404.938 139.379C404.917 140.243 404.892 141.105 404.861 141.965L404.861 141.966C404.831 142.839 404.794 143.712 404.752 144.586C404.725 145.137 405.148 145.605 405.699 145.634C405.639 146.723 405.57 147.812 405.492 148.902C404.942 148.861 404.462 149.272 404.42 149.822C404.285 151.564 404.125 153.307 403.942 155.048C403.884 155.597 404.281 156.088 404.829 156.147C404.709 157.232 404.58 158.316 404.442 159.4C403.895 159.328 403.394 159.713 403.321 160.26C403.091 161.994 402.838 163.726 402.561 165.453C402.474 165.998 402.845 166.51 403.389 166.598C403.211 167.676 403.024 168.752 402.829 169.825C402.287 169.725 401.766 170.083 401.665 170.625C401.343 172.347 401 174.063 400.634 175.772C400.519 176.311 400.862 176.842 401.401 176.958C401.167 178.026 400.924 179.091 400.674 180.152C400.138 180.024 399.599 180.354 399.47 180.89C399.058 182.596 398.626 184.292 398.172 185.977C398.029 186.51 398.344 187.057 398.875 187.202C398.586 188.257 398.288 189.308 397.983 190.353C397.454 190.197 396.899 190.499 396.741 191.027C396.24 192.711 395.719 194.381 395.177 196.036C395.005 196.56 395.291 197.124 395.814 197.296C395.468 198.336 395.114 199.369 394.752 200.395C394.233 200.211 393.662 200.481 393.476 201C392.883 202.657 392.27 204.296 391.637 205.915C391.436 206.429 391.689 207.008 392.202 207.21C391.797 208.229 391.385 209.24 390.965 210.243C390.458 210.029 389.872 210.265 389.656 210.773C388.967 212.394 388.258 213.992 387.53 215.566C387.298 216.066 387.515 216.659 388.015 216.892C387.548 217.885 387.073 218.868 386.592 219.841C386.099 219.595 385.499 219.794 385.252 220.286C384.459 221.862 383.646 223.409 382.816 224.924C382.551 225.408 382.727 226.014 383.209 226.28C382.674 227.24 382.132 228.188 381.582 229.122C381.109 228.841 380.497 228.995 380.214 229.468C379.763 230.222 379.307 230.966 378.847 231.701C378.393 232.424 377.945 233.136 377.503 233.835C377.209 234.302 377.348 234.919 377.814 235.215C377.264 236.083 376.724 236.933 376.192 237.764C375.727 237.467 375.109 237.602 374.811 238.066C373.876 239.522 372.969 240.921 372.087 242.266C371.784 242.728 371.913 243.347 372.374 243.65C371.805 244.514 371.246 245.355 370.697 246.175C370.239 245.867 369.618 245.988 369.31 246.446C368.338 247.887 367.396 249.261 366.478 250.574C366.161 251.026 366.271 251.649 366.722 251.965C366.127 252.809 365.542 253.628 364.965 254.423C364.52 254.098 363.895 254.195 363.569 254.639C362.544 256.038 361.544 257.361 360.564 258.619C360.225 259.053 360.302 259.68 360.735 260.02C360.094 260.831 359.46 261.614 358.831 262.373C358.408 262.02 357.78 262.075 357.425 262.496C356.319 263.808 355.227 265.045 354.136 266.224C353.762 266.628 353.785 267.258 354.187 267.633C353.485 268.377 352.782 269.097 352.075 269.799C351.69 269.407 351.06 269.399 350.665 269.783C349.467 270.947 348.254 272.061 347.01 273.146C346.595 273.508 346.55 274.137 346.91 274.553C346.148 275.204 345.373 275.845 344.583 276.48C344.24 276.05 343.614 275.978 343.182 276.319C341.906 277.326 340.587 278.324 339.209 279.331C338.764 279.656 338.666 280.279 338.989 280.725C338.188 281.303 337.366 281.884 336.523 282.472C336.209 282.019 335.587 281.905 335.133 282.219C334.459 282.685 333.769 283.156 333.064 283.633C332.423 284.067 331.75 284.489 331.047 284.902C330.574 285.179 330.414 285.785 330.685 286.26C329.862 286.719 329.004 287.163 328.116 287.594C327.881 287.098 327.29 286.883 326.792 287.114C325.377 287.77 323.885 288.394 322.327 288.986C321.813 289.182 321.554 289.756 321.746 290.271C320.851 290.599 319.937 290.917 319.007 291.226C318.836 290.703 318.275 290.416 317.75 290.584C316.235 291.07 314.676 291.531 313.083 291.969C312.551 292.115 312.238 292.663 312.382 293.195C311.455 293.442 310.518 293.681 309.572 293.913C309.443 293.378 308.904 293.047 308.368 293.175C306.8 293.549 305.21 293.902 303.605 294.236C303.065 294.348 302.718 294.876 302.829 295.416C301.882 295.608 300.931 295.793 299.977 295.972C299.877 295.43 299.357 295.071 298.814 295.17C297.214 295.463 295.606 295.738 294 295.996C293.455 296.084 293.085 296.596 293.171 297.14C292.212 297.29 291.255 297.435 290.3 297.573C290.221 297.028 289.716 296.648 289.17 296.725C287.542 296.956 285.922 297.17 284.32 297.369C283.773 297.437 283.384 297.936 283.451 298.483C282.481 298.601 281.518 298.713 280.564 298.82C280.503 298.271 280.01 297.875 279.462 297.935C277.809 298.115 276.186 298.279 274.599 298.429C274.05 298.481 273.647 298.968 273.698 299.517C272.714 299.607 271.746 299.692 270.796 299.771C270.751 299.222 270.269 298.812 269.719 298.857C268.026 298.994 266.395 299.115 264.838 299.221C264.288 299.259 263.872 299.735 263.909 300.285C262.91 300.351 261.945 300.411 261.017 300.465C260.986 299.914 260.514 299.492 259.963 299.523C258.166 299.623 256.523 299.702 255.065 299.764C254.514 299.788 254.086 300.253 254.108 300.804C253.012 300.848 252.038 300.881 251.204 300.907C251.188 300.356 250.728 299.922 250.177 299.937C249.399 299.958 248.796 299.971 248.388 299.978C248.183 299.982 248.028 299.985 247.924 299.986L247.807 299.988L247.778 299.988L247.771 299.988H247.769C246.915 299.998 246.062 300.001 245.21 300C244.658 299.998 244.21 300.444 244.207 300.995C243.159 300.987 242.111 300.97 241.064 300.945C241.078 300.394 240.644 299.935 240.093 299.919C238.387 299.869 236.683 299.796 234.981 299.701C234.43 299.67 233.959 300.09 233.926 300.64C232.88 300.576 231.834 300.503 230.79 300.422C230.834 299.872 230.425 299.391 229.876 299.345C228.176 299.203 226.478 299.039 224.782 298.852C224.234 298.791 223.741 299.186 223.679 299.733C222.638 299.613 221.598 299.484 220.559 299.346C220.632 298.8 220.25 298.297 219.704 298.222C218.014 297.989 216.328 297.734 214.644 297.456C214.1 297.366 213.586 297.734 213.495 298.277C212.462 298.101 211.43 297.916 210.4 297.723C210.503 297.182 210.149 296.659 209.607 296.555C207.933 296.232 206.262 295.886 204.596 295.518C204.057 295.4 203.525 295.739 203.404 296.277C202.382 296.046 201.362 295.806 200.343 295.558C200.475 295.023 200.149 294.482 199.614 294.348C197.959 293.937 196.31 293.502 194.665 293.046C194.134 292.898 193.584 293.209 193.435 293.74C192.427 293.454 191.421 293.16 190.417 292.858C190.577 292.331 190.28 291.773 189.753 291.612C188.123 291.112 186.499 290.591 184.88 290.047C184.357 289.872 183.791 290.153 183.615 290.675C182.623 290.336 181.634 289.989 180.648 289.634C180.835 289.116 180.569 288.543 180.051 288.354C178.45 287.769 176.856 287.162 175.268 286.533C174.755 286.33 174.175 286.581 173.971 287.093C172.999 286.702 172.03 286.304 171.063 285.897C171.278 285.389 171.042 284.803 170.535 284.587C169.751 284.252 168.968 283.912 168.188 283.567L168.182 283.565C167.424 283.235 166.667 282.904 165.912 282.574C165.406 282.352 164.817 282.583 164.595 283.089C163.696 282.694 162.799 282.299 161.905 281.904C162.128 281.399 161.9 280.809 161.395 280.585C159.883 279.916 158.377 279.245 156.878 278.574C156.374 278.348 155.783 278.573 155.557 279.077C154.659 278.673 153.763 278.269 152.87 277.865C153.098 277.362 152.876 276.77 152.373 276.541C150.869 275.858 149.372 275.174 147.883 274.489C147.381 274.258 146.788 274.477 146.557 274.979C145.664 274.567 144.775 274.154 143.888 273.741C144.122 273.241 143.905 272.646 143.405 272.413C141.905 271.712 140.414 271.01 138.931 270.307C138.432 270.07 137.836 270.283 137.599 270.781C136.71 270.358 135.824 269.934 134.942 269.51C135.181 269.013 134.972 268.416 134.475 268.176C132.987 267.458 131.508 266.739 130.038 266.018C129.543 265.775 128.944 265.979 128.7 266.475C127.818 266.04 126.938 265.605 126.063 265.169C126.309 264.675 126.108 264.075 125.615 263.828C124.133 263.088 122.662 262.346 121.201 261.602C120.71 261.351 120.108 261.546 119.857 262.038C118.98 261.589 118.107 261.14 117.237 260.69C117.492 260.2 117.301 259.597 116.811 259.342C115.344 258.579 113.889 257.814 112.445 257.047C111.958 256.788 111.353 256.973 111.093 257.46C110.227 256.997 109.364 256.534 108.506 256.069C108.769 255.584 108.59 254.977 108.105 254.714C106.648 253.922 105.205 253.127 103.775 252.33C103.293 252.062 102.685 252.234 102.415 252.716C101.554 252.234 100.699 251.751 99.8476 251.267C100.121 250.787 99.9545 250.177 99.4755 249.903C98.0379 249.081 96.6152 248.256 95.2079 247.429C94.7321 247.149 94.1198 247.307 93.8396 247.783C92.9919 247.281 92.1497 246.779 91.3132 246.276C91.5983 245.803 91.447 245.189 90.975 244.903C89.5595 244.046 88.1609 243.187 86.7795 242.324C86.3115 242.031 85.6953 242.173 85.4024 242.641C84.5676 242.116 83.7391 241.59 82.917 241.063C83.2155 240.599 83.0821 239.981 82.6186 239.681C81.225 238.781 79.8505 237.878 78.4957 236.971C78.0372 236.665 77.417 236.787 77.1094 237.245C76.2903 236.692 75.4783 236.139 74.6738 235.584C74.9878 235.13 74.8755 234.508 74.4226 234.193C73.0611 233.247 71.7215 232.296 70.4044 231.342C69.9577 231.018 69.3335 231.118 69.0091 231.563C68.2117 230.981 67.4226 230.396 66.642 229.811C66.9739 229.37 66.8869 228.744 66.4472 228.411C65.1254 227.41 63.8288 226.405 62.558 225.396C62.1262 225.053 61.4984 225.124 61.1545 225.555C60.3841 224.936 59.6232 224.316 58.872 223.694C59.2246 223.271 59.168 222.642 58.7452 222.288C57.4737 221.224 56.2312 220.155 55.0186 219.081C54.6059 218.715 53.9754 218.753 53.609 219.164C52.8729 218.505 52.1479 217.843 51.4342 217.179C51.8107 216.777 51.7912 216.146 51.39 215.768C50.1837 214.631 49.0112 213.489 47.8734 212.34C47.4855 211.949 46.8542 211.945 46.4618 212.331C45.7708 211.624 45.0928 210.914 44.428 210.202C44.8319 209.828 44.8577 209.197 44.485 208.792C43.3649 207.572 42.2842 206.346 41.2442 205.114C40.8889 204.693 40.2605 204.639 39.8384 204.992C39.2078 204.23 38.5922 203.466 37.9922 202.7C38.427 202.363 38.5083 201.738 38.1732 201.301C37.1682 199.99 36.2093 198.672 35.2977 197.347C34.9858 196.893 34.3664 196.777 33.9117 197.086C33.3617 196.267 32.8293 195.444 32.3149 194.619C32.7831 194.331 32.9317 193.719 32.6464 193.248C31.792 191.839 30.9911 190.421 30.2452 188.995C29.9904 188.507 29.3901 188.317 28.9017 188.569C28.4558 187.687 28.0304 186.801 27.626 185.912C28.1273 185.689 28.355 185.102 28.1346 184.598C27.8086 183.853 27.4976 183.105 27.2017 182.355C26.8981 181.585 26.6041 180.811 26.3197 180.032C26.1308 179.515 25.5596 179.248 25.0421 179.434C24.7061 178.485 24.3841 177.529 24.0762 176.568C24.6008 176.403 24.8938 175.844 24.7309 175.318C24.241 173.736 23.789 172.14 23.3751 170.532C23.2378 169.998 22.6953 169.677 22.1619 169.811C21.92 168.833 21.692 167.852 21.4779 166.866C22.016 166.752 22.3611 166.224 22.2492 165.685C21.912 164.061 21.6127 162.428 21.3513 160.789C21.2645 160.246 20.7544 159.875 20.2107 159.959C20.061 158.962 19.9252 157.963 19.8033 156.963C20.3497 156.899 20.7422 156.405 20.6805 155.858C20.4945 154.207 20.3466 152.553 20.2369 150.9C20.2004 150.35 19.7266 149.934 19.1774 149.968C19.1198 148.96 19.0762 147.953 19.0467 146.946C19.5967 146.933 20.0328 146.477 20.0217 145.926C19.9882 144.263 19.9935 142.603 20.0375 140.95C20.0521 140.399 19.619 139.941 19.0691 139.924C19.1054 138.915 19.1561 137.909 19.2211 136.906C19.7698 136.944 20.2469 136.531 20.2877 135.982C20.4114 134.321 20.5748 132.669 20.7781 131.03C20.8458 130.484 20.4592 129.986 19.9137 129.915C20.0481 128.913 20.1974 127.916 20.3615 126.924C20.9036 127.017 21.4192 126.654 21.5147 126.112C21.8035 124.471 22.1336 122.847 22.505 121.243C22.6291 120.707 22.2965 120.171 21.7615 120.045C22.0004 119.061 22.2548 118.086 22.5247 117.118C23.0533 117.269 23.6051 116.965 23.759 116.436C24.2253 114.836 24.7348 113.26 25.2875 111.712C25.4725 111.194 25.204 110.624 24.6876 110.436C25.0393 109.488 25.4073 108.55 25.7915 107.624C26.2975 107.838 26.8819 107.603 27.0993 107.098C27.7572 105.568 28.4605 104.072 29.2092 102.613C29.4603 102.124 29.2691 101.524 28.7823 101.27C29.2571 100.376 29.7492 99.496 30.2586 98.6309C30.7294 98.9129 31.3404 98.7627 31.6264 98.2932C32.4894 96.8763 33.4001 95.5025 34.3584 94.1759C34.6802 93.7304 34.582 93.1092 34.1399 92.7845C34.7457 91.9741 35.3696 91.1814 36.0118 90.4076C36.4306 90.7614 37.0573 90.712 37.4154 90.2953C38.4914 89.0431 39.6169 87.8441 40.7917 86.7025C41.1856 86.3198 41.1968 85.6916 40.8184 85.2951C41.5547 84.6058 42.3096 83.9379 43.0831 83.2925C43.43 83.7167 44.0545 83.7829 44.4828 83.4394C45.7618 82.4134 47.0907 81.4493 48.4695 80.5515C48.9295 80.2519 49.0616 79.6381 48.7672 79.1762C49.6193 78.6452 50.4897 78.1386 51.3785 77.6572C51.6343 78.1414 52.2331 78.3302 52.721 78.0785C53.4484 77.7033 54.1879 77.345 54.9397 77.0043L54.9404 77.004C55.6769 76.6696 56.412 76.3518 57.1457 76.0499C57.6541 75.8407 57.8979 75.2606 57.6928 74.7515C58.5856 74.3996 59.4766 74.0706 60.3657 73.7638C60.5407 74.2839 61.1029 74.5662 61.6253 74.3948C63.1644 73.8897 64.6977 73.4508 66.2251 73.0731C66.7587 72.9411 67.0853 72.4034 66.9576 71.8697C67.8898 71.6542 68.8198 71.4609 69.7477 71.2886C69.8438 71.8289 70.358 72.1914 70.9 72.0992C72.4881 71.8289 74.0702 71.62 75.6461 71.4666C76.1935 71.4133 76.5946 70.9283 76.5452 70.3815C77.497 70.3026 78.4464 70.2432 79.3932 70.2023C79.4132 70.7511 79.8726 71.1817 80.4224 71.1653C82.0272 71.1175 83.6257 71.122 85.218 71.1726C85.768 71.1901 86.2284 70.76 86.2491 70.2109C87.202 70.2525 88.1522 70.3101 89.0998 70.3822C89.055 70.9302 89.4614 71.412 90.0099 71.4597C91.6095 71.5988 93.2025 71.7787 94.7889 71.9931C95.3347 72.0668 95.8371 71.6854 95.9132 71.1404C96.8569 71.2765 97.7977 71.4241 98.7358 71.582C98.6423 72.1245 99.0052 72.641 99.5479 72.7365C101.134 73.0157 102.712 73.3233 104.284 73.6525C104.823 73.7655 105.352 73.4205 105.467 72.8815C106.4 73.0824 107.33 73.2904 108.256 73.5039C108.131 74.0408 108.465 74.5779 109.002 74.704C110.576 75.0741 112.144 75.4593 113.703 75.8529C114.238 75.9879 114.782 75.6638 114.917 75.129C115.843 75.3648 116.765 75.6029 117.684 75.8417C117.545 76.376 117.865 76.9219 118.399 77.0613C119.095 77.2428 119.79 77.4249 120.484 77.6067C121.359 77.8358 122.232 78.0644 123.1 78.2903C123.634 78.4294 124.18 78.109 124.32 77.5745C124.32 77.5743 124.32 77.5741 124.32 77.5739C125.245 77.8136 126.167 78.0504 127.085 78.2827C127.085 78.2832 127.085 78.2836 127.085 78.2841C126.951 78.8199 127.277 79.3628 127.813 79.4967C129.402 79.894 130.984 80.2766 132.556 80.636C133.094 80.7591 133.631 80.4224 133.754 79.884C133.754 79.8831 133.754 79.8823 133.754 79.8814C134.69 80.0899 135.622 80.2893 136.55 80.478C136.549 80.4792 136.549 80.4805 136.549 80.4818C136.443 81.0238 136.797 81.5491 137.339 81.655C138.958 81.9714 140.567 82.2537 142.167 82.4921C142.714 82.5735 143.222 82.1966 143.304 81.6504C143.304 81.6486 143.304 81.6468 143.305 81.6449C144.254 81.7756 145.198 81.8897 146.139 81.9854C146.138 81.9877 146.138 81.99 146.138 81.9923C146.09 82.5425 146.496 83.0276 147.047 83.0759C147.868 83.1481 148.688 83.2057 149.504 83.2475L149.505 83.2475C150.323 83.2889 151.146 83.3024 151.975 83.289C152.527 83.2801 152.968 82.8253 152.959 82.2731C152.959 82.2687 152.959 82.2643 152.959 82.2599C153.884 82.2207 154.818 82.1481 155.758 82.0435C155.758 82.0472 155.759 82.0509 155.759 82.0547C155.833 82.602 156.336 82.9862 156.884 82.9127C158.478 82.6987 160.087 82.3974 161.709 82.0164C162.246 81.89 162.58 81.3518 162.453 80.8141C162.453 80.8112 162.452 80.8083 162.451 80.8053C163.352 80.5765 164.257 80.323 165.166 80.0459C165.167 80.0483 165.168 80.0508 165.168 80.0532C165.338 80.579 165.901 80.868 166.427 80.6989C167.947 80.2098 169.475 79.6581 171.009 79.0492C171.523 78.8455 171.774 78.2642 171.57 77.7509C171.569 77.7489 171.568 77.747 171.568 77.7451C172.429 77.391 173.292 77.0188 174.157 76.6296C174.158 76.6312 174.159 76.6329 174.159 76.6345C174.391 77.1357 174.986 77.3538 175.487 77.1218C176.935 76.4512 178.387 75.7348 179.84 74.9771C180.33 74.7217 180.52 74.1177 180.265 73.628C180.264 73.6267 180.263 73.6254 180.263 73.6241C181.086 73.1854 181.91 72.7336 182.734 72.2692C182.735 72.2703 182.735 72.2714 182.736 72.2726C183.011 72.7516 183.622 72.9171 184.101 72.6422C185.488 71.8465 186.874 71.017 188.258 70.1575C188.727 69.8662 188.871 69.2496 188.58 68.7804C188.579 68.7795 188.579 68.7786 188.578 68.7776C189.368 68.28 190.157 67.7726 190.945 67.2563C190.946 67.2571 190.946 67.2579 190.947 67.2588C191.252 67.7189 191.873 67.8443 192.333 67.5389C193.669 66.6518 195.002 65.74 196.33 64.8068C196.782 64.4892 196.891 63.8655 196.573 63.4137C196.573 63.413 196.572 63.4123 196.572 63.4115C197.333 62.8703 198.094 62.322 198.852 61.7675C198.852 61.7681 198.853 61.7687 198.853 61.7694C199.181 62.2136 199.807 62.3077 200.252 61.9796C201.544 61.0246 202.831 60.0523 204.109 59.0658C204.546 58.7284 204.627 58.1004 204.29 57.6632C204.29 57.6626 204.289 57.6621 204.289 57.6615C205.028 57.0859 205.765 56.5057 206.499 55.9215C206.5 55.922 206.5 55.9225 206.501 55.923C206.846 56.3538 207.475 56.4229 207.906 56.0773C209.164 55.0689 210.411 54.0496 211.648 53.0226C212.073 52.6698 212.132 52.0393 211.779 51.6144C211.778 51.614 211.778 51.6136 211.778 51.6132C212.498 51.0109 213.215 50.4061 213.928 49.7995C213.928 49.7999 213.928 49.8003 213.929 49.8007C214.288 50.2201 214.919 50.2689 215.339 49.9097C216.566 48.8583 217.781 47.8023 218.981 46.745C219.396 46.38 219.436 45.7481 219.071 45.3336C219.071 45.3333 219.07 45.333 219.07 45.3326C219.776 44.7077 220.476 44.0826 221.172 43.4579C221.172 43.4582 221.172 43.4585 221.172 43.4588C221.543 43.8687 222.175 43.9009 222.585 43.5308C223.789 42.4433 224.976 41.3581 226.145 40.2788C226.55 39.904 226.575 39.2713 226.201 38.8657C226.2 38.8654 226.2 38.8651 226.2 38.8648C226.893 38.222 227.579 37.5815 228.258 36.9441C228.258 36.9443 228.258 36.9446 228.259 36.9448C228.637 37.3467 229.27 37.3654 229.672 36.9866C230.86 35.8668 232.026 34.7576 233.167 33.6631C233.565 33.2807 233.578 32.6477 233.196 32.2492C233.196 32.249 233.195 32.2488 233.195 32.2486C233.878 31.5909 234.553 30.9389 235.217 30.2936C235.217 30.2938 235.217 30.2939 235.217 30.2941C235.603 30.6897 236.236 30.698 236.632 30.3127C237.212 29.7477 237.784 29.1882 238.348 28.6348C238.956 28.0401 239.573 27.4528 240.199 26.8729C240.603 26.499 240.629 25.8692 240.257 25.4637C241.04 24.7549 241.836 24.0576 242.646 23.3723C242.999 23.7939 243.627 23.8514 244.051 23.5002C245.36 22.4151 246.704 21.3611 248.079 20.3403C248.521 20.0121 248.615 19.3886 248.289 18.9454C249.143 18.3252 250.008 17.7175 250.885 17.1227C251.191 17.5794 251.81 17.7031 252.268 17.3986C253.686 16.4571 255.133 15.5496 256.606 14.6779C257.08 14.3975 257.238 13.787 256.96 13.3123C257.875 12.7834 258.799 12.2681 259.732 11.7668C259.99 12.2526 260.592 12.4393 261.08 12.1836C262.589 11.3921 264.122 10.6375 265.676 9.92144C266.176 9.691 266.395 9.09987 266.168 8.59923C267.132 8.16653 268.103 7.74848 269.083 7.34548C269.289 7.85515 269.869 8.10247 270.381 7.89799C271.963 7.26499 273.565 6.67166 275.182 6.11964C275.704 5.94183 275.983 5.37642 275.807 4.85504C276.811 4.52382 277.821 4.20832 278.836 3.90893C278.989 4.43723 279.54 4.74331 280.07 4.59295C281.71 4.12737 283.364 3.70431 285.03 3.32539C285.567 3.2033 285.904 2.6704 285.785 2.13357C286.818 1.90982 287.855 1.70288 288.897 1.51312C288.993 2.05462 289.508 2.41766 290.05 2.32467C291.73 2.03679 293.42 1.79422 295.117 1.59855C295.664 1.5355 296.057 1.04246 295.997 0.495936C297.047 0.386208 298.101 0.294319 299.157 0.220638C299.192 0.769286 299.664 1.18706 300.214 1.15475C301.913 1.0548 303.618 1.00274 305.326 1.00011C305.876 0.999257 306.322 0.553874 306.324 0.00415801C307.38 0.0143508 308.438 0.0433179 309.496 0.0914218C309.467 0.640377 309.888 1.10966 310.437 1.1409C312.135 1.23743 313.833 1.38404 315.531 1.58225C316.078 1.64607 316.573 1.25626 316.64 0.710708C317.687 0.845282 318.734 0.999381 319.779 1.17336C319.686 1.71495 320.048 2.23102 320.589 2.32768C322.261 2.62588 323.929 2.97577 325.593 3.3788C326.128 3.50835 326.666 3.18143 326.799 2.64807C327.821 2.90839 328.84 3.18866 329.858 3.48922C329.699 4.0153 329.994 4.57164 330.52 4.73381C332.138 5.23272 333.75 5.78396 335.353 6.38889C335.868 6.58314 336.443 6.32485 336.64 5.81181C337.62 6.195 338.597 6.59819 339.57 7.0217C339.348 7.52432 339.573 8.11275 340.075 8.33823C341.617 9.03061 343.149 9.77505 344.67 10.5729C345.158 10.8284 345.76 10.6421 346.018 10.1568C346.943 10.6559 347.864 11.1747 348.781 11.7134C348.5 12.1856 348.652 12.797 349.124 13.0813C350.568 13.9529 352.002 14.8753 353.422 15.8497C353.876 16.1611 354.495 16.0471 354.809 15.5955C355.668 16.1993 356.523 16.8221 357.372 17.4641C357.038 17.9008 357.119 18.5259 357.554 18.8626C358.888 19.8938 360.208 20.9736 361.513 22.1032C361.93 22.4635 362.559 22.4193 362.921 22.0053C363.707 22.7 364.488 23.4128 365.263 24.1437C364.883 24.5419 364.897 25.1723 365.293 25.5541C365.909 26.1461 366.52 26.75 367.128 27.3658Z" stroke="#913A49" stroke-width="2" stroke-linecap="round" stroke-dasharray="5 5"/>
<path d="M198.247 343.874C297.616 343.874 378.171 339.081 378.171 333.17C378.171 327.258 297.616 322.466 198.247 322.466C98.8781 322.466 18.3235 327.258 18.3235 333.17C18.3235 339.081 98.8781 343.874 198.247 343.874Z" fill="#DFDFDF"/>
<path opacity="0.6" d="M198.247 343.874C297.616 343.874 378.171 339.081 378.171 333.17C378.171 327.258 297.616 322.466 198.247 322.466C98.8781 322.466 18.3235 327.258 18.3235 333.17C18.3235 339.081 98.8781 343.874 198.247 343.874Z" fill="white"/>
<path d="M51.2209 106H351.101C356.662 106 361.166 110.51 361.166 116.079V314H41.1655V116.079C41.1655 110.519 45.6688 106.01 51.2209 106V106Z" fill="#DFDFDF" stroke="#263238" stroke-width="0.92" stroke-miterlimit="10"/>
<path d="M348.166 123H54.1655V289H348.166V123Z" fill="#FEFAF7"/>
<g opacity="0.22">
<path opacity="0.4" d="M348.003 288.682V146.917L104.993 288.682H348.003Z" fill="#852536"/>
</g>
<path d="M348.166 123H54.1655V289H348.166V123Z" stroke="#263238" stroke-width="0.69" stroke-miterlimit="10"/>
<path d="M312.166 304H92.1655V315H312.166V304Z" fill="#DFDFDF" stroke="#263238" stroke-width="0.69" stroke-miterlimit="10"/>
<path d="M312.166 309H92.1655V315H312.166V309Z" fill="#DFDFDF" stroke="#263238" stroke-width="0.69" stroke-miterlimit="10"/>
<path d="M15.1655 321C15.1655 321 18.7794 325.403 29.5826 329H373.536C373.536 329 381.552 326.995 385.166 321.393L15.1655 321V321Z" fill="#DFDFDF" stroke="#263238" stroke-width="0.92" stroke-miterlimit="10"/>
<path d="M383.567 313H16.764C15.3289 313 14.1655 314.241 14.1655 315.771V319.229C14.1655 320.759 15.3289 322 16.764 322H383.567C385.002 322 386.166 320.759 386.166 319.229V315.771C386.166 314.241 385.002 313 383.567 313Z" fill="#DFDFDF" stroke="#263238" stroke-width="0.92" stroke-miterlimit="10"/>
<path d="M201.166 115C202.822 115 204.166 113.881 204.166 112.5C204.166 111.119 202.822 110 201.166 110C199.509 110 198.166 111.119 198.166 112.5C198.166 113.881 199.509 115 201.166 115Z" fill="#263238"/>
<path d="M163.762 110H93.5694C92.7905 110 92.1655 109.332 92.1655 108.5C92.1655 107.668 92.7905 107 93.5694 107H163.762C164.531 107 165.156 107.678 165.166 108.5C165.166 109.332 164.541 110 163.762 110Z" fill="#DFDFDF" stroke="#263238" stroke-width="0.69" stroke-miterlimit="10"/>
<path d="M306.762 110H236.569C235.791 110 235.166 109.332 235.166 108.5C235.166 107.678 235.8 107.01 236.569 107H306.762C307.541 107 308.166 107.668 308.166 108.5C308.166 109.332 307.541 110 306.762 110Z" fill="#DFDFDF" stroke="#263238" stroke-width="0.69" stroke-miterlimit="10"/>
<path d="M358.172 165C357.621 165 357.178 164.642 357.166 164.198V140.812C357.166 140.367 357.621 140.01 358.172 140C358.722 140 359.166 140.367 359.166 140.812V164.198C359.166 164.642 358.722 165 358.172 165Z" fill="#DFDFDF" stroke="#263238" stroke-width="0.69" stroke-miterlimit="10"/>
<path d="M44.1595 165C43.6086 165 43.1655 164.642 43.1655 164.198V140.812C43.1655 140.367 43.6086 140.01 44.1595 140C44.7104 140 45.1536 140.367 45.1655 140.812V164.198C45.1655 164.642 44.7104 165 44.1595 165Z" fill="#DFDFDF" stroke="#263238" stroke-width="0.69" stroke-miterlimit="10"/>
<path d="M264.006 170.902C265.371 169.94 266.842 168.228 266.89 166.42C266.958 164.747 265.66 163.324 263.987 163.256C263.891 163.256 263.785 163.256 263.689 163.256C261.141 163.487 258.882 167.488 258.344 169.709C258.344 169.902 257.959 172.989 258.007 172.979C258.055 172.969 262.391 172.046 264.006 170.902V170.902Z" fill="#263238"/>
<path d="M242 219.122C241.76 217.785 240.481 216.89 239.145 217.131C239.049 217.15 238.952 217.169 238.856 217.198C236.934 217.862 235.847 221.468 235.876 223.334C235.876 223.449 236.059 224.853 236.164 225.565C235.943 225.017 235.732 224.459 235.511 223.882C235.193 223.045 234.886 222.161 234.549 221.295L234.117 219.92C233.963 219.458 233.867 218.958 233.742 218.535C233.569 217.843 233.424 217.121 233.28 216.4C234.847 215.967 236.328 215.294 237.683 214.4C238.731 213.438 239.798 212.024 239.693 210.553C239.645 209.197 238.501 208.129 237.145 208.177C237.059 208.177 236.962 208.187 236.876 208.206C234.828 208.572 233.251 211.976 233.03 213.823V214.784C232.915 214.073 232.79 213.371 232.694 212.649C232.405 210.611 232.184 208.524 231.954 206.437C231.905 205.994 231.848 205.562 231.8 205.129C233.405 204.677 234.934 203.984 236.337 203.08C237.385 202.119 238.453 200.705 238.347 199.234C238.289 197.868 237.145 196.81 235.78 196.868C235.693 196.868 235.616 196.877 235.53 196.887C233.482 197.252 231.905 200.657 231.684 202.503V203.561C231.54 202.436 231.386 201.301 231.194 200.186C230.877 198.272 230.444 196.377 229.877 194.521C230.137 194.444 233.376 193.463 234.559 192.434C235.597 191.473 236.674 190.059 236.559 188.588C236.511 187.232 235.366 186.164 234.011 186.212C233.924 186.212 233.828 186.222 233.742 186.241C231.694 186.606 230.117 190.011 229.896 191.857C229.896 191.982 229.838 193.694 229.848 194.3C229.848 194.281 229.848 194.252 229.848 194.233C229.242 192.425 228.483 190.674 227.57 189.001C226.762 187.501 225.878 186.049 224.897 184.654C224.003 183.346 223.109 182.211 222.301 181.211C221.869 180.673 221.455 180.182 221.071 179.74C221.071 179.74 220.378 177.326 220.311 177.172C219.571 175.47 217.139 172.614 215.062 172.825C213.716 172.998 212.764 174.22 212.937 175.566C212.947 175.653 212.966 175.749 212.985 175.835C213.274 177.278 214.697 178.384 215.956 178.99C217.562 179.49 219.225 179.74 220.907 179.73C221.301 180.211 221.715 180.692 222.157 181.288C222.936 182.308 223.811 183.462 224.666 184.779C224.897 185.135 225.128 185.52 225.358 185.885C224.839 185.347 224.118 184.606 224.032 184.548C222.59 183.375 219.119 181.961 217.379 183.096C216.254 183.875 215.985 185.414 216.754 186.539C216.802 186.606 216.86 186.683 216.917 186.741C217.975 187.789 219.436 188.328 220.926 188.212C222.369 188.212 225.099 186.866 225.733 186.578C226.243 187.405 226.695 188.27 227.204 189.203C228.07 190.876 228.781 192.617 229.339 194.415C229.339 194.521 229.339 194.637 229.415 194.742C229.204 194.425 227.925 192.819 227.82 192.694C226.512 191.367 223.215 189.578 221.359 190.521C220.167 191.165 219.715 192.656 220.359 193.858C220.398 193.935 220.446 194.012 220.503 194.088C221.292 195.319 223.022 195.848 224.407 195.954C226.003 196.079 229.31 194.858 229.435 194.81C229.935 196.618 230.319 198.464 230.588 200.32C230.79 201.696 230.944 203.09 231.079 204.504C230.8 204.1 229.598 202.58 229.502 202.484C228.195 201.157 224.897 199.378 223.041 200.311C221.849 200.955 221.398 202.446 222.042 203.648C222.08 203.725 222.128 203.802 222.186 203.879C222.974 205.119 224.705 205.639 226.089 205.744C227.647 205.869 230.819 204.715 231.088 204.619C231.156 205.254 231.213 205.898 231.271 206.543C231.463 208.639 231.636 210.736 231.877 212.803C231.963 213.515 232.069 214.217 232.175 214.919C231.732 214.332 230.896 213.284 230.819 213.198C229.512 211.88 226.214 210.091 224.359 211.034C223.166 211.668 222.715 213.159 223.349 214.352C223.397 214.438 223.445 214.515 223.493 214.592C224.291 215.833 226.022 216.352 227.406 216.458C229.05 216.352 230.675 215.996 232.213 215.39C232.396 216.563 232.598 217.718 232.857 218.843C232.982 219.333 233.078 219.804 233.223 220.285C233.367 220.766 233.482 221.247 233.617 221.67C233.924 222.632 234.203 223.468 234.511 224.334C234.665 224.767 234.818 225.171 234.972 225.594C234.617 224.93 234.011 223.892 233.953 223.805C232.867 222.305 229.877 220.035 227.896 220.68C226.618 221.141 225.954 222.545 226.406 223.824C226.435 223.911 226.474 223.988 226.512 224.074C227.108 225.421 228.743 226.2 230.088 226.517C231.434 226.834 234.79 226.238 235.174 226.161C235.559 227.19 235.943 228.19 236.309 229.123C237.491 232.066 238.578 234.47 239.366 236.144C240.154 237.817 240.645 238.76 240.645 238.76C240.837 239.096 241.26 239.231 241.606 239.048C241.942 238.856 242.067 238.433 241.894 238.086C241.894 238.086 241.404 237.182 240.587 235.538C239.77 233.893 238.664 231.547 237.414 228.662C237.059 227.825 236.693 226.94 236.328 226.027C236.703 225.844 239.635 224.43 240.616 223.257C241.596 222.084 242.327 220.555 242 219.122V219.122Z" fill="#263238"/>
<path d="M225.733 186.174C225.733 186.174 228.839 184.25 229.733 182.894C230.502 181.731 231.146 180.009 230.694 178.663C230.281 177.364 228.896 176.653 227.608 177.057C227.522 177.085 227.445 177.114 227.358 177.153C225.435 178.038 224.858 181.74 225.099 183.587C225.099 183.74 225.733 186.193 225.733 186.174Z" fill="#263238"/>
<path d="M273.053 170.902C274.658 172.094 279.061 172.979 279.061 172.979C279.061 172.979 278.773 169.902 278.725 169.709C278.215 167.488 275.937 163.487 273.389 163.256C271.716 163.16 270.284 164.429 270.188 166.103C270.188 166.209 270.188 166.314 270.188 166.42C270.207 168.18 271.678 169.844 273.053 170.902Z" fill="#263238"/>
<path d="M291.319 213.553C288.772 213.659 286.282 217.535 285.666 219.737C285.666 219.862 285.397 221.314 285.263 222.237V220.583C285.263 219.458 285.205 218.333 285.157 217.131C285.157 216.554 285.08 215.967 285.032 215.371C284.984 214.775 284.897 214.159 284.83 213.553C284.647 212.14 284.397 210.726 284.109 209.293C285.07 209.293 288.589 209.187 290.137 208.476C291.685 207.764 293.454 206.417 293.838 204.629C294.261 203.023 293.29 201.378 291.685 200.955C291.569 200.926 291.454 200.907 291.339 200.888C288.8 200.59 285.753 204.052 284.811 206.139C284.753 206.264 284.243 207.831 283.984 208.697C283.801 207.841 283.628 206.985 283.426 206.129C282.821 203.648 282.128 201.157 281.455 198.666C281.244 197.906 281.052 197.137 280.85 196.377C281.398 196.377 285.397 196.377 287.089 195.55C288.781 194.723 290.406 193.492 290.791 191.703C291.204 190.088 290.233 188.443 288.618 188.03C288.512 188.001 288.397 187.982 288.291 187.962C285.753 187.674 282.715 191.136 281.773 193.213C281.696 193.367 280.965 195.627 280.811 196.214C280.369 194.531 279.946 192.857 279.6 191.184C279.119 188.934 278.792 186.654 278.61 184.366C278.908 184.366 283.138 184.366 284.888 183.539C286.435 182.827 288.204 181.481 288.599 179.692C289.012 178.066 288.022 176.422 286.407 176.008C286.301 175.98 286.195 175.96 286.089 175.951C283.551 175.662 280.513 179.124 279.571 181.202C279.494 181.365 278.716 183.798 278.61 184.241V183.837C278.485 181.529 278.562 179.211 278.84 176.922C278.985 175.653 279.187 174.441 279.417 173.277C280.244 173.364 283.917 173.691 285.599 173.123C287.281 172.556 289.127 171.45 289.704 169.738C290.291 168.171 289.493 166.43 287.926 165.843C287.829 165.805 287.733 165.776 287.628 165.747C285.128 165.18 281.725 168.286 280.561 170.248C280.504 170.354 279.975 171.508 279.6 172.364C279.706 171.835 279.811 171.286 279.927 170.786C280.359 168.863 280.888 167.199 281.33 165.699C281.6 164.853 281.859 164.083 282.109 163.372C282.946 163.035 286.291 161.66 287.503 160.4C288.714 159.14 289.858 157.284 289.579 155.505C289.387 153.851 287.887 152.668 286.224 152.86C286.109 152.87 286.003 152.889 285.897 152.918C283.426 153.562 281.84 157.89 281.705 160.169C281.705 160.362 281.878 163.468 281.917 163.449H281.965C281.715 164.131 281.446 164.862 281.167 165.67C280.677 167.161 280.129 168.853 279.658 170.738C279.129 172.758 278.715 174.816 278.417 176.884C278.081 179.201 277.956 181.548 278.033 183.885V183.971C277.783 183.269 277.014 181.317 276.937 181.182C275.86 179.163 272.591 175.912 270.082 176.374C269.525 176.47 269.005 176.749 268.602 177.153C268.198 176.749 267.688 176.47 267.121 176.374C264.612 175.922 261.353 179.172 260.276 181.182C260.199 181.317 259.42 183.269 259.17 183.971V183.885C259.247 181.548 259.113 179.201 258.776 176.884C258.478 174.816 258.075 172.758 257.546 170.738C257.075 168.815 256.527 167.161 256.027 165.67C255.748 164.862 255.488 164.131 255.229 163.449H255.277C255.277 163.449 255.498 160.362 255.488 160.169C255.363 157.89 253.767 153.562 251.297 152.918C249.672 152.543 248.047 153.553 247.672 155.178C247.643 155.284 247.624 155.399 247.615 155.505C247.336 157.284 248.509 159.179 249.691 160.4C250.874 161.621 254.248 163.035 255.085 163.372C255.335 164.083 255.594 164.853 255.873 165.699C256.334 167.199 256.834 168.901 257.267 170.786C257.382 171.286 257.488 171.835 257.603 172.364C257.228 171.508 256.709 170.354 256.642 170.248C255.479 168.324 252.075 165.18 249.585 165.747C247.97 166.161 246.999 167.805 247.413 169.421C247.442 169.527 247.47 169.632 247.509 169.738C248.086 171.45 249.989 172.623 251.604 173.123C253.22 173.623 256.959 173.364 257.796 173.277C258.017 174.441 258.219 175.653 258.363 176.922C258.651 179.211 258.728 181.529 258.603 183.837C258.603 183.971 258.603 184.116 258.555 184.241C258.449 183.798 257.661 181.355 257.594 181.202C256.632 179.124 253.604 175.662 251.066 175.951C249.412 176.182 248.268 177.711 248.499 179.365C248.518 179.471 248.538 179.586 248.566 179.692C248.951 181.452 250.72 182.798 252.268 183.539C254.017 184.346 258.248 184.366 258.546 184.366C258.353 186.664 258.017 188.943 257.536 191.203C257.18 192.877 256.757 194.55 256.315 196.233C256.161 195.646 255.431 193.348 255.354 193.233C254.392 191.155 251.364 187.693 248.826 187.982C247.172 188.212 246.028 189.742 246.259 191.396C246.278 191.501 246.298 191.617 246.326 191.723C246.711 193.483 248.48 194.829 250.028 195.569C251.72 196.348 255.729 196.397 256.267 196.397C256.065 197.156 255.873 197.926 255.661 198.685C254.988 201.176 254.296 203.667 253.739 206.148C253.527 207.004 253.354 207.86 253.171 208.716C252.912 207.85 252.402 206.283 252.345 206.158C251.383 204.071 248.355 200.609 245.817 200.907C244.163 201.138 243.019 202.667 243.25 204.321C243.269 204.427 243.288 204.542 243.317 204.648C243.702 206.408 245.471 207.745 247.019 208.495C248.566 209.245 252.047 209.303 253.046 209.312C252.758 210.745 252.508 212.197 252.325 213.573C252.258 214.178 252.152 214.804 252.124 215.39C252.095 215.977 252.037 216.573 251.999 217.15C251.95 218.352 251.912 219.477 251.902 220.603V222.257C251.768 221.295 251.527 219.881 251.489 219.756C250.874 217.554 248.393 213.678 245.836 213.573C244.163 213.563 242.798 214.909 242.788 216.583C242.788 216.688 242.788 216.794 242.798 216.89C242.913 218.698 244.461 220.285 245.884 221.228C247.307 222.17 251.268 222.891 251.893 222.988V226.883C251.999 230.777 252.229 234.009 252.422 236.278C252.614 238.548 252.777 239.837 252.777 239.837C252.902 240.318 253.393 240.616 253.873 240.491C254.296 240.385 254.575 240 254.556 239.567C254.556 239.567 254.373 238.317 254.133 236.076C253.892 233.836 253.594 230.643 253.402 226.796C253.354 225.69 253.306 224.507 253.277 223.295C253.912 223.238 257.805 222.843 259.392 221.939C260.978 221.035 262.526 219.602 262.756 217.814C263.026 216.16 261.901 214.602 260.257 214.342C260.151 214.323 260.045 214.313 259.94 214.303C257.382 214.236 254.652 217.948 253.892 220.074C253.844 220.208 253.45 221.901 253.277 222.766V217.169C253.277 216.592 253.344 216.006 253.373 215.409C253.402 214.813 253.479 214.236 253.527 213.649C253.623 212.774 253.758 211.89 253.902 210.995C255.046 211.053 258.305 211.149 259.834 210.562C261.362 209.976 263.285 208.726 263.776 206.994C264.295 205.408 263.429 203.705 261.843 203.186C261.737 203.148 261.632 203.119 261.526 203.1C259.017 202.638 255.758 205.898 254.671 207.908L254.248 208.956C254.402 208.091 254.565 207.225 254.758 206.36C255.296 203.888 255.931 201.388 256.556 198.878L256.93 197.31C257.892 197.358 261.43 197.502 263.035 196.887C264.641 196.272 266.487 195.05 266.987 193.319C267.496 191.723 266.631 190.02 265.035 189.501C264.939 189.472 264.833 189.443 264.727 189.424C262.218 188.963 258.959 192.223 257.873 194.233C257.873 194.31 257.623 194.839 257.382 195.444C257.7 194.079 257.998 192.713 258.257 191.348C258.709 189.011 259.007 186.635 259.142 184.26C259.68 184.26 263.689 184.51 265.429 183.837C266.65 183.394 267.736 182.644 268.602 181.673C269.467 182.644 270.553 183.394 271.774 183.837C273.514 184.51 277.543 184.289 278.062 184.26C278.196 186.635 278.494 189.011 278.946 191.348C279.206 192.713 279.504 194.079 279.821 195.444C279.581 194.839 279.369 194.31 279.331 194.233C278.254 192.223 274.995 188.963 272.476 189.424C270.842 189.77 269.803 191.367 270.14 193.002C270.159 193.107 270.188 193.213 270.226 193.319C270.726 195.05 272.582 196.272 274.168 196.887C275.754 197.502 279.331 197.358 280.273 197.31C280.398 197.839 280.523 198.358 280.658 198.878C281.273 201.388 281.907 203.888 282.455 206.36C282.648 207.225 282.801 208.091 282.965 208.956C282.753 208.427 282.571 207.995 282.532 207.908C281.455 205.898 278.196 202.638 275.678 203.1C274.043 203.446 273.005 205.042 273.341 206.677C273.361 206.783 273.389 206.889 273.428 206.994C273.928 208.726 275.783 209.947 277.37 210.562C278.956 211.178 282.177 211.053 283.311 210.995C283.446 211.89 283.59 212.774 283.676 213.649C283.734 214.236 283.82 214.804 283.84 215.409C283.859 216.015 283.897 216.592 283.926 217.169V222.766C283.744 221.901 283.349 220.208 283.301 220.074C282.542 217.919 279.811 214.207 277.254 214.303C275.581 214.4 274.312 215.833 274.399 217.496C274.399 217.602 274.418 217.708 274.437 217.814C274.668 219.602 276.36 221.093 277.802 221.939C279.244 222.786 283.282 223.238 283.917 223.295C283.917 224.507 283.849 225.69 283.792 226.796C283.609 230.643 283.311 233.845 283.071 236.076C282.83 238.308 282.638 239.567 282.638 239.567C282.609 240.067 282.994 240.491 283.494 240.519C283.926 240.539 284.311 240.26 284.417 239.837C284.417 239.837 284.58 238.538 284.782 236.278C284.984 234.018 285.205 230.777 285.301 226.883C285.301 225.652 285.349 224.344 285.349 222.988C285.974 222.891 289.829 222.247 291.367 221.228C292.906 220.208 294.338 218.698 294.444 216.89C294.617 215.227 293.406 213.736 291.742 213.563C291.598 213.553 291.464 213.544 291.319 213.553V213.553Z" fill="#263238"/>
<path d="M61.5185 262.485C61.5185 262.485 61.6819 269.015 62.7875 272.515C63.5951 274.91 64.5565 277.247 65.6717 279.517C65.6717 279.517 61.5377 281.748 59.6246 281.911C57.7114 282.075 55.1733 273.467 55.1733 267.582C55.1733 261.696 57.3845 259.936 61.5185 262.485Z" fill="white" stroke="#263238" stroke-width="0.49" stroke-linecap="round" stroke-linejoin="round"/>
<path d="M49.9916 245.376C49.9916 245.376 56.7213 245.126 59.2882 247.04C61.8551 248.954 62.7876 257.388 63.5856 260.734L64.3835 264.081C62.5088 264.822 60.5861 265.408 58.6152 265.832C57.8653 265.889 57.1251 265.995 56.3848 266.149C56.3848 266.149 54.3563 254.57 51.972 251.185C50.7703 249.444 49.434 247.79 47.9919 246.242C47.9919 246.242 46.9151 244.953 49.9916 245.376V245.376Z" fill="white" stroke="#263238" stroke-width="0.49" stroke-linecap="round" stroke-linejoin="round"/>
<path d="M44.4924 235.095C43.9348 237.23 43.0792 239.269 41.9447 241.154C40.022 244.337 39.2336 246.559 33.3499 246.722C27.4662 246.886 24.4379 251.685 21.919 265.985C19.4002 280.286 17.9389 296.077 22.2363 306.108C26.5337 316.138 39.224 315.157 47.5112 312.157C55.7983 309.156 57.7019 299.741 57.8557 289.557C58.0095 279.372 58.0191 263.283 56.4232 255.157C54.8273 247.03 50.2223 245.29 48.1457 244.655C46.0691 244.02 48.7898 240.192 48.7898 240.192L44.4924 235.095V235.095Z" fill="white"/>
<path opacity="0.4" d="M27.6874 266.341C27.6874 266.341 26.2838 270.188 28.7738 273.179C31.2638 276.17 37.4263 274.737 36.2342 276.131C35.042 277.526 29.7063 279.247 28.7738 280.642C28.2162 281.363 28.1489 282.354 28.62 283.133C28.62 283.133 23.7169 284.008 23.3708 283.181C23.0247 282.354 26.255 270.765 26.255 270.765L27.6874 266.341V266.341Z" fill="#DFDFDF"/>
<path opacity="0.4" d="M29.1872 287.489C29.1872 287.489 25.7743 291.22 25.9281 292.298C26.0819 293.375 29.1872 290.903 28.5719 292.451C27.9567 294 25.3032 296.5 24.5245 297.741C23.7458 298.981 20.6789 301.184 20.6789 301.184L19.583 292.769L19.3715 291.297L29.1872 287.489V287.489Z" fill="#DFDFDF"/>
<path d="M44.4924 235.095C43.9348 237.23 43.0792 239.269 41.9447 241.154C40.022 244.337 39.2336 246.559 33.3499 246.722C27.4662 246.886 24.4379 251.685 21.919 265.985C19.4002 280.286 17.9389 296.077 22.2363 306.108C26.5337 316.138 39.224 315.157 47.5112 312.157C55.7983 309.156 57.7019 299.741 57.8557 289.557C58.0095 279.372 58.0191 263.283 56.4232 255.157C54.8273 247.03 50.2223 245.29 48.1457 244.655C46.0691 244.02 48.7898 240.192 48.7898 240.192L44.4924 235.095V235.095Z" stroke="#263238" stroke-width="0.49" stroke-linecap="round" stroke-linejoin="round"/>
<path d="M49.9915 245.376C49.3955 245.088 48.7802 244.847 48.1457 244.655C46.0787 244.02 48.7898 240.192 48.7898 240.192L44.4924 235.095C43.9348 237.23 43.0792 239.269 41.9447 241.154C40.32 243.857 39.4932 245.867 35.6669 246.511C36.8782 248.261 37.7627 250.213 38.2818 252.281C39.2432 256.426 41.3006 263.11 45.1269 261.523C48.761 260.013 51.5201 251.291 49.9915 245.376Z" fill="white"/>
<path opacity="0.4" d="M40.07 246.434C39.0606 247.146 37.9357 247.684 36.7436 248.011L35.7822 246.367C35.7822 246.367 39.7528 246.857 43.7233 237.711C44.5885 239.404 45.8095 240.895 47.2996 242.068L42.56 242.674" fill="#DFDFDF"/>
<path d="M49.9915 245.376C49.3955 245.088 48.7802 244.847 48.1457 244.655C46.0787 244.02 48.7898 240.192 48.7898 240.192L44.4924 235.095C43.9348 237.23 43.0792 239.269 41.9447 241.154C40.32 243.857 39.4932 245.867 35.6669 246.511C36.8782 248.261 37.7627 250.213 38.2818 252.281C39.2432 256.426 41.3006 263.11 45.1269 261.523C48.761 260.013 51.5201 251.291 49.9915 245.376Z" stroke="#263238" stroke-width="0.49" stroke-linecap="round" stroke-linejoin="round"/>
<path d="M28.0815 264.86L32.6577 260.792" stroke="#263238" stroke-width="0.49" stroke-linecap="round" stroke-linejoin="round"/>
<path d="M33.35 246.722C33.35 246.722 34.6959 248.569 35.715 253.916C36.7341 259.263 39.7817 264.1 42.8389 265.11C45.8961 266.12 47.4151 265.11 47.4151 265.11" stroke="#263238" stroke-width="0.49" stroke-linecap="round" stroke-linejoin="round"/>
<path d="M18.2272 264.399C18.2272 264.399 15.8429 285.556 15.6795 289.23C15.5161 292.903 16.9485 291.942 19.3424 291.307C21.7363 290.672 35.4168 284.575 38.5701 283.498C41.7235 282.421 42.233 282.065 44.7807 282.382C47.0111 282.719 49.2608 282.931 51.5104 283.027C53.1063 283.027 51.347 279.363 48.9627 278.728C46.5785 278.093 46.7323 278.247 44.0308 278.882C41.3293 279.517 37.0223 281.43 32.4077 282.382C27.793 283.335 23.8128 283.662 23.3418 283.181C22.8707 282.7 26.2259 268.851 26.2259 268.851L18.2272 264.399V264.399Z" fill="white" stroke="#263238" stroke-width="0.49" stroke-linecap="round" stroke-linejoin="round"/>
<path d="M35.6669 246.511C33.8884 246.722 32.1002 246.742 30.3216 246.559C27.0337 246.328 23.7938 247.492 21.4095 249.761C18.8619 252.3 16.6026 260.581 15.6412 262.658C14.6798 264.735 14.3722 265.678 14.3722 265.678L26.1492 270.775L31.0811 256.763" fill="white"/>
<path opacity="0.4" d="M35.542 246.405C33.225 246.655 30.8985 246.77 28.5719 246.742C25.7262 246.78 23.0439 248.098 21.2654 250.319C19.083 252.81 14.6125 265.581 14.6125 265.581L17.3525 266.755C17.3525 266.755 20.3328 252.81 23.7457 250.637C26.7453 248.848 30.2063 247.982 33.6961 248.146C34.6575 248.146 35.7342 248.078 36.4168 248.011L35.542 246.405V246.405Z" fill="#DFDFDF"/>
<path d="M35.6669 246.511C33.8884 246.722 32.1002 246.742 30.3216 246.559C27.0337 246.328 23.7938 247.492 21.4095 249.761C18.8619 252.3 16.6026 260.581 15.6412 262.658C14.6798 264.735 14.3722 265.678 14.3722 265.678L26.1492 270.775L31.0811 256.763" stroke="#263238" stroke-width="0.49" stroke-linecap="round" stroke-linejoin="round"/>
<path d="M20.6981 299.77C20.6981 299.77 25.5051 295.442 28.8411 295.192" stroke="#263238" stroke-width="0.49" stroke-linecap="round" stroke-linejoin="round"/>
<path d="M29.3506 293.115C26.9856 294.154 24.6879 295.346 22.4767 296.673" stroke="#263238" stroke-width="0.49" stroke-linecap="round" stroke-linejoin="round"/>
<path d="M59.1537 230.67C61.0319 223.207 59.0817 216.282 54.7978 215.204C50.5138 214.125 45.5184 219.3 43.6403 226.764C41.7621 234.227 43.7123 241.152 47.9962 242.231C52.2802 243.309 57.2756 238.134 59.1537 230.67Z" fill="white"/>
<path opacity="0.4" d="M47.1842 241.933C46.6458 240.856 45.9344 238.269 46.4439 236.634C47.2226 234.153 51.4143 231.364 51.4143 231.364C51.4143 231.364 49.4915 231.826 47.5687 232.124C45.646 232.422 42.9829 232.855 42.9829 232.855L43.6463 237.509C44.5404 239.606 45.6267 241.318 47.1842 241.933V241.933Z" fill="#DFDFDF"/>
<path d="M59.1537 230.67C61.0319 223.207 59.0817 216.282 54.7978 215.204C50.5138 214.125 45.5184 219.3 43.6403 226.764C41.7621 234.227 43.7123 241.152 47.9962 242.231C52.2802 243.309 57.2756 238.134 59.1537 230.67Z" stroke="#263238" stroke-width="0.49" stroke-linecap="round" stroke-linejoin="round"/>
<path opacity="0.4" d="M43.7041 237.923C42.9734 239.365 40.7045 243.866 38.3587 245.347C37.6954 245.77 36.9743 246.097 36.2148 246.309" fill="#DFDFDF"/>
<path opacity="0.4" d="M47.5304 261.523C47.5304 261.523 48.1553 270.38 47.5304 272.563C46.9055 274.746 44.4251 274.583 45.6653 275.824C47.0209 276.949 48.4726 277.939 50.0204 278.776L52.1931 280.959L52.6834 277.651C52.6834 277.651 51.126 278.122 49.5685 272.679C48.5783 269.024 47.8957 265.293 47.5304 261.523V261.523Z" fill="#DFDFDF"/>
<path d="M54.9331 232.585C54.4235 233.316 54.0967 234.153 53.9717 235.038V235.798C54.0005 236.182 53.7217 236.528 53.3276 236.557C53.2891 236.557 53.2507 236.557 53.2218 236.557L52.0778 236.471" stroke="#263238" stroke-width="0.49" stroke-linecap="round" stroke-linejoin="round"/>
<path d="M50.0397 238.779C48.9341 238.904 47.9246 238.144 47.7419 237.048" stroke="#263238" stroke-width="0.49" stroke-linecap="round" stroke-linejoin="round"/>
<path d="M51.7701 232.297L51.1932 233.451C50.501 233.778 49.6742 233.605 49.1743 233.018" stroke="#263238" stroke-width="0.49" stroke-linecap="round" stroke-linejoin="round"/>
<path d="M56.3656 234.028L55.51 235.182C55.51 235.182 54.3563 235.182 54.3563 234.316" stroke="#263238" stroke-width="0.49" stroke-linecap="round" stroke-linejoin="round"/>
<path d="M60.9225 223.795C62.8453 218.131 58.1633 212.255 51.1741 212.38C44.1848 212.505 39.2913 219.343 36.9744 224.026C34.8112 226.2 32.9461 228.652 31.4368 231.326C28.5526 236.259 28.5526 239.125 26.3414 242.308C24.1302 245.491 17.5928 245.655 13.7665 249.8C9.94014 253.945 9.92091 258.715 11.6995 261.898C13.478 265.081 14.5836 269.217 12.334 272.083C10.0843 274.948 7.88277 278.814 9.63249 285.306C10.3055 288.278 12.7474 290.509 15.7661 290.922C15.67 290.384 15.6412 289.826 15.6796 289.278C15.8046 286.393 17.2659 273.112 17.91 267.236L14.4106 265.716C14.4106 265.716 14.7278 264.754 15.6796 262.696C16.6314 260.638 18.8618 252.339 21.4479 249.8C23.8418 247.53 27.0721 246.367 30.36 246.607C32.1386 246.79 33.9268 246.771 35.7053 246.559C37.8781 246.29 39.7912 244.972 40.8007 243.029L41.0506 242.616V242.568C41.3198 242.125 41.589 241.654 41.8871 241.164C42.5793 240 43.1657 238.779 43.656 237.519C43.1753 236.019 42.9157 234.441 42.8869 232.864C46.021 232.759 54.6927 231.989 59.0767 226.834C59.3362 226.517 59.5766 226.2 59.7881 225.873C59.7208 227.498 59.4901 229.104 59.0959 230.681C58.2883 234.297 56.4617 237.605 53.8371 240.221L53.3756 240.616L53.0872 240.846C52.943 240.952 52.8084 241.058 52.6642 241.145C52.5585 241.221 52.4527 241.289 52.3469 241.347C52.2124 241.433 52.0778 241.51 51.9432 241.587L51.6067 241.76L51.2029 241.933L50.8664 242.058L50.4626 242.183L50.1261 242.27C49.4051 242.433 48.6648 242.433 47.9438 242.27L47.665 242.174C47.3573 242.751 47.2612 243.414 47.3862 244.049C47.4823 244.376 47.7515 244.626 48.088 244.703C48.7033 244.886 49.309 245.126 49.8858 245.405C49.5205 249.29 48.8763 253.147 47.963 256.945C46.3671 263.629 48.1168 269.996 50.03 274.612C51.9432 279.228 57.8269 282.094 59.8938 279.42C61.9608 276.747 61.3263 273.852 60.0573 267.476C58.7882 261.1 55.4426 251.877 55.4426 244.866C55.4426 237.856 59.5766 235.634 61.6532 231.499C63.1433 228.508 61.8166 225.353 60.9225 223.795V223.795Z" fill="#263238"/>
<path d="M58.9805 221.651C58.9805 221.651 51.6355 228.085 44.5596 228.777C37.4838 229.47 36.7532 229.46 36.7532 229.46" stroke="white" stroke-width="0.35" stroke-linecap="round" stroke-linejoin="round"/>
<path d="M57.375 216.823C57.375 216.823 50.7126 224.411 45.2038 226.248C39.6951 228.085 37.3973 228.085 37.3973 228.085" stroke="white" stroke-width="0.35" stroke-linecap="round" stroke-linejoin="round"/>
<path d="M53.4717 214.073C53.4717 214.073 51.6355 219.843 47.2708 222.574" stroke="white" stroke-width="0.35" stroke-linecap="round" stroke-linejoin="round"/>
<path d="M40.8392 235.663C40.8392 235.663 40.6085 243.02 36.4745 244.164C32.3406 245.309 27.7547 243.02 22.4671 245.77C18.237 248.04 15.8624 252.695 16.4969 257.455" stroke="white" stroke-width="0.35" stroke-linecap="round" stroke-linejoin="round"/>
<path d="M14.8912 288.499C12.6704 285.277 11.9975 281.238 13.055 277.478C14.8912 271.275 16.266 268.976 16.266 268.976" stroke="white" stroke-width="0.35" stroke-linecap="round" stroke-linejoin="round"/>
<path d="M55.5675 247.607C55.5675 247.607 56.7116 256.339 52.8083 261.85C48.9051 267.361 51.4335 274.948 51.4335 274.948" stroke="white" stroke-width="0.35" stroke-linecap="round" stroke-linejoin="round"/>
<path d="M55.7695 239.567C55.7695 239.567 56.0003 242.097 52.7796 248.53C49.559 254.964 48.6457 257.032 48.4149 261.629" stroke="white" stroke-width="0.35" stroke-linecap="round" stroke-linejoin="round"/>
<path d="M77.8141 312.715C77.8141 312.715 82.9767 312.214 85.9666 313.542C88.9566 314.869 89.6295 317.033 90.2929 315.042C90.9563 313.051 90.9562 311.878 88.4663 310.551C85.9763 309.224 84.9668 310.051 83.9766 309.05C83.4863 308.531 82.9287 308.079 82.3134 307.723C82.3134 307.723 79.6503 307.387 79.4773 308.887C79.3042 310.387 76.8239 310.878 76.8239 310.878L77.8141 312.715V312.715Z" fill="white" stroke="#263238" stroke-width="0.49" stroke-miterlimit="10"/>
<path d="M99.3973 273.631C97.6476 269.649 90.3507 272.381 81.8905 279.199C70.9403 288.028 62.432 290.086 57.8558 290.441V290.297C55.4715 289.182 52.0875 289.134 48.0592 289.788C47.9343 289.605 47.8093 289.422 47.6939 289.23C40.0028 277.295 37.9839 275.227 35.4362 277.295C32.8885 279.363 30.0236 282.546 30.9754 292.423C31.0619 293.202 31.2061 293.971 31.4176 294.721C27.6298 296.519 24.0342 298.693 20.6693 301.193C21.0346 302.876 21.5634 304.521 22.2268 306.108C26.5049 316.109 39.176 315.196 47.4536 312.186C49.9532 313.542 52.6739 314.446 55.4908 314.869C62.0474 315.686 66.4794 315.446 69.0752 314.455L73.4783 318.052C80.4099 312.791 86.284 306.261 90.7833 298.818C92.9753 295.106 94.9269 291.249 96.6093 287.277C99.3493 281.074 100.282 275.631 99.3973 273.631V273.631Z" fill="#263238"/>
<path d="M47.6746 289.191C48.5879 290.624 49.5974 291.999 50.6742 293.317L80.5637 287.951L71.1517 280.411L44.4924 284.315C45.4057 285.719 46.4729 287.354 47.6746 289.191V289.191Z" fill="#DFDFDF" stroke="#263238" stroke-width="0.49" stroke-linecap="round" stroke-linejoin="round"/>
<path opacity="0.5" d="M47.6746 289.191C48.5879 290.624 49.5974 291.999 50.6742 293.317L80.5637 287.951L71.1517 280.411L44.4924 284.315C45.4057 285.719 46.4729 287.354 47.6746 289.191V289.191Z" fill="white" stroke="#263238" stroke-width="0.53" stroke-linecap="round" stroke-linejoin="round"/>
<path d="M54.3273 271.525L49.6742 292.076C50.0011 292.509 50.3376 292.932 50.6356 293.346L80.5636 287.951L86.4761 266.428L54.3273 271.525V271.525Z" fill="#DFDFDF" stroke="#263238" stroke-width="0.49" stroke-linecap="round" stroke-linejoin="round"/>
<path d="M69.5557 283.479C67.931 283.94 66.239 282.998 65.7775 281.373C65.316 279.747 66.2582 278.055 67.8829 277.593C69.4788 277.141 71.142 278.045 71.642 279.632C72.113 281.267 71.1901 282.979 69.5557 283.479Z" fill="white"/>
<path opacity="0.5" d="M54.3273 271.525L49.6742 292.076C50.0011 292.509 50.3376 292.932 50.6356 293.346L80.5636 287.951L86.4761 266.428L54.3273 271.525V271.525Z" fill="white" stroke="#263238" stroke-width="0.53" stroke-linecap="round" stroke-linejoin="round"/>
<path d="M69.5557 283.479C67.931 283.94 66.239 282.998 65.7775 281.373C65.316 279.747 66.2582 278.055 67.8829 277.593C69.4788 277.141 71.142 278.045 71.642 279.632C72.113 281.267 71.1901 282.979 69.5557 283.479Z" fill="white" stroke="#263238" stroke-width="0.53" stroke-linecap="round" stroke-linejoin="round"/>
<path d="M68.0656 312.782C68.0656 312.782 63.9508 315.84 61.6339 317.11C59.3169 318.379 58.5767 317.946 56.3559 320.062C54.135 322.178 52.2507 323.649 51.722 324.495C51.1932 325.342 50.5587 326.178 50.2414 324.284C49.9819 322.303 50.7798 320.341 52.3565 319.11C53.8274 318.052 55.8367 317.629 55.8367 316.225C55.7406 314.946 56.6731 313.83 57.9421 313.695C59.1054 313.695 59.8649 314.849 62.0569 313.695C63.5663 312.763 64.7968 311.455 65.6429 309.897L68.0656 312.782Z" fill="white" stroke="#263238" stroke-width="0.49" stroke-miterlimit="10"/>
<path d="M31.6675 295.779C31.6675 295.779 36.2148 306.656 46.694 311.599" stroke="white" stroke-width="0.35" stroke-miterlimit="10"/>
<path d="M67.0178 304.684C67.0178 304.684 73.5264 301.424 83.0634 284.941" stroke="white" stroke-width="0.35" stroke-miterlimit="10"/>
<path d="M49.5685 292.413C49.5685 292.413 56.4616 302.52 64.4988 305.963" stroke="white" stroke-width="0.35" stroke-miterlimit="10"/>
<path d="M172.869 190H114.462C110.432 190 107.166 193.293 107.166 197.355V321.645C107.166 325.707 110.432 329 114.462 329H172.869C176.899 329 180.166 325.707 180.166 321.645V197.355C180.166 193.293 176.899 190 172.869 190Z" fill="#263238"/>
<path d="M177.166 205H110.166V314H177.166V205Z" fill="#FEFAF7"/>
<g opacity="0.28">
<path opacity="0.4" d="M177.375 277.054L114.712 313.609H177.375V277.054Z" fill="#852536"/>
</g>
<path d="M177.166 205H110.166V314H177.166V205Z" stroke="#263238" stroke-width="0.53" stroke-miterlimit="10"/>
<path d="M151.177 197H136.154C135.61 197 135.166 196.55 135.166 196C135.166 195.45 135.61 195 136.154 195H151.177C151.721 195 152.166 195.45 152.166 196C152.166 196.55 151.721 197 151.177 197Z" fill="#DFDFDF"/>
<path opacity="0.4" d="M151.177 197H136.154C135.61 197 135.166 196.55 135.166 196C135.166 195.45 135.61 195 136.154 195H151.177C151.721 195 152.166 195.45 152.166 196C152.166 196.55 151.721 197 151.177 197Z" fill="white"/>
<path d="M148.166 320C148.166 317.793 146.373 316 144.166 316C141.958 316 140.166 317.793 140.166 320C140.166 322.207 141.958 324 144.166 324C146.373 324 148.166 322.207 148.166 320Z" fill="#DFDFDF" stroke="#263238" stroke-width="0.7" stroke-miterlimit="10"/>
<path d="M146.166 318H142.166V322H146.166V318Z" fill="#DFDFDF" stroke="#263238" stroke-width="0.53" stroke-linecap="round" stroke-linejoin="round"/>
<path opacity="0.6" d="M146.166 318H142.166V322H146.166V318Z" fill="white" stroke="#263238" stroke-width="0.53" stroke-linecap="round" stroke-linejoin="round"/>
<path d="M146.166 318H142.166V322H146.166V318Z" stroke="#263238" stroke-width="0.53" stroke-linecap="round" stroke-linejoin="round"/>
<path d="M362.421 222H180.91C174.976 222 170.166 226.789 170.166 232.697V318.303C170.166 324.211 174.976 329 180.91 329H362.421C368.355 329 373.166 324.211 373.166 318.303V232.697C373.166 226.789 368.355 222 362.421 222Z" fill="#DFDFDF" stroke="#263238" stroke-width="0.87" stroke-miterlimit="10"/>
<path d="M362.166 226H181.166V324H362.166V226Z" fill="#FEFAF7"/>
<g opacity="0.26">
<path opacity="0.4" d="M362.173 246.165L227.935 324.476H362.173V246.165Z" fill="#852536"/>
</g>
<path d="M362.166 226H181.166V324H362.166V226Z" stroke="#263238" stroke-width="0.65" stroke-miterlimit="10"/>
<path d="M366.666 277C365.838 277 365.166 276.328 365.166 275.5C365.166 274.672 365.838 274 366.666 274C367.493 274 368.166 274.672 368.166 275.5C368.166 276.328 367.493 276.99 366.666 276.99V277Z" fill="#263238"/>
<path d="M346.82 222H340.511C340.32 222 340.166 222.162 340.166 222.363V222.637C340.166 222.838 340.32 223 340.511 223H346.82C347.011 223 347.166 222.838 347.166 222.637V222.363C347.166 222.162 347.011 222 346.82 222Z" fill="#DFDFDF" stroke="#263238" stroke-width="0.65" stroke-miterlimit="10"/>
<path d="M317.677 223H330.644C330.925 223 331.155 222.784 331.166 222.51C331.166 222.51 331.166 222.51 331.166 222.5C331.166 222.225 330.935 222 330.654 222C330.654 222 330.654 222 330.644 222H317.677C317.396 222 317.166 222.225 317.166 222.5C317.166 222.775 317.396 223 317.677 223Z" fill="#DFDFDF" stroke="#263238" stroke-width="0.65" stroke-miterlimit="10"/>
<path d="M352.011 331.987C352.011 333.42 343.436 334.584 332.861 334.584C322.285 334.584 313.7 333.43 313.7 331.987C313.7 330.545 322.276 329.381 332.861 329.381C343.445 329.381 352.011 330.545 352.011 331.987Z" fill="#DFDFDF"/>
<path d="M316.373 293.442C316.373 315.33 333.678 333.064 333.678 333.064C333.678 333.064 350.983 315.33 350.983 293.442C350.983 271.554 333.678 253.82 333.678 253.82C333.678 253.82 316.373 271.554 316.373 293.442Z" fill="#263238"/>
<path d="M333.706 333.064V253.82" stroke="white" stroke-width="0.74" stroke-miterlimit="10"/>
<path d="M333.706 281.988L323.996 273.516" stroke="white" stroke-width="0.74" stroke-miterlimit="10"/>
<path d="M333.86 295.086L345.868 277.67" stroke="white" stroke-width="0.74" stroke-miterlimit="10"/>
<path d="M333.706 302.636L319.382 289.845" stroke="white" stroke-width="0.74" stroke-miterlimit="10"/>
<path d="M333.86 312.801L348.031 300.164" stroke="white" stroke-width="0.74" stroke-miterlimit="10"/>
<path d="M333.86 321.581L322.766 312.801" stroke="white" stroke-width="0.74" stroke-miterlimit="10"/>
<path d="M304.365 321.889C312.787 331.391 327.121 332.41 327.121 332.41C327.121 332.41 327.823 318.052 319.43 308.55C311.037 299.049 296.674 298.029 296.674 298.029C296.674 298.029 295.914 312.436 304.365 321.889Z" fill="#263238"/>
<path d="M327.121 332.449L296.645 298.068" stroke="white" stroke-width="0.74" stroke-miterlimit="10"/>
<path d="M307.48 310.291L300.01 310.349" stroke="white" stroke-width="0.74" stroke-miterlimit="10"/>
<path d="M312.585 315.917L311.095 303.742" stroke="white" stroke-width="0.74" stroke-miterlimit="10"/>
<path d="M315.421 319.244L304.288 319.216" stroke="white" stroke-width="0.74" stroke-miterlimit="10"/>
<path d="M319.401 323.601L320.689 312.666" stroke="white" stroke-width="0.74" stroke-miterlimit="10"/>
<path d="M322.776 327.409L314.585 327.871" stroke="white" stroke-width="0.74" stroke-miterlimit="10"/>
<path d="M348.531 308.262C339.686 317.36 339.735 331.747 339.735 331.747C339.735 331.747 354.107 331.372 362.942 322.264C371.778 313.157 371.739 298.808 371.739 298.808C371.739 298.808 357.366 299.155 348.531 308.262Z" fill="#263238"/>
<path d="M339.734 331.747L371.739 298.779" stroke="white" stroke-width="0.74" stroke-miterlimit="10"/>
<path d="M360.366 310.493L359.75 303.049" stroke="white" stroke-width="0.74" stroke-miterlimit="10"/>
<path d="M355.136 316.004L367.163 313.619" stroke="white" stroke-width="0.74" stroke-miterlimit="10"/>
<path d="M352.021 319.081L351.233 307.973" stroke="white" stroke-width="0.74" stroke-miterlimit="10"/>
<path d="M347.983 323.38L358.981 323.841" stroke="white" stroke-width="0.74" stroke-miterlimit="10"/>
<path d="M344.436 327.034L343.368 318.898" stroke="white" stroke-width="0.74" stroke-miterlimit="10"/>
</svg>
