<svg width="104" height="15" viewBox="0 0 104 15" fill="none" xmlns="http://www.w3.org/2000/svg">
<g id="Group 4612">
<path id="Vector" d="M12.7334 9.33095C12.5263 9.5291 12.4311 9.81566 12.4783 10.0967L13.1894 13.9806C13.2494 14.3098 13.1086 14.643 12.8294 14.8332C12.5559 15.0306 12.1919 15.0543 11.8935 14.8964L8.35081 13.0728C8.22762 13.0081 8.09084 12.9733 7.95086 12.9694H7.73409C7.6589 12.9804 7.58531 13.0041 7.51812 13.0404L3.97458 14.8727C3.7994 14.9595 3.60103 14.9903 3.40666 14.9595C2.93312 14.8711 2.61716 14.4259 2.69475 13.9562L3.40666 10.0722C3.45385 9.78882 3.35866 9.50068 3.15149 9.29938L0.263066 6.53641C0.0214978 6.3051 -0.0624912 5.95776 0.0478944 5.64436C0.15508 5.33175 0.428645 5.10361 0.759001 5.05229L4.73448 4.48312C5.03684 4.45233 5.30241 4.27077 5.43839 4.00236L7.19016 0.457864C7.23176 0.378922 7.28535 0.306295 7.35014 0.24472L7.42213 0.189461C7.45973 0.148411 7.50292 0.114466 7.55091 0.0868363L7.6381 0.0552595L7.77408 0H8.11084C8.4116 0.0307874 8.67637 0.208407 8.81475 0.473653L10.5897 4.00236C10.7177 4.2605 10.9665 4.4397 11.2536 4.48312L15.2291 5.05229C15.5651 5.09966 15.8458 5.32859 15.957 5.64436C16.0618 5.96092 15.9714 6.30826 15.725 6.53641L12.7334 9.33095Z" fill="#F78E31"/>
<path id="Vector_2" d="M56.7334 9.33095C56.5263 9.5291 56.4311 9.81566 56.4783 10.0967L57.1894 13.9806C57.2494 14.3098 57.1086 14.643 56.8294 14.8332C56.5559 15.0306 56.1919 15.0543 55.8935 14.8964L52.3508 13.0728C52.2276 13.0081 52.0908 12.9733 51.9509 12.9694H51.7341C51.6589 12.9804 51.5853 13.0041 51.5181 13.0404L47.9746 14.8727C47.7994 14.9595 47.601 14.9903 47.4067 14.9595C46.9331 14.8711 46.6172 14.4259 46.6947 13.9562L47.4067 10.0722C47.4538 9.78882 47.3587 9.50068 47.1515 9.29938L44.2631 6.53641C44.0215 6.3051 43.9375 5.95776 44.0479 5.64436C44.1551 5.33175 44.4286 5.10361 44.759 5.05229L48.7345 4.48312C49.0368 4.45233 49.3024 4.27077 49.4384 4.00236L51.1902 0.457864C51.2318 0.378922 51.2853 0.306295 51.3501 0.24472L51.4221 0.189461C51.4597 0.148411 51.5029 0.114466 51.5509 0.0868363L51.6381 0.0552595L51.7741 0H52.1108C52.4116 0.0307874 52.6764 0.208407 52.8147 0.473653L54.5897 4.00236C54.7177 4.2605 54.9665 4.4397 55.2536 4.48312L59.2291 5.05229C59.5651 5.09966 59.8458 5.32859 59.957 5.64436C60.0618 5.96092 59.9714 6.30826 59.725 6.53641L56.7334 9.33095Z" fill="#F78E31"/>
<path id="Vector_3" d="M34.7334 9.33095C34.5263 9.5291 34.4311 9.81566 34.4783 10.0967L35.1894 13.9806C35.2494 14.3098 35.1086 14.643 34.8294 14.8332C34.5559 15.0306 34.1919 15.0543 33.8935 14.8964L30.3508 13.0728C30.2276 13.0081 30.0908 12.9733 29.9509 12.9694H29.7341C29.6589 12.9804 29.5853 13.0041 29.5181 13.0404L25.9746 14.8727C25.7994 14.9595 25.601 14.9903 25.4067 14.9595C24.9331 14.8711 24.6172 14.4259 24.6947 13.9562L25.4067 10.0722C25.4538 9.78882 25.3587 9.50068 25.1515 9.29938L22.2631 6.53641C22.0215 6.3051 21.9375 5.95776 22.0479 5.64436C22.1551 5.33175 22.4286 5.10361 22.759 5.05229L26.7345 4.48312C27.0368 4.45233 27.3024 4.27077 27.4384 4.00236L29.1902 0.457864C29.2318 0.378922 29.2853 0.306295 29.3501 0.24472L29.4221 0.189461C29.4597 0.148411 29.5029 0.114466 29.5509 0.0868363L29.6381 0.0552595L29.7741 0H30.1108C30.4116 0.0307874 30.6764 0.208407 30.8147 0.473653L32.5897 4.00236C32.7177 4.2605 32.9665 4.4397 33.2536 4.48312L37.2291 5.05229C37.5651 5.09966 37.8458 5.32859 37.957 5.64436C38.0618 5.96092 37.9714 6.30826 37.725 6.53641L34.7334 9.33095Z" fill="#F78E31"/>
<path id="Vector_4" d="M78.7334 9.33095C78.5263 9.5291 78.4311 9.81566 78.4783 10.0967L79.1894 13.9806C79.2494 14.3098 79.1086 14.643 78.8294 14.8332C78.5559 15.0306 78.1919 15.0543 77.8935 14.8964L74.3508 13.0728C74.2276 13.0081 74.0908 12.9733 73.9509 12.9694H73.7341C73.6589 12.9804 73.5853 13.0041 73.5181 13.0404L69.9746 14.8727C69.7994 14.9595 69.601 14.9903 69.4067 14.9595C68.9331 14.8711 68.6172 14.4259 68.6947 13.9562L69.4067 10.0722C69.4538 9.78882 69.3587 9.50068 69.1515 9.29938L66.2631 6.53641C66.0215 6.3051 65.9375 5.95776 66.0479 5.64436C66.1551 5.33175 66.4286 5.10361 66.759 5.05229L70.7345 4.48312C71.0368 4.45233 71.3024 4.27077 71.4384 4.00236L73.1902 0.457864C73.2318 0.378922 73.2853 0.306295 73.3501 0.24472L73.4221 0.189461C73.4597 0.148411 73.5029 0.114466 73.5509 0.0868363L73.6381 0.0552595L73.7741 0H74.1108C74.4116 0.0307874 74.6764 0.208407 74.8147 0.473653L76.5897 4.00236C76.7177 4.2605 76.9665 4.4397 77.2536 4.48312L81.2291 5.05229C81.5651 5.09966 81.8458 5.32859 81.957 5.64436C82.0618 5.96092 81.9714 6.30826 81.725 6.53641L78.7334 9.33095Z" fill="#F78E31"/>
<path id="Vector_5" d="M100.733 9.33095C100.526 9.5291 100.431 9.81566 100.478 10.0967L101.189 13.9806C101.249 14.3098 101.109 14.643 100.829 14.8332C100.556 15.0306 100.192 15.0543 99.8935 14.8964L96.3508 13.0728C96.2276 13.0081 96.0908 12.9733 95.9509 12.9694H95.7341C95.6589 12.9804 95.5853 13.0041 95.5181 13.0404L91.9746 14.8727C91.7994 14.9595 91.601 14.9903 91.4067 14.9595C90.9331 14.8711 90.6172 14.4259 90.6947 13.9562L91.4067 10.0722C91.4538 9.78882 91.3587 9.50068 91.1515 9.29938L88.2631 6.53641C88.0215 6.3051 87.9375 5.95776 88.0479 5.64436C88.1551 5.33175 88.4286 5.10361 88.759 5.05229L92.7345 4.48312C93.0368 4.45233 93.3024 4.27077 93.4384 4.00236L95.1902 0.457864C95.2318 0.378922 95.2853 0.306295 95.3501 0.24472L95.4221 0.189461C95.4597 0.148411 95.5029 0.114466 95.5509 0.0868363L95.6381 0.0552595L95.7741 0H96.1108C96.4116 0.0307874 96.6764 0.208407 96.8147 0.473653L98.5897 4.00236C98.7177 4.2605 98.9665 4.4397 99.2536 4.48312L103.229 5.05229C103.565 5.09966 103.846 5.32859 103.957 5.64436C104.062 5.96092 103.971 6.30826 103.725 6.53641L100.733 9.33095Z" fill="#F78E31"/>
</g>
</svg>
