<svg width="6" height="10" viewBox="0 0 6 10" fill="none" xmlns="http://www.w3.org/2000/svg">
<g id="Left 2">
<path id="Vector" d="M5.10655 1.27741C5.35172 1.03442 5.35348 0.638695 5.11049 0.393531C4.86751 0.148366 4.47178 0.146601 4.22662 0.389587L2.73101 1.87191C2.1677 2.4302 1.7073 2.88649 1.3808 3.29305C1.04127 3.71582 0.795498 4.14493 0.729843 4.66003C0.701055 4.88588 0.701055 5.11444 0.729843 5.3403C0.795498 5.85539 1.04128 6.28451 1.3808 6.70728C1.7073 7.11384 2.16769 7.57012 2.731 8.1284L4.22662 9.61074C4.47178 9.85372 4.86751 9.85196 5.11049 9.6068C5.35348 9.36163 5.35172 8.96591 5.10655 8.72292L3.63741 7.26683C3.04117 6.67588 2.63216 6.26918 2.35541 5.92457C2.08658 5.58983 1.99436 5.37481 1.96981 5.18225C1.9544 5.06134 1.9544 4.93899 1.96981 4.81808C1.99436 4.62551 2.08658 4.4105 2.35541 4.07575C2.63216 3.73114 3.04117 3.32444 3.63741 2.7335L5.10655 1.27741Z" fill="#DADADA"/>
</g>
</svg>
