<svg width="20" height="20" viewBox="0 0 20 20" fill="none" xmlns="http://www.w3.org/2000/svg">
<path d="M2.46731 10.528C2.17573 10.2338 2.17784 9.75889 2.47204 9.46731C2.76624 9.17573 3.24111 9.17784 3.53269 9.47204L5.28 11.235C5.98914 11.9505 6.47718 12.4413 6.8907 12.7734C7.2924 13.096 7.55042 13.2067 7.7815 13.2361C7.92659 13.2546 8.07341 13.2546 8.2185 13.2361C8.44958 13.2067 8.7076 13.096 9.10929 12.7734C9.52282 12.4413 10.0109 11.9505 10.72 11.235L12.4673 9.47204C12.7589 9.17784 13.2338 9.17573 13.528 9.46731C13.8222 9.75889 13.8243 10.2338 13.5327 10.528L11.7539 12.3227C11.084 12.9987 10.5364 13.5511 10.0485 13.9429C9.54121 14.3504 9.02627 14.6453 8.40816 14.7241C8.13713 14.7586 7.86286 14.7586 7.59184 14.7241C6.97372 14.6453 6.45878 14.3504 5.95146 13.9429C5.46359 13.5511 4.91604 12.9987 4.2461 12.3227L2.46731 10.528Z" fill="white"/>
</svg>
