<svg width="36" height="36" viewBox="0 0 36 36" fill="none" xmlns="http://www.w3.org/2000/svg">
<g id="Icons" clip-path="url(#clip0_3510_3330)">
<path id="Vector" d="M18 3L9.75 16.5H26.25L18 3ZM18 8.76L20.895 13.5H15.09L18 8.76ZM26.25 19.5C22.515 19.5 19.5 22.515 19.5 26.25C19.5 29.985 22.515 33 26.25 33C29.985 33 33 29.985 33 26.25C33 22.515 29.985 19.5 26.25 19.5ZM26.25 30C24.18 30 22.5 28.32 22.5 26.25C22.5 24.18 24.18 22.5 26.25 22.5C28.32 22.5 30 24.18 30 26.25C30 28.32 28.32 30 26.25 30ZM4.5 32.25H16.5V20.25H4.5V32.25ZM7.5 23.25H13.5V29.25H7.5V23.25Z" fill="#0A0A0A"/>
</g>
<defs>
<clipPath id="clip0_3510_3330">
<rect width="36" height="36" fill="white"/>
</clipPath>
</defs>
</svg>
