<svg width="255" height="50" viewBox="0 0 255 50" fill="none" xmlns="http://www.w3.org/2000/svg">
<g clip-path="url(#clip0_18_2717)">
<path d="M76.1755 25.8823V33.5938C76.1755 34.8751 75.9984 36.0354 75.6523 37.0669C75.3062 38.0983 74.7589 39.0088 74.0264 39.7985C72.5535 41.4988 70.5734 42.3449 68.0863 42.3449C65.8004 42.3449 63.8686 41.5552 62.283 39.9677C60.6973 38.4206 59.9085 36.5028 59.9085 34.2143V25.8823H55.6104V34.2143C55.6104 37.6873 56.8257 40.6204 59.2646 42.9976C61.7195 45.3988 64.6574 46.5914 68.0943 46.5914C71.2254 46.5914 74.0184 45.5036 76.4733 43.336C79.1536 40.9589 80.4898 38.0016 80.4898 34.4722V25.8823H76.1916H76.1755Z" fill="#231F20"/>
<path d="M88.7722 41.0155C88.0156 41.0155 87.2993 40.8705 86.6232 40.5804C85.947 40.2903 85.3434 39.8874 84.8282 39.3878C84.3131 38.8882 83.9026 38.3 83.5967 37.6312C83.2909 36.9623 83.146 36.2452 83.146 35.4958V15.9067H87.4442V35.4958C87.4442 36.3983 87.8868 36.8576 88.7722 36.8576H89.054V41.0236H88.7722V41.0155Z" fill="#231F20"/>
<path d="M104.081 25.7778V34.5852C104.081 36.1002 103.623 36.8495 102.697 36.8495C101.771 36.8495 101.337 36.0921 101.337 34.5852V25.7778H97.119V34.5852C97.119 36.1002 96.6602 36.8495 95.7346 36.8495C94.8089 36.8495 94.4065 36.0921 94.4065 34.5852V25.7778H90.1083V35.4313C90.1083 36.3741 89.6656 36.8495 88.7803 36.8495H88.4985V41.0155H88.7803C90.1405 41.0155 91.2996 40.5885 92.2574 39.7424C93.2233 40.5885 94.3824 41.0155 95.7346 41.0155C96.4912 41.0155 97.1512 40.9511 97.7307 40.8302C98.3022 40.7093 98.8012 40.5159 99.2198 40.25C99.8074 40.7577 100.918 41.0155 102.56 41.0155C104.355 41.0155 105.804 40.3145 106.915 38.9205C107.84 37.7118 108.299 36.1404 108.299 34.2146V25.7778H104.081V25.7778Z" fill="#231F20"/>
<path d="M127.424 41.0155V41.5796C127.424 44.9639 126.208 47.7681 123.769 49.9921L120.574 47.2121C122.272 45.6086 123.117 43.5377 123.117 41.0074C119.737 41.0074 116.863 39.7907 114.489 37.3491C112.13 34.8753 110.955 31.9422 110.955 28.5417C110.955 25.1412 112.155 22.1597 114.545 19.702C115.736 18.4772 117.056 17.5586 118.521 16.9543C119.986 16.3499 121.572 16.0518 123.286 16.0518H127.416V36.8414H157.913V41.0074H127.416L127.424 41.0155ZM123.069 20.25C121.073 20.25 119.262 21.1203 117.636 22.8527C116.807 23.723 116.195 24.6335 115.793 25.5844C115.398 26.5352 115.197 27.5264 115.197 28.5417C115.197 29.6779 115.382 30.7254 115.753 31.6843C116.123 32.6432 116.694 33.5296 117.467 34.3193C118.956 36.0034 120.823 36.8414 123.069 36.8414V20.25Z" fill="#231F20"/>
<path d="M157.929 36.8491H127.407V41.0151H157.929V36.8491Z" fill="#852536"/>
<path d="M250.147 25.939V34.5852C250.147 36.1001 249.688 36.8495 248.762 36.8495C247.836 36.8495 247.402 36.0921 247.402 34.5852V25.939H243.184V34.5852C243.184 36.1001 242.725 36.8495 241.8 36.8495C240.874 36.8495 240.472 36.0921 240.472 34.5852V25.939H236.174V35.4394C236.174 36.3822 235.731 36.8576 234.845 36.8576H234.564V41.0236H234.845C236.206 41.0236 237.365 40.5965 238.323 39.7504C239.288 40.5965 240.448 41.0236 241.8 41.0236C242.556 41.0236 243.216 40.9591 243.796 40.8382C244.367 40.7174 244.866 40.524 245.285 40.2581C245.873 40.7657 246.983 41.0236 248.625 41.0236C250.42 41.0236 251.869 40.3225 252.98 38.9285C253.905 37.7198 254.364 36.1485 254.364 34.2226V25.939H250.147V25.939Z" fill="#231F20"/>
<path d="M244.585 16.2207H241.453C241.222 16.2207 241.035 16.4083 241.035 16.6397V19.7743C241.035 20.0057 241.222 20.1933 241.453 20.1933H244.585C244.816 20.1933 245.003 20.0057 245.003 19.7743V16.6397C245.003 16.4083 244.816 16.2207 244.585 16.2207Z" fill="#852536"/>
<path d="M249.535 16.2207H246.404C246.173 16.2207 245.985 16.4083 245.985 16.6397V19.7743C245.985 20.0057 246.173 20.1933 246.404 20.1933H249.535C249.766 20.1933 249.953 20.0057 249.953 19.7743V16.6397C249.953 16.4083 249.766 16.2207 249.535 16.2207Z" fill="#852536"/>
<path d="M254.582 16.2207H251.451C251.219 16.2207 251.032 16.4083 251.032 16.6397V19.7743C251.032 20.0057 251.219 20.1933 251.451 20.1933H254.582C254.813 20.1933 255 20.0057 255 19.7743V16.6397C255 16.4083 254.813 16.2207 254.582 16.2207Z" fill="#852536"/>
<path d="M97.8838 15.9146H94.7528C94.5216 15.9146 94.3342 16.1022 94.3342 16.3336V19.4681C94.3342 19.6996 94.5216 19.8872 94.7528 19.8872H97.8838C98.115 19.8872 98.3024 19.6996 98.3024 19.4681V16.3336C98.3024 16.1022 98.115 15.9146 97.8838 15.9146Z" fill="#852536"/>
<path d="M70.646 16.0195H67.515C67.2838 16.0195 67.0964 16.2071 67.0964 16.4385V19.5731C67.0964 19.8045 67.2838 19.9921 67.515 19.9921H70.646C70.8772 19.9921 71.0646 19.8045 71.0646 19.5731V16.4385C71.0646 16.2071 70.8772 16.0195 70.646 16.0195Z" fill="#852536"/>
<path d="M102.834 15.9146H99.7027C99.4716 15.9146 99.2842 16.1022 99.2842 16.3336V19.4681C99.2842 19.6996 99.4716 19.8872 99.7027 19.8872H102.834C103.065 19.8872 103.252 19.6996 103.252 19.4681V16.3336C103.252 16.1022 103.065 15.9146 102.834 15.9146Z" fill="#852536"/>
<path d="M107.881 15.9146H104.75C104.518 15.9146 104.331 16.1022 104.331 16.3336V19.4681C104.331 19.6996 104.518 19.8872 104.75 19.8872H107.881C108.112 19.8872 108.299 19.6996 108.299 19.4681V16.3336C108.299 16.1022 108.112 15.9146 107.881 15.9146Z" fill="#852536"/>
<path d="M131.786 45.5278H128.655C128.424 45.5278 128.237 45.7154 128.237 45.9468V49.0814C128.237 49.3128 128.424 49.5004 128.655 49.5004H131.786C132.017 49.5004 132.205 49.3128 132.205 49.0814V45.9468C132.205 45.7154 132.017 45.5278 131.786 45.5278Z" fill="#852536"/>
<path d="M136.736 45.5278H133.605C133.374 45.5278 133.187 45.7154 133.187 45.9468V49.0814C133.187 49.3128 133.374 49.5004 133.605 49.5004H136.736C136.967 49.5004 137.155 49.3128 137.155 49.0814V45.9468C137.155 45.7154 136.967 45.5278 136.736 45.5278Z" fill="#852536"/>
<path d="M141.614 45.5278H138.483C138.252 45.5278 138.064 45.7154 138.064 45.9468V49.0814C138.064 49.3128 138.252 49.5004 138.483 49.5004H141.614C141.845 49.5004 142.032 49.3128 142.032 49.0814V45.9468C142.032 45.7154 141.845 45.5278 141.614 45.5278Z" fill="#852536"/>
<path d="M203.567 45.5278H200.436C200.205 45.5278 200.017 45.7154 200.017 45.9468V49.0814C200.017 49.3128 200.205 49.5004 200.436 49.5004H203.567C203.798 49.5004 203.985 49.3128 203.985 49.0814V45.9468C203.985 45.7154 203.798 45.5278 203.567 45.5278Z" fill="#852536"/>
<path d="M208.509 45.5278H205.378C205.147 45.5278 204.959 45.7154 204.959 45.9468V49.0814C204.959 49.3128 205.147 49.5004 205.378 49.5004H208.509C208.74 49.5004 208.928 49.3128 208.928 49.0814V45.9468C208.928 45.7154 208.74 45.5278 208.509 45.5278Z" fill="#852536"/>
<path d="M196.122 35.5921C195.872 35.4873 195.333 35.0683 195.083 34.9716C185.69 31.418 176.901 27.0828 170.276 19.5969C168.216 17.2762 165.946 15.721 162.702 15.9144C162.235 15.9385 161.503 15.6162 161.31 15.2375C160.601 13.8354 161.358 11.6436 162.734 10.6847C165.35 8.86361 166.123 6.97803 165.407 4.1819C164.771 1.70809 161.962 -0.266128 159.499 0.0239609C156.513 0.386572 154.106 2.76369 154.299 5.36643C154.299 5.47118 154.331 5.56788 154.372 5.66457C154.742 6.62348 156.046 6.73629 156.698 5.9466C156.738 5.89826 156.786 5.84185 156.818 5.78544C157.148 5.32614 157.237 4.6815 157.495 4.21413C157.994 3.31163 159.587 2.7234 160.65 3.01349C161.575 3.27134 162.324 4.23025 162.662 5.15692C162.928 5.86602 162.533 7.14725 161.752 7.81606C160.054 9.26651 158.372 10.9829 158.477 14.4639C158.501 15.1327 157.68 15.8338 157.277 15.8741C153.446 16.3012 151.78 17.4293 149.735 19.7016C143.827 26.2528 137.026 31.6194 128.864 35.1247C128.381 35.3342 127.882 35.5195 127.375 35.6968V41.0312C136.704 36.414 145.63 31.0796 154.106 24.9716C158.581 21.7484 161.583 21.7887 166.01 24.9958C173.939 30.725 183.066 34.8588 192.17 39.0892C193.417 37.8644 194.85 36.7685 196.106 35.584L196.122 35.5921Z" fill="black"/>
<path d="M20.5732 25.9712V33.6827C20.5732 34.9639 20.3961 36.1243 20.05 37.1557C19.7039 38.1871 19.1566 39.0977 18.4241 39.8874C16.9512 41.5876 14.9711 42.4337 12.484 42.4337C10.1981 42.4337 8.26631 41.644 6.68066 40.0566C5.09501 38.5095 4.30621 36.5917 4.30621 34.3032V25.9712H0V34.3032C0 37.7762 1.2154 40.7093 3.65424 43.0864C6.10918 45.4877 9.04706 46.6803 12.484 46.6803C15.615 46.6803 18.408 45.5925 20.863 43.4249C23.5433 41.0477 24.8794 38.0905 24.8794 34.561V25.9712H20.5813H20.5732Z" fill="#231F20"/>
<path d="M15.0435 16.1079H11.9124C11.6813 16.1079 11.4939 16.2955 11.4939 16.5269V19.6615C11.4939 19.8929 11.6813 20.0805 11.9124 20.0805H15.0435C15.2747 20.0805 15.462 19.8929 15.462 19.6615V16.5269C15.462 16.2955 15.2747 16.1079 15.0435 16.1079Z" fill="#852536"/>
<path d="M40.1563 45.4873H37.0252C36.7941 45.4873 36.6067 45.6749 36.6067 45.9063V49.0409C36.6067 49.2723 36.7941 49.4599 37.0252 49.4599H40.1563C40.3875 49.4599 40.5748 49.2723 40.5748 49.0409V45.9063C40.5748 45.6749 40.3875 45.4873 40.1563 45.4873Z" fill="#852536"/>
<path d="M45.1065 45.4873H41.9754C41.7443 45.4873 41.5569 45.6749 41.5569 45.9063V49.0409C41.5569 49.2723 41.7443 49.4599 41.9754 49.4599H45.1065C45.3376 49.4599 45.525 49.2723 45.525 49.0409V45.9063C45.525 45.6749 45.3376 45.4873 45.1065 45.4873Z" fill="#852536"/>
<path d="M30.1033 14.0933H26.5376V41.007H30.1033V14.0933Z" fill="#231F20"/>
<path d="M35.6329 36.39V25.9629H32.1397L31.9787 40.701C31.9787 42.9653 29.9503 45.6809 28.5498 46.9943L31.3348 49.4278C33.3229 47.5664 35.6329 44.3029 35.6329 41.4907V40.7896C35.6812 40.9427 36.0595 41.0233 36.7839 41.0233H43.1104V37.5745H36.7839C36.0193 37.5745 35.6329 37.1796 35.6329 36.398V36.39Z" fill="#231F20"/>
<path d="M45.1467 40.6448C45.7102 40.4031 46.2012 40.0727 46.6197 39.6618C47.0382 39.2508 47.3763 38.7593 47.6258 38.2033C47.8753 37.6473 48.0041 37.059 48.0041 36.4305V25.9551H44.4384V36.4305C44.4384 37.1799 44.0682 37.5586 43.3357 37.5586H43.1023V41.0075H43.3357C43.9796 41.0075 44.5753 40.8866 45.1387 40.6448H45.1467Z" fill="#231F20"/>
<path d="M53.6626 14.0933H50.0969V41.007H53.6626V14.0933Z" fill="#231F20"/>
<path d="M255 13.9563V9.76611H188.097C185.199 9.76611 182.68 11.9982 182.591 14.8991C182.503 17.8 184.885 20.3302 187.863 20.3302H191.171C193.433 20.3302 195.349 21.144 196.918 22.7718C198.488 24.3995 199.269 26.3495 199.269 28.638C199.269 30.9265 198.488 32.8443 196.918 34.5042C195.333 36.1319 193.417 36.9378 191.171 36.9378C191.171 36.9378 161.535 36.9136 161.471 36.9136V41.0957C161.535 41.0957 191.171 41.1037 191.171 41.1037C192.194 41.1037 193.143 41.0151 194.029 40.8378C194.914 40.6606 195.735 40.3785 196.492 39.9998C197.208 40.3785 198.029 40.6525 198.955 40.8378C199.88 41.0151 200.879 41.1037 201.957 41.1037H204.734V36.9378H201.957C201.748 36.9378 201.522 36.9216 201.265 36.8813C201.007 36.8411 200.734 36.7927 200.428 36.7363C202.448 34.3753 203.454 31.6759 203.454 28.638C203.454 25.1972 202.255 22.256 199.864 19.7983C197.506 17.3245 194.608 16.0836 191.18 16.0836H189.103C188.491 16.0836 187.968 15.5921 187.992 14.9877C187.992 14.9797 187.992 14.9716 187.992 14.9635C188.024 14.3995 188.523 13.9724 189.095 13.9724H255.016L255 13.9563Z" fill="#852536"/>
<path d="M212.099 35.4958V25.939H207.825V35.4958C207.825 36.3983 207.374 36.8576 206.465 36.8576L200.412 36.6561L196.476 39.9116L196.975 40.1614C197.49 40.387 198.255 40.6368 198.81 40.7496C200.025 40.9833 200.959 41.0316 201.273 41.0558C201.708 41.088 204.034 41.1283 204.155 41.1122C204.251 41.1042 206.416 41.0719 206.473 41.0719C206.883 41.0719 207.575 41.0155 208.364 40.7093C208.928 40.4917 209.411 40.1694 209.829 39.7504C210.795 40.5965 211.986 41.0236 213.419 41.0236H234.829V36.8576H213.419C212.534 36.8576 212.091 36.4063 212.091 35.4958H212.099Z" fill="#231F20"/>
</g>
<defs>
<clipPath id="clip0_18_2717">
<rect width="255" height="50" fill="white"/>
</clipPath>
</defs>
</svg>
