<svg width="38" height="50" viewBox="0 0 38 50" fill="none" xmlns="http://www.w3.org/2000/svg">
<g id="Profile 1">
<path id="Vector" d="M28.25 11C28.25 16.1086 24.1086 20.25 19 20.25V21.75C24.9371 21.75 29.75 16.9371 29.75 11H28.25ZM19 20.25C13.8914 20.25 9.75 16.1086 9.75 11H8.25C8.25 16.9371 13.0629 21.75 19 21.75V20.25ZM9.75 11C9.75 5.89137 13.8914 1.75 19 1.75V0.25C13.0629 0.25 8.25 5.06294 8.25 11H9.75ZM19 1.75C24.1086 1.75 28.25 5.89137 28.25 11H29.75C29.75 5.06294 24.9371 0.25 19 0.25V1.75ZM11.5 29.25H26.5V27.75H11.5V29.25ZM26.5 47.75H11.5V49.25H26.5V47.75ZM11.5 47.75C6.39137 47.75 2.25 43.6086 2.25 38.5H0.75C0.75 44.4371 5.56294 49.25 11.5 49.25V47.75ZM35.75 38.5C35.75 43.6086 31.6086 47.75 26.5 47.75V49.25C32.4371 49.25 37.25 44.4371 37.25 38.5H35.75ZM26.5 29.25C31.6086 29.25 35.75 33.3914 35.75 38.5H37.25C37.25 32.5629 32.4371 27.75 26.5 27.75V29.25ZM11.5 27.75C5.56294 27.75 0.75 32.5629 0.75 38.5H2.25C2.25 33.3914 6.39137 29.25 11.5 29.25V27.75Z" fill="#D0D0D0"/>
</g>
</svg>
