<svg width="16" height="19" viewBox="0 0 16 19" fill="none" xmlns="http://www.w3.org/2000/svg">
<g id="Location">
<g id="Vector">
<path fill-rule="evenodd" clip-rule="evenodd" d="M7.99967 5.20898C6.27378 5.20898 4.87467 6.60809 4.87467 8.33398C4.87467 10.0599 6.27378 11.459 7.99967 11.459C9.72556 11.459 11.1247 10.0599 11.1247 8.33398C11.1247 6.60809 9.72556 5.20898 7.99967 5.20898ZM6.12467 8.33398C6.12467 7.29845 6.96414 6.45898 7.99967 6.45898C9.03521 6.45898 9.87467 7.29845 9.87467 8.33398C9.87467 9.36952 9.03521 10.209 7.99967 10.209C6.96414 10.209 6.12467 9.36952 6.12467 8.33398Z" fill="#852536"/>
<path fill-rule="evenodd" clip-rule="evenodd" d="M7.99967 0.208984C3.93023 0.208984 0.708008 3.74463 0.708008 8.0079C0.708008 9.37517 1.38726 10.9852 2.24187 12.4961C3.11032 14.0314 4.21874 15.5642 5.19054 16.8034L5.22295 16.8447C5.69729 17.4497 6.10137 17.965 6.49321 18.321C6.92071 18.7093 7.39213 18.9635 7.99967 18.9635C8.60722 18.9635 9.07864 18.7093 9.50614 18.321C9.89798 17.965 10.3021 17.4497 10.7764 16.8447L10.8088 16.8034C11.7806 15.5642 12.889 14.0314 13.7575 12.4961C14.6121 10.9852 15.2913 9.37517 15.2913 8.0079C15.2913 3.74463 12.0691 0.208984 7.99967 0.208984ZM1.95801 8.0079C1.95801 4.34708 4.70533 1.45898 7.99967 1.45898C11.294 1.45898 14.0413 4.34708 14.0413 8.0079C14.0413 9.02998 13.5083 10.3976 12.6695 11.8807C11.8444 13.3393 10.7782 14.8168 9.82519 16.032C9.30939 16.6898 8.96978 17.1195 8.66566 17.3957C8.3883 17.6477 8.20315 17.7135 7.99967 17.7135C7.79619 17.7135 7.61105 17.6477 7.33369 17.3957C7.02957 17.1195 6.68996 16.6898 6.17416 16.032C5.22116 14.8168 4.15491 13.3393 3.32988 11.8807C2.49102 10.3976 1.95801 9.02998 1.95801 8.0079Z" fill="#852536"/>
</g>
</g>
</svg>
