<svg width="20" height="38" viewBox="0 0 20 38" fill="none" xmlns="http://www.w3.org/2000/svg">
<path d="M13.0625 12.6348C13.0625 8.8431 12.0046 6.94727 9.88867 6.94727C8.12826 6.94727 7.24805 7.69206 7.24805 9.18164C7.24805 10.0957 7.7474 11.0521 8.74609 12.0508C9.50781 12.8464 10.1595 13.5573 10.7012 14.1836C11.2428 14.8099 11.666 15.3854 11.9707 15.9102C13.054 18.0599 13.5957 21.5215 13.5957 26.2949H7.04492V21.4707C6.94336 20.4551 6.71484 19.6764 6.35938 19.1348C6.35938 18.61 5.82617 17.8991 4.75977 17.002C4.0319 16.2741 3.43945 15.6562 2.98242 15.1484C2.52539 14.6406 2.16146 14.1836 1.89062 13.7773C0.858073 12.5924 0.341797 11.1706 0.341797 9.51172C0.341797 6.9388 1.28971 4.78906 3.18555 3.0625C4.89518 1.57292 7.07878 0.828125 9.73633 0.828125C13.4941 0.828125 16.1178 1.86914 17.6074 3.95117C18.1829 4.84831 18.623 6.02474 18.9277 7.48047C19.2493 8.9362 19.4102 10.6543 19.4102 12.6348H13.0625ZM14.2812 34.1406C14.2812 35.2917 13.8411 36.2227 12.9609 36.9336C12.0977 37.6445 11.0397 38 9.78711 38C8.78841 38 7.87435 37.6445 7.04492 36.9336C6.21549 36.2227 5.80078 35.2917 5.80078 34.1406C5.80078 31.7539 7.12956 30.5605 9.78711 30.5605C12.7832 30.5605 14.2812 31.7539 14.2812 34.1406Z" fill="#D0D0D0"/>
</svg>
