<svg width="6" height="9" viewBox="0 0 6 9" fill="none" xmlns="http://www.w3.org/2000/svg">
<path d="M2.34277 6.72363C2.34277 6.53223 2.35645 6.35449 2.38379 6.19043C2.41113 6.02181 2.45443 5.86914 2.51367 5.73242C2.59115 5.51367 2.71647 5.29948 2.88965 5.08984C3.02637 4.93945 3.26107 4.71159 3.59375 4.40625C3.9401 4.10547 4.16341 3.86393 4.26367 3.68164C4.37305 3.49935 4.42773 3.30566 4.42773 3.10059C4.42773 2.72689 4.27279 2.38965 3.96289 2.08887C3.67122 1.80176 3.30664 1.6582 2.86914 1.6582C2.44531 1.6582 2.0944 1.79036 1.81641 2.05469C1.53841 2.31445 1.35384 2.72005 1.2627 3.27148L0.257812 3.16211C0.348958 2.4056 0.617839 1.83138 1.06445 1.43945C1.51562 1.04297 2.11263 0.844727 2.85547 0.844727C3.64388 0.844727 4.26823 1.05892 4.72852 1.4873C5.19792 1.91569 5.43262 2.42839 5.43262 3.02539C5.43262 3.20312 5.41211 3.37402 5.37109 3.53809C5.33464 3.69759 5.27311 3.85482 5.18652 4.00977C5.02246 4.29688 4.70117 4.65234 4.22266 5.07617C4.06315 5.21745 3.93099 5.34049 3.82617 5.44531C3.72135 5.55013 3.64388 5.63672 3.59375 5.70508C3.54362 5.77344 3.50033 5.84635 3.46387 5.92383C3.43197 6.0013 3.40007 6.08561 3.36816 6.17676C3.34538 6.26335 3.32943 6.37728 3.32031 6.51855C3.3112 6.65983 3.30208 6.83073 3.29297 7.03125H2.34277V6.72363ZM2.28809 7.87891H3.40918V9H2.28809V7.87891Z" fill="#959595"/>
</svg>
