<svg width="61" height="60" viewBox="0 0 61 60" fill="none" xmlns="http://www.w3.org/2000/svg">
<g id="highlight_off_black_24dp 1" clip-path="url(#clip0_3519_3711)">
<path id="Vector" d="M36.975 20L30.5 26.475L24.025 20L20.5 23.525L26.975 30L20.5 36.475L24.025 40L30.5 33.525L36.975 40L40.5 36.475L34.025 30L40.5 23.525L36.975 20ZM30.5 5C16.675 5 5.5 16.175 5.5 30C5.5 43.825 16.675 55 30.5 55C44.325 55 55.5 43.825 55.5 30C55.5 16.175 44.325 5 30.5 5ZM30.5 50C19.475 50 10.5 41.025 10.5 30C10.5 18.975 19.475 10 30.5 10C41.525 10 50.5 18.975 50.5 30C50.5 41.025 41.525 50 30.5 50Z" fill="#F44008"/>
</g>
<defs>
<clipPath id="clip0_3519_3711">
<rect width="60" height="60" fill="white" transform="translate(0.5)"/>
</clipPath>
</defs>
</svg>
