<svg width="6" height="12" viewBox="0 0 6 12" fill="none" xmlns="http://www.w3.org/2000/svg">
<g id="Left 2">
<path id="Vector" d="M0.472041 1.53269C0.177844 1.24111 0.175725 0.766238 0.467309 0.472041C0.758893 0.177844 1.23376 0.175726 1.52796 0.467309L3.32269 2.2461C3.99866 2.91604 4.55114 3.46359 4.94294 3.95146C5.35037 4.45878 5.64531 4.97372 5.72409 5.59184C5.75864 5.86286 5.75864 6.13714 5.72409 6.40816C5.64531 7.02628 5.35037 7.54122 4.94294 8.04854C4.55114 8.53641 3.99867 9.08395 3.3227 9.75389L1.52796 11.5327C1.23376 11.8243 0.758893 11.8222 0.467309 11.528C0.175726 11.2338 0.177845 10.7589 0.472042 10.4673L2.23501 8.72C2.9505 8.01086 3.44131 7.52282 3.77341 7.10929C4.096 6.7076 4.20668 6.44958 4.23613 6.2185C4.25462 6.07341 4.25462 5.92659 4.23613 5.7815C4.20668 5.55042 4.096 5.2924 3.77341 4.89071C3.44131 4.47718 2.9505 3.98914 2.23501 3.28L0.472041 1.53269Z" fill="#A9A8A8"/>
</g>
</svg>
