<svg width="26" height="30" viewBox="0 0 26 30" fill="none" xmlns="http://www.w3.org/2000/svg">
<g id="Setting">
<g id="Vector">
<path fill-rule="evenodd" clip-rule="evenodd" d="M12.999 10.3125C10.4101 10.3125 8.31146 12.4112 8.31146 15C8.31146 17.5889 10.4101 19.6875 12.999 19.6875C15.5878 19.6875 17.6865 17.5889 17.6865 15C17.6865 12.4112 15.5878 10.3125 12.999 10.3125ZM10.1865 15C10.1865 13.4467 11.4457 12.1875 12.999 12.1875C14.5523 12.1875 15.8115 13.4467 15.8115 15C15.8115 16.5533 14.5523 17.8125 12.999 17.8125C11.4457 17.8125 10.1865 16.5533 10.1865 15Z" fill="#1D1D1D"/>
<path fill-rule="evenodd" clip-rule="evenodd" d="M17.2673 4.04037C16.0418 -0.253855 9.95608 -0.253854 8.73056 4.04037C8.35085 5.37088 6.98392 6.16008 5.64182 5.82366C1.31015 4.73787 -1.73273 10.0083 1.37342 13.2167C2.33582 14.2108 2.33582 15.7892 1.37342 16.7833C-1.73273 19.9918 1.31015 25.2622 5.64182 24.1764C6.98392 23.84 8.35085 24.6292 8.73056 25.9597C9.95608 30.2539 16.0418 30.2539 17.2673 25.9597C17.6471 24.6292 19.014 23.84 20.3561 24.1764C24.6878 25.2622 27.7306 19.9917 24.6245 16.7833C23.6621 15.7892 23.6621 14.2108 24.6245 13.2167C27.7306 10.0083 24.6878 4.73787 20.3561 5.82366C19.014 6.16008 17.6471 5.37088 17.2673 4.04037ZM10.5336 4.55493C11.2414 2.07463 14.7565 2.07463 15.4643 4.55493C16.1217 6.85848 18.4884 8.22484 20.812 7.64239C23.3139 7.01525 25.0714 10.0594 23.2774 11.9126C21.6111 13.6337 21.6111 16.3664 23.2774 18.0875C25.0714 19.9407 23.3139 22.9848 20.812 22.3577C18.4884 21.7752 16.1217 23.1416 15.4643 25.4451C14.7565 27.9254 11.2414 27.9254 10.5336 25.4451C9.87617 23.1416 7.50956 21.7752 5.18593 22.3577C2.684 22.9848 0.926467 19.9407 2.72055 18.0875C4.38678 16.3664 4.38678 13.6337 2.72055 11.9126C0.926468 10.0594 2.684 7.01525 5.18593 7.64239C7.50956 8.22484 9.87617 6.85848 10.5336 4.55493Z" fill="#1D1D1D"/>
</g>
</g>
</svg>
