<svg width="10" height="10" viewBox="0 0 10 10" fill="none" xmlns="http://www.w3.org/2000/svg">
<g id="Undo">
<path id="Vector" d="M1.50002 3.5L1.50002 4.25H1.50002V3.5ZM2.00002 7.75C1.58581 7.75 1.25002 8.08579 1.25002 8.5C1.25002 8.91422 1.58581 9.25 2.00002 9.25V7.75ZM2.07204 6.03269C2.36624 6.32428 2.84111 6.32216 3.13269 6.02796C3.42427 5.73376 3.42216 5.25889 3.12796 4.96731L2.07204 6.03269ZM1.89481 4.80108L1.36685 5.33377H1.36685L1.89481 4.80108ZM1.89481 2.19892L1.36685 1.66623L1.36685 1.66623L1.89481 2.19892ZM3.12796 2.03269C3.42216 1.74111 3.42428 1.26624 3.13269 0.972041C2.84111 0.677844 2.36624 0.675726 2.07204 0.967309L3.12796 2.03269ZM1.00796 3.62533L0.263975 3.72016L0.263975 3.72016L1.00796 3.62533ZM1.00796 3.37467L0.263975 3.27984L0.263975 3.27984L1.00796 3.37467ZM1.50002 4.25H6.00003V2.75H1.50002V4.25ZM6.00003 7.75H2.00002V9.25H6.00003V7.75ZM7.75003 6C7.75003 6.9665 6.96652 7.75 6.00003 7.75V9.25C7.79495 9.25 9.25003 7.79493 9.25003 6H7.75003ZM6.00003 4.25C6.96652 4.25 7.75003 5.0335 7.75003 6H9.25003C9.25003 4.20508 7.79495 2.75 6.00003 2.75V4.25ZM3.12796 4.96731L2.42277 4.26839L1.36685 5.33377L2.07204 6.03269L3.12796 4.96731ZM2.42277 2.73161L3.12796 2.03269L2.07204 0.967309L1.36685 1.66623L2.42277 2.73161ZM2.42277 4.26839C2.12906 3.97728 1.95459 3.80277 1.8415 3.66194C1.73791 3.53296 1.74892 3.50683 1.75194 3.5305L0.263975 3.72016C0.310289 4.08352 0.483541 4.36657 0.671961 4.60119C0.850879 4.82398 1.09819 5.06749 1.36685 5.33377L2.42277 4.26839ZM1.36685 1.66623C1.09819 1.93251 0.85088 2.17602 0.671962 2.39881C0.483541 2.63343 0.310289 2.91648 0.263975 3.27984L1.75194 3.4695C1.74892 3.49318 1.73791 3.46705 1.8415 3.33806C1.95459 3.19723 2.12906 3.02272 2.42277 2.73161L1.36685 1.66623ZM1.75194 3.53051C1.75064 3.52037 1.75 3.51018 1.75 3.5H0.25C0.25 3.57354 0.254659 3.64707 0.263975 3.72016L1.75194 3.53051ZM1.75 3.5C1.75 3.48982 1.75064 3.47963 1.75194 3.46949L0.263975 3.27984C0.254659 3.35293 0.25 3.42646 0.25 3.5H1.75ZM1.50003 2.75L1 2.75L0.999999 4.25L1.50002 4.25L1.50003 2.75Z" fill="#959595"/>
</g>
</svg>
