<svg width="26" height="26" viewBox="0 0 26 26" fill="none" xmlns="http://www.w3.org/2000/svg">
<path fill-rule="evenodd" clip-rule="evenodd" d="M21.1857 19.7724C22.1135 18.4388 22.075 16.5643 21.9982 12.8154C21.9213 9.06646 21.8828 7.19195 20.9012 5.8975C20.5841 5.47942 20.2033 5.11385 19.7726 4.81422C18.4389 3.88646 16.5645 3.9249 12.8155 4.00178C9.06662 4.07866 7.19211 4.1171 5.89766 5.09874C5.47958 5.41578 5.11401 5.79666 4.81438 6.22739C3.88662 7.56099 3.92506 9.4355 4.00194 13.1844C4.07882 16.9334 4.11726 18.8078 5.0989 20.1023C5.41594 20.5204 5.79682 20.8859 6.22755 21.1856C7.56115 22.1133 9.43566 22.0749 13.1846 21.998C16.9335 21.9211 18.808 21.8827 20.1025 20.901C20.5205 20.584 20.8861 20.2031 21.1857 19.7724ZM7.49869 14.585C7.21318 14.8851 7.22502 15.3599 7.52514 15.6454C7.82525 15.9309 8.30001 15.919 8.58552 15.6189L10.2963 13.8205C10.9906 13.0906 11.4685 12.5899 11.8751 12.2494C12.2701 11.9186 12.5258 11.8027 12.7563 11.7685C12.9009 11.7471 13.0477 11.744 13.1932 11.7596C13.4248 11.7842 13.685 11.8896 14.0933 12.2039C14.5135 12.5275 15.0115 13.0082 15.7352 13.709L17.5182 15.4357C17.8158 15.7239 18.2906 15.7163 18.5788 15.4187C18.8669 15.1212 18.8593 14.6463 18.5618 14.3581L16.7465 12.6003C16.0629 11.9382 15.5041 11.3971 15.0083 11.0154C14.4927 10.6184 13.9719 10.3341 13.3523 10.268C13.0806 10.2391 12.8064 10.2447 12.5361 10.2847C11.9197 10.3762 11.411 10.6816 10.9121 11.0994C10.4324 11.5011 9.89622 12.0646 9.24032 12.7542L7.49869 14.585Z" fill="black"/>
</svg>
