<svg width="32" height="32" viewBox="0 0 32 32" fill="none" xmlns="http://www.w3.org/2000/svg">
<path d="M44.823 36.3636C25.6712 36.3636 6.52011 36.3636 -12.6316 36.3636C-12.6316 24.2422 -12.6316 12.1214 -12.6316 0C6.52011 0 25.6712 0 44.823 0C44.823 12.1214 44.823 24.2422 44.823 36.3636ZM16.0446 3.95782C15.8694 4.16814 15.7628 4.29923 15.6533 4.42804C15.0073 5.18723 14.5428 6.05301 14.173 6.97464C13.4861 8.68738 13.2224 10.4651 13.3557 12.3044C13.371 12.5147 13.3693 12.7102 13.6903 12.7073C15.2495 12.6936 16.8086 12.6982 18.3678 12.7045C18.5856 12.7056 18.6604 12.6258 18.6809 12.4109C18.7954 11.1901 18.7313 9.98119 18.446 8.78883C18.0592 7.17298 17.4404 5.66543 16.3588 4.38017C16.2624 4.2656 16.1796 4.13964 16.0446 3.95725V3.95782ZM12.9263 12.6805C12.8713 12.5757 12.8515 12.5215 12.8186 12.4776C12.59 12.175 12.3762 11.8598 12.126 11.5759C10.5266 9.76233 8.56987 8.56426 6.17867 8.12938C5.76634 8.05415 5.74479 8.07866 5.74479 8.50556C5.74592 9.89456 6.1662 11.1764 6.73507 12.4223C6.83319 12.6367 6.96081 12.7068 7.18994 12.7056C8.99525 12.6976 10.8 12.7016 12.6053 12.7005C12.6961 12.7005 12.7868 12.6897 12.9258 12.6805H12.9263ZM19.1737 12.656C19.2679 12.6748 19.3297 12.6982 19.3915 12.6982C21.2524 12.7005 23.1139 12.7028 24.9748 12.6931C25.0723 12.6931 25.2181 12.6099 25.2589 12.5249C25.8771 11.2511 26.328 9.92933 26.3309 8.4896C26.3314 8.08094 26.3082 8.05358 25.9112 8.12767C23.1246 8.64862 20.9518 10.1288 19.2991 12.4166C19.252 12.4816 19.2236 12.5603 19.1737 12.6566V12.656ZM7.33514 13.4848C7.54386 14.1134 7.76335 14.277 8.35662 14.277C13.4952 14.277 18.6332 14.277 23.7718 14.277C24.2936 14.277 24.5641 14.0559 24.7156 13.4848H7.33514ZM23.5432 15.1274H8.50181C8.8648 15.503 9.09848 15.8689 9.65998 15.8666C13.9013 15.8478 18.142 15.8518 22.3834 15.8621C22.9261 15.8632 23.1944 15.5133 23.5432 15.1274ZM12.5321 20.8698C12.366 20.8042 12.2712 20.7649 12.1748 20.729C11.1511 20.3454 10.0105 20.8977 9.72464 21.9299C9.52726 22.6424 9.70081 23.2744 10.2425 23.7726C10.8085 24.293 11.4704 24.4047 12.193 24.1351C12.2877 24.0997 12.4499 24.0274 12.4737 24.0576C12.6393 24.2662 12.8577 24.1596 13.0517 24.1881C13.3319 24.2291 13.4271 24.1186 13.4237 23.8256C13.409 22.5534 13.4209 21.2813 13.4164 20.0097C13.4141 19.3668 13.5026 19.4494 12.8407 19.4317C12.6093 19.4255 12.5191 19.5019 12.5287 19.7395C12.5435 20.0969 12.5327 20.4548 12.5327 20.8692L12.5321 20.8698ZM17.9254 20.8652C17.7615 20.8025 17.6588 20.7615 17.555 20.7233C16.2091 20.2303 14.8468 21.3474 15.0889 22.7449C15.2909 23.9111 16.4768 24.5671 17.5981 24.1351C17.6911 24.0992 17.8545 24.0325 17.8789 24.0644C18.0451 24.277 18.2651 24.1573 18.4574 24.1869C18.7115 24.2257 18.8005 24.118 18.7983 23.8535C18.7869 22.5147 18.7937 21.1758 18.7932 19.8376C18.7932 19.4369 18.792 19.4369 18.3854 19.4357C18.3474 19.4357 18.3094 19.4403 18.2719 19.4352C17.9985 19.3947 17.9044 19.511 17.9203 19.7851C17.9407 20.13 17.9254 20.4771 17.9254 20.8652ZM21.8389 20.8367C21.4163 20.6178 20.9643 20.5512 20.4964 20.656C19.4522 20.8909 18.8334 21.9601 19.1476 22.9763C19.463 23.9966 20.5865 24.5306 21.5921 24.1408C21.6863 24.1043 21.8434 24.0291 21.874 24.0627C22.0907 24.2981 22.3573 24.1476 22.596 24.183C22.7469 24.2052 22.8184 24.1243 22.8178 23.9664C22.8155 22.9313 22.8178 21.8963 22.8133 20.8606C22.8133 20.7968 22.7747 20.7062 22.7248 20.6748C22.5461 20.562 21.9846 20.668 21.8389 20.8361V20.8367ZM8.42468 20.8424C8.33053 20.8042 8.23638 20.7598 8.13825 20.7278C7.42872 20.4987 6.7674 20.5762 6.20873 21.0972C5.67843 21.5919 5.51282 22.2183 5.69204 22.9182C5.96655 23.9903 7.10487 24.5415 8.16661 24.1351C8.26077 24.0992 8.419 24.0257 8.44793 24.0581C8.65268 24.2884 8.90904 24.1545 9.13875 24.1847C9.30379 24.2063 9.37526 24.1237 9.37469 23.9521C9.37072 22.9268 9.37469 21.9014 9.36959 20.876C9.36959 20.8088 9.34406 20.7153 9.29699 20.6794C9.13648 20.5574 8.56533 20.6703 8.42468 20.8418V20.8424ZM26.1335 21.7692C26.159 21.739 26.184 21.7093 26.2095 21.6791C26.1108 21.4836 26.0427 21.263 25.9078 21.0966C25.3939 20.4645 24.0786 20.4366 23.5183 21.0288C23.0118 21.5646 23.2114 22.4343 23.9079 22.6754C24.1648 22.7643 24.4388 22.8059 24.7054 22.8658C24.8523 22.8988 25.0105 22.904 25.1455 22.9632C25.2351 23.0026 25.3417 23.1091 25.3514 23.1952C25.361 23.2847 25.2856 23.4141 25.2079 23.4768C24.8846 23.7384 24.3038 23.5902 24.107 23.2266C24.0639 23.1468 23.9533 23.0721 23.8631 23.0561C23.7071 23.0282 23.5432 23.0516 23.3827 23.0476C23.1797 23.0425 23.1116 23.1565 23.1989 23.316C23.3226 23.5429 23.4462 23.7977 23.6391 23.9533C24.1802 24.3881 25.3015 24.3819 25.8698 23.9835C26.2208 23.7372 26.3592 23.3867 26.3252 22.9706C26.2929 22.5797 26.0547 22.3243 25.7075 22.1887C25.4722 22.0969 25.2169 22.0581 24.9702 21.9966C24.7507 21.9419 24.5227 21.9111 24.3146 21.8284C24.107 21.7458 24.0837 21.5611 24.2306 21.4226C24.4836 21.185 25.1109 21.2955 25.2731 21.5982C25.3105 21.6683 25.3933 21.7549 25.4614 21.7612C25.6837 21.7817 25.9095 21.7692 26.1341 21.7692H26.1335ZM21.6001 16.7273C21.5831 16.7033 21.5661 16.6788 21.549 16.6549C21.5224 16.6469 21.4957 16.6321 21.4691 16.6321C20.2338 16.6298 18.9985 16.6253 17.7632 16.6378C17.6826 16.6384 17.5442 16.7632 17.5335 16.8441C17.4807 17.2374 17.4518 17.6352 17.4342 18.0319C17.42 18.3562 17.4461 18.3705 17.7722 18.3249C19.1283 18.1357 20.3364 17.5822 21.4555 16.8099C21.5008 16.7786 21.5519 16.7546 21.6001 16.7273ZM10.4608 16.6258C10.4807 16.6942 10.4812 16.7159 10.492 16.7278C10.5181 16.7552 10.547 16.7803 10.5782 16.8014C11.7012 17.5708 12.9099 18.1271 14.2671 18.3312C14.5269 18.3705 14.6125 18.2924 14.5966 18.0388C14.574 17.6694 14.5592 17.2989 14.5558 16.929C14.5535 16.6976 14.4554 16.6207 14.2274 16.6224C13.1124 16.631 11.9967 16.6258 10.8817 16.6258C10.7507 16.6258 10.6202 16.6258 10.4614 16.6258H10.4608ZM14.7084 22.399C14.7084 22.0006 14.7135 21.6022 14.7072 21.2038C14.6976 20.6173 14.8252 20.6526 14.1446 20.6418C13.9115 20.6378 13.8321 20.7193 13.8349 20.9541C13.8451 21.8455 13.8338 22.737 13.84 23.6284C13.844 24.2314 13.7385 24.1813 14.4327 24.1898C14.6415 24.1926 14.7152 24.1151 14.7106 23.9065C14.7004 23.4038 14.7072 22.9011 14.7078 22.3984L14.7084 22.399ZM14.7311 16.6486C15.1065 17.34 15.4797 17.9521 16.0049 18.4571C16.4116 18.1476 17.1625 17.0556 17.2493 16.6486H14.7305H14.7311ZM14.7084 19.9174C14.7088 19.5963 14.573 19.4355 14.3011 19.4352C13.9934 19.4348 13.8393 19.5782 13.8389 19.8655C13.8385 20.1782 13.9799 20.3348 14.2631 20.3351C14.5596 20.3355 14.708 20.1963 14.7084 19.9174Z" fill="#852536"/>
</svg>
