<svg width="6" height="10" viewBox="0 0 6 10" fill="none" xmlns="http://www.w3.org/2000/svg">
<path d="M5.1068 1.27741C5.35196 1.03442 5.35372 0.638695 5.11074 0.393531C4.86775 0.148366 4.47203 0.146601 4.22686 0.389587L2.73125 1.87191C2.16794 2.4302 1.70755 2.88649 1.38104 3.29305C1.04152 3.71582 0.795742 4.14493 0.730087 4.66003C0.701299 4.88588 0.701299 5.11444 0.730087 5.3403C0.795742 5.85539 1.04152 6.28451 1.38104 6.70728C1.70755 7.11384 2.16794 7.57012 2.73124 8.1284L4.22686 9.61074C4.47203 9.85372 4.86775 9.85196 5.11074 9.6068C5.35372 9.36163 5.35196 8.96591 5.10679 8.72292L3.63765 7.26683C3.04141 6.67588 2.63241 6.26918 2.35566 5.92457C2.08683 5.58983 1.9946 5.37481 1.97006 5.18225C1.95464 5.06134 1.95464 4.93899 1.97005 4.81808C1.9946 4.62551 2.08683 4.4105 2.35566 4.07575C2.63241 3.73114 3.04141 3.32444 3.63765 2.7335L5.1068 1.27741Z" fill="black"/>
</svg>
