<svg width="20" height="20" viewBox="0 0 20 20" fill="none" xmlns="http://www.w3.org/2000/svg">
<path fill-rule="evenodd" clip-rule="evenodd" d="M-4.37114e-07 10C-6.78525e-07 4.47715 4.47715 6.78525e-07 10 4.37114e-07C15.5228 1.95703e-07 20 4.47715 20 10C20 15.5228 15.5228 20 10 20C4.47715 20 -1.95703e-07 15.5228 -4.37114e-07 10ZM11.472 4.46731C11.7662 4.17573 12.2411 4.17784 12.5327 4.47204C12.8243 4.76624 12.8222 5.24111 12.528 5.53269L10.765 7.28C10.0495 7.98914 9.55869 8.47718 9.22659 8.89071C8.90399 9.2924 8.79332 9.55042 8.76387 9.7815C8.74538 9.92659 8.74538 10.0734 8.76387 10.2185C8.79332 10.4496 8.90399 10.7076 9.22659 11.1093C9.55869 11.5228 10.0495 12.0109 10.765 12.72L12.528 14.4673C12.8222 14.7589 12.8243 15.2338 12.5327 15.528C12.2411 15.8222 11.7662 15.8243 11.472 15.5327L9.6773 13.7539C9.00133 13.084 8.44886 12.5364 8.05706 12.0485C7.64963 11.5412 7.35469 11.0263 7.27591 10.4082C7.24136 10.1371 7.24136 9.86287 7.27591 9.59184C7.35469 8.97372 7.64963 8.45878 8.05706 7.95146C8.44886 7.46359 9.00133 6.91605 9.6773 6.24611L11.472 4.46731Z" fill="#852536"/>
</svg>
