<svg width="16" height="15" viewBox="0 0 16 15" fill="none" xmlns="http://www.w3.org/2000/svg">
<path d="M3.97893 0.890453C4.19456 0.717948 4.22952 0.403302 4.05702 0.187671C3.88452 -0.0279601 3.56987 -0.0629207 3.35424 0.109584L1.68757 1.44292C1.47194 1.61542 1.43698 1.93007 1.60948 2.1457C1.78199 2.36133 2.09664 2.39629 2.31227 2.22379L3.97893 0.890453Z" fill="#C2C2C2"/>
<path d="M12.6456 0.109584C12.43 -0.0629207 12.1153 -0.0279601 11.9428 0.187671C11.7703 0.403302 11.8053 0.717948 12.0209 0.890453L13.6876 2.22379C13.9032 2.39629 14.2178 2.36133 14.3904 2.1457C14.5629 1.93007 14.5279 1.61542 14.3123 1.44292L12.6456 0.109584Z" fill="#C2C2C2"/>
<path d="M8.49992 4.33335C8.49992 4.05721 8.27606 3.83335 7.99992 3.83335C7.72378 3.83335 7.49992 4.05721 7.49992 4.33335V7.66669C7.49998 8.14195 8.07461 8.38 8.41068 8.04393L9.7677 6.68691C9.96296 6.49165 9.96296 6.17506 9.7677 5.9798C9.57244 5.78454 9.25585 5.78454 9.06059 5.9798L8.49992 6.54047V4.33335Z" fill="#C2C2C2"/>
<path fill-rule="evenodd" clip-rule="evenodd" d="M7.99992 0.500018C4.04188 0.500018 0.833252 3.70864 0.833252 7.66669C0.833252 11.6247 4.04188 14.8334 7.99992 14.8334C11.958 14.8334 15.1666 11.6247 15.1666 7.66669C15.1666 3.70864 11.958 0.500018 7.99992 0.500018ZM1.83325 7.66669C1.83325 4.26093 4.59416 1.50002 7.99992 1.50002C11.4057 1.50002 14.1666 4.26093 14.1666 7.66669C14.1666 11.0724 11.4057 13.8334 7.99992 13.8334C4.59416 13.8334 1.83325 11.0724 1.83325 7.66669Z" fill="#C2C2C2"/>
</svg>
