<svg width="17" height="19" viewBox="0 0 17 19" fill="none" xmlns="http://www.w3.org/2000/svg">
<path fill-rule="evenodd" clip-rule="evenodd" d="M8.5 5.2085C6.68782 5.2085 5.21875 6.60761 5.21875 8.3335C5.21875 10.0594 6.68782 11.4585 8.5 11.4585C10.3122 11.4585 11.7812 10.0594 11.7812 8.3335C11.7812 6.60761 10.3122 5.2085 8.5 5.2085ZM6.53125 8.3335C6.53125 7.29796 7.41269 6.4585 8.5 6.4585C9.58731 6.4585 10.4688 7.29796 10.4688 8.3335C10.4688 9.36903 9.58731 10.2085 8.5 10.2085C7.41269 10.2085 6.53125 9.36903 6.53125 8.3335Z" fill="white"/>
<path fill-rule="evenodd" clip-rule="evenodd" d="M8.5 0.208496C4.22708 0.208496 0.84375 3.74414 0.84375 8.00741C0.84375 9.37468 1.55697 10.9847 2.45431 12.4956C3.36618 14.031 4.53002 15.5637 5.5504 16.8029L5.58444 16.8442C6.08249 17.4492 6.50678 17.9645 6.91821 18.3205C7.36708 18.7088 7.86207 18.9631 8.5 18.9631C9.13793 18.9631 9.63292 18.7088 10.0818 18.3205C10.4932 17.9645 10.9175 17.4492 11.4156 16.8442L11.4496 16.8029C12.47 15.5637 13.6338 14.031 14.5457 12.4956C15.443 10.9847 16.1562 9.37468 16.1562 8.00741C16.1562 3.74414 12.7729 0.208496 8.5 0.208496ZM2.15625 8.00741C2.15625 4.34659 5.04093 1.4585 8.5 1.4585C11.9591 1.4585 14.8438 4.34659 14.8438 8.00741C14.8438 9.02949 14.2841 10.3971 13.4033 11.8802C12.537 13.3388 11.4174 14.8163 10.4168 16.0316C9.8752 16.6893 9.51861 17.119 9.19928 17.3952C8.90806 17.6472 8.71365 17.7131 8.5 17.7131C8.28635 17.7131 8.09194 17.6472 7.80072 17.3952C7.48139 17.119 7.1248 16.6893 6.58321 16.0316C5.58256 14.8163 4.463 13.3388 3.59672 11.8802C2.71592 10.3971 2.15625 9.02949 2.15625 8.00741Z" fill="white"/>
</svg>
