<svg width="18" height="18" viewBox="0 0 18 18" fill="none" xmlns="http://www.w3.org/2000/svg">
<path d="M9.625 7.33317C9.625 6.98799 9.34518 6.70817 9 6.70817C8.65482 6.70817 8.375 6.98799 8.375 7.33317V9.20817H6.5C6.15482 9.20817 5.875 9.48799 5.875 9.83317C5.875 10.1783 6.15482 10.4582 6.5 10.4582H8.375V12.3332C8.375 12.6783 8.65482 12.9582 9 12.9582C9.34518 12.9582 9.625 12.6783 9.625 12.3332V10.4582H11.5C11.8452 10.4582 12.125 10.1783 12.125 9.83317C12.125 9.48799 11.8452 9.20817 11.5 9.20817H9.625V7.33317Z" fill="#2D2C2C"/>
<path fill-rule="evenodd" clip-rule="evenodd" d="M15.1498 0.956631C14.4779 0.468441 13.6909 0.249842 12.7196 0.144611C11.7678 0.0414918 10.5682 0.0414972 9.03771 0.041504H8.99077C8.02407 0.041504 7.19293 0.041504 6.4786 0.0659777C4.9174 0.119467 3.76991 0.288418 2.8502 0.956631C2.44341 1.25218 2.08567 1.60991 1.79013 2.0167C1.12191 2.93642 0.952963 4.0839 0.899474 5.6451C0.875 6.35945 0.875 7.19059 0.875 8.15732V9.87089C0.874993 11.4013 0.874988 12.601 0.978106 13.5528C1.08334 14.5241 1.30194 15.311 1.79013 15.983C2.08567 16.3898 2.44341 16.7475 2.8502 17.043C3.52213 17.5312 4.30912 17.7498 5.2804 17.8551C6.23216 17.9582 7.4318 17.9582 8.96221 17.9582H9.03773C10.5681 17.9582 11.7678 17.9582 12.7196 17.8551C13.6909 17.7498 14.4779 17.5312 15.1498 17.043C15.5566 16.7475 15.9143 16.3898 16.2099 15.983C16.6981 15.311 16.9167 14.5241 17.0219 13.5528C17.125 12.601 17.125 11.4014 17.125 9.87096V8.12878C17.125 6.59837 17.125 5.39866 17.0219 4.4469C16.9167 3.47562 16.6981 2.68864 16.2099 2.0167C15.9143 1.60991 15.5566 1.25218 15.1498 0.956631ZM9 1.2915C10.5763 1.2915 11.7083 1.29236 12.585 1.38734C13.4499 1.48105 13.9917 1.66033 14.4151 1.9679C14.7157 2.18635 14.9802 2.45076 15.1986 2.75143C15.5062 3.17477 15.6855 3.71662 15.7792 4.58154C15.8741 5.45816 15.875 6.59019 15.875 8.1665V9.83317C15.875 11.4095 15.8741 12.5415 15.7792 13.4181C15.6855 14.2831 15.5062 14.8249 15.1986 15.2482C14.9802 15.5489 14.7157 15.8133 14.4151 16.0318C13.9917 16.3393 13.4499 16.5186 12.585 16.6123C11.7083 16.7073 10.5763 16.7082 9 16.7082C7.42369 16.7082 6.29166 16.7073 5.41504 16.6123C4.55011 16.5186 4.00826 16.3393 3.58493 16.0318C3.28426 15.8133 3.01985 15.5489 2.8014 15.2482C2.49383 14.8249 2.31454 14.2831 2.22083 13.4181C2.12586 12.5415 2.125 11.4095 2.125 9.83317V8.1665C2.125 7.45955 2.12504 6.84002 2.13401 6.28998C2.52956 6.28634 2.82074 6.27403 3.08292 6.23251C5.13323 5.90777 6.74127 4.29974 7.06601 2.24942C7.10753 1.98725 7.11984 1.69606 7.12348 1.30052C7.67351 1.29155 8.29304 1.2915 9 1.2915ZM2.88737 4.9979C2.71651 5.02496 2.51865 5.03528 2.1812 5.03918C2.25934 3.90557 2.43846 3.25098 2.8014 2.75143C3.01985 2.45076 3.28426 2.18635 3.58493 1.9679C4.08447 1.60496 4.73906 1.42585 5.87268 1.34771C5.86878 1.68516 5.85846 1.88302 5.8314 2.05388C5.59137 3.56933 4.40282 4.75788 2.88737 4.9979Z" fill="#2D2C2C"/>
</svg>
