<svg width="72" height="45" viewBox="0 0 72 45" fill="none" xmlns="http://www.w3.org/2000/svg">
<path id="Vector" d="M65.5993 2.41126C65.5993 1.08018 66.6735 2.07271e-05 67.9987 2.07271e-05H69.5994C70.2361 2.07271e-05 70.8467 0.254061 71.2969 0.706255C71.7471 1.15845 72 1.77176 72 2.41126C72 3.05076 71.7471 3.66406 71.2969 4.11626C70.8467 4.56845 70.2361 4.82249 69.5994 4.82249H67.9987C67.6835 4.82249 67.3714 4.76011 67.0802 4.63893C66.789 4.51774 66.5245 4.34011 66.3016 4.11619C66.0788 3.89227 65.9021 3.62645 65.7816 3.33391C65.6611 3.04137 65.5991 2.72785 65.5993 2.41126ZM57.5422 35.3573C58.8153 35.3573 60.0362 35.8653 60.9363 36.7694C61.8365 37.6736 62.3422 38.9 62.3422 40.1787C62.3422 41.4574 61.8365 42.6837 60.9363 43.5879C60.0362 44.492 58.8153 45 57.5422 45H49.543C48.2699 45 47.049 44.492 46.1488 43.5879C45.2487 42.6837 44.743 41.4574 44.743 40.1787C44.743 38.9 45.2487 37.6736 46.1488 36.7694C47.049 35.8653 48.2699 35.3573 49.543 35.3573H57.5422ZM15.9985 32.1427C24.8357 32.1427 31.9992 24.9472 31.9992 16.0719C32.0031 13.3456 31.3132 10.6635 29.9952 8.28013L32.6389 5.62474C32.9434 5.31873 33.1849 4.95547 33.3496 4.55571C33.5144 4.15594 33.5991 3.7275 33.599 3.29484C33.5989 2.86218 33.514 2.43378 33.349 2.0341C33.1841 1.63442 32.9424 1.27128 32.6378 0.965415C32.3331 0.659553 31.9715 0.41696 31.5735 0.251485C31.1755 0.0860109 30.7489 0.000895988 30.3182 0.00100048C29.8874 0.00110496 29.4609 0.0864267 29.063 0.252094C28.6651 0.417762 28.3036 0.660531 27.9991 0.96654L25.6915 3.28439C22.9076 1.14871 19.5004 -0.00564092 15.9974 2.07271e-05C7.16247 0.0011459 0 7.19435 0 16.0719C0 24.9472 7.16247 32.1427 15.9985 32.1427ZM65.5993 16.0719C65.5993 24.9472 58.4357 32.1427 49.5985 32.1427C40.7625 32.1427 33.5989 24.9472 33.5989 16.0719C33.5989 7.19435 40.7625 0.0011459 49.5985 0.0011459C58.4357 0.0011459 65.5993 7.19547 65.5993 16.0719Z" fill="url(#paint0_linear_3020_8321)"/>
<defs>
<linearGradient id="paint0_linear_3020_8321" x1="-67.1216" y1="17.9947" x2="66.1806" y2="17.9947" gradientUnits="userSpaceOnUse">
<stop stop-color="#64C2DB"/>
<stop offset="0.307" stop-color="#7476ED"/>
<stop offset="0.604" stop-color="#C994DF"/>
<stop offset="1" stop-color="#E56F8C"/>
</linearGradient>
</defs>
</svg>
