<svg width="19" height="19" viewBox="0 0 19 19" fill="none" xmlns="http://www.w3.org/2000/svg">
<path fill-rule="evenodd" clip-rule="evenodd" d="M8.1665 0.208496C3.67919 0.208496 0.0415039 3.84618 0.0415039 8.3335C0.0415039 12.8208 3.67919 16.4585 8.1665 16.4585C12.6538 16.4585 16.2915 12.8208 16.2915 8.3335C16.2915 3.84618 12.6538 0.208496 8.1665 0.208496ZM1.2915 8.3335C1.2915 4.53654 4.36955 1.4585 8.1665 1.4585C11.9635 1.4585 15.0415 4.53654 15.0415 8.3335C15.0415 12.1305 11.9635 15.2085 8.1665 15.2085C4.36955 15.2085 1.2915 12.1305 1.2915 8.3335Z" fill="#D4D4D4"/>
<path d="M15.2752 14.5583C15.0311 14.3142 14.6354 14.3142 14.3913 14.5583C14.1472 14.8024 14.1472 15.1981 14.3913 15.4422L17.7245 18.7755C17.9686 19.0195 18.3643 19.0196 18.6084 18.7755C18.8525 18.5314 18.8525 18.1357 18.6084 17.8916L15.2752 14.5583Z" fill="#D4D4D4"/>
</svg>
