<svg width="14" height="16" viewBox="0 0 14 16" fill="none" xmlns="http://www.w3.org/2000/svg">
<path fill-rule="evenodd" clip-rule="evenodd" d="M5 0.833496C5.27614 0.833496 5.5 1.05735 5.5 1.3335V2.1739C5.94616 2.16683 6.44189 2.16683 6.99263 2.16683H7.00737C7.55811 2.16683 8.05384 2.16683 8.5 2.1739V1.3335C8.5 1.05735 8.72386 0.833496 9 0.833496C9.27614 0.833496 9.5 1.05735 9.5 1.3335V2.20922C10.5079 2.27241 11.2823 2.43573 11.9198 2.89893C12.2453 3.13537 12.5315 3.42156 12.7679 3.74699C13.1585 4.28454 13.3333 4.91412 13.4175 5.69115C13.5 6.45257 13.5 7.4123 13.5 8.63665V8.67447C13.5 9.44772 13.5 10.1125 13.4804 10.684C13.4376 11.9329 13.3025 12.8509 12.7679 13.5867C12.5315 13.9121 12.2453 14.1983 11.9198 14.4347C11.1841 14.9693 10.2661 15.1045 9.01712 15.1472C8.44561 15.1668 7.78064 15.1668 7.00719 15.1668H6.96982C5.74547 15.1668 4.78574 15.1668 4.02432 15.0843C3.24729 15.0002 2.61771 14.8253 2.08016 14.4347C1.75473 14.1983 1.46854 13.9121 1.2321 13.5867C0.841549 13.0491 0.666671 12.4195 0.582485 11.6425C0.49999 10.8811 0.499995 9.92135 0.5 8.697V8.63666C0.499995 7.41231 0.49999 6.45257 0.582485 5.69115C0.666671 4.91412 0.841549 4.28454 1.2321 3.74699C1.46854 3.42156 1.75473 3.13537 2.08016 2.89893C2.7177 2.43573 3.49206 2.27241 4.5 2.20922V1.3335C4.5 1.05735 4.72386 0.833496 5 0.833496ZM4.5 3.21166C3.59197 3.27411 3.06785 3.4174 2.66794 3.70795C2.42741 3.88271 2.21588 4.09424 2.04112 4.33477C1.79506 4.67344 1.65163 5.10692 1.57667 5.79886C1.50069 6.50016 1.5 7.40578 1.5 8.66683C1.5 9.92788 1.50069 10.8335 1.57667 11.5348C1.65163 12.2267 1.79506 12.6602 2.04112 12.9989C2.21588 13.2394 2.42741 13.451 2.66794 13.6257C3.00661 13.8718 3.44009 14.0152 4.13203 14.0902C4.83333 14.1661 5.73895 14.1668 7 14.1668C7.56557 14.1668 8.06119 14.1668 8.50122 14.1596C8.50413 13.8432 8.51398 13.6102 8.5472 13.4005C8.80699 11.7602 10.0934 10.4738 11.7337 10.214C11.9434 10.1808 12.1764 10.171 12.4928 10.168C12.5 9.72802 12.5 9.2324 12.5 8.66683C12.5 7.40578 12.4993 6.50016 12.4233 5.79886C12.3484 5.10692 12.2049 4.67344 11.9589 4.33477C11.7841 4.09424 11.5726 3.88271 11.3321 3.70795C10.9321 3.4174 10.408 3.27411 9.5 3.21166V3.3335C9.5 3.60964 9.27614 3.8335 9 3.8335C8.72386 3.8335 8.5 3.60964 8.5 3.3335V3.17402C8.06028 3.16686 7.56504 3.16683 7 3.16683C6.43496 3.16683 5.93972 3.16686 5.5 3.17402V3.3335C5.5 3.60964 5.27614 3.8335 5 3.8335C4.72386 3.8335 4.5 3.60964 4.5 3.3335V3.21166ZM12.455 11.1687C12.1851 11.1718 12.0268 11.1801 11.8901 11.2017C10.6777 11.3937 9.7269 12.3446 9.53488 13.5569C9.51323 13.6936 9.50498 13.8519 9.50186 14.1219C10.4088 14.0594 10.9324 13.9161 11.3321 13.6257C11.5726 13.451 11.7841 13.2394 11.9589 12.9989C12.2492 12.5993 12.3925 12.0756 12.455 11.1687Z" fill="#C2C2C2"/>
<path d="M4.33333 6.00016C4.33333 6.36835 4.03486 6.66683 3.66667 6.66683C3.29848 6.66683 3 6.36835 3 6.00016C3 5.63197 3.29848 5.3335 3.66667 5.3335C4.03486 5.3335 4.33333 5.63197 4.33333 6.00016Z" fill="#C2C2C2"/>
<path d="M4.33333 8.66683C4.33333 9.03502 4.03486 9.3335 3.66667 9.3335C3.29848 9.3335 3 9.03502 3 8.66683C3 8.29864 3.29848 8.00016 3.66667 8.00016C4.03486 8.00016 4.33333 8.29864 4.33333 8.66683Z" fill="#C2C2C2"/>
<path d="M7.66667 6.00016C7.66667 6.36835 7.36819 6.66683 7 6.66683C6.63181 6.66683 6.33333 6.36835 6.33333 6.00016C6.33333 5.63197 6.63181 5.3335 7 5.3335C7.36819 5.3335 7.66667 5.63197 7.66667 6.00016Z" fill="#C2C2C2"/>
<path d="M7.66667 8.66683C7.66667 9.03502 7.36819 9.3335 7 9.3335C6.63181 9.3335 6.33333 9.03502 6.33333 8.66683C6.33333 8.29864 6.63181 8.00016 7 8.00016C7.36819 8.00016 7.66667 8.29864 7.66667 8.66683Z" fill="#C2C2C2"/>
<path d="M7.66667 11.3335C7.66667 11.7017 7.36819 12.0002 7 12.0002C6.63181 12.0002 6.33333 11.7017 6.33333 11.3335C6.33333 10.9653 6.63181 10.6668 7 10.6668C7.36819 10.6668 7.66667 10.9653 7.66667 11.3335Z" fill="#C2C2C2"/>
<path d="M11 6.00016C11 6.36835 10.7015 6.66683 10.3333 6.66683C9.96514 6.66683 9.66667 6.36835 9.66667 6.00016C9.66667 5.63197 9.96514 5.3335 10.3333 5.3335C10.7015 5.3335 11 5.63197 11 6.00016Z" fill="#C2C2C2"/>
<path d="M11 8.66683C11 9.03502 10.7015 9.3335 10.3333 9.3335C9.96514 9.3335 9.66667 9.03502 9.66667 8.66683C9.66667 8.29864 9.96514 8.00016 10.3333 8.00016C10.7015 8.00016 11 8.29864 11 8.66683Z" fill="#C2C2C2"/>
<path d="M4.33333 11.3335C4.33333 11.7017 4.03486 12.0002 3.66667 12.0002C3.29848 12.0002 3 11.7017 3 11.3335C3 10.9653 3.29848 10.6668 3.66667 10.6668C4.03486 10.6668 4.33333 10.9653 4.33333 11.3335Z" fill="#C2C2C2"/>
</svg>
