<svg width="22" height="22" viewBox="0 0 22 22" fill="none" xmlns="http://www.w3.org/2000/svg">
<g id="Wallet">
<path id="Vector" d="M3.38668 20.2632L3.77855 19.6237L3.38668 20.2632ZM1.73597 18.6125L2.37545 18.2206H2.37545L1.73597 18.6125ZM20.2624 18.6125L19.6229 18.2206L20.2624 18.6125ZM18.6117 20.2632L18.2198 19.6237L18.6117 20.2632ZM18.6117 4.7368L18.2198 5.37628L18.6117 4.7368ZM20.2624 6.38751L19.6229 6.77938L20.2624 6.38751ZM3.38668 4.7368L3.77855 5.37628H3.77855L3.38668 4.7368ZM1.73597 6.38751L2.37545 6.77938H2.37545L1.73597 6.38751ZM17.476 1.54645L18.0172 1.02728V1.02728L17.476 1.54645ZM2.84339 1.89079L3.29624 2.48865V2.48865L2.84339 1.89079ZM1.85362 2.92267L2.46894 3.35148L1.85362 2.92267ZM17.9992 4.13032H18.7492L18.7492 4.12662L17.9992 4.13032ZM17.3628 12.6137C17.777 12.6137 18.1128 12.2779 18.1128 11.8637C18.1128 11.4494 17.777 11.1137 17.3628 11.1137V12.6137ZM14.6355 11.1137C14.2213 11.1137 13.8855 11.4494 13.8855 11.8637C13.8855 12.2779 14.2213 12.6137 14.6355 12.6137V11.1137ZM9.49917 4.75H12.4992V3.25H9.49917V4.75ZM12.4992 20.25H9.49917V21.75H12.4992V20.25ZM9.49917 20.25C7.84794 20.25 6.66218 20.2492 5.73726 20.1613C4.82351 20.0744 4.24208 19.9078 3.77855 19.6237L2.99481 20.9027C3.73363 21.3554 4.57173 21.5572 5.59528 21.6545C6.60767 21.7508 7.87698 21.75 9.49917 21.75V20.25ZM0.249174 12.5C0.249174 14.1222 0.248383 15.3915 0.344641 16.4039C0.441961 17.4274 0.643743 18.2655 1.09649 19.0044L2.37545 18.2206C2.0914 17.7571 1.92479 17.1757 1.83791 16.2619C1.74997 15.337 1.74917 14.1512 1.74917 12.5H0.249174ZM3.77855 19.6237C3.20669 19.2733 2.72589 18.7925 2.37545 18.2206L1.09649 19.0044C1.57061 19.7781 2.22111 20.4286 2.99481 20.9027L3.77855 19.6237ZM12.4992 21.75C14.1214 21.75 15.3907 21.7508 16.4031 21.6545C17.4266 21.5572 18.2647 21.3554 19.0035 20.9027L18.2198 19.6237C17.7563 19.9078 17.1748 20.0744 16.2611 20.1613C15.3362 20.2492 14.1504 20.25 12.4992 20.25V21.75ZM19.6229 18.2206C19.2725 18.7925 18.7917 19.2733 18.2198 19.6237L19.0035 20.9027C19.7772 20.4286 20.4277 19.7781 20.9019 19.0044L19.6229 18.2206ZM18.2198 5.37628C18.7917 5.72672 19.2725 6.20752 19.6229 6.77938L20.9019 5.99563C20.4277 5.22194 19.7772 4.57144 19.0035 4.09732L18.2198 5.37628ZM9.49917 3.25C7.87698 3.25 6.60767 3.24921 5.59528 3.34547C4.57173 3.44279 3.73363 3.64457 2.99481 4.09732L3.77855 5.37628C4.24208 5.09223 4.82351 4.92561 5.73726 4.83873C6.66218 4.75079 7.84794 4.75 9.49917 4.75V3.25ZM1.74917 12.5C1.74917 10.8488 1.74997 9.663 1.83791 8.73809C1.92479 7.82434 2.0914 7.24291 2.37545 6.77938L1.09649 5.99563C0.643743 6.73445 0.441961 7.57256 0.344641 8.59611C0.248383 9.6085 0.249174 10.8778 0.249174 12.5H1.74917ZM2.99481 4.09732C2.22111 4.57144 1.57061 5.22194 1.09649 5.99563L2.37545 6.77938C2.72589 6.20752 3.20669 5.72672 3.77855 5.37628L2.99481 4.09732ZM9.05225 1.75H14.421V0.25H9.05225V1.75ZM14.421 1.75C15.2867 1.75 15.8573 1.75173 16.2805 1.81105C16.6788 1.86687 16.8338 1.96039 16.9347 2.06562L18.0172 1.02728C17.594 0.586062 17.0651 0.406351 16.4887 0.325567C15.9373 0.248272 15.2425 0.25 14.421 0.25V1.75ZM9.05225 0.25C7.39205 0.25 6.08411 0.248882 5.04645 0.366088C3.99284 0.485096 3.12886 0.733701 2.39055 1.29293L3.29624 2.48865C3.73397 2.15709 4.29681 1.9603 5.21481 1.85661C6.14877 1.75112 7.35724 1.75 9.05225 1.75V0.25ZM1.74917 9.39563C1.74917 7.63063 1.75012 6.36468 1.85196 5.38472C1.95253 4.41704 2.14467 3.81679 2.46894 3.35148L1.2383 2.49385C0.708123 3.25462 0.473044 4.14188 0.359997 5.22968C0.248226 6.3052 0.249174 7.6627 0.249174 9.39563H1.74917ZM2.39055 1.29293C1.94723 1.62872 1.55862 2.03422 1.2383 2.49385L2.46894 3.35148C2.70052 3.01918 2.97993 2.72823 3.29624 2.48865L2.39055 1.29293ZM18.7492 4.12662C18.7458 3.44995 18.7314 2.86358 18.6467 2.37747C18.5586 1.87228 18.3846 1.41025 18.0172 1.02728L16.9347 2.06562C17.028 2.16295 17.1123 2.30988 17.1689 2.63506C17.2289 2.97932 17.2458 3.44473 17.2492 4.13403L18.7492 4.12662ZM0.249174 9.39563C0.249174 10.3713 0.229014 11.2642 0.249431 12.0202L1.74888 11.9798C1.72913 11.2482 1.74917 10.424 1.74917 9.39563H0.249174ZM20.4991 13.8409H14.6355V15.3409H20.4991V13.8409ZM11.1583 11.8637C11.1583 13.7841 12.7151 15.3409 14.6355 15.3409V13.8409C13.5435 13.8409 12.6583 12.9557 12.6583 11.8637H11.1583ZM12.6583 11.8637C12.6583 10.7716 13.5435 9.88638 14.6355 9.88638V8.38638C12.7151 8.38638 11.1583 9.94321 11.1583 11.8637H12.6583ZM17.3628 11.1137H14.6355V12.6137H17.3628V11.1137ZM12.4992 4.75C13.8838 4.75 14.9441 4.75032 15.8027 4.8033C16.6605 4.85623 17.2602 4.95942 17.7329 5.13895L18.2654 3.73667C17.5854 3.47839 16.8111 3.36267 15.8951 3.30615C14.9799 3.24968 13.8666 3.25 12.4992 3.25V4.75ZM17.7329 5.13895C17.91 5.20619 18.0702 5.2846 18.2198 5.37628L19.0035 4.09732C18.7701 3.95427 18.5252 3.83534 18.2654 3.73667L17.7329 5.13895ZM17.2492 4.13032V4.43781H18.7492V4.13032H17.2492ZM14.6355 9.88638H20.9436V8.38638H14.6355V9.88638ZM21.7492 12.5C21.7492 11.1255 21.7495 10.0077 21.6921 9.08959L20.195 9.18316C20.2488 10.0439 20.2492 11.108 20.2492 12.5H21.7492ZM21.6921 9.08959C21.6137 7.83476 21.4239 6.84749 20.9019 5.99563L19.6229 6.77938C19.9518 7.3161 20.1215 8.00707 20.195 9.18316L21.6921 9.08959ZM20.2492 12.5C20.2492 13.2875 20.2492 13.9722 20.2391 14.5785L21.7389 14.6034C21.7492 13.9821 21.7492 13.2839 21.7492 12.5H20.2492ZM20.2391 14.5785C20.2066 16.537 20.0626 17.5031 19.6229 18.2206L20.9019 19.0044C21.582 17.8944 21.7069 16.5313 21.7389 14.6034L20.2391 14.5785ZM20.4991 15.3409H20.989V13.8409H20.4991V15.3409Z" fill="#1D1D1D"/>
</g>
</svg>
